<?xml version="1.0" encoding="utf-8" standalone="no"?>
<!DOCTYPE svg PUBLIC "-//W3C//DTD SVG 1.1//EN"
  "http://www.w3.org/Graphics/SVG/1.1/DTD/svg11.dtd">
<svg height="330.541644pt" version="1.1" viewBox="0 0 1000.098125 330.541644" width="1000.098125pt" xmlns="http://www.w3.org/2000/svg" xmlns:xlink="http://www.w3.org/1999/xlink">
 <metadata>
  <rdf:RDF xmlns:cc="http://creativecommons.org/ns#" xmlns:dc="http://purl.org/dc/elements/1.1/" xmlns:rdf="http://www.w3.org/1999/02/22-rdf-syntax-ns#">
   <cc:Work>
    <dc:type rdf:resource="http://purl.org/dc/dcmitype/StillImage"/>
    <dc:date>2024-09-06T15:37:25.143941</dc:date>
    <dc:format>image/svg+xml</dc:format>
    <dc:creator>
     <cc:Agent>
      <dc:title>Matplotlib v3.4.2, https://matplotlib.org/</dc:title>
     </cc:Agent>
    </dc:creator>
   </cc:Work>
  </rdf:RDF>
 </metadata>
 <defs>
  <style type="text/css">*{stroke-linecap:butt;stroke-linejoin:round;}</style>
 </defs>
 <g id="figure_1">
  <g id="axes_1">
   <g id="patch_1">
    <path d="M 58.418125 273.99006 
L 985.263125 273.99006 
L 985.263125 31.48286 
L 58.418125 31.48286 
z
" style="fill:#ffffff;"/>
   </g>
   <g id="matplotlib.axis_1">
    <g id="xtick_1">
     <g id="text_1">
      <!-- 0 -->
      <g transform="translate(55.873125 287.06881)scale(0.08 -0.08)">
       <defs>
        <path d="M 2034 4250 
Q 1547 4250 1301 3770 
Q 1056 3291 1056 2328 
Q 1056 1369 1301 889 
Q 1547 409 2034 409 
Q 2525 409 2770 889 
Q 3016 1369 3016 2328 
Q 3016 3291 2770 3770 
Q 2525 4250 2034 4250 
z
M 2034 4750 
Q 2819 4750 3233 4129 
Q 3647 3509 3647 2328 
Q 3647 1150 3233 529 
Q 2819 -91 2034 -91 
Q 1250 -91 836 529 
Q 422 1150 422 2328 
Q 422 3509 836 4129 
Q 1250 4750 2034 4750 
z
" id="DejaVuSans-30" transform="scale(0.015625)"/>
       </defs>
       <use xlink:href="#DejaVuSans-30"/>
      </g>
     </g>
    </g>
    <g id="xtick_2">
     <g id="text_2">
      <!-- 20 -->
      <g transform="translate(238.697125 287.06881)scale(0.08 -0.08)">
       <defs>
        <path d="M 1228 531 
L 3431 531 
L 3431 0 
L 469 0 
L 469 531 
Q 828 903 1448 1529 
Q 2069 2156 2228 2338 
Q 2531 2678 2651 2914 
Q 2772 3150 2772 3378 
Q 2772 3750 2511 3984 
Q 2250 4219 1831 4219 
Q 1534 4219 1204 4116 
Q 875 4013 500 3803 
L 500 4441 
Q 881 4594 1212 4672 
Q 1544 4750 1819 4750 
Q 2544 4750 2975 4387 
Q 3406 4025 3406 3419 
Q 3406 3131 3298 2873 
Q 3191 2616 2906 2266 
Q 2828 2175 2409 1742 
Q 1991 1309 1228 531 
z
" id="DejaVuSans-32" transform="scale(0.015625)"/>
       </defs>
       <use xlink:href="#DejaVuSans-32"/>
       <use x="63.623047" xlink:href="#DejaVuSans-30"/>
      </g>
     </g>
    </g>
    <g id="xtick_3">
     <g id="text_3">
      <!-- 40 -->
      <g transform="translate(424.066125 287.06881)scale(0.08 -0.08)">
       <defs>
        <path d="M 2419 4116 
L 825 1625 
L 2419 1625 
L 2419 4116 
z
M 2253 4666 
L 3047 4666 
L 3047 1625 
L 3713 1625 
L 3713 1100 
L 3047 1100 
L 3047 0 
L 2419 0 
L 2419 1100 
L 313 1100 
L 313 1709 
L 2253 4666 
z
" id="DejaVuSans-34" transform="scale(0.015625)"/>
       </defs>
       <use xlink:href="#DejaVuSans-34"/>
       <use x="63.623047" xlink:href="#DejaVuSans-30"/>
      </g>
     </g>
    </g>
    <g id="xtick_4">
     <g id="text_4">
      <!-- 60 -->
      <g transform="translate(609.435125 287.06881)scale(0.08 -0.08)">
       <defs>
        <path d="M 2113 2584 
Q 1688 2584 1439 2293 
Q 1191 2003 1191 1497 
Q 1191 994 1439 701 
Q 1688 409 2113 409 
Q 2538 409 2786 701 
Q 3034 994 3034 1497 
Q 3034 2003 2786 2293 
Q 2538 2584 2113 2584 
z
M 3366 4563 
L 3366 3988 
Q 3128 4100 2886 4159 
Q 2644 4219 2406 4219 
Q 1781 4219 1451 3797 
Q 1122 3375 1075 2522 
Q 1259 2794 1537 2939 
Q 1816 3084 2150 3084 
Q 2853 3084 3261 2657 
Q 3669 2231 3669 1497 
Q 3669 778 3244 343 
Q 2819 -91 2113 -91 
Q 1303 -91 875 529 
Q 447 1150 447 2328 
Q 447 3434 972 4092 
Q 1497 4750 2381 4750 
Q 2619 4750 2861 4703 
Q 3103 4656 3366 4563 
z
" id="DejaVuSans-36" transform="scale(0.015625)"/>
       </defs>
       <use xlink:href="#DejaVuSans-36"/>
       <use x="63.623047" xlink:href="#DejaVuSans-30"/>
      </g>
     </g>
    </g>
    <g id="xtick_5">
     <g id="text_5">
      <!-- 80 -->
      <g transform="translate(794.804125 287.06881)scale(0.08 -0.08)">
       <defs>
        <path d="M 2034 2216 
Q 1584 2216 1326 1975 
Q 1069 1734 1069 1313 
Q 1069 891 1326 650 
Q 1584 409 2034 409 
Q 2484 409 2743 651 
Q 3003 894 3003 1313 
Q 3003 1734 2745 1975 
Q 2488 2216 2034 2216 
z
M 1403 2484 
Q 997 2584 770 2862 
Q 544 3141 544 3541 
Q 544 4100 942 4425 
Q 1341 4750 2034 4750 
Q 2731 4750 3128 4425 
Q 3525 4100 3525 3541 
Q 3525 3141 3298 2862 
Q 3072 2584 2669 2484 
Q 3125 2378 3379 2068 
Q 3634 1759 3634 1313 
Q 3634 634 3220 271 
Q 2806 -91 2034 -91 
Q 1263 -91 848 271 
Q 434 634 434 1313 
Q 434 1759 690 2068 
Q 947 2378 1403 2484 
z
M 1172 3481 
Q 1172 3119 1398 2916 
Q 1625 2713 2034 2713 
Q 2441 2713 2670 2916 
Q 2900 3119 2900 3481 
Q 2900 3844 2670 4047 
Q 2441 4250 2034 4250 
Q 1625 4250 1398 4047 
Q 1172 3844 1172 3481 
z
" id="DejaVuSans-38" transform="scale(0.015625)"/>
       </defs>
       <use xlink:href="#DejaVuSans-38"/>
       <use x="63.623047" xlink:href="#DejaVuSans-30"/>
      </g>
     </g>
    </g>
    <g id="xtick_6">
     <g id="text_6">
      <!-- 100 -->
      <g transform="translate(977.628125 287.06881)scale(0.08 -0.08)">
       <defs>
        <path d="M 794 531 
L 1825 531 
L 1825 4091 
L 703 3866 
L 703 4441 
L 1819 4666 
L 2450 4666 
L 2450 531 
L 3481 531 
L 3481 0 
L 794 0 
L 794 531 
z
" id="DejaVuSans-31" transform="scale(0.015625)"/>
       </defs>
       <use xlink:href="#DejaVuSans-31"/>
       <use x="63.623047" xlink:href="#DejaVuSans-30"/>
       <use x="127.246094" xlink:href="#DejaVuSans-30"/>
      </g>
     </g>
    </g>
    <g id="text_7">
     <!-- Transcript Position (%) -->
     <g transform="translate(466.008594 300.330997)scale(0.1 -0.1)">
      <defs>
       <path d="M -19 4666 
L 3928 4666 
L 3928 4134 
L 2272 4134 
L 2272 0 
L 1638 0 
L 1638 4134 
L -19 4134 
L -19 4666 
z
" id="DejaVuSans-54" transform="scale(0.015625)"/>
       <path d="M 2631 2963 
Q 2534 3019 2420 3045 
Q 2306 3072 2169 3072 
Q 1681 3072 1420 2755 
Q 1159 2438 1159 1844 
L 1159 0 
L 581 0 
L 581 3500 
L 1159 3500 
L 1159 2956 
Q 1341 3275 1631 3429 
Q 1922 3584 2338 3584 
Q 2397 3584 2469 3576 
Q 2541 3569 2628 3553 
L 2631 2963 
z
" id="DejaVuSans-72" transform="scale(0.015625)"/>
       <path d="M 2194 1759 
Q 1497 1759 1228 1600 
Q 959 1441 959 1056 
Q 959 750 1161 570 
Q 1363 391 1709 391 
Q 2188 391 2477 730 
Q 2766 1069 2766 1631 
L 2766 1759 
L 2194 1759 
z
M 3341 1997 
L 3341 0 
L 2766 0 
L 2766 531 
Q 2569 213 2275 61 
Q 1981 -91 1556 -91 
Q 1019 -91 701 211 
Q 384 513 384 1019 
Q 384 1609 779 1909 
Q 1175 2209 1959 2209 
L 2766 2209 
L 2766 2266 
Q 2766 2663 2505 2880 
Q 2244 3097 1772 3097 
Q 1472 3097 1187 3025 
Q 903 2953 641 2809 
L 641 3341 
Q 956 3463 1253 3523 
Q 1550 3584 1831 3584 
Q 2591 3584 2966 3190 
Q 3341 2797 3341 1997 
z
" id="DejaVuSans-61" transform="scale(0.015625)"/>
       <path d="M 3513 2113 
L 3513 0 
L 2938 0 
L 2938 2094 
Q 2938 2591 2744 2837 
Q 2550 3084 2163 3084 
Q 1697 3084 1428 2787 
Q 1159 2491 1159 1978 
L 1159 0 
L 581 0 
L 581 3500 
L 1159 3500 
L 1159 2956 
Q 1366 3272 1645 3428 
Q 1925 3584 2291 3584 
Q 2894 3584 3203 3211 
Q 3513 2838 3513 2113 
z
" id="DejaVuSans-6e" transform="scale(0.015625)"/>
       <path d="M 2834 3397 
L 2834 2853 
Q 2591 2978 2328 3040 
Q 2066 3103 1784 3103 
Q 1356 3103 1142 2972 
Q 928 2841 928 2578 
Q 928 2378 1081 2264 
Q 1234 2150 1697 2047 
L 1894 2003 
Q 2506 1872 2764 1633 
Q 3022 1394 3022 966 
Q 3022 478 2636 193 
Q 2250 -91 1575 -91 
Q 1294 -91 989 -36 
Q 684 19 347 128 
L 347 722 
Q 666 556 975 473 
Q 1284 391 1588 391 
Q 1994 391 2212 530 
Q 2431 669 2431 922 
Q 2431 1156 2273 1281 
Q 2116 1406 1581 1522 
L 1381 1569 
Q 847 1681 609 1914 
Q 372 2147 372 2553 
Q 372 3047 722 3315 
Q 1072 3584 1716 3584 
Q 2034 3584 2315 3537 
Q 2597 3491 2834 3397 
z
" id="DejaVuSans-73" transform="scale(0.015625)"/>
       <path d="M 3122 3366 
L 3122 2828 
Q 2878 2963 2633 3030 
Q 2388 3097 2138 3097 
Q 1578 3097 1268 2742 
Q 959 2388 959 1747 
Q 959 1106 1268 751 
Q 1578 397 2138 397 
Q 2388 397 2633 464 
Q 2878 531 3122 666 
L 3122 134 
Q 2881 22 2623 -34 
Q 2366 -91 2075 -91 
Q 1284 -91 818 406 
Q 353 903 353 1747 
Q 353 2603 823 3093 
Q 1294 3584 2113 3584 
Q 2378 3584 2631 3529 
Q 2884 3475 3122 3366 
z
" id="DejaVuSans-63" transform="scale(0.015625)"/>
       <path d="M 603 3500 
L 1178 3500 
L 1178 0 
L 603 0 
L 603 3500 
z
M 603 4863 
L 1178 4863 
L 1178 4134 
L 603 4134 
L 603 4863 
z
" id="DejaVuSans-69" transform="scale(0.015625)"/>
       <path d="M 1159 525 
L 1159 -1331 
L 581 -1331 
L 581 3500 
L 1159 3500 
L 1159 2969 
Q 1341 3281 1617 3432 
Q 1894 3584 2278 3584 
Q 2916 3584 3314 3078 
Q 3713 2572 3713 1747 
Q 3713 922 3314 415 
Q 2916 -91 2278 -91 
Q 1894 -91 1617 61 
Q 1341 213 1159 525 
z
M 3116 1747 
Q 3116 2381 2855 2742 
Q 2594 3103 2138 3103 
Q 1681 3103 1420 2742 
Q 1159 2381 1159 1747 
Q 1159 1113 1420 752 
Q 1681 391 2138 391 
Q 2594 391 2855 752 
Q 3116 1113 3116 1747 
z
" id="DejaVuSans-70" transform="scale(0.015625)"/>
       <path d="M 1172 4494 
L 1172 3500 
L 2356 3500 
L 2356 3053 
L 1172 3053 
L 1172 1153 
Q 1172 725 1289 603 
Q 1406 481 1766 481 
L 2356 481 
L 2356 0 
L 1766 0 
Q 1100 0 847 248 
Q 594 497 594 1153 
L 594 3053 
L 172 3053 
L 172 3500 
L 594 3500 
L 594 4494 
L 1172 4494 
z
" id="DejaVuSans-74" transform="scale(0.015625)"/>
       <path id="DejaVuSans-20" transform="scale(0.015625)"/>
       <path d="M 1259 4147 
L 1259 2394 
L 2053 2394 
Q 2494 2394 2734 2622 
Q 2975 2850 2975 3272 
Q 2975 3691 2734 3919 
Q 2494 4147 2053 4147 
L 1259 4147 
z
M 628 4666 
L 2053 4666 
Q 2838 4666 3239 4311 
Q 3641 3956 3641 3272 
Q 3641 2581 3239 2228 
Q 2838 1875 2053 1875 
L 1259 1875 
L 1259 0 
L 628 0 
L 628 4666 
z
" id="DejaVuSans-50" transform="scale(0.015625)"/>
       <path d="M 1959 3097 
Q 1497 3097 1228 2736 
Q 959 2375 959 1747 
Q 959 1119 1226 758 
Q 1494 397 1959 397 
Q 2419 397 2687 759 
Q 2956 1122 2956 1747 
Q 2956 2369 2687 2733 
Q 2419 3097 1959 3097 
z
M 1959 3584 
Q 2709 3584 3137 3096 
Q 3566 2609 3566 1747 
Q 3566 888 3137 398 
Q 2709 -91 1959 -91 
Q 1206 -91 779 398 
Q 353 888 353 1747 
Q 353 2609 779 3096 
Q 1206 3584 1959 3584 
z
" id="DejaVuSans-6f" transform="scale(0.015625)"/>
       <path d="M 1984 4856 
Q 1566 4138 1362 3434 
Q 1159 2731 1159 2009 
Q 1159 1288 1364 580 
Q 1569 -128 1984 -844 
L 1484 -844 
Q 1016 -109 783 600 
Q 550 1309 550 2009 
Q 550 2706 781 3412 
Q 1013 4119 1484 4856 
L 1984 4856 
z
" id="DejaVuSans-28" transform="scale(0.015625)"/>
       <path d="M 4653 2053 
Q 4381 2053 4226 1822 
Q 4072 1591 4072 1178 
Q 4072 772 4226 539 
Q 4381 306 4653 306 
Q 4919 306 5073 539 
Q 5228 772 5228 1178 
Q 5228 1588 5073 1820 
Q 4919 2053 4653 2053 
z
M 4653 2450 
Q 5147 2450 5437 2106 
Q 5728 1763 5728 1178 
Q 5728 594 5436 251 
Q 5144 -91 4653 -91 
Q 4153 -91 3862 251 
Q 3572 594 3572 1178 
Q 3572 1766 3864 2108 
Q 4156 2450 4653 2450 
z
M 1428 4353 
Q 1159 4353 1004 4120 
Q 850 3888 850 3481 
Q 850 3069 1003 2837 
Q 1156 2606 1428 2606 
Q 1700 2606 1854 2837 
Q 2009 3069 2009 3481 
Q 2009 3884 1853 4118 
Q 1697 4353 1428 4353 
z
M 4250 4750 
L 4750 4750 
L 1831 -91 
L 1331 -91 
L 4250 4750 
z
M 1428 4750 
Q 1922 4750 2215 4408 
Q 2509 4066 2509 3481 
Q 2509 2891 2217 2550 
Q 1925 2209 1428 2209 
Q 931 2209 642 2551 
Q 353 2894 353 3481 
Q 353 4063 643 4406 
Q 934 4750 1428 4750 
z
" id="DejaVuSans-25" transform="scale(0.015625)"/>
       <path d="M 513 4856 
L 1013 4856 
Q 1481 4119 1714 3412 
Q 1947 2706 1947 2009 
Q 1947 1309 1714 600 
Q 1481 -109 1013 -844 
L 513 -844 
Q 928 -128 1133 580 
Q 1338 1288 1338 2009 
Q 1338 2731 1133 3434 
Q 928 4138 513 4856 
z
" id="DejaVuSans-29" transform="scale(0.015625)"/>
      </defs>
      <use xlink:href="#DejaVuSans-54"/>
      <use x="46.333984" xlink:href="#DejaVuSans-72"/>
      <use x="87.447266" xlink:href="#DejaVuSans-61"/>
      <use x="148.726562" xlink:href="#DejaVuSans-6e"/>
      <use x="212.105469" xlink:href="#DejaVuSans-73"/>
      <use x="264.205078" xlink:href="#DejaVuSans-63"/>
      <use x="319.185547" xlink:href="#DejaVuSans-72"/>
      <use x="360.298828" xlink:href="#DejaVuSans-69"/>
      <use x="388.082031" xlink:href="#DejaVuSans-70"/>
      <use x="451.558594" xlink:href="#DejaVuSans-74"/>
      <use x="490.767578" xlink:href="#DejaVuSans-20"/>
      <use x="522.554688" xlink:href="#DejaVuSans-50"/>
      <use x="579.232422" xlink:href="#DejaVuSans-6f"/>
      <use x="640.414062" xlink:href="#DejaVuSans-73"/>
      <use x="692.513672" xlink:href="#DejaVuSans-69"/>
      <use x="720.296875" xlink:href="#DejaVuSans-74"/>
      <use x="759.505859" xlink:href="#DejaVuSans-69"/>
      <use x="787.289062" xlink:href="#DejaVuSans-6f"/>
      <use x="848.470703" xlink:href="#DejaVuSans-6e"/>
      <use x="911.849609" xlink:href="#DejaVuSans-20"/>
      <use x="943.636719" xlink:href="#DejaVuSans-28"/>
      <use x="982.650391" xlink:href="#DejaVuSans-25"/>
      <use x="1077.669922" xlink:href="#DejaVuSans-29"/>
     </g>
    </g>
   </g>
   <g id="matplotlib.axis_2">
    <g id="ytick_1">
     <g id="line2d_1">
      <path clip-path="url(#p5b4cc9f68f)" d="M 58.418125 273.99006 
L 985.263125 273.99006 
" style="fill:none;stroke:#dedede;stroke-linecap:square;"/>
     </g>
     <g id="text_8">
      <!-- 0 -->
      <g transform="translate(46.328125 277.029435)scale(0.08 -0.08)">
       <use xlink:href="#DejaVuSans-30"/>
      </g>
     </g>
    </g>
    <g id="ytick_2">
     <g id="line2d_2">
      <path clip-path="url(#p5b4cc9f68f)" d="M 58.418125 241.213344 
L 985.263125 241.213344 
" style="fill:none;stroke:#dedede;stroke-linecap:square;"/>
     </g>
     <g id="text_9">
      <!-- 50000 -->
      <g transform="translate(25.968125 244.252719)scale(0.08 -0.08)">
       <defs>
        <path d="M 691 4666 
L 3169 4666 
L 3169 4134 
L 1269 4134 
L 1269 2991 
Q 1406 3038 1543 3061 
Q 1681 3084 1819 3084 
Q 2600 3084 3056 2656 
Q 3513 2228 3513 1497 
Q 3513 744 3044 326 
Q 2575 -91 1722 -91 
Q 1428 -91 1123 -41 
Q 819 9 494 109 
L 494 744 
Q 775 591 1075 516 
Q 1375 441 1709 441 
Q 2250 441 2565 725 
Q 2881 1009 2881 1497 
Q 2881 1984 2565 2268 
Q 2250 2553 1709 2553 
Q 1456 2553 1204 2497 
Q 953 2441 691 2322 
L 691 4666 
z
" id="DejaVuSans-35" transform="scale(0.015625)"/>
       </defs>
       <use xlink:href="#DejaVuSans-35"/>
       <use x="63.623047" xlink:href="#DejaVuSans-30"/>
       <use x="127.246094" xlink:href="#DejaVuSans-30"/>
       <use x="190.869141" xlink:href="#DejaVuSans-30"/>
       <use x="254.492188" xlink:href="#DejaVuSans-30"/>
      </g>
     </g>
    </g>
    <g id="ytick_3">
     <g id="line2d_3">
      <path clip-path="url(#p5b4cc9f68f)" d="M 58.418125 208.436627 
L 985.263125 208.436627 
" style="fill:none;stroke:#dedede;stroke-linecap:square;"/>
     </g>
     <g id="text_10">
      <!-- 100000 -->
      <g transform="translate(20.878125 211.476002)scale(0.08 -0.08)">
       <use xlink:href="#DejaVuSans-31"/>
       <use x="63.623047" xlink:href="#DejaVuSans-30"/>
       <use x="127.246094" xlink:href="#DejaVuSans-30"/>
       <use x="190.869141" xlink:href="#DejaVuSans-30"/>
       <use x="254.492188" xlink:href="#DejaVuSans-30"/>
       <use x="318.115234" xlink:href="#DejaVuSans-30"/>
      </g>
     </g>
    </g>
    <g id="ytick_4">
     <g id="line2d_4">
      <path clip-path="url(#p5b4cc9f68f)" d="M 58.418125 175.659911 
L 985.263125 175.659911 
" style="fill:none;stroke:#dedede;stroke-linecap:square;"/>
     </g>
     <g id="text_11">
      <!-- 150000 -->
      <g transform="translate(20.878125 178.699286)scale(0.08 -0.08)">
       <use xlink:href="#DejaVuSans-31"/>
       <use x="63.623047" xlink:href="#DejaVuSans-35"/>
       <use x="127.246094" xlink:href="#DejaVuSans-30"/>
       <use x="190.869141" xlink:href="#DejaVuSans-30"/>
       <use x="254.492188" xlink:href="#DejaVuSans-30"/>
       <use x="318.115234" xlink:href="#DejaVuSans-30"/>
      </g>
     </g>
    </g>
    <g id="ytick_5">
     <g id="line2d_5">
      <path clip-path="url(#p5b4cc9f68f)" d="M 58.418125 142.883194 
L 985.263125 142.883194 
" style="fill:none;stroke:#dedede;stroke-linecap:square;"/>
     </g>
     <g id="text_12">
      <!-- 200000 -->
      <g transform="translate(20.878125 145.922569)scale(0.08 -0.08)">
       <use xlink:href="#DejaVuSans-32"/>
       <use x="63.623047" xlink:href="#DejaVuSans-30"/>
       <use x="127.246094" xlink:href="#DejaVuSans-30"/>
       <use x="190.869141" xlink:href="#DejaVuSans-30"/>
       <use x="254.492188" xlink:href="#DejaVuSans-30"/>
       <use x="318.115234" xlink:href="#DejaVuSans-30"/>
      </g>
     </g>
    </g>
    <g id="ytick_6">
     <g id="line2d_6">
      <path clip-path="url(#p5b4cc9f68f)" d="M 58.418125 110.106478 
L 985.263125 110.106478 
" style="fill:none;stroke:#dedede;stroke-linecap:square;"/>
     </g>
     <g id="text_13">
      <!-- 250000 -->
      <g transform="translate(20.878125 113.145853)scale(0.08 -0.08)">
       <use xlink:href="#DejaVuSans-32"/>
       <use x="63.623047" xlink:href="#DejaVuSans-35"/>
       <use x="127.246094" xlink:href="#DejaVuSans-30"/>
       <use x="190.869141" xlink:href="#DejaVuSans-30"/>
       <use x="254.492188" xlink:href="#DejaVuSans-30"/>
       <use x="318.115234" xlink:href="#DejaVuSans-30"/>
      </g>
     </g>
    </g>
    <g id="ytick_7">
     <g id="line2d_7">
      <path clip-path="url(#p5b4cc9f68f)" d="M 58.418125 77.329762 
L 985.263125 77.329762 
" style="fill:none;stroke:#dedede;stroke-linecap:square;"/>
     </g>
     <g id="text_14">
      <!-- 300000 -->
      <g transform="translate(20.878125 80.369137)scale(0.08 -0.08)">
       <defs>
        <path d="M 2597 2516 
Q 3050 2419 3304 2112 
Q 3559 1806 3559 1356 
Q 3559 666 3084 287 
Q 2609 -91 1734 -91 
Q 1441 -91 1130 -33 
Q 819 25 488 141 
L 488 750 
Q 750 597 1062 519 
Q 1375 441 1716 441 
Q 2309 441 2620 675 
Q 2931 909 2931 1356 
Q 2931 1769 2642 2001 
Q 2353 2234 1838 2234 
L 1294 2234 
L 1294 2753 
L 1863 2753 
Q 2328 2753 2575 2939 
Q 2822 3125 2822 3475 
Q 2822 3834 2567 4026 
Q 2313 4219 1838 4219 
Q 1578 4219 1281 4162 
Q 984 4106 628 3988 
L 628 4550 
Q 988 4650 1302 4700 
Q 1616 4750 1894 4750 
Q 2613 4750 3031 4423 
Q 3450 4097 3450 3541 
Q 3450 3153 3228 2886 
Q 3006 2619 2597 2516 
z
" id="DejaVuSans-33" transform="scale(0.015625)"/>
       </defs>
       <use xlink:href="#DejaVuSans-33"/>
       <use x="63.623047" xlink:href="#DejaVuSans-30"/>
       <use x="127.246094" xlink:href="#DejaVuSans-30"/>
       <use x="190.869141" xlink:href="#DejaVuSans-30"/>
       <use x="254.492188" xlink:href="#DejaVuSans-30"/>
       <use x="318.115234" xlink:href="#DejaVuSans-30"/>
      </g>
     </g>
    </g>
    <g id="ytick_8">
     <g id="line2d_8">
      <path clip-path="url(#p5b4cc9f68f)" d="M 58.418125 44.553045 
L 985.263125 44.553045 
" style="fill:none;stroke:#dedede;stroke-linecap:square;"/>
     </g>
     <g id="text_15">
      <!-- 350000 -->
      <g transform="translate(20.878125 47.59242)scale(0.08 -0.08)">
       <use xlink:href="#DejaVuSans-33"/>
       <use x="63.623047" xlink:href="#DejaVuSans-35"/>
       <use x="127.246094" xlink:href="#DejaVuSans-30"/>
       <use x="190.869141" xlink:href="#DejaVuSans-30"/>
       <use x="254.492188" xlink:href="#DejaVuSans-30"/>
       <use x="318.115234" xlink:href="#DejaVuSans-30"/>
      </g>
     </g>
    </g>
    <g id="text_16">
     <!-- Cumulative mapped-read depth -->
     <g transform="translate(14.798437 232.601304)rotate(-90)scale(0.1 -0.1)">
      <defs>
       <path d="M 4122 4306 
L 4122 3641 
Q 3803 3938 3442 4084 
Q 3081 4231 2675 4231 
Q 1875 4231 1450 3742 
Q 1025 3253 1025 2328 
Q 1025 1406 1450 917 
Q 1875 428 2675 428 
Q 3081 428 3442 575 
Q 3803 722 4122 1019 
L 4122 359 
Q 3791 134 3420 21 
Q 3050 -91 2638 -91 
Q 1578 -91 968 557 
Q 359 1206 359 2328 
Q 359 3453 968 4101 
Q 1578 4750 2638 4750 
Q 3056 4750 3426 4639 
Q 3797 4528 4122 4306 
z
" id="DejaVuSans-43" transform="scale(0.015625)"/>
       <path d="M 544 1381 
L 544 3500 
L 1119 3500 
L 1119 1403 
Q 1119 906 1312 657 
Q 1506 409 1894 409 
Q 2359 409 2629 706 
Q 2900 1003 2900 1516 
L 2900 3500 
L 3475 3500 
L 3475 0 
L 2900 0 
L 2900 538 
Q 2691 219 2414 64 
Q 2138 -91 1772 -91 
Q 1169 -91 856 284 
Q 544 659 544 1381 
z
M 1991 3584 
L 1991 3584 
z
" id="DejaVuSans-75" transform="scale(0.015625)"/>
       <path d="M 3328 2828 
Q 3544 3216 3844 3400 
Q 4144 3584 4550 3584 
Q 5097 3584 5394 3201 
Q 5691 2819 5691 2113 
L 5691 0 
L 5113 0 
L 5113 2094 
Q 5113 2597 4934 2840 
Q 4756 3084 4391 3084 
Q 3944 3084 3684 2787 
Q 3425 2491 3425 1978 
L 3425 0 
L 2847 0 
L 2847 2094 
Q 2847 2600 2669 2842 
Q 2491 3084 2119 3084 
Q 1678 3084 1418 2786 
Q 1159 2488 1159 1978 
L 1159 0 
L 581 0 
L 581 3500 
L 1159 3500 
L 1159 2956 
Q 1356 3278 1631 3431 
Q 1906 3584 2284 3584 
Q 2666 3584 2933 3390 
Q 3200 3197 3328 2828 
z
" id="DejaVuSans-6d" transform="scale(0.015625)"/>
       <path d="M 603 4863 
L 1178 4863 
L 1178 0 
L 603 0 
L 603 4863 
z
" id="DejaVuSans-6c" transform="scale(0.015625)"/>
       <path d="M 191 3500 
L 800 3500 
L 1894 563 
L 2988 3500 
L 3597 3500 
L 2284 0 
L 1503 0 
L 191 3500 
z
" id="DejaVuSans-76" transform="scale(0.015625)"/>
       <path d="M 3597 1894 
L 3597 1613 
L 953 1613 
Q 991 1019 1311 708 
Q 1631 397 2203 397 
Q 2534 397 2845 478 
Q 3156 559 3463 722 
L 3463 178 
Q 3153 47 2828 -22 
Q 2503 -91 2169 -91 
Q 1331 -91 842 396 
Q 353 884 353 1716 
Q 353 2575 817 3079 
Q 1281 3584 2069 3584 
Q 2775 3584 3186 3129 
Q 3597 2675 3597 1894 
z
M 3022 2063 
Q 3016 2534 2758 2815 
Q 2500 3097 2075 3097 
Q 1594 3097 1305 2825 
Q 1016 2553 972 2059 
L 3022 2063 
z
" id="DejaVuSans-65" transform="scale(0.015625)"/>
       <path d="M 2906 2969 
L 2906 4863 
L 3481 4863 
L 3481 0 
L 2906 0 
L 2906 525 
Q 2725 213 2448 61 
Q 2172 -91 1784 -91 
Q 1150 -91 751 415 
Q 353 922 353 1747 
Q 353 2572 751 3078 
Q 1150 3584 1784 3584 
Q 2172 3584 2448 3432 
Q 2725 3281 2906 2969 
z
M 947 1747 
Q 947 1113 1208 752 
Q 1469 391 1925 391 
Q 2381 391 2643 752 
Q 2906 1113 2906 1747 
Q 2906 2381 2643 2742 
Q 2381 3103 1925 3103 
Q 1469 3103 1208 2742 
Q 947 2381 947 1747 
z
" id="DejaVuSans-64" transform="scale(0.015625)"/>
       <path d="M 313 2009 
L 1997 2009 
L 1997 1497 
L 313 1497 
L 313 2009 
z
" id="DejaVuSans-2d" transform="scale(0.015625)"/>
       <path d="M 3513 2113 
L 3513 0 
L 2938 0 
L 2938 2094 
Q 2938 2591 2744 2837 
Q 2550 3084 2163 3084 
Q 1697 3084 1428 2787 
Q 1159 2491 1159 1978 
L 1159 0 
L 581 0 
L 581 4863 
L 1159 4863 
L 1159 2956 
Q 1366 3272 1645 3428 
Q 1925 3584 2291 3584 
Q 2894 3584 3203 3211 
Q 3513 2838 3513 2113 
z
" id="DejaVuSans-68" transform="scale(0.015625)"/>
      </defs>
      <use xlink:href="#DejaVuSans-43"/>
      <use x="69.824219" xlink:href="#DejaVuSans-75"/>
      <use x="133.203125" xlink:href="#DejaVuSans-6d"/>
      <use x="230.615234" xlink:href="#DejaVuSans-75"/>
      <use x="293.994141" xlink:href="#DejaVuSans-6c"/>
      <use x="321.777344" xlink:href="#DejaVuSans-61"/>
      <use x="383.056641" xlink:href="#DejaVuSans-74"/>
      <use x="422.265625" xlink:href="#DejaVuSans-69"/>
      <use x="450.048828" xlink:href="#DejaVuSans-76"/>
      <use x="509.228516" xlink:href="#DejaVuSans-65"/>
      <use x="570.751953" xlink:href="#DejaVuSans-20"/>
      <use x="602.539062" xlink:href="#DejaVuSans-6d"/>
      <use x="699.951172" xlink:href="#DejaVuSans-61"/>
      <use x="761.230469" xlink:href="#DejaVuSans-70"/>
      <use x="824.707031" xlink:href="#DejaVuSans-70"/>
      <use x="888.183594" xlink:href="#DejaVuSans-65"/>
      <use x="949.707031" xlink:href="#DejaVuSans-64"/>
      <use x="1013.183594" xlink:href="#DejaVuSans-2d"/>
      <use x="1049.267578" xlink:href="#DejaVuSans-72"/>
      <use x="1088.130859" xlink:href="#DejaVuSans-65"/>
      <use x="1149.654297" xlink:href="#DejaVuSans-61"/>
      <use x="1210.933594" xlink:href="#DejaVuSans-64"/>
      <use x="1274.410156" xlink:href="#DejaVuSans-20"/>
      <use x="1306.197266" xlink:href="#DejaVuSans-64"/>
      <use x="1369.673828" xlink:href="#DejaVuSans-65"/>
      <use x="1431.197266" xlink:href="#DejaVuSans-70"/>
      <use x="1494.673828" xlink:href="#DejaVuSans-74"/>
      <use x="1533.882812" xlink:href="#DejaVuSans-68"/>
     </g>
    </g>
   </g>
   <g id="line2d_9">
    <path clip-path="url(#p5b4cc9f68f)" d="M 58.418125 169.231303 
L 67.686575 158.510563 
L 76.955025 152.162956 
L 86.223475 145.928973 
L 95.491925 138.525853 
L 104.760375 130.870402 
L 114.028825 122.970044 
L 123.297275 118.74443 
L 132.565725 114.422536 
L 141.834175 109.390739 
L 151.102625 105.412655 
L 160.371075 101.072417 
L 169.639525 98.307551 
L 178.907975 95.281065 
L 188.176425 92.629021 
L 197.444875 89.856399 
L 206.713325 88.825803 
L 215.981775 86.205873 
L 225.250225 83.706819 
L 234.518675 82.790437 
L 243.787125 80.993966 
L 253.055575 79.323583 
L 262.324025 78.387793 
L 271.592475 77.655512 
L 280.860925 77.263233 
L 290.129375 76.589586 
L 299.397825 76.248524 
L 308.666275 77.258654 
L 317.934725 77.809213 
L 327.203175 78.424056 
L 336.471625 78.82223 
L 345.740075 79.447879 
L 355.008525 79.691978 
L 364.276975 79.112669 
L 373.545425 78.177688 
L 382.813875 76.539851 
L 392.082325 75.771255 
L 401.350775 75.921755 
L 410.619225 75.1618 
L 419.887675 74.187415 
L 429.156125 72.37447 
L 438.424575 73.095448 
L 447.693025 73.253337 
L 456.961475 72.730138 
L 466.229925 72.567833 
L 475.498375 71.569066 
L 484.766825 71.545701 
L 494.035275 71.359219 
L 503.303725 70.196397 
L 512.572175 70.043012 
L 521.840625 71.292864 
L 531.109075 71.936459 
L 540.377525 72.178163 
L 549.645975 72.918781 
L 558.914425 73.244068 
L 568.182875 73.641093 
L 577.451325 75.160374 
L 586.719775 76.015792 
L 595.988225 76.423305 
L 605.256675 76.355054 
L 614.525125 76.203606 
L 623.793575 75.456226 
L 633.062025 73.826072 
L 642.330475 72.908762 
L 651.598925 73.062546 
L 660.867375 74.197458 
L 670.135825 75.256832 
L 679.404275 75.860498 
L 688.672725 74.299794 
L 697.941175 73.886496 
L 707.209625 73.026071 
L 716.478075 72.096158 
L 725.746525 70.863344 
L 735.014975 69.917591 
L 744.283425 70.460753 
L 753.551875 70.374415 
L 762.820325 71.378045 
L 772.088775 73.802577 
L 781.357225 75.695987 
L 790.625675 78.104786 
L 799.894125 80.238742 
L 809.162575 82.085886 
L 818.431025 83.435106 
L 827.699475 85.159597 
L 836.967925 88.39168 
L 846.236375 91.84199 
L 855.504825 96.004857 
L 864.773275 100.26452 
L 874.041725 105.705502 
L 883.310175 111.877608 
L 892.578625 119.520607 
L 901.847075 128.597763 
L 911.115525 138.961885 
L 920.383975 151.43251 
L 929.652425 164.101598 
L 938.920875 178.79637 
L 948.189325 197.494857 
L 957.457775 219.537209 
L 966.726225 241.885872 
L 975.994675 264.219294 
" style="fill:none;stroke:#7cb5ec;stroke-linecap:square;"/>
   </g>
   <g id="line2d_10">
    <path clip-path="url(#p5b4cc9f68f)" d="M 58.418125 182.56333 
L 67.686575 172.786904 
L 76.955025 166.983148 
L 86.223475 161.453589 
L 95.491925 155.018626 
L 104.760375 148.435695 
L 114.028825 141.528411 
L 123.297275 137.79347 
L 132.565725 133.958643 
L 141.834175 129.522387 
L 151.102625 126.159994 
L 160.371075 122.398387 
L 169.639525 120.124402 
L 178.907975 117.533717 
L 188.176425 115.292102 
L 197.444875 112.897486 
L 206.713325 112.015476 
L 215.981775 109.744343 
L 225.250225 107.589908 
L 234.518675 106.864726 
L 243.787125 105.362483 
L 253.055575 103.861827 
L 262.324025 102.934545 
L 271.592475 102.380346 
L 280.860925 102.051735 
L 290.129375 101.377628 
L 299.397825 101.06015 
L 308.666275 102.032428 
L 317.934725 102.479758 
L 327.203175 102.878922 
L 336.471625 103.096644 
L 345.740075 103.634933 
L 355.008525 103.604566 
L 364.276975 102.980253 
L 373.545425 101.995874 
L 382.813875 100.50687 
L 392.082325 99.926578 
L 401.350775 100.198232 
L 410.619225 99.598246 
L 419.887675 98.670167 
L 429.156125 97.163476 
L 438.424575 97.807981 
L 447.693025 97.953932 
L 456.961475 97.626257 
L 466.229925 97.493717 
L 475.498375 96.54754 
L 484.766825 96.575648 
L 494.035275 96.401243 
L 503.303725 95.469211 
L 512.572175 95.243604 
L 521.840625 96.26639 
L 531.109075 96.692506 
L 540.377525 96.773371 
L 549.645975 97.4288 
L 558.914425 97.725865 
L 568.182875 98.187037 
L 577.451325 99.513841 
L 586.719775 100.205708 
L 595.988225 100.498186 
L 605.256675 100.310114 
L 614.525125 100.007735 
L 623.793575 99.231813 
L 633.062025 97.754925 
L 642.330475 96.958731 
L 651.598925 97.112879 
L 660.867375 98.110268 
L 670.135825 98.989247 
L 679.404275 99.539899 
L 688.672725 98.219607 
L 697.941175 97.835792 
L 707.209625 97.037678 
L 716.478075 96.172941 
L 725.746525 95.038814 
L 735.014975 94.242805 
L 744.283425 94.579156 
L 753.551875 94.400635 
L 762.820325 95.301668 
L 772.088775 97.510682 
L 781.357225 99.301731 
L 790.625675 101.550738 
L 799.894125 103.541066 
L 809.162575 105.155513 
L 818.431025 106.334827 
L 827.699475 107.817758 
L 836.967925 110.717336 
L 846.236375 113.958123 
L 855.504825 117.783655 
L 864.773275 121.623491 
L 874.041725 126.425526 
L 883.310175 131.952238 
L 892.578625 138.655759 
L 901.847075 146.650295 
L 911.115525 155.752036 
L 920.383975 166.686002 
L 929.652425 177.845076 
L 938.920875 190.798797 
L 948.189325 207.20444 
L 957.457775 226.436156 
L 966.726225 245.946264 
L 975.994675 265.449438 
" style="fill:none;stroke:#434348;stroke-linecap:square;"/>
   </g>
   <g id="line2d_11">
    <path clip-path="url(#p5b4cc9f68f)" d="M 58.418125 156.176686 
L 67.686575 141.767714 
L 76.955025 132.76715 
L 86.223475 124.924414 
L 95.491925 116.105732 
L 104.760375 107.24097 
L 114.028825 97.287427 
L 123.297275 92.297797 
L 132.565725 87.580186 
L 141.834175 81.610231 
L 151.102625 77.379846 
L 160.371075 72.081623 
L 169.639525 69.651547 
L 178.907975 66.561696 
L 188.176425 63.808734 
L 197.444875 60.52949 
L 206.713325 59.4216 
L 215.981775 56.215976 
L 225.250225 53.961203 
L 234.518675 53.863759 
L 243.787125 52.189588 
L 253.055575 50.576078 
L 262.324025 49.851598 
L 271.592475 49.595745 
L 280.860925 49.638697 
L 290.129375 48.811318 
L 299.397825 48.659567 
L 308.666275 50.593833 
L 317.934725 51.757539 
L 327.203175 53.211281 
L 336.471625 54.254232 
L 345.740075 55.847524 
L 355.008525 56.557589 
L 364.276975 55.841781 
L 373.545425 54.787124 
L 382.813875 52.848311 
L 392.082325 52.314813 
L 401.350775 52.807156 
L 410.619225 52.101287 
L 419.887675 50.531183 
L 429.156125 47.898962 
L 438.424575 48.681212 
L 447.693025 49.160035 
L 456.961475 49.05185 
L 466.229925 49.136579 
L 475.498375 48.020681 
L 484.766825 48.176735 
L 494.035275 48.107302 
L 503.303725 47.078652 
L 512.572175 46.961681 
L 521.840625 48.684427 
L 531.109075 48.88386 
L 540.377525 49.470957 
L 549.645975 50.777691 
L 558.914425 51.653796 
L 568.182875 52.610562 
L 577.451325 54.656194 
L 586.719775 55.990633 
L 595.988225 56.652618 
L 605.256675 56.318884 
L 614.525125 56.026914 
L 623.793575 55.16431 
L 633.062025 52.944072 
L 642.330475 51.531125 
L 651.598925 52.178059 
L 660.867375 53.913085 
L 670.135825 55.203224 
L 679.404275 55.656142 
L 688.672725 53.785982 
L 697.941175 53.120872 
L 707.209625 51.675322 
L 716.478075 49.987993 
L 725.746525 48.339974 
L 735.014975 47.457604 
L 744.283425 48.565541 
L 753.551875 48.248199 
L 762.820325 49.691613 
L 772.088775 53.274785 
L 781.357225 55.883518 
L 790.625675 59.052963 
L 799.894125 61.948329 
L 809.162575 64.388246 
L 818.431025 66.193386 
L 827.699475 68.177473 
L 836.967925 72.45006 
L 846.236375 77.185493 
L 855.504825 82.5855 
L 864.773275 87.92731 
L 874.041725 94.749323 
L 883.310175 102.062711 
L 892.578625 110.718043 
L 901.847075 120.976941 
L 911.115525 132.507803 
L 920.383975 146.445218 
L 929.652425 160.422223 
L 938.920875 176.577923 
L 948.189325 196.937658 
L 957.457775 219.684257 
L 966.726225 241.986709 
L 975.994675 264.227897 
" style="fill:none;stroke:#90ed7d;stroke-linecap:square;"/>
   </g>
   <g id="line2d_12">
    <path clip-path="url(#p5b4cc9f68f)" d="M 58.418125 157.800012 
L 67.686575 144.791312 
L 76.955025 137.385616 
L 86.223475 130.691861 
L 95.491925 123.097436 
L 104.760375 115.472581 
L 114.028825 107.557378 
L 123.297275 103.390387 
L 132.565725 99.202171 
L 141.834175 94.137069 
L 151.102625 90.327982 
L 160.371075 86.200009 
L 169.639525 83.879252 
L 178.907975 81.048767 
L 188.176425 78.778153 
L 197.444875 76.314488 
L 206.713325 75.514753 
L 215.981775 72.895754 
L 225.250225 70.658743 
L 234.518675 70.055245 
L 243.787125 68.647045 
L 253.055575 67.275216 
L 262.324025 66.307604 
L 271.592475 65.97927 
L 280.860925 65.885692 
L 290.129375 65.20346 
L 299.397825 64.872683 
L 308.666275 66.155434 
L 317.934725 66.784719 
L 327.203175 67.307434 
L 336.471625 67.677642 
L 345.740075 68.457937 
L 355.008525 68.5002 
L 364.276975 68.00386 
L 373.545425 67.005856 
L 382.813875 65.477288 
L 392.082325 64.837611 
L 401.350775 65.292453 
L 410.619225 64.89765 
L 419.887675 64.178938 
L 429.156125 62.674908 
L 438.424575 63.406609 
L 447.693025 63.659953 
L 456.961475 63.320694 
L 466.229925 63.387982 
L 475.498375 62.613722 
L 484.766825 62.860217 
L 494.035275 62.620912 
L 503.303725 61.721204 
L 512.572175 61.598761 
L 521.840625 62.806161 
L 531.109075 63.305041 
L 540.377525 63.523049 
L 549.645975 64.345486 
L 558.914425 64.710204 
L 568.182875 65.369357 
L 577.451325 67.109325 
L 586.719775 68.026335 
L 595.988225 68.329036 
L 605.256675 68.16777 
L 614.525125 67.837661 
L 623.793575 67.160016 
L 633.062025 65.653668 
L 642.330475 64.822105 
L 651.598925 65.209305 
L 660.867375 66.53812 
L 670.135825 67.716148 
L 679.404275 68.353631 
L 688.672725 66.994211 
L 697.941175 66.793864 
L 707.209625 66.087595 
L 716.478075 65.175351 
L 725.746525 63.978596 
L 735.014975 63.26204 
L 744.283425 63.729289 
L 753.551875 63.550755 
L 762.820325 64.56194 
L 772.088775 67.011583 
L 781.357225 69.057275 
L 790.625675 71.518001 
L 799.894125 73.772788 
L 809.162575 75.755932 
L 818.431025 77.185997 
L 827.699475 79.041863 
L 836.967925 82.513326 
L 846.236375 86.308257 
L 855.504825 90.863179 
L 864.773275 95.419535 
L 874.041725 101.151293 
L 883.310175 107.699065 
L 892.578625 115.495958 
L 901.847075 124.794844 
L 911.115525 135.347242 
L 920.383975 148.056878 
L 929.652425 161.00677 
L 938.920875 176.100608 
L 948.189325 195.248764 
L 957.457775 217.672117 
L 966.726225 240.723874 
L 975.994675 263.878967 
" style="fill:none;stroke:#f7a35c;stroke-linecap:square;"/>
   </g>
   <g id="line2d_13">
    <path clip-path="url(#p5b4cc9f68f)" d="M 58.418125 159.729962 
L 67.686575 146.355435 
L 76.955025 138.815557 
L 86.223475 132.072435 
L 95.491925 124.293012 
L 104.760375 116.742088 
L 114.028825 108.77995 
L 123.297275 104.475098 
L 132.565725 100.04931 
L 141.834175 94.858083 
L 151.102625 90.965111 
L 160.371075 86.610692 
L 169.639525 84.096785 
L 178.907975 81.054454 
L 188.176425 78.536754 
L 197.444875 75.877136 
L 206.713325 74.937403 
L 215.981775 72.187823 
L 225.250225 69.828452 
L 234.518675 69.091544 
L 243.787125 67.458485 
L 253.055575 65.825659 
L 262.324025 64.757401 
L 271.592475 64.248042 
L 280.860925 64.060816 
L 290.129375 63.314091 
L 299.397825 62.98532 
L 308.666275 64.411212 
L 317.934725 65.037324 
L 327.203175 65.627081 
L 336.471625 65.885814 
L 345.740075 66.516401 
L 355.008525 66.456376 
L 364.276975 65.737653 
L 373.545425 64.651952 
L 382.813875 62.888294 
L 392.082325 62.070658 
L 401.350775 62.362633 
L 410.619225 61.784138 
L 419.887675 60.873656 
L 429.156125 59.150607 
L 438.424575 59.752667 
L 447.693025 59.936018 
L 456.961475 59.562668 
L 466.229925 59.602178 
L 475.498375 58.698262 
L 484.766825 58.928647 
L 494.035275 58.703301 
L 503.303725 57.735864 
L 512.572175 57.481462 
L 521.840625 58.593361 
L 531.109075 58.920769 
L 540.377525 59.106994 
L 549.645975 59.893489 
L 558.914425 60.309114 
L 568.182875 60.968785 
L 577.451325 62.575911 
L 586.719775 63.381413 
L 595.988225 63.707884 
L 605.256675 63.471261 
L 614.525125 63.134698 
L 623.793575 62.344859 
L 633.062025 60.644523 
L 642.330475 59.654713 
L 651.598925 59.832398 
L 660.867375 61.119511 
L 670.135825 62.139972 
L 679.404275 62.698245 
L 688.672725 61.138013 
L 697.941175 60.8447 
L 707.209625 60.037106 
L 716.478075 58.984966 
L 725.746525 57.67336 
L 735.014975 56.868719 
L 744.283425 57.265364 
L 753.551875 57.045676 
L 762.820325 58.198938 
L 772.088775 60.750624 
L 781.357225 62.926874 
L 790.625675 65.616545 
L 799.894125 68.143326 
L 809.162575 70.21057 
L 818.431025 71.73004 
L 827.699475 73.476743 
L 836.967925 76.987586 
L 846.236375 80.906946 
L 855.504825 85.583674 
L 864.773275 90.246736 
L 874.041725 96.11942 
L 883.310175 102.847476 
L 892.578625 110.754417 
L 901.847075 120.283771 
L 911.115525 131.157725 
L 920.383975 144.403051 
L 929.652425 157.906663 
L 938.920875 173.539295 
L 948.189325 193.414833 
L 957.457775 216.557176 
L 966.726225 240.197945 
L 975.994675 263.728811 
" style="fill:none;stroke:#8085e9;stroke-linecap:square;"/>
   </g>
   <g id="line2d_14">
    <path clip-path="url(#p5b4cc9f68f)" d="M 58.418125 144.206145 
L 67.686575 129.054622 
L 76.955025 120.444093 
L 86.223475 112.879793 
L 95.491925 104.418255 
L 104.760375 96.188816 
L 114.028825 87.722263 
L 123.297275 83.290059 
L 132.565725 78.821639 
L 141.834175 73.480287 
L 151.102625 69.51564 
L 160.371075 65.239844 
L 169.639525 62.866638 
L 178.907975 59.862981 
L 188.176425 57.624607 
L 197.444875 55.184151 
L 206.713325 54.593524 
L 215.981775 51.940772 
L 225.250225 49.740527 
L 234.518675 49.172275 
L 243.787125 47.851505 
L 253.055575 46.487935 
L 262.324025 45.495724 
L 271.592475 45.273186 
L 280.860925 45.331161 
L 290.129375 44.86279 
L 299.397825 44.645645 
L 308.666275 46.230635 
L 317.934725 47.04861 
L 327.203175 47.835806 
L 336.471625 48.37085 
L 345.740075 49.18574 
L 355.008525 49.313327 
L 364.276975 48.858127 
L 373.545425 47.797931 
L 382.813875 46.095085 
L 392.082325 45.333272 
L 401.350775 45.806097 
L 410.619225 45.385983 
L 419.887675 44.656118 
L 429.156125 43.117594 
L 438.424575 43.936452 
L 447.693025 44.311666 
L 456.961475 44.155873 
L 466.229925 44.318597 
L 475.498375 43.500471 
L 484.766825 43.882056 
L 494.035275 43.741709 
L 503.303725 42.755811 
L 512.572175 42.624126 
L 521.840625 43.934929 
L 531.109075 44.454326 
L 540.377525 44.759014 
L 549.645975 45.73357 
L 558.914425 46.140919 
L 568.182875 46.781183 
L 577.451325 48.641121 
L 586.719775 49.619418 
L 595.988225 50.027623 
L 605.256675 49.864875 
L 614.525125 49.647077 
L 623.793575 48.933052 
L 633.062025 47.29187 
L 642.330475 46.515294 
L 651.598925 46.881384 
L 660.867375 48.382729 
L 670.135825 49.678557 
L 679.404275 50.384397 
L 688.672725 48.857441 
L 697.941175 48.733554 
L 707.209625 48.066116 
L 716.478075 47.175439 
L 725.746525 45.994151 
L 735.014975 45.332915 
L 744.283425 45.923643 
L 753.551875 45.7704 
L 762.820325 46.973227 
L 772.088775 49.728115 
L 781.357225 52.094623 
L 790.625675 54.888818 
L 799.894125 57.503712 
L 809.162575 59.716855 
L 818.431025 61.267049 
L 827.699475 63.188431 
L 836.967925 66.863792 
L 846.236375 70.904633 
L 855.504825 75.722264 
L 864.773275 80.567901 
L 874.041725 86.77063 
L 883.310175 93.883632 
L 892.578625 102.238631 
L 901.847075 112.254525 
L 911.115525 123.624148 
L 920.383975 137.404051 
L 929.652425 151.446205 
L 938.920875 167.73869 
L 948.189325 188.434431 
L 957.457775 212.743507 
L 966.726225 237.821666 
L 975.994675 262.95731 
" style="fill:none;stroke:#f15c80;stroke-linecap:square;"/>
   </g>
   <g id="line2d_15">
    <path clip-path="url(#p5b4cc9f68f)" d="M 58.418125 273.99006 
L 985.263125 273.99006 
" style="fill:none;stroke:#dedede;stroke-linecap:square;stroke-width:2;"/>
   </g>
   <g id="text_17">
    <!-- Qualimap RNAseq: Coverage Profile Along Genes (total) -->
    <g transform="translate(298.459375 19.3575)scale(0.16 -0.16)">
     <defs>
      <path d="M 2522 4238 
Q 1834 4238 1429 3725 
Q 1025 3213 1025 2328 
Q 1025 1447 1429 934 
Q 1834 422 2522 422 
Q 3209 422 3611 934 
Q 4013 1447 4013 2328 
Q 4013 3213 3611 3725 
Q 3209 4238 2522 4238 
z
M 3406 84 
L 4238 -825 
L 3475 -825 
L 2784 -78 
Q 2681 -84 2626 -87 
Q 2572 -91 2522 -91 
Q 1538 -91 948 567 
Q 359 1225 359 2328 
Q 359 3434 948 4092 
Q 1538 4750 2522 4750 
Q 3503 4750 4090 4092 
Q 4678 3434 4678 2328 
Q 4678 1516 4351 937 
Q 4025 359 3406 84 
z
" id="DejaVuSans-51" transform="scale(0.015625)"/>
      <path d="M 2841 2188 
Q 3044 2119 3236 1894 
Q 3428 1669 3622 1275 
L 4263 0 
L 3584 0 
L 2988 1197 
Q 2756 1666 2539 1819 
Q 2322 1972 1947 1972 
L 1259 1972 
L 1259 0 
L 628 0 
L 628 4666 
L 2053 4666 
Q 2853 4666 3247 4331 
Q 3641 3997 3641 3322 
Q 3641 2881 3436 2590 
Q 3231 2300 2841 2188 
z
M 1259 4147 
L 1259 2491 
L 2053 2491 
Q 2509 2491 2742 2702 
Q 2975 2913 2975 3322 
Q 2975 3731 2742 3939 
Q 2509 4147 2053 4147 
L 1259 4147 
z
" id="DejaVuSans-52" transform="scale(0.015625)"/>
      <path d="M 628 4666 
L 1478 4666 
L 3547 763 
L 3547 4666 
L 4159 4666 
L 4159 0 
L 3309 0 
L 1241 3903 
L 1241 0 
L 628 0 
L 628 4666 
z
" id="DejaVuSans-4e" transform="scale(0.015625)"/>
      <path d="M 2188 4044 
L 1331 1722 
L 3047 1722 
L 2188 4044 
z
M 1831 4666 
L 2547 4666 
L 4325 0 
L 3669 0 
L 3244 1197 
L 1141 1197 
L 716 0 
L 50 0 
L 1831 4666 
z
" id="DejaVuSans-41" transform="scale(0.015625)"/>
      <path d="M 947 1747 
Q 947 1113 1208 752 
Q 1469 391 1925 391 
Q 2381 391 2643 752 
Q 2906 1113 2906 1747 
Q 2906 2381 2643 2742 
Q 2381 3103 1925 3103 
Q 1469 3103 1208 2742 
Q 947 2381 947 1747 
z
M 2906 525 
Q 2725 213 2448 61 
Q 2172 -91 1784 -91 
Q 1150 -91 751 415 
Q 353 922 353 1747 
Q 353 2572 751 3078 
Q 1150 3584 1784 3584 
Q 2172 3584 2448 3432 
Q 2725 3281 2906 2969 
L 2906 3500 
L 3481 3500 
L 3481 -1331 
L 2906 -1331 
L 2906 525 
z
" id="DejaVuSans-71" transform="scale(0.015625)"/>
      <path d="M 750 794 
L 1409 794 
L 1409 0 
L 750 0 
L 750 794 
z
M 750 3309 
L 1409 3309 
L 1409 2516 
L 750 2516 
L 750 3309 
z
" id="DejaVuSans-3a" transform="scale(0.015625)"/>
      <path d="M 2906 1791 
Q 2906 2416 2648 2759 
Q 2391 3103 1925 3103 
Q 1463 3103 1205 2759 
Q 947 2416 947 1791 
Q 947 1169 1205 825 
Q 1463 481 1925 481 
Q 2391 481 2648 825 
Q 2906 1169 2906 1791 
z
M 3481 434 
Q 3481 -459 3084 -895 
Q 2688 -1331 1869 -1331 
Q 1566 -1331 1297 -1286 
Q 1028 -1241 775 -1147 
L 775 -588 
Q 1028 -725 1275 -790 
Q 1522 -856 1778 -856 
Q 2344 -856 2625 -561 
Q 2906 -266 2906 331 
L 2906 616 
Q 2728 306 2450 153 
Q 2172 0 1784 0 
Q 1141 0 747 490 
Q 353 981 353 1791 
Q 353 2603 747 3093 
Q 1141 3584 1784 3584 
Q 2172 3584 2450 3431 
Q 2728 3278 2906 2969 
L 2906 3500 
L 3481 3500 
L 3481 434 
z
" id="DejaVuSans-67" transform="scale(0.015625)"/>
      <path d="M 2375 4863 
L 2375 4384 
L 1825 4384 
Q 1516 4384 1395 4259 
Q 1275 4134 1275 3809 
L 1275 3500 
L 2222 3500 
L 2222 3053 
L 1275 3053 
L 1275 0 
L 697 0 
L 697 3053 
L 147 3053 
L 147 3500 
L 697 3500 
L 697 3744 
Q 697 4328 969 4595 
Q 1241 4863 1831 4863 
L 2375 4863 
z
" id="DejaVuSans-66" transform="scale(0.015625)"/>
      <path d="M 3809 666 
L 3809 1919 
L 2778 1919 
L 2778 2438 
L 4434 2438 
L 4434 434 
Q 4069 175 3628 42 
Q 3188 -91 2688 -91 
Q 1594 -91 976 548 
Q 359 1188 359 2328 
Q 359 3472 976 4111 
Q 1594 4750 2688 4750 
Q 3144 4750 3555 4637 
Q 3966 4525 4313 4306 
L 4313 3634 
Q 3963 3931 3569 4081 
Q 3175 4231 2741 4231 
Q 1884 4231 1454 3753 
Q 1025 3275 1025 2328 
Q 1025 1384 1454 906 
Q 1884 428 2741 428 
Q 3075 428 3337 486 
Q 3600 544 3809 666 
z
" id="DejaVuSans-47" transform="scale(0.015625)"/>
     </defs>
     <use xlink:href="#DejaVuSans-51"/>
     <use x="78.710938" xlink:href="#DejaVuSans-75"/>
     <use x="142.089844" xlink:href="#DejaVuSans-61"/>
     <use x="203.369141" xlink:href="#DejaVuSans-6c"/>
     <use x="231.152344" xlink:href="#DejaVuSans-69"/>
     <use x="258.935547" xlink:href="#DejaVuSans-6d"/>
     <use x="356.347656" xlink:href="#DejaVuSans-61"/>
     <use x="417.626953" xlink:href="#DejaVuSans-70"/>
     <use x="481.103516" xlink:href="#DejaVuSans-20"/>
     <use x="512.890625" xlink:href="#DejaVuSans-52"/>
     <use x="582.373047" xlink:href="#DejaVuSans-4e"/>
     <use x="657.177734" xlink:href="#DejaVuSans-41"/>
     <use x="725.585938" xlink:href="#DejaVuSans-73"/>
     <use x="777.685547" xlink:href="#DejaVuSans-65"/>
     <use x="839.208984" xlink:href="#DejaVuSans-71"/>
     <use x="902.685547" xlink:href="#DejaVuSans-3a"/>
     <use x="936.376953" xlink:href="#DejaVuSans-20"/>
     <use x="968.164062" xlink:href="#DejaVuSans-43"/>
     <use x="1037.988281" xlink:href="#DejaVuSans-6f"/>
     <use x="1099.169922" xlink:href="#DejaVuSans-76"/>
     <use x="1158.349609" xlink:href="#DejaVuSans-65"/>
     <use x="1219.873047" xlink:href="#DejaVuSans-72"/>
     <use x="1260.986328" xlink:href="#DejaVuSans-61"/>
     <use x="1322.265625" xlink:href="#DejaVuSans-67"/>
     <use x="1385.742188" xlink:href="#DejaVuSans-65"/>
     <use x="1447.265625" xlink:href="#DejaVuSans-20"/>
     <use x="1479.052734" xlink:href="#DejaVuSans-50"/>
     <use x="1537.605469" xlink:href="#DejaVuSans-72"/>
     <use x="1576.46875" xlink:href="#DejaVuSans-6f"/>
     <use x="1637.650391" xlink:href="#DejaVuSans-66"/>
     <use x="1672.855469" xlink:href="#DejaVuSans-69"/>
     <use x="1700.638672" xlink:href="#DejaVuSans-6c"/>
     <use x="1728.421875" xlink:href="#DejaVuSans-65"/>
     <use x="1789.945312" xlink:href="#DejaVuSans-20"/>
     <use x="1821.732422" xlink:href="#DejaVuSans-41"/>
     <use x="1890.140625" xlink:href="#DejaVuSans-6c"/>
     <use x="1917.923828" xlink:href="#DejaVuSans-6f"/>
     <use x="1979.105469" xlink:href="#DejaVuSans-6e"/>
     <use x="2042.484375" xlink:href="#DejaVuSans-67"/>
     <use x="2105.960938" xlink:href="#DejaVuSans-20"/>
     <use x="2137.748047" xlink:href="#DejaVuSans-47"/>
     <use x="2215.238281" xlink:href="#DejaVuSans-65"/>
     <use x="2276.761719" xlink:href="#DejaVuSans-6e"/>
     <use x="2340.140625" xlink:href="#DejaVuSans-65"/>
     <use x="2401.664062" xlink:href="#DejaVuSans-73"/>
     <use x="2453.763672" xlink:href="#DejaVuSans-20"/>
     <use x="2485.550781" xlink:href="#DejaVuSans-28"/>
     <use x="2524.564453" xlink:href="#DejaVuSans-74"/>
     <use x="2563.773438" xlink:href="#DejaVuSans-6f"/>
     <use x="2624.955078" xlink:href="#DejaVuSans-74"/>
     <use x="2664.164062" xlink:href="#DejaVuSans-61"/>
     <use x="2725.443359" xlink:href="#DejaVuSans-6c"/>
     <use x="2753.226562" xlink:href="#DejaVuSans-29"/>
    </g>
   </g>
   <g id="legend_1">
    <g id="line2d_16">
     <path d="M 65.618125 303.935394 
L 81.618125 303.935394 
" style="fill:none;stroke:#7cb5ec;stroke-linecap:square;"/>
    </g>
    <g id="line2d_17"/>
    <g id="text_18">
     <!-- 1O -->
     <g transform="translate(88.018125 306.735394)scale(0.08 -0.08)">
      <defs>
       <path d="M 2522 4238 
Q 1834 4238 1429 3725 
Q 1025 3213 1025 2328 
Q 1025 1447 1429 934 
Q 1834 422 2522 422 
Q 3209 422 3611 934 
Q 4013 1447 4013 2328 
Q 4013 3213 3611 3725 
Q 3209 4238 2522 4238 
z
M 2522 4750 
Q 3503 4750 4090 4092 
Q 4678 3434 4678 2328 
Q 4678 1225 4090 567 
Q 3503 -91 2522 -91 
Q 1538 -91 948 565 
Q 359 1222 359 2328 
Q 359 3434 948 4092 
Q 1538 4750 2522 4750 
z
" id="DejaVuSans-4f" transform="scale(0.015625)"/>
      </defs>
      <use xlink:href="#DejaVuSans-31"/>
      <use x="63.623047" xlink:href="#DejaVuSans-4f"/>
     </g>
    </g>
    <g id="line2d_18">
     <path d="M 65.618125 315.677894 
L 81.618125 315.677894 
" style="fill:none;stroke:#434348;stroke-linecap:square;"/>
    </g>
    <g id="line2d_19"/>
    <g id="text_19">
     <!-- 2O -->
     <g transform="translate(88.018125 318.477894)scale(0.08 -0.08)">
      <use xlink:href="#DejaVuSans-32"/>
      <use x="63.623047" xlink:href="#DejaVuSans-4f"/>
     </g>
    </g>
    <g id="line2d_20">
     <path d="M 275.752813 303.935394 
L 291.752813 303.935394 
" style="fill:none;stroke:#90ed7d;stroke-linecap:square;"/>
    </g>
    <g id="line2d_21"/>
    <g id="text_20">
     <!-- 3O -->
     <g transform="translate(298.152812 306.735394)scale(0.08 -0.08)">
      <use xlink:href="#DejaVuSans-33"/>
      <use x="63.623047" xlink:href="#DejaVuSans-4f"/>
     </g>
    </g>
    <g id="line2d_22">
     <path d="M 485.8875 303.935394 
L 501.8875 303.935394 
" style="fill:none;stroke:#f7a35c;stroke-linecap:square;"/>
    </g>
    <g id="line2d_23"/>
    <g id="text_21">
     <!-- P11_1 -->
     <g transform="translate(508.2875 306.735394)scale(0.08 -0.08)">
      <defs>
       <path d="M 3263 -1063 
L 3263 -1509 
L -63 -1509 
L -63 -1063 
L 3263 -1063 
z
" id="DejaVuSans-5f" transform="scale(0.015625)"/>
      </defs>
      <use xlink:href="#DejaVuSans-50"/>
      <use x="60.302734" xlink:href="#DejaVuSans-31"/>
      <use x="123.925781" xlink:href="#DejaVuSans-31"/>
      <use x="187.548828" xlink:href="#DejaVuSans-5f"/>
      <use x="237.548828" xlink:href="#DejaVuSans-31"/>
     </g>
    </g>
    <g id="line2d_24">
     <path d="M 708.728438 303.935394 
L 724.728438 303.935394 
" style="fill:none;stroke:#8085e9;stroke-linecap:square;"/>
    </g>
    <g id="line2d_25"/>
    <g id="text_22">
     <!-- P11_2 -->
     <g transform="translate(731.128438 306.735394)scale(0.08 -0.08)">
      <use xlink:href="#DejaVuSans-50"/>
      <use x="60.302734" xlink:href="#DejaVuSans-31"/>
      <use x="123.925781" xlink:href="#DejaVuSans-31"/>
      <use x="187.548828" xlink:href="#DejaVuSans-5f"/>
      <use x="237.548828" xlink:href="#DejaVuSans-32"/>
     </g>
    </g>
    <g id="line2d_26">
     <path d="M 931.569375 303.935394 
L 947.569375 303.935394 
" style="fill:none;stroke:#f15c80;stroke-linecap:square;"/>
    </g>
    <g id="line2d_27"/>
    <g id="text_23">
     <!-- P11_3 -->
     <g transform="translate(953.969375 306.735394)scale(0.08 -0.08)">
      <use xlink:href="#DejaVuSans-50"/>
      <use x="60.302734" xlink:href="#DejaVuSans-31"/>
      <use x="123.925781" xlink:href="#DejaVuSans-31"/>
      <use x="187.548828" xlink:href="#DejaVuSans-5f"/>
      <use x="237.548828" xlink:href="#DejaVuSans-33"/>
     </g>
    </g>
   </g>
  </g>
 </g>
 <defs>
  <clipPath id="p5b4cc9f68f">
   <rect height="242.5072" width="926.845" x="58.418125" y="31.48286"/>
  </clipPath>
 </defs>
</svg>
