<?xml version="1.0" encoding="utf-8" standalone="no"?>
<!DOCTYPE svg PUBLIC "-//W3C//DTD SVG 1.1//EN"
  "http://www.w3.org/Graphics/SVG/1.1/DTD/svg11.dtd">
<svg height="426.2pt" version="1.1" viewBox="0 0 840.371875 426.2" width="840.371875pt" xmlns="http://www.w3.org/2000/svg" xmlns:xlink="http://www.w3.org/1999/xlink">
 <metadata>
  <rdf:RDF xmlns:cc="http://creativecommons.org/ns#" xmlns:dc="http://purl.org/dc/elements/1.1/" xmlns:rdf="http://www.w3.org/1999/02/22-rdf-syntax-ns#">
   <cc:Work>
    <dc:type rdf:resource="http://purl.org/dc/dcmitype/StillImage"/>
    <dc:date>2024-09-06T15:37:16.351093</dc:date>
    <dc:format>image/svg+xml</dc:format>
    <dc:creator>
     <cc:Agent>
      <dc:title>Matplotlib v3.4.2, https://matplotlib.org/</dc:title>
     </cc:Agent>
    </dc:creator>
   </cc:Work>
  </rdf:RDF>
 </metadata>
 <defs>
  <style type="text/css">*{stroke-linecap:butt;stroke-linejoin:round;}</style>
 </defs>
 <g id="figure_1">
  <g id="axes_1">
   <g id="patch_1">
    <path d="M 51.971875 339.84 
L 833.171875 339.84 
L 833.171875 7.2 
L 51.971875 7.2 
z
" style="fill:#ffffff;"/>
   </g>
   <g id="matplotlib.axis_1">
    <g id="xtick_1">
     <g id="line2d_1">
      <path clip-path="url(#p31734ca7d8)" d="M 51.971875 339.84 
L 51.971875 7.2 
" style="fill:none;stroke:#dedede;stroke-linecap:square;"/>
     </g>
     <g id="text_1">
      <!-- 0 -->
      <g transform="translate(49.426875 352.91875)scale(0.08 -0.08)">
       <defs>
        <path d="M 2034 4250 
Q 1547 4250 1301 3770 
Q 1056 3291 1056 2328 
Q 1056 1369 1301 889 
Q 1547 409 2034 409 
Q 2525 409 2770 889 
Q 3016 1369 3016 2328 
Q 3016 3291 2770 3770 
Q 2525 4250 2034 4250 
z
M 2034 4750 
Q 2819 4750 3233 4129 
Q 3647 3509 3647 2328 
Q 3647 1150 3233 529 
Q 2819 -91 2034 -91 
Q 1250 -91 836 529 
Q 422 1150 422 2328 
Q 422 3509 836 4129 
Q 1250 4750 2034 4750 
z
" id="DejaVuSans-30" transform="scale(0.015625)"/>
       </defs>
       <use xlink:href="#DejaVuSans-30"/>
      </g>
     </g>
    </g>
    <g id="xtick_2">
     <g id="line2d_2">
      <path clip-path="url(#p31734ca7d8)" d="M 158.095656 339.84 
L 158.095656 7.2 
" style="fill:none;stroke:#dedede;stroke-linecap:square;"/>
     </g>
     <g id="text_2">
      <!-- 1 -->
      <g transform="translate(155.550656 352.91875)scale(0.08 -0.08)">
       <defs>
        <path d="M 794 531 
L 1825 531 
L 1825 4091 
L 703 3866 
L 703 4441 
L 1819 4666 
L 2450 4666 
L 2450 531 
L 3481 531 
L 3481 0 
L 794 0 
L 794 531 
z
" id="DejaVuSans-31" transform="scale(0.015625)"/>
       </defs>
       <use xlink:href="#DejaVuSans-31"/>
      </g>
     </g>
    </g>
    <g id="xtick_3">
     <g id="line2d_3">
      <path clip-path="url(#p31734ca7d8)" d="M 264.219437 339.84 
L 264.219437 7.2 
" style="fill:none;stroke:#dedede;stroke-linecap:square;"/>
     </g>
     <g id="text_3">
      <!-- 2 -->
      <g transform="translate(261.674437 352.91875)scale(0.08 -0.08)">
       <defs>
        <path d="M 1228 531 
L 3431 531 
L 3431 0 
L 469 0 
L 469 531 
Q 828 903 1448 1529 
Q 2069 2156 2228 2338 
Q 2531 2678 2651 2914 
Q 2772 3150 2772 3378 
Q 2772 3750 2511 3984 
Q 2250 4219 1831 4219 
Q 1534 4219 1204 4116 
Q 875 4013 500 3803 
L 500 4441 
Q 881 4594 1212 4672 
Q 1544 4750 1819 4750 
Q 2544 4750 2975 4387 
Q 3406 4025 3406 3419 
Q 3406 3131 3298 2873 
Q 3191 2616 2906 2266 
Q 2828 2175 2409 1742 
Q 1991 1309 1228 531 
z
" id="DejaVuSans-32" transform="scale(0.015625)"/>
       </defs>
       <use xlink:href="#DejaVuSans-32"/>
      </g>
     </g>
    </g>
    <g id="xtick_4">
     <g id="line2d_4">
      <path clip-path="url(#p31734ca7d8)" d="M 370.343218 339.84 
L 370.343218 7.2 
" style="fill:none;stroke:#dedede;stroke-linecap:square;"/>
     </g>
     <g id="text_4">
      <!-- 3 -->
      <g transform="translate(367.798218 352.91875)scale(0.08 -0.08)">
       <defs>
        <path d="M 2597 2516 
Q 3050 2419 3304 2112 
Q 3559 1806 3559 1356 
Q 3559 666 3084 287 
Q 2609 -91 1734 -91 
Q 1441 -91 1130 -33 
Q 819 25 488 141 
L 488 750 
Q 750 597 1062 519 
Q 1375 441 1716 441 
Q 2309 441 2620 675 
Q 2931 909 2931 1356 
Q 2931 1769 2642 2001 
Q 2353 2234 1838 2234 
L 1294 2234 
L 1294 2753 
L 1863 2753 
Q 2328 2753 2575 2939 
Q 2822 3125 2822 3475 
Q 2822 3834 2567 4026 
Q 2313 4219 1838 4219 
Q 1578 4219 1281 4162 
Q 984 4106 628 3988 
L 628 4550 
Q 988 4650 1302 4700 
Q 1616 4750 1894 4750 
Q 2613 4750 3031 4423 
Q 3450 4097 3450 3541 
Q 3450 3153 3228 2886 
Q 3006 2619 2597 2516 
z
" id="DejaVuSans-33" transform="scale(0.015625)"/>
       </defs>
       <use xlink:href="#DejaVuSans-33"/>
      </g>
     </g>
    </g>
    <g id="xtick_5">
     <g id="line2d_5">
      <path clip-path="url(#p31734ca7d8)" d="M 476.466999 339.84 
L 476.466999 7.2 
" style="fill:none;stroke:#dedede;stroke-linecap:square;"/>
     </g>
     <g id="text_5">
      <!-- 4 -->
      <g transform="translate(473.921999 352.91875)scale(0.08 -0.08)">
       <defs>
        <path d="M 2419 4116 
L 825 1625 
L 2419 1625 
L 2419 4116 
z
M 2253 4666 
L 3047 4666 
L 3047 1625 
L 3713 1625 
L 3713 1100 
L 3047 1100 
L 3047 0 
L 2419 0 
L 2419 1100 
L 313 1100 
L 313 1709 
L 2253 4666 
z
" id="DejaVuSans-34" transform="scale(0.015625)"/>
       </defs>
       <use xlink:href="#DejaVuSans-34"/>
      </g>
     </g>
    </g>
    <g id="xtick_6">
     <g id="line2d_6">
      <path clip-path="url(#p31734ca7d8)" d="M 582.59078 339.84 
L 582.59078 7.2 
" style="fill:none;stroke:#dedede;stroke-linecap:square;"/>
     </g>
     <g id="text_6">
      <!-- 5 -->
      <g transform="translate(580.04578 352.91875)scale(0.08 -0.08)">
       <defs>
        <path d="M 691 4666 
L 3169 4666 
L 3169 4134 
L 1269 4134 
L 1269 2991 
Q 1406 3038 1543 3061 
Q 1681 3084 1819 3084 
Q 2600 3084 3056 2656 
Q 3513 2228 3513 1497 
Q 3513 744 3044 326 
Q 2575 -91 1722 -91 
Q 1428 -91 1123 -41 
Q 819 9 494 109 
L 494 744 
Q 775 591 1075 516 
Q 1375 441 1709 441 
Q 2250 441 2565 725 
Q 2881 1009 2881 1497 
Q 2881 1984 2565 2268 
Q 2250 2553 1709 2553 
Q 1456 2553 1204 2497 
Q 953 2441 691 2322 
L 691 4666 
z
" id="DejaVuSans-35" transform="scale(0.015625)"/>
       </defs>
       <use xlink:href="#DejaVuSans-35"/>
      </g>
     </g>
    </g>
    <g id="xtick_7">
     <g id="line2d_7">
      <path clip-path="url(#p31734ca7d8)" d="M 688.714561 339.84 
L 688.714561 7.2 
" style="fill:none;stroke:#dedede;stroke-linecap:square;"/>
     </g>
     <g id="text_7">
      <!-- 6 -->
      <g transform="translate(686.169561 352.91875)scale(0.08 -0.08)">
       <defs>
        <path d="M 2113 2584 
Q 1688 2584 1439 2293 
Q 1191 2003 1191 1497 
Q 1191 994 1439 701 
Q 1688 409 2113 409 
Q 2538 409 2786 701 
Q 3034 994 3034 1497 
Q 3034 2003 2786 2293 
Q 2538 2584 2113 2584 
z
M 3366 4563 
L 3366 3988 
Q 3128 4100 2886 4159 
Q 2644 4219 2406 4219 
Q 1781 4219 1451 3797 
Q 1122 3375 1075 2522 
Q 1259 2794 1537 2939 
Q 1816 3084 2150 3084 
Q 2853 3084 3261 2657 
Q 3669 2231 3669 1497 
Q 3669 778 3244 343 
Q 2819 -91 2113 -91 
Q 1303 -91 875 529 
Q 447 1150 447 2328 
Q 447 3434 972 4092 
Q 1497 4750 2381 4750 
Q 2619 4750 2861 4703 
Q 3103 4656 3366 4563 
z
" id="DejaVuSans-36" transform="scale(0.015625)"/>
       </defs>
       <use xlink:href="#DejaVuSans-36"/>
      </g>
     </g>
    </g>
    <g id="xtick_8">
     <g id="line2d_8">
      <path clip-path="url(#p31734ca7d8)" d="M 794.838342 339.84 
L 794.838342 7.2 
" style="fill:none;stroke:#dedede;stroke-linecap:square;"/>
     </g>
     <g id="text_8">
      <!-- 7 -->
      <g transform="translate(792.293342 352.91875)scale(0.08 -0.08)">
       <defs>
        <path d="M 525 4666 
L 3525 4666 
L 3525 4397 
L 1831 0 
L 1172 0 
L 2766 4134 
L 525 4134 
L 525 4666 
z
" id="DejaVuSans-37" transform="scale(0.015625)"/>
       </defs>
       <use xlink:href="#DejaVuSans-37"/>
      </g>
     </g>
    </g>
    <g id="text_9">
     <!-- 1e7 -->
     <g transform="translate(814.29375 365.180937)scale(0.1 -0.1)">
      <defs>
       <path d="M 3597 1894 
L 3597 1613 
L 953 1613 
Q 991 1019 1311 708 
Q 1631 397 2203 397 
Q 2534 397 2845 478 
Q 3156 559 3463 722 
L 3463 178 
Q 3153 47 2828 -22 
Q 2503 -91 2169 -91 
Q 1331 -91 842 396 
Q 353 884 353 1716 
Q 353 2575 817 3079 
Q 1281 3584 2069 3584 
Q 2775 3584 3186 3129 
Q 3597 2675 3597 1894 
z
M 3022 2063 
Q 3016 2534 2758 2815 
Q 2500 3097 2075 3097 
Q 1594 3097 1305 2825 
Q 1016 2553 972 2059 
L 3022 2063 
z
" id="DejaVuSans-65" transform="scale(0.015625)"/>
      </defs>
      <use xlink:href="#DejaVuSans-31"/>
      <use x="63.623047" xlink:href="#DejaVuSans-65"/>
      <use x="125.146484" xlink:href="#DejaVuSans-37"/>
     </g>
    </g>
   </g>
   <g id="matplotlib.axis_2">
    <g id="ytick_1">
     <g id="text_10">
      <!-- 2O -->
      <g transform="translate(33.584375 37.959375)scale(0.08 -0.08)">
       <defs>
        <path d="M 2522 4238 
Q 1834 4238 1429 3725 
Q 1025 3213 1025 2328 
Q 1025 1447 1429 934 
Q 1834 422 2522 422 
Q 3209 422 3611 934 
Q 4013 1447 4013 2328 
Q 4013 3213 3611 3725 
Q 3209 4238 2522 4238 
z
M 2522 4750 
Q 3503 4750 4090 4092 
Q 4678 3434 4678 2328 
Q 4678 1225 4090 567 
Q 3503 -91 2522 -91 
Q 1538 -91 948 565 
Q 359 1222 359 2328 
Q 359 3434 948 4092 
Q 1538 4750 2522 4750 
z
" id="DejaVuSans-4f" transform="scale(0.015625)"/>
       </defs>
       <use xlink:href="#DejaVuSans-32"/>
       <use x="63.623047" xlink:href="#DejaVuSans-4f"/>
      </g>
     </g>
    </g>
    <g id="ytick_2">
     <g id="text_11">
      <!-- 3O -->
      <g transform="translate(33.584375 93.399375)scale(0.08 -0.08)">
       <use xlink:href="#DejaVuSans-33"/>
       <use x="63.623047" xlink:href="#DejaVuSans-4f"/>
      </g>
     </g>
    </g>
    <g id="ytick_3">
     <g id="text_12">
      <!-- 1O -->
      <g transform="translate(33.584375 148.839375)scale(0.08 -0.08)">
       <use xlink:href="#DejaVuSans-31"/>
       <use x="63.623047" xlink:href="#DejaVuSans-4f"/>
      </g>
     </g>
    </g>
    <g id="ytick_4">
     <g id="text_13">
      <!-- P11_2 -->
      <g transform="translate(20.878125 204.20875)scale(0.08 -0.08)">
       <defs>
        <path d="M 1259 4147 
L 1259 2394 
L 2053 2394 
Q 2494 2394 2734 2622 
Q 2975 2850 2975 3272 
Q 2975 3691 2734 3919 
Q 2494 4147 2053 4147 
L 1259 4147 
z
M 628 4666 
L 2053 4666 
Q 2838 4666 3239 4311 
Q 3641 3956 3641 3272 
Q 3641 2581 3239 2228 
Q 2838 1875 2053 1875 
L 1259 1875 
L 1259 0 
L 628 0 
L 628 4666 
z
" id="DejaVuSans-50" transform="scale(0.015625)"/>
        <path d="M 3263 -1063 
L 3263 -1509 
L -63 -1509 
L -63 -1063 
L 3263 -1063 
z
" id="DejaVuSans-5f" transform="scale(0.015625)"/>
       </defs>
       <use xlink:href="#DejaVuSans-50"/>
       <use x="60.302734" xlink:href="#DejaVuSans-31"/>
       <use x="123.925781" xlink:href="#DejaVuSans-31"/>
       <use x="187.548828" xlink:href="#DejaVuSans-5f"/>
       <use x="237.548828" xlink:href="#DejaVuSans-32"/>
      </g>
     </g>
    </g>
    <g id="ytick_5">
     <g id="text_14">
      <!-- P11_1 -->
      <g transform="translate(20.878125 259.608125)scale(0.08 -0.08)">
       <use xlink:href="#DejaVuSans-50"/>
       <use x="60.302734" xlink:href="#DejaVuSans-31"/>
       <use x="123.925781" xlink:href="#DejaVuSans-31"/>
       <use x="187.548828" xlink:href="#DejaVuSans-5f"/>
       <use x="237.548828" xlink:href="#DejaVuSans-31"/>
      </g>
     </g>
    </g>
    <g id="ytick_6">
     <g id="text_15">
      <!-- P11_3 -->
      <g transform="translate(20.878125 315.08875)scale(0.08 -0.08)">
       <use xlink:href="#DejaVuSans-50"/>
       <use x="60.302734" xlink:href="#DejaVuSans-31"/>
       <use x="123.925781" xlink:href="#DejaVuSans-31"/>
       <use x="187.548828" xlink:href="#DejaVuSans-5f"/>
       <use x="237.548828" xlink:href="#DejaVuSans-33"/>
      </g>
     </g>
    </g>
    <g id="text_16">
     <!-- # Reads -->
     <g transform="translate(14.798438 194.467656)rotate(-90)scale(0.1 -0.1)">
      <defs>
       <path d="M 3272 2816 
L 2363 2816 
L 2100 1772 
L 3016 1772 
L 3272 2816 
z
M 2803 4594 
L 2478 3297 
L 3391 3297 
L 3719 4594 
L 4219 4594 
L 3897 3297 
L 4872 3297 
L 4872 2816 
L 3775 2816 
L 3519 1772 
L 4513 1772 
L 4513 1294 
L 3397 1294 
L 3072 0 
L 2572 0 
L 2894 1294 
L 1978 1294 
L 1656 0 
L 1153 0 
L 1478 1294 
L 494 1294 
L 494 1772 
L 1594 1772 
L 1856 2816 
L 850 2816 
L 850 3297 
L 1978 3297 
L 2297 4594 
L 2803 4594 
z
" id="DejaVuSans-23" transform="scale(0.015625)"/>
       <path id="DejaVuSans-20" transform="scale(0.015625)"/>
       <path d="M 2841 2188 
Q 3044 2119 3236 1894 
Q 3428 1669 3622 1275 
L 4263 0 
L 3584 0 
L 2988 1197 
Q 2756 1666 2539 1819 
Q 2322 1972 1947 1972 
L 1259 1972 
L 1259 0 
L 628 0 
L 628 4666 
L 2053 4666 
Q 2853 4666 3247 4331 
Q 3641 3997 3641 3322 
Q 3641 2881 3436 2590 
Q 3231 2300 2841 2188 
z
M 1259 4147 
L 1259 2491 
L 2053 2491 
Q 2509 2491 2742 2702 
Q 2975 2913 2975 3322 
Q 2975 3731 2742 3939 
Q 2509 4147 2053 4147 
L 1259 4147 
z
" id="DejaVuSans-52" transform="scale(0.015625)"/>
       <path d="M 2194 1759 
Q 1497 1759 1228 1600 
Q 959 1441 959 1056 
Q 959 750 1161 570 
Q 1363 391 1709 391 
Q 2188 391 2477 730 
Q 2766 1069 2766 1631 
L 2766 1759 
L 2194 1759 
z
M 3341 1997 
L 3341 0 
L 2766 0 
L 2766 531 
Q 2569 213 2275 61 
Q 1981 -91 1556 -91 
Q 1019 -91 701 211 
Q 384 513 384 1019 
Q 384 1609 779 1909 
Q 1175 2209 1959 2209 
L 2766 2209 
L 2766 2266 
Q 2766 2663 2505 2880 
Q 2244 3097 1772 3097 
Q 1472 3097 1187 3025 
Q 903 2953 641 2809 
L 641 3341 
Q 956 3463 1253 3523 
Q 1550 3584 1831 3584 
Q 2591 3584 2966 3190 
Q 3341 2797 3341 1997 
z
" id="DejaVuSans-61" transform="scale(0.015625)"/>
       <path d="M 2906 2969 
L 2906 4863 
L 3481 4863 
L 3481 0 
L 2906 0 
L 2906 525 
Q 2725 213 2448 61 
Q 2172 -91 1784 -91 
Q 1150 -91 751 415 
Q 353 922 353 1747 
Q 353 2572 751 3078 
Q 1150 3584 1784 3584 
Q 2172 3584 2448 3432 
Q 2725 3281 2906 2969 
z
M 947 1747 
Q 947 1113 1208 752 
Q 1469 391 1925 391 
Q 2381 391 2643 752 
Q 2906 1113 2906 1747 
Q 2906 2381 2643 2742 
Q 2381 3103 1925 3103 
Q 1469 3103 1208 2742 
Q 947 2381 947 1747 
z
" id="DejaVuSans-64" transform="scale(0.015625)"/>
       <path d="M 2834 3397 
L 2834 2853 
Q 2591 2978 2328 3040 
Q 2066 3103 1784 3103 
Q 1356 3103 1142 2972 
Q 928 2841 928 2578 
Q 928 2378 1081 2264 
Q 1234 2150 1697 2047 
L 1894 2003 
Q 2506 1872 2764 1633 
Q 3022 1394 3022 966 
Q 3022 478 2636 193 
Q 2250 -91 1575 -91 
Q 1294 -91 989 -36 
Q 684 19 347 128 
L 347 722 
Q 666 556 975 473 
Q 1284 391 1588 391 
Q 1994 391 2212 530 
Q 2431 669 2431 922 
Q 2431 1156 2273 1281 
Q 2116 1406 1581 1522 
L 1381 1569 
Q 847 1681 609 1914 
Q 372 2147 372 2553 
Q 372 3047 722 3315 
Q 1072 3584 1716 3584 
Q 2034 3584 2315 3537 
Q 2597 3491 2834 3397 
z
" id="DejaVuSans-73" transform="scale(0.015625)"/>
      </defs>
      <use xlink:href="#DejaVuSans-23"/>
      <use x="83.789062" xlink:href="#DejaVuSans-20"/>
      <use x="115.576172" xlink:href="#DejaVuSans-52"/>
      <use x="180.558594" xlink:href="#DejaVuSans-65"/>
      <use x="242.082031" xlink:href="#DejaVuSans-61"/>
      <use x="303.361328" xlink:href="#DejaVuSans-64"/>
      <use x="366.837891" xlink:href="#DejaVuSans-73"/>
     </g>
    </g>
   </g>
   <g id="patch_2">
    <path clip-path="url(#p31734ca7d8)" d="M 51.971875 12.744 
L 60.235171 12.744 
L 60.235171 57.096 
L 51.971875 57.096 
z
" style="fill:#7cb5ec;"/>
   </g>
   <g id="patch_3">
    <path clip-path="url(#p31734ca7d8)" d="M 51.971875 68.184 
L 60.430789 68.184 
L 60.430789 112.536 
L 51.971875 112.536 
z
" style="fill:#7cb5ec;"/>
   </g>
   <g id="patch_4">
    <path clip-path="url(#p31734ca7d8)" d="M 51.971875 123.624 
L 61.131323 123.624 
L 61.131323 167.976 
L 51.971875 167.976 
z
" style="fill:#7cb5ec;"/>
   </g>
   <g id="patch_5">
    <path clip-path="url(#p31734ca7d8)" d="M 51.971875 179.064 
L 62.382236 179.064 
L 62.382236 223.416 
L 51.971875 223.416 
z
" style="fill:#7cb5ec;"/>
   </g>
   <g id="patch_6">
    <path clip-path="url(#p31734ca7d8)" d="M 51.971875 234.504 
L 62.359642 234.504 
L 62.359642 278.856 
L 51.971875 278.856 
z
" style="fill:#7cb5ec;"/>
   </g>
   <g id="patch_7">
    <path clip-path="url(#p31734ca7d8)" d="M 51.971875 289.944 
L 62.635681 289.944 
L 62.635681 334.296 
L 51.971875 334.296 
z
" style="fill:#7cb5ec;"/>
   </g>
   <g id="patch_8">
    <path clip-path="url(#p31734ca7d8)" d="M 60.235171 12.744 
L 645.17313 12.744 
L 645.17313 57.096 
L 60.235171 57.096 
z
" style="fill:#434348;"/>
   </g>
   <g id="patch_9">
    <path clip-path="url(#p31734ca7d8)" d="M 60.430789 68.184 
L 679.719477 68.184 
L 679.719477 112.536 
L 60.430789 112.536 
z
" style="fill:#434348;"/>
   </g>
   <g id="patch_10">
    <path clip-path="url(#p31734ca7d8)" d="M 61.131323 123.624 
L 729.559153 123.624 
L 729.559153 167.976 
L 61.131323 167.976 
z
" style="fill:#434348;"/>
   </g>
   <g id="patch_11">
    <path clip-path="url(#p31734ca7d8)" d="M 62.382236 179.064 
L 767.407456 179.064 
L 767.407456 223.416 
L 62.382236 223.416 
z
" style="fill:#434348;"/>
   </g>
   <g id="patch_12">
    <path clip-path="url(#p31734ca7d8)" d="M 62.359642 234.504 
L 766.152617 234.504 
L 766.152617 278.856 
L 62.359642 278.856 
z
" style="fill:#434348;"/>
   </g>
   <g id="patch_13">
    <path clip-path="url(#p31734ca7d8)" d="M 62.635681 289.944 
L 827.758894 289.944 
L 827.758894 334.296 
L 62.635681 334.296 
z
" style="fill:#434348;"/>
   </g>
   <g id="patch_14">
    <path clip-path="url(#p31734ca7d8)" d="M 645.17313 12.744 
L 645.938389 12.744 
L 645.938389 57.096 
L 645.17313 57.096 
z
" style="fill:#90ed7d;"/>
   </g>
   <g id="patch_15">
    <path clip-path="url(#p31734ca7d8)" d="M 679.719477 68.184 
L 680.897345 68.184 
L 680.897345 112.536 
L 679.719477 112.536 
z
" style="fill:#90ed7d;"/>
   </g>
   <g id="patch_16">
    <path clip-path="url(#p31734ca7d8)" d="M 729.559153 123.624 
L 730.445795 123.624 
L 730.445795 167.976 
L 729.559153 167.976 
z
" style="fill:#90ed7d;"/>
   </g>
   <g id="patch_17">
    <path clip-path="url(#p31734ca7d8)" d="M 767.407456 179.064 
L 768.411228 179.064 
L 768.411228 223.416 
L 767.407456 223.416 
z
" style="fill:#90ed7d;"/>
   </g>
   <g id="patch_18">
    <path clip-path="url(#p31734ca7d8)" d="M 766.152617 234.504 
L 767.099315 234.504 
L 767.099315 278.856 
L 766.152617 278.856 
z
" style="fill:#90ed7d;"/>
   </g>
   <g id="patch_19">
    <path clip-path="url(#p31734ca7d8)" d="M 827.758894 289.944 
L 828.786214 289.944 
L 828.786214 334.296 
L 827.758894 334.296 
z
" style="fill:#90ed7d;"/>
   </g>
   <g id="patch_20">
    <path clip-path="url(#p31734ca7d8)" d="M 645.938389 12.744 
L 646.129878 12.744 
L 646.129878 57.096 
L 645.938389 57.096 
z
" style="fill:#f7a35c;"/>
   </g>
   <g id="patch_21">
    <path clip-path="url(#p31734ca7d8)" d="M 680.897345 68.184 
L 681.044624 68.184 
L 681.044624 112.536 
L 680.897345 112.536 
z
" style="fill:#f7a35c;"/>
   </g>
   <g id="patch_22">
    <path clip-path="url(#p31734ca7d8)" d="M 730.445795 123.624 
L 730.655952 123.624 
L 730.655952 167.976 
L 730.445795 167.976 
z
" style="fill:#f7a35c;"/>
   </g>
   <g id="patch_23">
    <path clip-path="url(#p31734ca7d8)" d="M 768.411228 179.064 
L 768.657626 179.064 
L 768.657626 223.416 
L 768.411228 223.416 
z
" style="fill:#f7a35c;"/>
   </g>
   <g id="patch_24">
    <path clip-path="url(#p31734ca7d8)" d="M 767.099315 234.504 
L 767.348494 234.504 
L 767.348494 278.856 
L 767.099315 278.856 
z
" style="fill:#f7a35c;"/>
   </g>
   <g id="patch_25">
    <path clip-path="url(#p31734ca7d8)" d="M 828.786214 289.944 
L 829.040508 289.944 
L 829.040508 334.296 
L 828.786214 334.296 
z
" style="fill:#f7a35c;"/>
   </g>
   <g id="patch_26">
    <path clip-path="url(#p31734ca7d8)" d="M 646.129878 12.744 
L 646.627026 12.744 
L 646.627026 57.096 
L 646.129878 57.096 
z
" style="fill:#8085e9;"/>
   </g>
   <g id="patch_27">
    <path clip-path="url(#p31734ca7d8)" d="M 681.044624 68.184 
L 681.278786 68.184 
L 681.278786 112.536 
L 681.044624 112.536 
z
" style="fill:#8085e9;"/>
   </g>
   <g id="patch_28">
    <path clip-path="url(#p31734ca7d8)" d="M 730.655952 123.624 
L 730.984374 123.624 
L 730.984374 167.976 
L 730.655952 167.976 
z
" style="fill:#8085e9;"/>
   </g>
   <g id="patch_29">
    <path clip-path="url(#p31734ca7d8)" d="M 768.657626 179.064 
L 769.074544 179.064 
L 769.074544 223.416 
L 768.657626 223.416 
z
" style="fill:#8085e9;"/>
   </g>
   <g id="patch_30">
    <path clip-path="url(#p31734ca7d8)" d="M 767.348494 234.504 
L 767.761241 234.504 
L 767.761241 278.856 
L 767.348494 278.856 
z
" style="fill:#8085e9;"/>
   </g>
   <g id="patch_31">
    <path clip-path="url(#p31734ca7d8)" d="M 829.040508 289.944 
L 829.437475 289.944 
L 829.437475 334.296 
L 829.040508 334.296 
z
" style="fill:#8085e9;"/>
   </g>
   <g id="patch_32">
    <path clip-path="url(#p31734ca7d8)" d="M 646.627026 12.744 
L 646.665475 12.744 
L 646.665475 57.096 
L 646.627026 57.096 
z
" style="fill:#f15c80;"/>
   </g>
   <g id="patch_33">
    <path clip-path="url(#p31734ca7d8)" d="M 681.278786 68.184 
L 681.307832 68.184 
L 681.307832 112.536 
L 681.278786 112.536 
z
" style="fill:#f15c80;"/>
   </g>
   <g id="patch_34">
    <path clip-path="url(#p31734ca7d8)" d="M 730.984374 123.624 
L 731.025688 123.624 
L 731.025688 167.976 
L 730.984374 167.976 
z
" style="fill:#f15c80;"/>
   </g>
   <g id="patch_35">
    <path clip-path="url(#p31734ca7d8)" d="M 769.074544 179.064 
L 769.123181 179.064 
L 769.123181 223.416 
L 769.074544 223.416 
z
" style="fill:#f15c80;"/>
   </g>
   <g id="patch_36">
    <path clip-path="url(#p31734ca7d8)" d="M 767.761241 234.504 
L 767.812202 234.504 
L 767.812202 278.856 
L 767.761241 278.856 
z
" style="fill:#f15c80;"/>
   </g>
   <g id="patch_37">
    <path clip-path="url(#p31734ca7d8)" d="M 829.437475 289.944 
L 829.485273 289.944 
L 829.485273 334.296 
L 829.437475 334.296 
z
" style="fill:#f15c80;"/>
   </g>
   <g id="patch_38">
    <path clip-path="url(#p31734ca7d8)" d="M 646.665475 12.744 
L 646.681754 12.744 
L 646.681754 57.096 
L 646.665475 57.096 
z
" style="fill:#e4d354;"/>
   </g>
   <g id="patch_39">
    <path clip-path="url(#p31734ca7d8)" d="M 681.307832 68.184 
L 681.322689 68.184 
L 681.322689 112.536 
L 681.307832 112.536 
z
" style="fill:#e4d354;"/>
   </g>
   <g id="patch_40">
    <path clip-path="url(#p31734ca7d8)" d="M 731.025688 123.624 
L 731.043559 123.624 
L 731.043559 167.976 
L 731.025688 167.976 
z
" style="fill:#e4d354;"/>
   </g>
   <g id="patch_41">
    <path clip-path="url(#p31734ca7d8)" d="M 769.123181 179.064 
L 769.143641 179.064 
L 769.143641 223.416 
L 769.123181 223.416 
z
" style="fill:#e4d354;"/>
   </g>
   <g id="patch_42">
    <path clip-path="url(#p31734ca7d8)" d="M 767.812202 234.504 
L 767.833002 234.504 
L 767.833002 278.856 
L 767.812202 278.856 
z
" style="fill:#e4d354;"/>
   </g>
   <g id="patch_43">
    <path clip-path="url(#p31734ca7d8)" d="M 829.485273 289.944 
L 829.505924 289.944 
L 829.505924 334.296 
L 829.485273 334.296 
z
" style="fill:#e4d354;"/>
   </g>
   <g id="patch_44">
    <path clip-path="url(#p31734ca7d8)" d="M 646.681754 12.744 
L 646.682391 12.744 
L 646.682391 57.096 
L 646.681754 57.096 
z
" style="fill:#2b908f;"/>
   </g>
   <g id="patch_45">
    <path clip-path="url(#p31734ca7d8)" d="M 681.322689 68.184 
L 681.323421 68.184 
L 681.323421 112.536 
L 681.322689 112.536 
z
" style="fill:#2b908f;"/>
   </g>
   <g id="patch_46">
    <path clip-path="url(#p31734ca7d8)" d="M 731.043559 123.624 
L 731.04427 123.624 
L 731.04427 167.976 
L 731.043559 167.976 
z
" style="fill:#2b908f;"/>
   </g>
   <g id="patch_47">
    <path clip-path="url(#p31734ca7d8)" d="M 769.143641 179.064 
L 769.144543 179.064 
L 769.144543 223.416 
L 769.143641 223.416 
z
" style="fill:#2b908f;"/>
   </g>
   <g id="patch_48">
    <path clip-path="url(#p31734ca7d8)" d="M 767.833002 234.504 
L 767.833968 234.504 
L 767.833968 278.856 
L 767.833002 278.856 
z
" style="fill:#2b908f;"/>
   </g>
   <g id="patch_49">
    <path clip-path="url(#p31734ca7d8)" d="M 829.505924 289.944 
L 829.50689 289.944 
L 829.50689 334.296 
L 829.505924 334.296 
z
" style="fill:#2b908f;"/>
   </g>
   <g id="patch_50">
    <path clip-path="url(#p31734ca7d8)" d="M 646.682391 12.744 
L 646.686211 12.744 
L 646.686211 57.096 
L 646.682391 57.096 
z
" style="fill:#f45b5b;"/>
   </g>
   <g id="patch_51">
    <path clip-path="url(#p31734ca7d8)" d="M 681.323421 68.184 
L 681.327008 68.184 
L 681.327008 112.536 
L 681.323421 112.536 
z
" style="fill:#f45b5b;"/>
   </g>
   <g id="patch_52">
    <path clip-path="url(#p31734ca7d8)" d="M 731.04427 123.624 
L 731.048525 123.624 
L 731.048525 167.976 
L 731.04427 167.976 
z
" style="fill:#f45b5b;"/>
   </g>
   <g id="patch_53">
    <path clip-path="url(#p31734ca7d8)" d="M 769.144543 179.064 
L 769.148852 179.064 
L 769.148852 223.416 
L 769.144543 223.416 
z
" style="fill:#f45b5b;"/>
   </g>
   <g id="patch_54">
    <path clip-path="url(#p31734ca7d8)" d="M 767.833968 234.504 
L 767.8399 234.504 
L 767.8399 278.856 
L 767.833968 278.856 
z
" style="fill:#f45b5b;"/>
   </g>
   <g id="patch_55">
    <path clip-path="url(#p31734ca7d8)" d="M 829.50689 289.944 
L 829.511146 289.944 
L 829.511146 334.296 
L 829.50689 334.296 
z
" style="fill:#f45b5b;"/>
   </g>
   <g id="patch_56">
    <path clip-path="url(#p31734ca7d8)" d="M 646.686211 12.744 
L 646.698001 12.744 
L 646.698001 57.096 
L 646.686211 57.096 
z
" style="fill:#91e8e1;"/>
   </g>
   <g id="patch_57">
    <path clip-path="url(#p31734ca7d8)" d="M 681.327008 68.184 
L 681.337154 68.184 
L 681.337154 112.536 
L 681.327008 112.536 
z
" style="fill:#91e8e1;"/>
   </g>
   <g id="patch_58">
    <path clip-path="url(#p31734ca7d8)" d="M 731.048525 123.624 
L 731.05934 123.624 
L 731.05934 167.976 
L 731.048525 167.976 
z
" style="fill:#91e8e1;"/>
   </g>
   <g id="patch_59">
    <path clip-path="url(#p31734ca7d8)" d="M 769.148852 179.064 
L 769.166479 179.064 
L 769.166479 223.416 
L 769.148852 223.416 
z
" style="fill:#91e8e1;"/>
   </g>
   <g id="patch_60">
    <path clip-path="url(#p31734ca7d8)" d="M 767.8399 234.504 
L 767.856158 234.504 
L 767.856158 278.856 
L 767.8399 278.856 
z
" style="fill:#91e8e1;"/>
   </g>
   <g id="patch_61">
    <path clip-path="url(#p31734ca7d8)" d="M 829.511146 289.944 
L 829.526661 289.944 
L 829.526661 334.296 
L 829.511146 334.296 
z
" style="fill:#91e8e1;"/>
   </g>
   <g id="patch_62">
    <path clip-path="url(#p31734ca7d8)" d="M 646.698001 12.744 
L 646.698532 12.744 
L 646.698532 57.096 
L 646.698001 57.096 
z
" style="fill:#7cb5ec;"/>
   </g>
   <g id="patch_63">
    <path clip-path="url(#p31734ca7d8)" d="M 681.337154 68.184 
L 681.337684 68.184 
L 681.337684 112.536 
L 681.337154 112.536 
z
" style="fill:#7cb5ec;"/>
   </g>
   <g id="patch_64">
    <path clip-path="url(#p31734ca7d8)" d="M 731.05934 123.624 
L 731.059562 123.624 
L 731.059562 167.976 
L 731.05934 167.976 
z
" style="fill:#7cb5ec;"/>
   </g>
   <g id="patch_65">
    <path clip-path="url(#p31734ca7d8)" d="M 769.166479 179.064 
L 769.16719 179.064 
L 769.16719 223.416 
L 769.166479 223.416 
z
" style="fill:#7cb5ec;"/>
   </g>
   <g id="patch_66">
    <path clip-path="url(#p31734ca7d8)" d="M 767.856158 234.504 
L 767.856805 234.504 
L 767.856805 278.856 
L 767.856158 278.856 
z
" style="fill:#7cb5ec;"/>
   </g>
   <g id="patch_67">
    <path clip-path="url(#p31734ca7d8)" d="M 829.526661 289.944 
L 829.527531 289.944 
L 829.527531 334.296 
L 829.526661 334.296 
z
" style="fill:#7cb5ec;"/>
   </g>
   <g id="patch_68">
    <path clip-path="url(#p31734ca7d8)" d="M 646.698532 12.744 
L 646.713867 12.744 
L 646.713867 57.096 
L 646.698532 57.096 
z
" style="fill:#434348;"/>
   </g>
   <g id="patch_69">
    <path clip-path="url(#p31734ca7d8)" d="M 681.337684 68.184 
L 681.362369 68.184 
L 681.362369 112.536 
L 681.337684 112.536 
z
" style="fill:#434348;"/>
   </g>
   <g id="patch_70">
    <path clip-path="url(#p31734ca7d8)" d="M 731.059562 123.624 
L 731.072955 123.624 
L 731.072955 167.976 
L 731.059562 167.976 
z
" style="fill:#434348;"/>
   </g>
   <g id="patch_71">
    <path clip-path="url(#p31734ca7d8)" d="M 769.16719 179.064 
L 769.189731 179.064 
L 769.189731 223.416 
L 769.16719 223.416 
z
" style="fill:#434348;"/>
   </g>
   <g id="patch_72">
    <path clip-path="url(#p31734ca7d8)" d="M 767.856805 234.504 
L 767.881925 234.504 
L 767.881925 278.856 
L 767.856805 278.856 
z
" style="fill:#434348;"/>
   </g>
   <g id="patch_73">
    <path clip-path="url(#p31734ca7d8)" d="M 829.527531 289.944 
L 829.552895 289.944 
L 829.552895 334.296 
L 829.527531 334.296 
z
" style="fill:#434348;"/>
   </g>
   <g id="patch_74">
    <path clip-path="url(#p31734ca7d8)" d="M 646.713867 12.744 
L 646.72397 12.744 
L 646.72397 57.096 
L 646.713867 57.096 
z
" style="fill:#90ed7d;"/>
   </g>
   <g id="patch_75">
    <path clip-path="url(#p31734ca7d8)" d="M 681.362369 68.184 
L 681.373384 68.184 
L 681.373384 112.536 
L 681.362369 112.536 
z
" style="fill:#90ed7d;"/>
   </g>
   <g id="patch_76">
    <path clip-path="url(#p31734ca7d8)" d="M 731.072955 123.624 
L 731.082082 123.624 
L 731.082082 167.976 
L 731.072955 167.976 
z
" style="fill:#90ed7d;"/>
   </g>
   <g id="patch_77">
    <path clip-path="url(#p31734ca7d8)" d="M 769.189731 179.064 
L 769.204673 179.064 
L 769.204673 223.416 
L 769.189731 223.416 
z
" style="fill:#90ed7d;"/>
   </g>
   <g id="patch_78">
    <path clip-path="url(#p31734ca7d8)" d="M 767.881925 234.504 
L 767.897249 234.504 
L 767.897249 278.856 
L 767.881925 278.856 
z
" style="fill:#90ed7d;"/>
   </g>
   <g id="patch_79">
    <path clip-path="url(#p31734ca7d8)" d="M 829.552895 289.944 
L 829.565173 289.944 
L 829.565173 334.296 
L 829.552895 334.296 
z
" style="fill:#90ed7d;"/>
   </g>
   <g id="patch_80">
    <path clip-path="url(#p31734ca7d8)" d="M 646.72397 12.744 
L 646.724914 12.744 
L 646.724914 57.096 
L 646.72397 57.096 
z
" style="fill:#f7a35c;"/>
   </g>
   <g id="patch_81">
    <path clip-path="url(#p31734ca7d8)" d="M 681.373384 68.184 
L 681.374127 68.184 
L 681.374127 112.536 
L 681.373384 112.536 
z
" style="fill:#f7a35c;"/>
   </g>
   <g id="patch_82">
    <path clip-path="url(#p31734ca7d8)" d="M 731.082082 123.624 
L 731.082803 123.624 
L 731.082803 167.976 
L 731.082082 167.976 
z
" style="fill:#f7a35c;"/>
   </g>
   <g id="patch_83">
    <path clip-path="url(#p31734ca7d8)" d="M 769.204673 179.064 
L 769.205692 179.064 
L 769.205692 223.416 
L 769.204673 223.416 
z
" style="fill:#f7a35c;"/>
   </g>
   <g id="patch_84">
    <path clip-path="url(#p31734ca7d8)" d="M 767.897249 234.504 
L 767.89847 234.504 
L 767.89847 278.856 
L 767.897249 278.856 
z
" style="fill:#f7a35c;"/>
   </g>
   <g id="patch_85">
    <path clip-path="url(#p31734ca7d8)" d="M 829.565173 289.944 
L 829.56615 289.944 
L 829.56615 334.296 
L 829.565173 334.296 
z
" style="fill:#f7a35c;"/>
   </g>
   <g id="patch_86">
    <path clip-path="url(#p31734ca7d8)" d="M 646.724914 12.744 
L 646.725392 12.744 
L 646.725392 57.096 
L 646.724914 57.096 
z
" style="fill:#8085e9;"/>
   </g>
   <g id="patch_87">
    <path clip-path="url(#p31734ca7d8)" d="M 681.374127 68.184 
L 681.374541 68.184 
L 681.374541 112.536 
L 681.374127 112.536 
z
" style="fill:#8085e9;"/>
   </g>
   <g id="patch_88">
    <path clip-path="url(#p31734ca7d8)" d="M 731.082803 123.624 
L 731.083472 123.624 
L 731.083472 167.976 
L 731.082803 167.976 
z
" style="fill:#8085e9;"/>
   </g>
   <g id="patch_89">
    <path clip-path="url(#p31734ca7d8)" d="M 769.205692 179.064 
L 769.206244 179.064 
L 769.206244 223.416 
L 769.205692 223.416 
z
" style="fill:#8085e9;"/>
   </g>
   <g id="patch_90">
    <path clip-path="url(#p31734ca7d8)" d="M 767.89847 234.504 
L 767.899159 234.504 
L 767.899159 278.856 
L 767.89847 278.856 
z
" style="fill:#8085e9;"/>
   </g>
   <g id="patch_91">
    <path clip-path="url(#p31734ca7d8)" d="M 829.56615 289.944 
L 829.566797 289.944 
L 829.566797 334.296 
L 829.56615 334.296 
z
" style="fill:#8085e9;"/>
   </g>
   <g id="patch_92">
    <path clip-path="url(#p31734ca7d8)" d="M 646.725392 12.744 
L 646.725954 12.744 
L 646.725954 57.096 
L 646.725392 57.096 
z
" style="fill:#f15c80;"/>
   </g>
   <g id="patch_93">
    <path clip-path="url(#p31734ca7d8)" d="M 681.374541 68.184 
L 681.374987 68.184 
L 681.374987 112.536 
L 681.374541 112.536 
z
" style="fill:#f15c80;"/>
   </g>
   <g id="patch_94">
    <path clip-path="url(#p31734ca7d8)" d="M 731.083472 123.624 
L 731.083992 123.624 
L 731.083992 167.976 
L 731.083472 167.976 
z
" style="fill:#f15c80;"/>
   </g>
   <g id="patch_95">
    <path clip-path="url(#p31734ca7d8)" d="M 769.206244 179.064 
L 769.206817 179.064 
L 769.206817 223.416 
L 769.206244 223.416 
z
" style="fill:#f15c80;"/>
   </g>
   <g id="patch_96">
    <path clip-path="url(#p31734ca7d8)" d="M 767.899159 234.504 
L 767.899786 234.504 
L 767.899786 278.856 
L 767.899159 278.856 
z
" style="fill:#f15c80;"/>
   </g>
   <g id="patch_97">
    <path clip-path="url(#p31734ca7d8)" d="M 829.566797 289.944 
L 829.567614 289.944 
L 829.567614 334.296 
L 829.566797 334.296 
z
" style="fill:#f15c80;"/>
   </g>
   <g id="patch_98">
    <path clip-path="url(#p31734ca7d8)" d="M 646.725954 12.744 
L 646.728236 12.744 
L 646.728236 57.096 
L 646.725954 57.096 
z
" style="fill:#e4d354;"/>
   </g>
   <g id="patch_99">
    <path clip-path="url(#p31734ca7d8)" d="M 681.374987 68.184 
L 681.376674 68.184 
L 681.376674 112.536 
L 681.374987 112.536 
z
" style="fill:#e4d354;"/>
   </g>
   <g id="patch_100">
    <path clip-path="url(#p31734ca7d8)" d="M 731.083992 123.624 
L 731.085987 123.624 
L 731.085987 167.976 
L 731.083992 167.976 
z
" style="fill:#e4d354;"/>
   </g>
   <g id="patch_101">
    <path clip-path="url(#p31734ca7d8)" d="M 769.206817 179.064 
L 769.209979 179.064 
L 769.209979 223.416 
L 769.206817 223.416 
z
" style="fill:#e4d354;"/>
   </g>
   <g id="patch_102">
    <path clip-path="url(#p31734ca7d8)" d="M 767.899786 234.504 
L 767.90281 234.504 
L 767.90281 278.856 
L 767.899786 278.856 
z
" style="fill:#e4d354;"/>
   </g>
   <g id="patch_103">
    <path clip-path="url(#p31734ca7d8)" d="M 829.567614 289.944 
L 829.570671 289.944 
L 829.570671 334.296 
L 829.567614 334.296 
z
" style="fill:#e4d354;"/>
   </g>
   <g id="patch_104">
    <path clip-path="url(#p31734ca7d8)" d="M 646.728236 12.744 
L 646.729541 12.744 
L 646.729541 57.096 
L 646.728236 57.096 
z
" style="fill:#2b908f;"/>
   </g>
   <g id="patch_105">
    <path clip-path="url(#p31734ca7d8)" d="M 681.376674 68.184 
L 681.377831 68.184 
L 681.377831 112.536 
L 681.376674 112.536 
z
" style="fill:#2b908f;"/>
   </g>
   <g id="patch_106">
    <path clip-path="url(#p31734ca7d8)" d="M 731.085987 123.624 
L 731.087239 123.624 
L 731.087239 167.976 
L 731.085987 167.976 
z
" style="fill:#2b908f;"/>
   </g>
   <g id="patch_107">
    <path clip-path="url(#p31734ca7d8)" d="M 769.209979 179.064 
L 769.211603 179.064 
L 769.211603 223.416 
L 769.209979 223.416 
z
" style="fill:#2b908f;"/>
   </g>
   <g id="patch_108">
    <path clip-path="url(#p31734ca7d8)" d="M 767.90281 234.504 
L 767.904359 234.504 
L 767.904359 278.856 
L 767.90281 278.856 
z
" style="fill:#2b908f;"/>
   </g>
   <g id="patch_109">
    <path clip-path="url(#p31734ca7d8)" d="M 829.570671 289.944 
L 829.573005 289.944 
L 829.573005 334.296 
L 829.570671 334.296 
z
" style="fill:#2b908f;"/>
   </g>
   <g id="patch_110">
    <path clip-path="url(#p31734ca7d8)" d="M 646.729541 12.744 
L 646.729584 12.744 
L 646.729584 57.096 
L 646.729541 57.096 
z
" style="fill:#f45b5b;"/>
   </g>
   <g id="patch_111">
    <path clip-path="url(#p31734ca7d8)" d="M 681.377831 68.184 
L 681.377852 68.184 
L 681.377852 112.536 
L 681.377831 112.536 
z
" style="fill:#f45b5b;"/>
   </g>
   <g id="patch_112">
    <path clip-path="url(#p31734ca7d8)" d="M 731.087239 123.624 
L 731.087314 123.624 
L 731.087314 167.976 
L 731.087239 167.976 
z
" style="fill:#f45b5b;"/>
   </g>
   <g id="patch_113">
    <path clip-path="url(#p31734ca7d8)" d="M 769.211603 179.064 
L 769.211667 179.064 
L 769.211667 223.416 
L 769.211603 223.416 
z
" style="fill:#f45b5b;"/>
   </g>
   <g id="patch_114">
    <path clip-path="url(#p31734ca7d8)" d="M 767.904359 234.504 
L 767.904423 234.504 
L 767.904423 278.856 
L 767.904359 278.856 
z
" style="fill:#f45b5b;"/>
   </g>
   <g id="patch_115">
    <path clip-path="url(#p31734ca7d8)" d="M 829.573005 289.944 
L 829.573122 289.944 
L 829.573122 334.296 
L 829.573005 334.296 
z
" style="fill:#f45b5b;"/>
   </g>
   <g id="patch_116">
    <path clip-path="url(#p31734ca7d8)" d="M 646.729584 12.744 
L 646.729584 12.744 
L 646.729584 57.096 
L 646.729584 57.096 
z
" style="fill:#91e8e1;"/>
   </g>
   <g id="patch_117">
    <path clip-path="url(#p31734ca7d8)" d="M 681.377852 68.184 
L 681.377852 68.184 
L 681.377852 112.536 
L 681.377852 112.536 
z
" style="fill:#91e8e1;"/>
   </g>
   <g id="patch_118">
    <path clip-path="url(#p31734ca7d8)" d="M 731.087314 123.624 
L 731.087314 123.624 
L 731.087314 167.976 
L 731.087314 167.976 
z
" style="fill:#91e8e1;"/>
   </g>
   <g id="patch_119">
    <path clip-path="url(#p31734ca7d8)" d="M 769.211667 179.064 
L 769.211667 179.064 
L 769.211667 223.416 
L 769.211667 223.416 
z
" style="fill:#91e8e1;"/>
   </g>
   <g id="patch_120">
    <path clip-path="url(#p31734ca7d8)" d="M 767.904423 234.504 
L 767.904434 234.504 
L 767.904434 278.856 
L 767.904423 278.856 
z
" style="fill:#91e8e1;"/>
   </g>
   <g id="patch_121">
    <path clip-path="url(#p31734ca7d8)" d="M 829.573122 289.944 
L 829.573122 289.944 
L 829.573122 334.296 
L 829.573122 334.296 
z
" style="fill:#91e8e1;"/>
   </g>
   <g id="patch_122">
    <path clip-path="url(#p31734ca7d8)" d="M 646.729584 12.744 
L 646.731409 12.744 
L 646.731409 57.096 
L 646.729584 57.096 
z
" style="fill:#7cb5ec;"/>
   </g>
   <g id="patch_123">
    <path clip-path="url(#p31734ca7d8)" d="M 681.377852 68.184 
L 681.384676 68.184 
L 681.384676 112.536 
L 681.377852 112.536 
z
" style="fill:#7cb5ec;"/>
   </g>
   <g id="patch_124">
    <path clip-path="url(#p31734ca7d8)" d="M 731.087314 123.624 
L 731.088439 123.624 
L 731.088439 167.976 
L 731.087314 167.976 
z
" style="fill:#7cb5ec;"/>
   </g>
   <g id="patch_125">
    <path clip-path="url(#p31734ca7d8)" d="M 769.211667 179.064 
L 769.214129 179.064 
L 769.214129 223.416 
L 769.211667 223.416 
z
" style="fill:#7cb5ec;"/>
   </g>
   <g id="patch_126">
    <path clip-path="url(#p31734ca7d8)" d="M 767.904434 234.504 
L 767.908753 234.504 
L 767.908753 278.856 
L 767.904434 278.856 
z
" style="fill:#7cb5ec;"/>
   </g>
   <g id="patch_127">
    <path clip-path="url(#p31734ca7d8)" d="M 829.573122 289.944 
L 829.576688 289.944 
L 829.576688 334.296 
L 829.573122 334.296 
z
" style="fill:#7cb5ec;"/>
   </g>
   <g id="patch_128">
    <path clip-path="url(#p31734ca7d8)" d="M 646.731409 12.744 
L 646.731462 12.744 
L 646.731462 57.096 
L 646.731409 57.096 
z
" style="fill:#434348;"/>
   </g>
   <g id="patch_129">
    <path clip-path="url(#p31734ca7d8)" d="M 681.384676 68.184 
L 681.384782 68.184 
L 681.384782 112.536 
L 681.384676 112.536 
z
" style="fill:#434348;"/>
   </g>
   <g id="patch_130">
    <path clip-path="url(#p31734ca7d8)" d="M 731.088439 123.624 
L 731.088587 123.624 
L 731.088587 167.976 
L 731.088439 167.976 
z
" style="fill:#434348;"/>
   </g>
   <g id="patch_131">
    <path clip-path="url(#p31734ca7d8)" d="M 769.214129 179.064 
L 769.214213 179.064 
L 769.214213 223.416 
L 769.214129 223.416 
z
" style="fill:#434348;"/>
   </g>
   <g id="patch_132">
    <path clip-path="url(#p31734ca7d8)" d="M 767.908753 234.504 
L 767.90887 234.504 
L 767.90887 278.856 
L 767.908753 278.856 
z
" style="fill:#434348;"/>
   </g>
   <g id="patch_133">
    <path clip-path="url(#p31734ca7d8)" d="M 829.576688 289.944 
L 829.576847 289.944 
L 829.576847 334.296 
L 829.576688 334.296 
z
" style="fill:#434348;"/>
   </g>
   <g id="patch_134">
    <path clip-path="url(#p31734ca7d8)" d="M 646.731462 12.744 
L 646.731494 12.744 
L 646.731494 57.096 
L 646.731462 57.096 
z
" style="fill:#90ed7d;"/>
   </g>
   <g id="patch_135">
    <path clip-path="url(#p31734ca7d8)" d="M 681.384782 68.184 
L 681.384952 68.184 
L 681.384952 112.536 
L 681.384782 112.536 
z
" style="fill:#90ed7d;"/>
   </g>
   <g id="patch_136">
    <path clip-path="url(#p31734ca7d8)" d="M 731.088587 123.624 
L 731.08863 123.624 
L 731.08863 167.976 
L 731.088587 167.976 
z
" style="fill:#90ed7d;"/>
   </g>
   <g id="patch_137">
    <path clip-path="url(#p31734ca7d8)" d="M 769.214213 179.064 
L 769.214235 179.064 
L 769.214235 223.416 
L 769.214213 223.416 
z
" style="fill:#90ed7d;"/>
   </g>
   <g id="patch_138">
    <path clip-path="url(#p31734ca7d8)" d="M 767.90887 234.504 
L 767.908965 234.504 
L 767.908965 278.856 
L 767.90887 278.856 
z
" style="fill:#90ed7d;"/>
   </g>
   <g id="patch_139">
    <path clip-path="url(#p31734ca7d8)" d="M 829.576847 289.944 
L 829.576921 289.944 
L 829.576921 334.296 
L 829.576847 334.296 
z
" style="fill:#90ed7d;"/>
   </g>
   <g id="patch_140">
    <path clip-path="url(#p31734ca7d8)" d="M 646.731494 12.744 
L 646.7316 12.744 
L 646.7316 57.096 
L 646.731494 57.096 
z
" style="fill:#f7a35c;"/>
   </g>
   <g id="patch_141">
    <path clip-path="url(#p31734ca7d8)" d="M 681.384952 68.184 
L 681.384963 68.184 
L 681.384963 112.536 
L 681.384952 112.536 
z
" style="fill:#f7a35c;"/>
   </g>
   <g id="patch_142">
    <path clip-path="url(#p31734ca7d8)" d="M 731.08863 123.624 
L 731.088704 123.624 
L 731.088704 167.976 
L 731.08863 167.976 
z
" style="fill:#f7a35c;"/>
   </g>
   <g id="patch_143">
    <path clip-path="url(#p31734ca7d8)" d="M 769.214235 179.064 
L 769.214309 179.064 
L 769.214309 223.416 
L 769.214235 223.416 
z
" style="fill:#f7a35c;"/>
   </g>
   <g id="patch_144">
    <path clip-path="url(#p31734ca7d8)" d="M 767.908965 234.504 
L 767.908997 234.504 
L 767.908997 278.856 
L 767.908965 278.856 
z
" style="fill:#f7a35c;"/>
   </g>
   <g id="patch_145">
    <path clip-path="url(#p31734ca7d8)" d="M 829.576921 289.944 
L 829.576985 289.944 
L 829.576985 334.296 
L 829.576921 334.296 
z
" style="fill:#f7a35c;"/>
   </g>
   <g id="patch_146">
    <path clip-path="url(#p31734ca7d8)" d="M 646.7316 12.744 
L 646.732035 12.744 
L 646.732035 57.096 
L 646.7316 57.096 
z
" style="fill:#8085e9;"/>
   </g>
   <g id="patch_147">
    <path clip-path="url(#p31734ca7d8)" d="M 681.384963 68.184 
L 681.385334 68.184 
L 681.385334 112.536 
L 681.384963 112.536 
z
" style="fill:#8085e9;"/>
   </g>
   <g id="patch_148">
    <path clip-path="url(#p31734ca7d8)" d="M 731.088704 123.624 
L 731.089298 123.624 
L 731.089298 167.976 
L 731.088704 167.976 
z
" style="fill:#8085e9;"/>
   </g>
   <g id="patch_149">
    <path clip-path="url(#p31734ca7d8)" d="M 769.214309 179.064 
L 769.214829 179.064 
L 769.214829 223.416 
L 769.214309 223.416 
z
" style="fill:#8085e9;"/>
   </g>
   <g id="patch_150">
    <path clip-path="url(#p31734ca7d8)" d="M 767.908997 234.504 
L 767.909549 234.504 
L 767.909549 278.856 
L 767.908997 278.856 
z
" style="fill:#8085e9;"/>
   </g>
   <g id="patch_151">
    <path clip-path="url(#p31734ca7d8)" d="M 829.576985 289.944 
L 829.577579 289.944 
L 829.577579 334.296 
L 829.576985 334.296 
z
" style="fill:#8085e9;"/>
   </g>
   <g id="patch_152">
    <path clip-path="url(#p31734ca7d8)" d="M 646.732035 12.744 
L 646.732035 12.744 
L 646.732035 57.096 
L 646.732035 57.096 
z
" style="fill:#f15c80;"/>
   </g>
   <g id="patch_153">
    <path clip-path="url(#p31734ca7d8)" d="M 681.385334 68.184 
L 681.385334 68.184 
L 681.385334 112.536 
L 681.385334 112.536 
z
" style="fill:#f15c80;"/>
   </g>
   <g id="patch_154">
    <path clip-path="url(#p31734ca7d8)" d="M 731.089298 123.624 
L 731.089309 123.624 
L 731.089309 167.976 
L 731.089298 167.976 
z
" style="fill:#f15c80;"/>
   </g>
   <g id="patch_155">
    <path clip-path="url(#p31734ca7d8)" d="M 769.214829 179.064 
L 769.21484 179.064 
L 769.21484 223.416 
L 769.214829 223.416 
z
" style="fill:#f15c80;"/>
   </g>
   <g id="patch_156">
    <path clip-path="url(#p31734ca7d8)" d="M 767.909549 234.504 
L 767.90956 234.504 
L 767.90956 278.856 
L 767.909549 278.856 
z
" style="fill:#f15c80;"/>
   </g>
   <g id="patch_157">
    <path clip-path="url(#p31734ca7d8)" d="M 829.577579 289.944 
L 829.57759 289.944 
L 829.57759 334.296 
L 829.577579 334.296 
z
" style="fill:#f15c80;"/>
   </g>
   <g id="patch_158">
    <path clip-path="url(#p31734ca7d8)" d="M 646.732035 12.744 
L 646.732035 12.744 
L 646.732035 57.096 
L 646.732035 57.096 
z
" style="fill:#e4d354;"/>
   </g>
   <g id="patch_159">
    <path clip-path="url(#p31734ca7d8)" d="M 681.385334 68.184 
L 681.385334 68.184 
L 681.385334 112.536 
L 681.385334 112.536 
z
" style="fill:#e4d354;"/>
   </g>
   <g id="patch_160">
    <path clip-path="url(#p31734ca7d8)" d="M 731.089309 123.624 
L 731.089309 123.624 
L 731.089309 167.976 
L 731.089309 167.976 
z
" style="fill:#e4d354;"/>
   </g>
   <g id="patch_161">
    <path clip-path="url(#p31734ca7d8)" d="M 769.21484 179.064 
L 769.21484 179.064 
L 769.21484 223.416 
L 769.21484 223.416 
z
" style="fill:#e4d354;"/>
   </g>
   <g id="patch_162">
    <path clip-path="url(#p31734ca7d8)" d="M 767.90956 234.504 
L 767.90956 234.504 
L 767.90956 278.856 
L 767.90956 278.856 
z
" style="fill:#e4d354;"/>
   </g>
   <g id="patch_163">
    <path clip-path="url(#p31734ca7d8)" d="M 829.57759 289.944 
L 829.577601 289.944 
L 829.577601 334.296 
L 829.57759 334.296 
z
" style="fill:#e4d354;"/>
   </g>
   <g id="patch_164">
    <path clip-path="url(#p31734ca7d8)" d="M 646.732035 12.744 
L 646.749758 12.744 
L 646.749758 57.096 
L 646.732035 57.096 
z
" style="fill:#2b908f;"/>
   </g>
   <g id="patch_165">
    <path clip-path="url(#p31734ca7d8)" d="M 681.385334 68.184 
L 681.404532 68.184 
L 681.404532 112.536 
L 681.385334 112.536 
z
" style="fill:#2b908f;"/>
   </g>
   <g id="patch_166">
    <path clip-path="url(#p31734ca7d8)" d="M 731.089309 123.624 
L 731.109642 123.624 
L 731.109642 167.976 
L 731.089309 167.976 
z
" style="fill:#2b908f;"/>
   </g>
   <g id="patch_167">
    <path clip-path="url(#p31734ca7d8)" d="M 769.21484 179.064 
L 769.235215 179.064 
L 769.235215 223.416 
L 769.21484 223.416 
z
" style="fill:#2b908f;"/>
   </g>
   <g id="patch_168">
    <path clip-path="url(#p31734ca7d8)" d="M 767.90956 234.504 
L 767.930763 234.504 
L 767.930763 278.856 
L 767.90956 278.856 
z
" style="fill:#2b908f;"/>
   </g>
   <g id="patch_169">
    <path clip-path="url(#p31734ca7d8)" d="M 829.577601 289.944 
L 829.601171 289.944 
L 829.601171 334.296 
L 829.577601 334.296 
z
" style="fill:#2b908f;"/>
   </g>
   <g id="patch_170">
    <path clip-path="url(#p31734ca7d8)" d="M 646.749758 12.744 
L 646.757346 12.744 
L 646.757346 57.096 
L 646.749758 57.096 
z
" style="fill:#f45b5b;"/>
   </g>
   <g id="patch_171">
    <path clip-path="url(#p31734ca7d8)" d="M 681.404532 68.184 
L 681.407387 68.184 
L 681.407387 112.536 
L 681.404532 112.536 
z
" style="fill:#f45b5b;"/>
   </g>
   <g id="patch_172">
    <path clip-path="url(#p31734ca7d8)" d="M 731.109642 123.624 
L 731.115521 123.624 
L 731.115521 167.976 
L 731.109642 167.976 
z
" style="fill:#f45b5b;"/>
   </g>
   <g id="patch_173">
    <path clip-path="url(#p31734ca7d8)" d="M 769.235215 179.064 
L 769.24205 179.064 
L 769.24205 223.416 
L 769.235215 223.416 
z
" style="fill:#f45b5b;"/>
   </g>
   <g id="patch_174">
    <path clip-path="url(#p31734ca7d8)" d="M 767.930763 234.504 
L 767.936632 234.504 
L 767.936632 278.856 
L 767.930763 278.856 
z
" style="fill:#f45b5b;"/>
   </g>
   <g id="patch_175">
    <path clip-path="url(#p31734ca7d8)" d="M 829.601171 289.944 
L 829.608037 289.944 
L 829.608037 334.296 
L 829.601171 334.296 
z
" style="fill:#f45b5b;"/>
   </g>
   <g id="patch_176">
    <path clip-path="url(#p31734ca7d8)" d="M 646.757346 12.744 
L 651.552209 12.744 
L 651.552209 57.096 
L 646.757346 57.096 
z
" style="fill:#91e8e1;"/>
   </g>
   <g id="patch_177">
    <path clip-path="url(#p31734ca7d8)" d="M 681.407387 68.184 
L 683.446481 68.184 
L 683.446481 112.536 
L 681.407387 112.536 
z
" style="fill:#91e8e1;"/>
   </g>
   <g id="patch_178">
    <path clip-path="url(#p31734ca7d8)" d="M 731.115521 123.624 
L 734.498514 123.624 
L 734.498514 167.976 
L 731.115521 167.976 
z
" style="fill:#91e8e1;"/>
   </g>
   <g id="patch_179">
    <path clip-path="url(#p31734ca7d8)" d="M 769.24205 179.064 
L 772.970656 179.064 
L 772.970656 223.416 
L 769.24205 223.416 
z
" style="fill:#91e8e1;"/>
   </g>
   <g id="patch_180">
    <path clip-path="url(#p31734ca7d8)" d="M 767.936632 234.504 
L 771.853109 234.504 
L 771.853109 278.856 
L 767.936632 278.856 
z
" style="fill:#91e8e1;"/>
   </g>
   <g id="patch_181">
    <path clip-path="url(#p31734ca7d8)" d="M 829.608037 289.944 
L 833.171875 289.944 
L 833.171875 334.296 
L 829.608037 334.296 
z
" style="fill:#91e8e1;"/>
   </g>
   <g id="patch_182">
    <path clip-path="url(#p31734ca7d8)" d="M 651.552209 12.744 
L 651.552241 12.744 
L 651.552241 57.096 
L 651.552209 57.096 
z
" style="fill:#7cb5ec;"/>
   </g>
   <g id="patch_183">
    <path clip-path="url(#p31734ca7d8)" d="M 683.446481 68.184 
L 683.446481 68.184 
L 683.446481 112.536 
L 683.446481 112.536 
z
" style="fill:#7cb5ec;"/>
   </g>
   <g id="patch_184">
    <path clip-path="url(#p31734ca7d8)" d="M 734.498514 123.624 
L 734.498557 123.624 
L 734.498557 167.976 
L 734.498514 167.976 
z
" style="fill:#7cb5ec;"/>
   </g>
   <g id="patch_185">
    <path clip-path="url(#p31734ca7d8)" d="M 772.970656 179.064 
L 772.970656 179.064 
L 772.970656 223.416 
L 772.970656 223.416 
z
" style="fill:#7cb5ec;"/>
   </g>
   <g id="patch_186">
    <path clip-path="url(#p31734ca7d8)" d="M 771.853109 234.504 
L 771.853109 234.504 
L 771.853109 278.856 
L 771.853109 278.856 
z
" style="fill:#7cb5ec;"/>
   </g>
   <g id="patch_187">
    <path clip-path="url(#p31734ca7d8)" d="M 833.171875 289.944 
L 833.171917 289.944 
L 833.171917 334.296 
L 833.171875 334.296 
z
" style="fill:#7cb5ec;"/>
   </g>
   <g id="text_17">
    <!-- featureCounts: Biotypes -->
    <g transform="translate(345.884375 -20.52)scale(0.16 -0.16)">
     <defs>
      <path d="M 2375 4863 
L 2375 4384 
L 1825 4384 
Q 1516 4384 1395 4259 
Q 1275 4134 1275 3809 
L 1275 3500 
L 2222 3500 
L 2222 3053 
L 1275 3053 
L 1275 0 
L 697 0 
L 697 3053 
L 147 3053 
L 147 3500 
L 697 3500 
L 697 3744 
Q 697 4328 969 4595 
Q 1241 4863 1831 4863 
L 2375 4863 
z
" id="DejaVuSans-66" transform="scale(0.015625)"/>
      <path d="M 1172 4494 
L 1172 3500 
L 2356 3500 
L 2356 3053 
L 1172 3053 
L 1172 1153 
Q 1172 725 1289 603 
Q 1406 481 1766 481 
L 2356 481 
L 2356 0 
L 1766 0 
Q 1100 0 847 248 
Q 594 497 594 1153 
L 594 3053 
L 172 3053 
L 172 3500 
L 594 3500 
L 594 4494 
L 1172 4494 
z
" id="DejaVuSans-74" transform="scale(0.015625)"/>
      <path d="M 544 1381 
L 544 3500 
L 1119 3500 
L 1119 1403 
Q 1119 906 1312 657 
Q 1506 409 1894 409 
Q 2359 409 2629 706 
Q 2900 1003 2900 1516 
L 2900 3500 
L 3475 3500 
L 3475 0 
L 2900 0 
L 2900 538 
Q 2691 219 2414 64 
Q 2138 -91 1772 -91 
Q 1169 -91 856 284 
Q 544 659 544 1381 
z
M 1991 3584 
L 1991 3584 
z
" id="DejaVuSans-75" transform="scale(0.015625)"/>
      <path d="M 2631 2963 
Q 2534 3019 2420 3045 
Q 2306 3072 2169 3072 
Q 1681 3072 1420 2755 
Q 1159 2438 1159 1844 
L 1159 0 
L 581 0 
L 581 3500 
L 1159 3500 
L 1159 2956 
Q 1341 3275 1631 3429 
Q 1922 3584 2338 3584 
Q 2397 3584 2469 3576 
Q 2541 3569 2628 3553 
L 2631 2963 
z
" id="DejaVuSans-72" transform="scale(0.015625)"/>
      <path d="M 4122 4306 
L 4122 3641 
Q 3803 3938 3442 4084 
Q 3081 4231 2675 4231 
Q 1875 4231 1450 3742 
Q 1025 3253 1025 2328 
Q 1025 1406 1450 917 
Q 1875 428 2675 428 
Q 3081 428 3442 575 
Q 3803 722 4122 1019 
L 4122 359 
Q 3791 134 3420 21 
Q 3050 -91 2638 -91 
Q 1578 -91 968 557 
Q 359 1206 359 2328 
Q 359 3453 968 4101 
Q 1578 4750 2638 4750 
Q 3056 4750 3426 4639 
Q 3797 4528 4122 4306 
z
" id="DejaVuSans-43" transform="scale(0.015625)"/>
      <path d="M 1959 3097 
Q 1497 3097 1228 2736 
Q 959 2375 959 1747 
Q 959 1119 1226 758 
Q 1494 397 1959 397 
Q 2419 397 2687 759 
Q 2956 1122 2956 1747 
Q 2956 2369 2687 2733 
Q 2419 3097 1959 3097 
z
M 1959 3584 
Q 2709 3584 3137 3096 
Q 3566 2609 3566 1747 
Q 3566 888 3137 398 
Q 2709 -91 1959 -91 
Q 1206 -91 779 398 
Q 353 888 353 1747 
Q 353 2609 779 3096 
Q 1206 3584 1959 3584 
z
" id="DejaVuSans-6f" transform="scale(0.015625)"/>
      <path d="M 3513 2113 
L 3513 0 
L 2938 0 
L 2938 2094 
Q 2938 2591 2744 2837 
Q 2550 3084 2163 3084 
Q 1697 3084 1428 2787 
Q 1159 2491 1159 1978 
L 1159 0 
L 581 0 
L 581 3500 
L 1159 3500 
L 1159 2956 
Q 1366 3272 1645 3428 
Q 1925 3584 2291 3584 
Q 2894 3584 3203 3211 
Q 3513 2838 3513 2113 
z
" id="DejaVuSans-6e" transform="scale(0.015625)"/>
      <path d="M 750 794 
L 1409 794 
L 1409 0 
L 750 0 
L 750 794 
z
M 750 3309 
L 1409 3309 
L 1409 2516 
L 750 2516 
L 750 3309 
z
" id="DejaVuSans-3a" transform="scale(0.015625)"/>
      <path d="M 1259 2228 
L 1259 519 
L 2272 519 
Q 2781 519 3026 730 
Q 3272 941 3272 1375 
Q 3272 1813 3026 2020 
Q 2781 2228 2272 2228 
L 1259 2228 
z
M 1259 4147 
L 1259 2741 
L 2194 2741 
Q 2656 2741 2882 2914 
Q 3109 3088 3109 3444 
Q 3109 3797 2882 3972 
Q 2656 4147 2194 4147 
L 1259 4147 
z
M 628 4666 
L 2241 4666 
Q 2963 4666 3353 4366 
Q 3744 4066 3744 3513 
Q 3744 3084 3544 2831 
Q 3344 2578 2956 2516 
Q 3422 2416 3680 2098 
Q 3938 1781 3938 1306 
Q 3938 681 3513 340 
Q 3088 0 2303 0 
L 628 0 
L 628 4666 
z
" id="DejaVuSans-42" transform="scale(0.015625)"/>
      <path d="M 603 3500 
L 1178 3500 
L 1178 0 
L 603 0 
L 603 3500 
z
M 603 4863 
L 1178 4863 
L 1178 4134 
L 603 4134 
L 603 4863 
z
" id="DejaVuSans-69" transform="scale(0.015625)"/>
      <path d="M 2059 -325 
Q 1816 -950 1584 -1140 
Q 1353 -1331 966 -1331 
L 506 -1331 
L 506 -850 
L 844 -850 
Q 1081 -850 1212 -737 
Q 1344 -625 1503 -206 
L 1606 56 
L 191 3500 
L 800 3500 
L 1894 763 
L 2988 3500 
L 3597 3500 
L 2059 -325 
z
" id="DejaVuSans-79" transform="scale(0.015625)"/>
      <path d="M 1159 525 
L 1159 -1331 
L 581 -1331 
L 581 3500 
L 1159 3500 
L 1159 2969 
Q 1341 3281 1617 3432 
Q 1894 3584 2278 3584 
Q 2916 3584 3314 3078 
Q 3713 2572 3713 1747 
Q 3713 922 3314 415 
Q 2916 -91 2278 -91 
Q 1894 -91 1617 61 
Q 1341 213 1159 525 
z
M 3116 1747 
Q 3116 2381 2855 2742 
Q 2594 3103 2138 3103 
Q 1681 3103 1420 2742 
Q 1159 2381 1159 1747 
Q 1159 1113 1420 752 
Q 1681 391 2138 391 
Q 2594 391 2855 752 
Q 3116 1113 3116 1747 
z
" id="DejaVuSans-70" transform="scale(0.015625)"/>
     </defs>
     <use xlink:href="#DejaVuSans-66"/>
     <use x="35.205078" xlink:href="#DejaVuSans-65"/>
     <use x="96.728516" xlink:href="#DejaVuSans-61"/>
     <use x="158.007812" xlink:href="#DejaVuSans-74"/>
     <use x="197.216797" xlink:href="#DejaVuSans-75"/>
     <use x="260.595703" xlink:href="#DejaVuSans-72"/>
     <use x="299.458984" xlink:href="#DejaVuSans-65"/>
     <use x="360.982422" xlink:href="#DejaVuSans-43"/>
     <use x="430.806641" xlink:href="#DejaVuSans-6f"/>
     <use x="491.988281" xlink:href="#DejaVuSans-75"/>
     <use x="555.367188" xlink:href="#DejaVuSans-6e"/>
     <use x="618.746094" xlink:href="#DejaVuSans-74"/>
     <use x="657.955078" xlink:href="#DejaVuSans-73"/>
     <use x="710.054688" xlink:href="#DejaVuSans-3a"/>
     <use x="743.746094" xlink:href="#DejaVuSans-20"/>
     <use x="775.533203" xlink:href="#DejaVuSans-42"/>
     <use x="844.136719" xlink:href="#DejaVuSans-69"/>
     <use x="871.919922" xlink:href="#DejaVuSans-6f"/>
     <use x="933.101562" xlink:href="#DejaVuSans-74"/>
     <use x="972.310547" xlink:href="#DejaVuSans-79"/>
     <use x="1031.490234" xlink:href="#DejaVuSans-70"/>
     <use x="1094.966797" xlink:href="#DejaVuSans-65"/>
     <use x="1156.490234" xlink:href="#DejaVuSans-73"/>
    </g>
   </g>
   <g id="legend_1">
    <g id="patch_188">
     <path d="M 59.171875 342.56875 
L 75.171875 342.56875 
L 75.171875 336.96875 
L 59.171875 336.96875 
z
" style="fill:#7cb5ec;"/>
    </g>
    <g id="text_18">
     <!-- lncRNA -->
     <g transform="translate(81.571875 342.56875)scale(0.08 -0.08)">
      <defs>
       <path d="M 603 4863 
L 1178 4863 
L 1178 0 
L 603 0 
L 603 4863 
z
" id="DejaVuSans-6c" transform="scale(0.015625)"/>
       <path d="M 3122 3366 
L 3122 2828 
Q 2878 2963 2633 3030 
Q 2388 3097 2138 3097 
Q 1578 3097 1268 2742 
Q 959 2388 959 1747 
Q 959 1106 1268 751 
Q 1578 397 2138 397 
Q 2388 397 2633 464 
Q 2878 531 3122 666 
L 3122 134 
Q 2881 22 2623 -34 
Q 2366 -91 2075 -91 
Q 1284 -91 818 406 
Q 353 903 353 1747 
Q 353 2603 823 3093 
Q 1294 3584 2113 3584 
Q 2378 3584 2631 3529 
Q 2884 3475 3122 3366 
z
" id="DejaVuSans-63" transform="scale(0.015625)"/>
       <path d="M 628 4666 
L 1478 4666 
L 3547 763 
L 3547 4666 
L 4159 4666 
L 4159 0 
L 3309 0 
L 1241 3903 
L 1241 0 
L 628 0 
L 628 4666 
z
" id="DejaVuSans-4e" transform="scale(0.015625)"/>
       <path d="M 2188 4044 
L 1331 1722 
L 3047 1722 
L 2188 4044 
z
M 1831 4666 
L 2547 4666 
L 4325 0 
L 3669 0 
L 3244 1197 
L 1141 1197 
L 716 0 
L 50 0 
L 1831 4666 
z
" id="DejaVuSans-41" transform="scale(0.015625)"/>
      </defs>
      <use xlink:href="#DejaVuSans-6c"/>
      <use x="27.783203" xlink:href="#DejaVuSans-6e"/>
      <use x="91.162109" xlink:href="#DejaVuSans-63"/>
      <use x="146.142578" xlink:href="#DejaVuSans-52"/>
      <use x="215.625" xlink:href="#DejaVuSans-4e"/>
      <use x="290.429688" xlink:href="#DejaVuSans-41"/>
     </g>
    </g>
    <g id="patch_189">
     <path d="M 59.171875 354.31125 
L 75.171875 354.31125 
L 75.171875 348.71125 
L 59.171875 348.71125 
z
" style="fill:#434348;"/>
    </g>
    <g id="text_19">
     <!-- protein_coding -->
     <g transform="translate(81.571875 354.31125)scale(0.08 -0.08)">
      <defs>
       <path d="M 2906 1791 
Q 2906 2416 2648 2759 
Q 2391 3103 1925 3103 
Q 1463 3103 1205 2759 
Q 947 2416 947 1791 
Q 947 1169 1205 825 
Q 1463 481 1925 481 
Q 2391 481 2648 825 
Q 2906 1169 2906 1791 
z
M 3481 434 
Q 3481 -459 3084 -895 
Q 2688 -1331 1869 -1331 
Q 1566 -1331 1297 -1286 
Q 1028 -1241 775 -1147 
L 775 -588 
Q 1028 -725 1275 -790 
Q 1522 -856 1778 -856 
Q 2344 -856 2625 -561 
Q 2906 -266 2906 331 
L 2906 616 
Q 2728 306 2450 153 
Q 2172 0 1784 0 
Q 1141 0 747 490 
Q 353 981 353 1791 
Q 353 2603 747 3093 
Q 1141 3584 1784 3584 
Q 2172 3584 2450 3431 
Q 2728 3278 2906 2969 
L 2906 3500 
L 3481 3500 
L 3481 434 
z
" id="DejaVuSans-67" transform="scale(0.015625)"/>
      </defs>
      <use xlink:href="#DejaVuSans-70"/>
      <use x="63.476562" xlink:href="#DejaVuSans-72"/>
      <use x="102.339844" xlink:href="#DejaVuSans-6f"/>
      <use x="163.521484" xlink:href="#DejaVuSans-74"/>
      <use x="202.730469" xlink:href="#DejaVuSans-65"/>
      <use x="264.253906" xlink:href="#DejaVuSans-69"/>
      <use x="292.037109" xlink:href="#DejaVuSans-6e"/>
      <use x="355.416016" xlink:href="#DejaVuSans-5f"/>
      <use x="405.416016" xlink:href="#DejaVuSans-63"/>
      <use x="460.396484" xlink:href="#DejaVuSans-6f"/>
      <use x="521.578125" xlink:href="#DejaVuSans-64"/>
      <use x="585.054688" xlink:href="#DejaVuSans-69"/>
      <use x="612.837891" xlink:href="#DejaVuSans-6e"/>
      <use x="676.216797" xlink:href="#DejaVuSans-67"/>
     </g>
    </g>
    <g id="patch_190">
     <path d="M 59.171875 366.27625 
L 75.171875 366.27625 
L 75.171875 360.67625 
L 59.171875 360.67625 
z
" style="fill:#90ed7d;"/>
    </g>
    <g id="text_20">
     <!-- processed_pseudogene -->
     <g transform="translate(81.571875 366.27625)scale(0.08 -0.08)">
      <use xlink:href="#DejaVuSans-70"/>
      <use x="63.476562" xlink:href="#DejaVuSans-72"/>
      <use x="102.339844" xlink:href="#DejaVuSans-6f"/>
      <use x="163.521484" xlink:href="#DejaVuSans-63"/>
      <use x="218.501953" xlink:href="#DejaVuSans-65"/>
      <use x="280.025391" xlink:href="#DejaVuSans-73"/>
      <use x="332.125" xlink:href="#DejaVuSans-73"/>
      <use x="384.224609" xlink:href="#DejaVuSans-65"/>
      <use x="445.748047" xlink:href="#DejaVuSans-64"/>
      <use x="509.224609" xlink:href="#DejaVuSans-5f"/>
      <use x="559.224609" xlink:href="#DejaVuSans-70"/>
      <use x="622.701172" xlink:href="#DejaVuSans-73"/>
      <use x="674.800781" xlink:href="#DejaVuSans-65"/>
      <use x="736.324219" xlink:href="#DejaVuSans-75"/>
      <use x="799.703125" xlink:href="#DejaVuSans-64"/>
      <use x="863.179688" xlink:href="#DejaVuSans-6f"/>
      <use x="924.361328" xlink:href="#DejaVuSans-67"/>
      <use x="987.837891" xlink:href="#DejaVuSans-65"/>
      <use x="1049.361328" xlink:href="#DejaVuSans-6e"/>
      <use x="1112.740234" xlink:href="#DejaVuSans-65"/>
     </g>
    </g>
    <g id="patch_191">
     <path d="M 59.171875 378.24125 
L 75.171875 378.24125 
L 75.171875 372.64125 
L 59.171875 372.64125 
z
" style="fill:#f7a35c;"/>
    </g>
    <g id="text_21">
     <!-- TEC -->
     <g transform="translate(81.571875 378.24125)scale(0.08 -0.08)">
      <defs>
       <path d="M -19 4666 
L 3928 4666 
L 3928 4134 
L 2272 4134 
L 2272 0 
L 1638 0 
L 1638 4134 
L -19 4134 
L -19 4666 
z
" id="DejaVuSans-54" transform="scale(0.015625)"/>
       <path d="M 628 4666 
L 3578 4666 
L 3578 4134 
L 1259 4134 
L 1259 2753 
L 3481 2753 
L 3481 2222 
L 1259 2222 
L 1259 531 
L 3634 531 
L 3634 0 
L 628 0 
L 628 4666 
z
" id="DejaVuSans-45" transform="scale(0.015625)"/>
      </defs>
      <use xlink:href="#DejaVuSans-54"/>
      <use x="61.083984" xlink:href="#DejaVuSans-45"/>
      <use x="124.267578" xlink:href="#DejaVuSans-43"/>
     </g>
    </g>
    <g id="patch_192">
     <path d="M 59.171875 389.98375 
L 75.171875 389.98375 
L 75.171875 384.38375 
L 59.171875 384.38375 
z
" style="fill:#8085e9;"/>
    </g>
    <g id="text_22">
     <!-- unprocessed_pseudogene -->
     <g transform="translate(81.571875 389.98375)scale(0.08 -0.08)">
      <use xlink:href="#DejaVuSans-75"/>
      <use x="63.378906" xlink:href="#DejaVuSans-6e"/>
      <use x="126.757812" xlink:href="#DejaVuSans-70"/>
      <use x="190.234375" xlink:href="#DejaVuSans-72"/>
      <use x="229.097656" xlink:href="#DejaVuSans-6f"/>
      <use x="290.279297" xlink:href="#DejaVuSans-63"/>
      <use x="345.259766" xlink:href="#DejaVuSans-65"/>
      <use x="406.783203" xlink:href="#DejaVuSans-73"/>
      <use x="458.882812" xlink:href="#DejaVuSans-73"/>
      <use x="510.982422" xlink:href="#DejaVuSans-65"/>
      <use x="572.505859" xlink:href="#DejaVuSans-64"/>
      <use x="635.982422" xlink:href="#DejaVuSans-5f"/>
      <use x="685.982422" xlink:href="#DejaVuSans-70"/>
      <use x="749.458984" xlink:href="#DejaVuSans-73"/>
      <use x="801.558594" xlink:href="#DejaVuSans-65"/>
      <use x="863.082031" xlink:href="#DejaVuSans-75"/>
      <use x="926.460938" xlink:href="#DejaVuSans-64"/>
      <use x="989.9375" xlink:href="#DejaVuSans-6f"/>
      <use x="1051.119141" xlink:href="#DejaVuSans-67"/>
      <use x="1114.595703" xlink:href="#DejaVuSans-65"/>
      <use x="1176.119141" xlink:href="#DejaVuSans-6e"/>
      <use x="1239.498047" xlink:href="#DejaVuSans-65"/>
     </g>
    </g>
    <g id="patch_193">
     <path d="M 59.171875 401.94875 
L 75.171875 401.94875 
L 75.171875 396.34875 
L 59.171875 396.34875 
z
" style="fill:#f15c80;"/>
    </g>
    <g id="text_23">
     <!-- transcribed_unprocessed_pseudogene -->
     <g transform="translate(81.571875 401.94875)scale(0.08 -0.08)">
      <defs>
       <path d="M 3116 1747 
Q 3116 2381 2855 2742 
Q 2594 3103 2138 3103 
Q 1681 3103 1420 2742 
Q 1159 2381 1159 1747 
Q 1159 1113 1420 752 
Q 1681 391 2138 391 
Q 2594 391 2855 752 
Q 3116 1113 3116 1747 
z
M 1159 2969 
Q 1341 3281 1617 3432 
Q 1894 3584 2278 3584 
Q 2916 3584 3314 3078 
Q 3713 2572 3713 1747 
Q 3713 922 3314 415 
Q 2916 -91 2278 -91 
Q 1894 -91 1617 61 
Q 1341 213 1159 525 
L 1159 0 
L 581 0 
L 581 4863 
L 1159 4863 
L 1159 2969 
z
" id="DejaVuSans-62" transform="scale(0.015625)"/>
      </defs>
      <use xlink:href="#DejaVuSans-74"/>
      <use x="39.208984" xlink:href="#DejaVuSans-72"/>
      <use x="80.322266" xlink:href="#DejaVuSans-61"/>
      <use x="141.601562" xlink:href="#DejaVuSans-6e"/>
      <use x="204.980469" xlink:href="#DejaVuSans-73"/>
      <use x="257.080078" xlink:href="#DejaVuSans-63"/>
      <use x="312.060547" xlink:href="#DejaVuSans-72"/>
      <use x="353.173828" xlink:href="#DejaVuSans-69"/>
      <use x="380.957031" xlink:href="#DejaVuSans-62"/>
      <use x="444.433594" xlink:href="#DejaVuSans-65"/>
      <use x="505.957031" xlink:href="#DejaVuSans-64"/>
      <use x="569.433594" xlink:href="#DejaVuSans-5f"/>
      <use x="619.433594" xlink:href="#DejaVuSans-75"/>
      <use x="682.8125" xlink:href="#DejaVuSans-6e"/>
      <use x="746.191406" xlink:href="#DejaVuSans-70"/>
      <use x="809.667969" xlink:href="#DejaVuSans-72"/>
      <use x="848.53125" xlink:href="#DejaVuSans-6f"/>
      <use x="909.712891" xlink:href="#DejaVuSans-63"/>
      <use x="964.693359" xlink:href="#DejaVuSans-65"/>
      <use x="1026.216797" xlink:href="#DejaVuSans-73"/>
      <use x="1078.316406" xlink:href="#DejaVuSans-73"/>
      <use x="1130.416016" xlink:href="#DejaVuSans-65"/>
      <use x="1191.939453" xlink:href="#DejaVuSans-64"/>
      <use x="1255.416016" xlink:href="#DejaVuSans-5f"/>
      <use x="1305.416016" xlink:href="#DejaVuSans-70"/>
      <use x="1368.892578" xlink:href="#DejaVuSans-73"/>
      <use x="1420.992188" xlink:href="#DejaVuSans-65"/>
      <use x="1482.515625" xlink:href="#DejaVuSans-75"/>
      <use x="1545.894531" xlink:href="#DejaVuSans-64"/>
      <use x="1609.371094" xlink:href="#DejaVuSans-6f"/>
      <use x="1670.552734" xlink:href="#DejaVuSans-67"/>
      <use x="1734.029297" xlink:href="#DejaVuSans-65"/>
      <use x="1795.552734" xlink:href="#DejaVuSans-6e"/>
      <use x="1858.931641" xlink:href="#DejaVuSans-65"/>
     </g>
    </g>
    <g id="patch_194">
     <path d="M 59.171875 413.91375 
L 75.171875 413.91375 
L 75.171875 408.31375 
L 59.171875 408.31375 
z
" style="fill:#e4d354;"/>
    </g>
    <g id="text_24">
     <!-- transcribed_processed_pseudogene -->
     <g transform="translate(81.571875 413.91375)scale(0.08 -0.08)">
      <use xlink:href="#DejaVuSans-74"/>
      <use x="39.208984" xlink:href="#DejaVuSans-72"/>
      <use x="80.322266" xlink:href="#DejaVuSans-61"/>
      <use x="141.601562" xlink:href="#DejaVuSans-6e"/>
      <use x="204.980469" xlink:href="#DejaVuSans-73"/>
      <use x="257.080078" xlink:href="#DejaVuSans-63"/>
      <use x="312.060547" xlink:href="#DejaVuSans-72"/>
      <use x="353.173828" xlink:href="#DejaVuSans-69"/>
      <use x="380.957031" xlink:href="#DejaVuSans-62"/>
      <use x="444.433594" xlink:href="#DejaVuSans-65"/>
      <use x="505.957031" xlink:href="#DejaVuSans-64"/>
      <use x="569.433594" xlink:href="#DejaVuSans-5f"/>
      <use x="619.433594" xlink:href="#DejaVuSans-70"/>
      <use x="682.910156" xlink:href="#DejaVuSans-72"/>
      <use x="721.773438" xlink:href="#DejaVuSans-6f"/>
      <use x="782.955078" xlink:href="#DejaVuSans-63"/>
      <use x="837.935547" xlink:href="#DejaVuSans-65"/>
      <use x="899.458984" xlink:href="#DejaVuSans-73"/>
      <use x="951.558594" xlink:href="#DejaVuSans-73"/>
      <use x="1003.658203" xlink:href="#DejaVuSans-65"/>
      <use x="1065.181641" xlink:href="#DejaVuSans-64"/>
      <use x="1128.658203" xlink:href="#DejaVuSans-5f"/>
      <use x="1178.658203" xlink:href="#DejaVuSans-70"/>
      <use x="1242.134766" xlink:href="#DejaVuSans-73"/>
      <use x="1294.234375" xlink:href="#DejaVuSans-65"/>
      <use x="1355.757812" xlink:href="#DejaVuSans-75"/>
      <use x="1419.136719" xlink:href="#DejaVuSans-64"/>
      <use x="1482.613281" xlink:href="#DejaVuSans-6f"/>
      <use x="1543.794922" xlink:href="#DejaVuSans-67"/>
      <use x="1607.271484" xlink:href="#DejaVuSans-65"/>
      <use x="1668.794922" xlink:href="#DejaVuSans-6e"/>
      <use x="1732.173828" xlink:href="#DejaVuSans-65"/>
     </g>
    </g>
    <g id="patch_195">
     <path d="M 254.767188 342.56875 
L 270.767188 342.56875 
L 270.767188 336.96875 
L 254.767188 336.96875 
z
" style="fill:#2b908f;"/>
    </g>
    <g id="text_25">
     <!-- unitary_pseudogene -->
     <g transform="translate(277.167188 342.56875)scale(0.08 -0.08)">
      <use xlink:href="#DejaVuSans-75"/>
      <use x="63.378906" xlink:href="#DejaVuSans-6e"/>
      <use x="126.757812" xlink:href="#DejaVuSans-69"/>
      <use x="154.541016" xlink:href="#DejaVuSans-74"/>
      <use x="193.75" xlink:href="#DejaVuSans-61"/>
      <use x="255.029297" xlink:href="#DejaVuSans-72"/>
      <use x="296.142578" xlink:href="#DejaVuSans-79"/>
      <use x="355.322266" xlink:href="#DejaVuSans-5f"/>
      <use x="405.322266" xlink:href="#DejaVuSans-70"/>
      <use x="468.798828" xlink:href="#DejaVuSans-73"/>
      <use x="520.898438" xlink:href="#DejaVuSans-65"/>
      <use x="582.421875" xlink:href="#DejaVuSans-75"/>
      <use x="645.800781" xlink:href="#DejaVuSans-64"/>
      <use x="709.277344" xlink:href="#DejaVuSans-6f"/>
      <use x="770.458984" xlink:href="#DejaVuSans-67"/>
      <use x="833.935547" xlink:href="#DejaVuSans-65"/>
      <use x="895.458984" xlink:href="#DejaVuSans-6e"/>
      <use x="958.837891" xlink:href="#DejaVuSans-65"/>
     </g>
    </g>
    <g id="patch_196">
     <path d="M 254.767188 354.53375 
L 270.767188 354.53375 
L 270.767188 348.93375 
L 254.767188 348.93375 
z
" style="fill:#f45b5b;"/>
    </g>
    <g id="text_26">
     <!-- snRNA -->
     <g transform="translate(277.167188 354.53375)scale(0.08 -0.08)">
      <use xlink:href="#DejaVuSans-73"/>
      <use x="52.099609" xlink:href="#DejaVuSans-6e"/>
      <use x="115.478516" xlink:href="#DejaVuSans-52"/>
      <use x="184.960938" xlink:href="#DejaVuSans-4e"/>
      <use x="259.765625" xlink:href="#DejaVuSans-41"/>
     </g>
    </g>
    <g id="patch_197">
     <path d="M 254.767188 366.27625 
L 270.767188 366.27625 
L 270.767188 360.67625 
L 254.767188 360.67625 
z
" style="fill:#91e8e1;"/>
    </g>
    <g id="text_27">
     <!-- miRNA -->
     <g transform="translate(277.167188 366.27625)scale(0.08 -0.08)">
      <defs>
       <path d="M 3328 2828 
Q 3544 3216 3844 3400 
Q 4144 3584 4550 3584 
Q 5097 3584 5394 3201 
Q 5691 2819 5691 2113 
L 5691 0 
L 5113 0 
L 5113 2094 
Q 5113 2597 4934 2840 
Q 4756 3084 4391 3084 
Q 3944 3084 3684 2787 
Q 3425 2491 3425 1978 
L 3425 0 
L 2847 0 
L 2847 2094 
Q 2847 2600 2669 2842 
Q 2491 3084 2119 3084 
Q 1678 3084 1418 2786 
Q 1159 2488 1159 1978 
L 1159 0 
L 581 0 
L 581 3500 
L 1159 3500 
L 1159 2956 
Q 1356 3278 1631 3431 
Q 1906 3584 2284 3584 
Q 2666 3584 2933 3390 
Q 3200 3197 3328 2828 
z
" id="DejaVuSans-6d" transform="scale(0.015625)"/>
      </defs>
      <use xlink:href="#DejaVuSans-6d"/>
      <use x="97.412109" xlink:href="#DejaVuSans-69"/>
      <use x="125.195312" xlink:href="#DejaVuSans-52"/>
      <use x="194.677734" xlink:href="#DejaVuSans-4e"/>
      <use x="269.482422" xlink:href="#DejaVuSans-41"/>
     </g>
    </g>
    <g id="patch_198">
     <path d="M 254.767188 378.01875 
L 270.767188 378.01875 
L 270.767188 372.41875 
L 254.767188 372.41875 
z
" style="fill:#7cb5ec;"/>
    </g>
    <g id="text_28">
     <!-- scaRNA -->
     <g transform="translate(277.167188 378.01875)scale(0.08 -0.08)">
      <use xlink:href="#DejaVuSans-73"/>
      <use x="52.099609" xlink:href="#DejaVuSans-63"/>
      <use x="107.080078" xlink:href="#DejaVuSans-61"/>
      <use x="168.359375" xlink:href="#DejaVuSans-52"/>
      <use x="237.841797" xlink:href="#DejaVuSans-4e"/>
      <use x="312.646484" xlink:href="#DejaVuSans-41"/>
     </g>
    </g>
    <g id="patch_199">
     <path d="M 254.767188 389.76125 
L 270.767188 389.76125 
L 270.767188 384.16125 
L 254.767188 384.16125 
z
" style="fill:#434348;"/>
    </g>
    <g id="text_29">
     <!-- misc_RNA -->
     <g transform="translate(277.167188 389.76125)scale(0.08 -0.08)">
      <use xlink:href="#DejaVuSans-6d"/>
      <use x="97.412109" xlink:href="#DejaVuSans-69"/>
      <use x="125.195312" xlink:href="#DejaVuSans-73"/>
      <use x="177.294922" xlink:href="#DejaVuSans-63"/>
      <use x="232.275391" xlink:href="#DejaVuSans-5f"/>
      <use x="282.275391" xlink:href="#DejaVuSans-52"/>
      <use x="351.757812" xlink:href="#DejaVuSans-4e"/>
      <use x="426.5625" xlink:href="#DejaVuSans-41"/>
     </g>
    </g>
    <g id="patch_200">
     <path d="M 254.767188 401.72625 
L 270.767188 401.72625 
L 270.767188 396.12625 
L 254.767188 396.12625 
z
" style="fill:#90ed7d;"/>
    </g>
    <g id="text_30">
     <!-- snoRNA -->
     <g transform="translate(277.167188 401.72625)scale(0.08 -0.08)">
      <use xlink:href="#DejaVuSans-73"/>
      <use x="52.099609" xlink:href="#DejaVuSans-6e"/>
      <use x="115.478516" xlink:href="#DejaVuSans-6f"/>
      <use x="176.660156" xlink:href="#DejaVuSans-52"/>
      <use x="246.142578" xlink:href="#DejaVuSans-4e"/>
      <use x="320.947266" xlink:href="#DejaVuSans-41"/>
     </g>
    </g>
    <g id="patch_201">
     <path d="M 378.3525 342.56875 
L 394.3525 342.56875 
L 394.3525 336.96875 
L 378.3525 336.96875 
z
" style="fill:#f7a35c;"/>
    </g>
    <g id="text_31">
     <!-- rRNA_pseudogene -->
     <g transform="translate(400.7525 342.56875)scale(0.08 -0.08)">
      <use xlink:href="#DejaVuSans-72"/>
      <use x="41.113281" xlink:href="#DejaVuSans-52"/>
      <use x="110.595703" xlink:href="#DejaVuSans-4e"/>
      <use x="185.400391" xlink:href="#DejaVuSans-41"/>
      <use x="253.808594" xlink:href="#DejaVuSans-5f"/>
      <use x="303.808594" xlink:href="#DejaVuSans-70"/>
      <use x="367.285156" xlink:href="#DejaVuSans-73"/>
      <use x="419.384766" xlink:href="#DejaVuSans-65"/>
      <use x="480.908203" xlink:href="#DejaVuSans-75"/>
      <use x="544.287109" xlink:href="#DejaVuSans-64"/>
      <use x="607.763672" xlink:href="#DejaVuSans-6f"/>
      <use x="668.945312" xlink:href="#DejaVuSans-67"/>
      <use x="732.421875" xlink:href="#DejaVuSans-65"/>
      <use x="793.945312" xlink:href="#DejaVuSans-6e"/>
      <use x="857.324219" xlink:href="#DejaVuSans-65"/>
     </g>
    </g>
    <g id="patch_202">
     <path d="M 378.3525 354.53375 
L 394.3525 354.53375 
L 394.3525 348.93375 
L 378.3525 348.93375 
z
" style="fill:#8085e9;"/>
    </g>
    <g id="text_32">
     <!-- rRNA -->
     <g transform="translate(400.7525 354.53375)scale(0.08 -0.08)">
      <use xlink:href="#DejaVuSans-72"/>
      <use x="41.113281" xlink:href="#DejaVuSans-52"/>
      <use x="110.595703" xlink:href="#DejaVuSans-4e"/>
      <use x="185.400391" xlink:href="#DejaVuSans-41"/>
     </g>
    </g>
    <g id="patch_203">
     <path d="M 378.3525 366.27625 
L 394.3525 366.27625 
L 394.3525 360.67625 
L 378.3525 360.67625 
z
" style="fill:#f15c80;"/>
    </g>
    <g id="text_33">
     <!-- IG_V_pseudogene -->
     <g transform="translate(400.7525 366.27625)scale(0.08 -0.08)">
      <defs>
       <path d="M 628 4666 
L 1259 4666 
L 1259 0 
L 628 0 
L 628 4666 
z
" id="DejaVuSans-49" transform="scale(0.015625)"/>
       <path d="M 3809 666 
L 3809 1919 
L 2778 1919 
L 2778 2438 
L 4434 2438 
L 4434 434 
Q 4069 175 3628 42 
Q 3188 -91 2688 -91 
Q 1594 -91 976 548 
Q 359 1188 359 2328 
Q 359 3472 976 4111 
Q 1594 4750 2688 4750 
Q 3144 4750 3555 4637 
Q 3966 4525 4313 4306 
L 4313 3634 
Q 3963 3931 3569 4081 
Q 3175 4231 2741 4231 
Q 1884 4231 1454 3753 
Q 1025 3275 1025 2328 
Q 1025 1384 1454 906 
Q 1884 428 2741 428 
Q 3075 428 3337 486 
Q 3600 544 3809 666 
z
" id="DejaVuSans-47" transform="scale(0.015625)"/>
       <path d="M 1831 0 
L 50 4666 
L 709 4666 
L 2188 738 
L 3669 4666 
L 4325 4666 
L 2547 0 
L 1831 0 
z
" id="DejaVuSans-56" transform="scale(0.015625)"/>
      </defs>
      <use xlink:href="#DejaVuSans-49"/>
      <use x="29.492188" xlink:href="#DejaVuSans-47"/>
      <use x="106.982422" xlink:href="#DejaVuSans-5f"/>
      <use x="156.982422" xlink:href="#DejaVuSans-56"/>
      <use x="225.390625" xlink:href="#DejaVuSans-5f"/>
      <use x="275.390625" xlink:href="#DejaVuSans-70"/>
      <use x="338.867188" xlink:href="#DejaVuSans-73"/>
      <use x="390.966797" xlink:href="#DejaVuSans-65"/>
      <use x="452.490234" xlink:href="#DejaVuSans-75"/>
      <use x="515.869141" xlink:href="#DejaVuSans-64"/>
      <use x="579.345703" xlink:href="#DejaVuSans-6f"/>
      <use x="640.527344" xlink:href="#DejaVuSans-67"/>
      <use x="704.003906" xlink:href="#DejaVuSans-65"/>
      <use x="765.527344" xlink:href="#DejaVuSans-6e"/>
      <use x="828.90625" xlink:href="#DejaVuSans-65"/>
     </g>
    </g>
    <g id="patch_204">
     <path d="M 378.3525 378.24125 
L 394.3525 378.24125 
L 394.3525 372.64125 
L 378.3525 372.64125 
z
" style="fill:#e4d354;"/>
    </g>
    <g id="text_34">
     <!-- transcribed_unitary_pseudogene -->
     <g transform="translate(400.7525 378.24125)scale(0.08 -0.08)">
      <use xlink:href="#DejaVuSans-74"/>
      <use x="39.208984" xlink:href="#DejaVuSans-72"/>
      <use x="80.322266" xlink:href="#DejaVuSans-61"/>
      <use x="141.601562" xlink:href="#DejaVuSans-6e"/>
      <use x="204.980469" xlink:href="#DejaVuSans-73"/>
      <use x="257.080078" xlink:href="#DejaVuSans-63"/>
      <use x="312.060547" xlink:href="#DejaVuSans-72"/>
      <use x="353.173828" xlink:href="#DejaVuSans-69"/>
      <use x="380.957031" xlink:href="#DejaVuSans-62"/>
      <use x="444.433594" xlink:href="#DejaVuSans-65"/>
      <use x="505.957031" xlink:href="#DejaVuSans-64"/>
      <use x="569.433594" xlink:href="#DejaVuSans-5f"/>
      <use x="619.433594" xlink:href="#DejaVuSans-75"/>
      <use x="682.8125" xlink:href="#DejaVuSans-6e"/>
      <use x="746.191406" xlink:href="#DejaVuSans-69"/>
      <use x="773.974609" xlink:href="#DejaVuSans-74"/>
      <use x="813.183594" xlink:href="#DejaVuSans-61"/>
      <use x="874.462891" xlink:href="#DejaVuSans-72"/>
      <use x="915.576172" xlink:href="#DejaVuSans-79"/>
      <use x="974.755859" xlink:href="#DejaVuSans-5f"/>
      <use x="1024.755859" xlink:href="#DejaVuSans-70"/>
      <use x="1088.232422" xlink:href="#DejaVuSans-73"/>
      <use x="1140.332031" xlink:href="#DejaVuSans-65"/>
      <use x="1201.855469" xlink:href="#DejaVuSans-75"/>
      <use x="1265.234375" xlink:href="#DejaVuSans-64"/>
      <use x="1328.710938" xlink:href="#DejaVuSans-6f"/>
      <use x="1389.892578" xlink:href="#DejaVuSans-67"/>
      <use x="1453.369141" xlink:href="#DejaVuSans-65"/>
      <use x="1514.892578" xlink:href="#DejaVuSans-6e"/>
      <use x="1578.271484" xlink:href="#DejaVuSans-65"/>
     </g>
    </g>
    <g id="patch_205">
     <path d="M 378.3525 390.20625 
L 394.3525 390.20625 
L 394.3525 384.60625 
L 378.3525 384.60625 
z
" style="fill:#2b908f;"/>
    </g>
    <g id="text_35">
     <!-- IG_V_gene -->
     <g transform="translate(400.7525 390.20625)scale(0.08 -0.08)">
      <use xlink:href="#DejaVuSans-49"/>
      <use x="29.492188" xlink:href="#DejaVuSans-47"/>
      <use x="106.982422" xlink:href="#DejaVuSans-5f"/>
      <use x="156.982422" xlink:href="#DejaVuSans-56"/>
      <use x="225.390625" xlink:href="#DejaVuSans-5f"/>
      <use x="275.390625" xlink:href="#DejaVuSans-67"/>
      <use x="338.867188" xlink:href="#DejaVuSans-65"/>
      <use x="400.390625" xlink:href="#DejaVuSans-6e"/>
      <use x="463.769531" xlink:href="#DejaVuSans-65"/>
     </g>
    </g>
    <g id="patch_206">
     <path d="M 378.3525 402.17125 
L 394.3525 402.17125 
L 394.3525 396.57125 
L 378.3525 396.57125 
z
" style="fill:#f45b5b;"/>
    </g>
    <g id="text_36">
     <!-- IG_C_gene -->
     <g transform="translate(400.7525 402.17125)scale(0.08 -0.08)">
      <use xlink:href="#DejaVuSans-49"/>
      <use x="29.492188" xlink:href="#DejaVuSans-47"/>
      <use x="106.982422" xlink:href="#DejaVuSans-5f"/>
      <use x="156.982422" xlink:href="#DejaVuSans-43"/>
      <use x="226.806641" xlink:href="#DejaVuSans-5f"/>
      <use x="276.806641" xlink:href="#DejaVuSans-67"/>
      <use x="340.283203" xlink:href="#DejaVuSans-65"/>
      <use x="401.806641" xlink:href="#DejaVuSans-6e"/>
      <use x="465.185547" xlink:href="#DejaVuSans-65"/>
     </g>
    </g>
    <g id="patch_207">
     <path d="M 551.492813 342.56875 
L 567.492813 342.56875 
L 567.492813 336.96875 
L 551.492813 336.96875 
z
" style="fill:#91e8e1;"/>
    </g>
    <g id="text_37">
     <!-- IG_J_gene -->
     <g transform="translate(573.892813 342.56875)scale(0.08 -0.08)">
      <defs>
       <path d="M 628 4666 
L 1259 4666 
L 1259 325 
Q 1259 -519 939 -900 
Q 619 -1281 -91 -1281 
L -331 -1281 
L -331 -750 
L -134 -750 
Q 284 -750 456 -515 
Q 628 -281 628 325 
L 628 4666 
z
" id="DejaVuSans-4a" transform="scale(0.015625)"/>
      </defs>
      <use xlink:href="#DejaVuSans-49"/>
      <use x="29.492188" xlink:href="#DejaVuSans-47"/>
      <use x="106.982422" xlink:href="#DejaVuSans-5f"/>
      <use x="156.982422" xlink:href="#DejaVuSans-4a"/>
      <use x="186.474609" xlink:href="#DejaVuSans-5f"/>
      <use x="236.474609" xlink:href="#DejaVuSans-67"/>
      <use x="299.951172" xlink:href="#DejaVuSans-65"/>
      <use x="361.474609" xlink:href="#DejaVuSans-6e"/>
      <use x="424.853516" xlink:href="#DejaVuSans-65"/>
     </g>
    </g>
    <g id="patch_208">
     <path d="M 551.492813 354.53375 
L 567.492813 354.53375 
L 567.492813 348.93375 
L 551.492813 348.93375 
z
" style="fill:#7cb5ec;"/>
    </g>
    <g id="text_38">
     <!-- ribozyme -->
     <g transform="translate(573.892813 354.53375)scale(0.08 -0.08)">
      <defs>
       <path d="M 353 3500 
L 3084 3500 
L 3084 2975 
L 922 459 
L 3084 459 
L 3084 0 
L 275 0 
L 275 525 
L 2438 3041 
L 353 3041 
L 353 3500 
z
" id="DejaVuSans-7a" transform="scale(0.015625)"/>
      </defs>
      <use xlink:href="#DejaVuSans-72"/>
      <use x="41.113281" xlink:href="#DejaVuSans-69"/>
      <use x="68.896484" xlink:href="#DejaVuSans-62"/>
      <use x="132.373047" xlink:href="#DejaVuSans-6f"/>
      <use x="193.554688" xlink:href="#DejaVuSans-7a"/>
      <use x="246.044922" xlink:href="#DejaVuSans-79"/>
      <use x="305.224609" xlink:href="#DejaVuSans-6d"/>
      <use x="402.636719" xlink:href="#DejaVuSans-65"/>
     </g>
    </g>
    <g id="patch_209">
     <path d="M 551.492813 366.27625 
L 567.492813 366.27625 
L 567.492813 360.67625 
L 551.492813 360.67625 
z
" style="fill:#434348;"/>
    </g>
    <g id="text_39">
     <!-- translated_processed_pseudogene -->
     <g transform="translate(573.892813 366.27625)scale(0.08 -0.08)">
      <use xlink:href="#DejaVuSans-74"/>
      <use x="39.208984" xlink:href="#DejaVuSans-72"/>
      <use x="80.322266" xlink:href="#DejaVuSans-61"/>
      <use x="141.601562" xlink:href="#DejaVuSans-6e"/>
      <use x="204.980469" xlink:href="#DejaVuSans-73"/>
      <use x="257.080078" xlink:href="#DejaVuSans-6c"/>
      <use x="284.863281" xlink:href="#DejaVuSans-61"/>
      <use x="346.142578" xlink:href="#DejaVuSans-74"/>
      <use x="385.351562" xlink:href="#DejaVuSans-65"/>
      <use x="446.875" xlink:href="#DejaVuSans-64"/>
      <use x="510.351562" xlink:href="#DejaVuSans-5f"/>
      <use x="560.351562" xlink:href="#DejaVuSans-70"/>
      <use x="623.828125" xlink:href="#DejaVuSans-72"/>
      <use x="662.691406" xlink:href="#DejaVuSans-6f"/>
      <use x="723.873047" xlink:href="#DejaVuSans-63"/>
      <use x="778.853516" xlink:href="#DejaVuSans-65"/>
      <use x="840.376953" xlink:href="#DejaVuSans-73"/>
      <use x="892.476562" xlink:href="#DejaVuSans-73"/>
      <use x="944.576172" xlink:href="#DejaVuSans-65"/>
      <use x="1006.099609" xlink:href="#DejaVuSans-64"/>
      <use x="1069.576172" xlink:href="#DejaVuSans-5f"/>
      <use x="1119.576172" xlink:href="#DejaVuSans-70"/>
      <use x="1183.052734" xlink:href="#DejaVuSans-73"/>
      <use x="1235.152344" xlink:href="#DejaVuSans-65"/>
      <use x="1296.675781" xlink:href="#DejaVuSans-75"/>
      <use x="1360.054688" xlink:href="#DejaVuSans-64"/>
      <use x="1423.53125" xlink:href="#DejaVuSans-6f"/>
      <use x="1484.712891" xlink:href="#DejaVuSans-67"/>
      <use x="1548.189453" xlink:href="#DejaVuSans-65"/>
      <use x="1609.712891" xlink:href="#DejaVuSans-6e"/>
      <use x="1673.091797" xlink:href="#DejaVuSans-65"/>
     </g>
    </g>
    <g id="patch_210">
     <path d="M 551.492813 378.24125 
L 567.492813 378.24125 
L 567.492813 372.64125 
L 551.492813 372.64125 
z
" style="fill:#90ed7d;"/>
    </g>
    <g id="text_40">
     <!-- vault_RNA -->
     <g transform="translate(573.892813 378.24125)scale(0.08 -0.08)">
      <defs>
       <path d="M 191 3500 
L 800 3500 
L 1894 563 
L 2988 3500 
L 3597 3500 
L 2284 0 
L 1503 0 
L 191 3500 
z
" id="DejaVuSans-76" transform="scale(0.015625)"/>
      </defs>
      <use xlink:href="#DejaVuSans-76"/>
      <use x="59.179688" xlink:href="#DejaVuSans-61"/>
      <use x="120.458984" xlink:href="#DejaVuSans-75"/>
      <use x="183.837891" xlink:href="#DejaVuSans-6c"/>
      <use x="211.621094" xlink:href="#DejaVuSans-74"/>
      <use x="250.830078" xlink:href="#DejaVuSans-5f"/>
      <use x="300.830078" xlink:href="#DejaVuSans-52"/>
      <use x="370.3125" xlink:href="#DejaVuSans-4e"/>
      <use x="445.117188" xlink:href="#DejaVuSans-41"/>
     </g>
    </g>
    <g id="patch_211">
     <path d="M 551.492813 390.20625 
L 567.492813 390.20625 
L 567.492813 384.60625 
L 551.492813 384.60625 
z
" style="fill:#f7a35c;"/>
    </g>
    <g id="text_41">
     <!-- TR_V_gene -->
     <g transform="translate(573.892813 390.20625)scale(0.08 -0.08)">
      <use xlink:href="#DejaVuSans-54"/>
      <use x="61.083984" xlink:href="#DejaVuSans-52"/>
      <use x="130.566406" xlink:href="#DejaVuSans-5f"/>
      <use x="180.566406" xlink:href="#DejaVuSans-56"/>
      <use x="248.974609" xlink:href="#DejaVuSans-5f"/>
      <use x="298.974609" xlink:href="#DejaVuSans-67"/>
      <use x="362.451172" xlink:href="#DejaVuSans-65"/>
      <use x="423.974609" xlink:href="#DejaVuSans-6e"/>
      <use x="487.353516" xlink:href="#DejaVuSans-65"/>
     </g>
    </g>
    <g id="patch_212">
     <path d="M 551.492813 402.17125 
L 567.492813 402.17125 
L 567.492813 396.57125 
L 551.492813 396.57125 
z
" style="fill:#8085e9;"/>
    </g>
    <g id="text_42">
     <!-- TR_V_pseudogene -->
     <g transform="translate(573.892813 402.17125)scale(0.08 -0.08)">
      <use xlink:href="#DejaVuSans-54"/>
      <use x="61.083984" xlink:href="#DejaVuSans-52"/>
      <use x="130.566406" xlink:href="#DejaVuSans-5f"/>
      <use x="180.566406" xlink:href="#DejaVuSans-56"/>
      <use x="248.974609" xlink:href="#DejaVuSans-5f"/>
      <use x="298.974609" xlink:href="#DejaVuSans-70"/>
      <use x="362.451172" xlink:href="#DejaVuSans-73"/>
      <use x="414.550781" xlink:href="#DejaVuSans-65"/>
      <use x="476.074219" xlink:href="#DejaVuSans-75"/>
      <use x="539.453125" xlink:href="#DejaVuSans-64"/>
      <use x="602.929688" xlink:href="#DejaVuSans-6f"/>
      <use x="664.111328" xlink:href="#DejaVuSans-67"/>
      <use x="727.587891" xlink:href="#DejaVuSans-65"/>
      <use x="789.111328" xlink:href="#DejaVuSans-6e"/>
      <use x="852.490234" xlink:href="#DejaVuSans-65"/>
     </g>
    </g>
    <g id="patch_213">
     <path d="M 732.220625 342.56875 
L 748.220625 342.56875 
L 748.220625 336.96875 
L 732.220625 336.96875 
z
" style="fill:#f15c80;"/>
    </g>
    <g id="text_43">
     <!-- IG_C_pseudogene -->
     <g transform="translate(754.620625 342.56875)scale(0.08 -0.08)">
      <use xlink:href="#DejaVuSans-49"/>
      <use x="29.492188" xlink:href="#DejaVuSans-47"/>
      <use x="106.982422" xlink:href="#DejaVuSans-5f"/>
      <use x="156.982422" xlink:href="#DejaVuSans-43"/>
      <use x="226.806641" xlink:href="#DejaVuSans-5f"/>
      <use x="276.806641" xlink:href="#DejaVuSans-70"/>
      <use x="340.283203" xlink:href="#DejaVuSans-73"/>
      <use x="392.382812" xlink:href="#DejaVuSans-65"/>
      <use x="453.90625" xlink:href="#DejaVuSans-75"/>
      <use x="517.285156" xlink:href="#DejaVuSans-64"/>
      <use x="580.761719" xlink:href="#DejaVuSans-6f"/>
      <use x="641.943359" xlink:href="#DejaVuSans-67"/>
      <use x="705.419922" xlink:href="#DejaVuSans-65"/>
      <use x="766.943359" xlink:href="#DejaVuSans-6e"/>
      <use x="830.322266" xlink:href="#DejaVuSans-65"/>
     </g>
    </g>
    <g id="patch_214">
     <path d="M 732.220625 354.53375 
L 748.220625 354.53375 
L 748.220625 348.93375 
L 732.220625 348.93375 
z
" style="fill:#e4d354;"/>
    </g>
    <g id="text_44">
     <!-- IG_D_gene -->
     <g transform="translate(754.620625 354.53375)scale(0.08 -0.08)">
      <defs>
       <path d="M 1259 4147 
L 1259 519 
L 2022 519 
Q 2988 519 3436 956 
Q 3884 1394 3884 2338 
Q 3884 3275 3436 3711 
Q 2988 4147 2022 4147 
L 1259 4147 
z
M 628 4666 
L 1925 4666 
Q 3281 4666 3915 4102 
Q 4550 3538 4550 2338 
Q 4550 1131 3912 565 
Q 3275 0 1925 0 
L 628 0 
L 628 4666 
z
" id="DejaVuSans-44" transform="scale(0.015625)"/>
      </defs>
      <use xlink:href="#DejaVuSans-49"/>
      <use x="29.492188" xlink:href="#DejaVuSans-47"/>
      <use x="106.982422" xlink:href="#DejaVuSans-5f"/>
      <use x="156.982422" xlink:href="#DejaVuSans-44"/>
      <use x="233.984375" xlink:href="#DejaVuSans-5f"/>
      <use x="283.984375" xlink:href="#DejaVuSans-67"/>
      <use x="347.460938" xlink:href="#DejaVuSans-65"/>
      <use x="408.984375" xlink:href="#DejaVuSans-6e"/>
      <use x="472.363281" xlink:href="#DejaVuSans-65"/>
     </g>
    </g>
    <g id="patch_215">
     <path d="M 732.220625 366.49875 
L 748.220625 366.49875 
L 748.220625 360.89875 
L 732.220625 360.89875 
z
" style="fill:#2b908f;"/>
    </g>
    <g id="text_45">
     <!-- artifact -->
     <g transform="translate(754.620625 366.49875)scale(0.08 -0.08)">
      <use xlink:href="#DejaVuSans-61"/>
      <use x="61.279297" xlink:href="#DejaVuSans-72"/>
      <use x="102.392578" xlink:href="#DejaVuSans-74"/>
      <use x="141.601562" xlink:href="#DejaVuSans-69"/>
      <use x="169.384766" xlink:href="#DejaVuSans-66"/>
      <use x="204.589844" xlink:href="#DejaVuSans-61"/>
      <use x="265.869141" xlink:href="#DejaVuSans-63"/>
      <use x="320.849609" xlink:href="#DejaVuSans-74"/>
     </g>
    </g>
    <g id="patch_216">
     <path d="M 732.220625 378.24125 
L 748.220625 378.24125 
L 748.220625 372.64125 
L 732.220625 372.64125 
z
" style="fill:#f45b5b;"/>
    </g>
    <g id="text_46">
     <!-- Mt_tRNA -->
     <g transform="translate(754.620625 378.24125)scale(0.08 -0.08)">
      <defs>
       <path d="M 628 4666 
L 1569 4666 
L 2759 1491 
L 3956 4666 
L 4897 4666 
L 4897 0 
L 4281 0 
L 4281 4097 
L 3078 897 
L 2444 897 
L 1241 4097 
L 1241 0 
L 628 0 
L 628 4666 
z
" id="DejaVuSans-4d" transform="scale(0.015625)"/>
      </defs>
      <use xlink:href="#DejaVuSans-4d"/>
      <use x="86.279297" xlink:href="#DejaVuSans-74"/>
      <use x="125.488281" xlink:href="#DejaVuSans-5f"/>
      <use x="175.488281" xlink:href="#DejaVuSans-74"/>
      <use x="214.697266" xlink:href="#DejaVuSans-52"/>
      <use x="284.179688" xlink:href="#DejaVuSans-4e"/>
      <use x="358.984375" xlink:href="#DejaVuSans-41"/>
     </g>
    </g>
    <g id="patch_217">
     <path d="M 732.220625 390.20625 
L 748.220625 390.20625 
L 748.220625 384.60625 
L 732.220625 384.60625 
z
" style="fill:#91e8e1;"/>
    </g>
    <g id="text_47">
     <!-- Mt_rRNA -->
     <g transform="translate(754.620625 390.20625)scale(0.08 -0.08)">
      <use xlink:href="#DejaVuSans-4d"/>
      <use x="86.279297" xlink:href="#DejaVuSans-74"/>
      <use x="125.488281" xlink:href="#DejaVuSans-5f"/>
      <use x="175.488281" xlink:href="#DejaVuSans-72"/>
      <use x="216.601562" xlink:href="#DejaVuSans-52"/>
      <use x="286.083984" xlink:href="#DejaVuSans-4e"/>
      <use x="360.888672" xlink:href="#DejaVuSans-41"/>
     </g>
    </g>
    <g id="patch_218">
     <path d="M 732.220625 402.17125 
L 748.220625 402.17125 
L 748.220625 396.57125 
L 732.220625 396.57125 
z
" style="fill:#7cb5ec;"/>
    </g>
    <g id="text_48">
     <!-- pseudogene -->
     <g transform="translate(754.620625 402.17125)scale(0.08 -0.08)">
      <use xlink:href="#DejaVuSans-70"/>
      <use x="63.476562" xlink:href="#DejaVuSans-73"/>
      <use x="115.576172" xlink:href="#DejaVuSans-65"/>
      <use x="177.099609" xlink:href="#DejaVuSans-75"/>
      <use x="240.478516" xlink:href="#DejaVuSans-64"/>
      <use x="303.955078" xlink:href="#DejaVuSans-6f"/>
      <use x="365.136719" xlink:href="#DejaVuSans-67"/>
      <use x="428.613281" xlink:href="#DejaVuSans-65"/>
      <use x="490.136719" xlink:href="#DejaVuSans-6e"/>
      <use x="553.515625" xlink:href="#DejaVuSans-65"/>
     </g>
    </g>
   </g>
  </g>
 </g>
 <defs>
  <clipPath id="p31734ca7d8">
   <rect height="332.64" width="781.2" x="51.971875" y="7.2"/>
  </clipPath>
 </defs>
</svg>
