<?xml version="1.0" encoding="utf-8" standalone="no"?>
<!DOCTYPE svg PUBLIC "-//W3C//DTD SVG 1.1//EN"
  "http://www.w3.org/Graphics/SVG/1.1/DTD/svg11.dtd">
<svg height="330.541644pt" version="1.1" viewBox="0 0 1000.340625 330.541644" width="1000.340625pt" xmlns="http://www.w3.org/2000/svg" xmlns:xlink="http://www.w3.org/1999/xlink">
 <metadata>
  <rdf:RDF xmlns:cc="http://creativecommons.org/ns#" xmlns:dc="http://purl.org/dc/elements/1.1/" xmlns:rdf="http://www.w3.org/1999/02/22-rdf-syntax-ns#">
   <cc:Work>
    <dc:type rdf:resource="http://purl.org/dc/dcmitype/StillImage"/>
    <dc:date>2024-09-06T15:37:39.076581</dc:date>
    <dc:format>image/svg+xml</dc:format>
    <dc:creator>
     <cc:Agent>
      <dc:title>Matplotlib v3.4.2, https://matplotlib.org/</dc:title>
     </cc:Agent>
    </dc:creator>
   </cc:Work>
  </rdf:RDF>
 </metadata>
 <defs>
  <style type="text/css">*{stroke-linecap:butt;stroke-linejoin:round;}</style>
 </defs>
 <g id="figure_1">
  <g id="axes_1">
   <g id="patch_1">
    <path d="M 40.600625 273.99006 
L 993.140625 273.99006 
L 993.140625 31.48286 
L 40.600625 31.48286 
z
" style="fill:#ffffff;"/>
   </g>
   <g id="matplotlib.axis_1">
    <g id="xtick_1">
     <g id="text_1">
      <!-- 0 -->
      <g transform="translate(72.605974 287.06881)scale(0.08 -0.08)">
       <defs>
        <path d="M 2034 4250 
Q 1547 4250 1301 3770 
Q 1056 3291 1056 2328 
Q 1056 1369 1301 889 
Q 1547 409 2034 409 
Q 2525 409 2770 889 
Q 3016 1369 3016 2328 
Q 3016 3291 2770 3770 
Q 2525 4250 2034 4250 
z
M 2034 4750 
Q 2819 4750 3233 4129 
Q 3647 3509 3647 2328 
Q 3647 1150 3233 529 
Q 2819 -91 2034 -91 
Q 1250 -91 836 529 
Q 422 1150 422 2328 
Q 422 3509 836 4129 
Q 1250 4750 2034 4750 
z
" id="DejaVuSans-30" transform="scale(0.015625)"/>
       </defs>
       <use xlink:href="#DejaVuSans-30"/>
      </g>
     </g>
    </g>
    <g id="xtick_2">
     <g id="text_2">
      <!-- 20 -->
      <g transform="translate(244.99945 287.06881)scale(0.08 -0.08)">
       <defs>
        <path d="M 1228 531 
L 3431 531 
L 3431 0 
L 469 0 
L 469 531 
Q 828 903 1448 1529 
Q 2069 2156 2228 2338 
Q 2531 2678 2651 2914 
Q 2772 3150 2772 3378 
Q 2772 3750 2511 3984 
Q 2250 4219 1831 4219 
Q 1534 4219 1204 4116 
Q 875 4013 500 3803 
L 500 4441 
Q 881 4594 1212 4672 
Q 1544 4750 1819 4750 
Q 2544 4750 2975 4387 
Q 3406 4025 3406 3419 
Q 3406 3131 3298 2873 
Q 3191 2616 2906 2266 
Q 2828 2175 2409 1742 
Q 1991 1309 1228 531 
z
" id="DejaVuSans-32" transform="scale(0.015625)"/>
       </defs>
       <use xlink:href="#DejaVuSans-32"/>
       <use x="63.623047" xlink:href="#DejaVuSans-30"/>
      </g>
     </g>
    </g>
    <g id="xtick_3">
     <g id="text_3">
      <!-- 40 -->
      <g transform="translate(419.937925 287.06881)scale(0.08 -0.08)">
       <defs>
        <path d="M 2419 4116 
L 825 1625 
L 2419 1625 
L 2419 4116 
z
M 2253 4666 
L 3047 4666 
L 3047 1625 
L 3713 1625 
L 3713 1100 
L 3047 1100 
L 3047 0 
L 2419 0 
L 2419 1100 
L 313 1100 
L 313 1709 
L 2253 4666 
z
" id="DejaVuSans-34" transform="scale(0.015625)"/>
       </defs>
       <use xlink:href="#DejaVuSans-34"/>
       <use x="63.623047" xlink:href="#DejaVuSans-30"/>
      </g>
     </g>
    </g>
    <g id="xtick_4">
     <g id="text_4">
      <!-- 60 -->
      <g transform="translate(594.876401 287.06881)scale(0.08 -0.08)">
       <defs>
        <path d="M 2113 2584 
Q 1688 2584 1439 2293 
Q 1191 2003 1191 1497 
Q 1191 994 1439 701 
Q 1688 409 2113 409 
Q 2538 409 2786 701 
Q 3034 994 3034 1497 
Q 3034 2003 2786 2293 
Q 2538 2584 2113 2584 
z
M 3366 4563 
L 3366 3988 
Q 3128 4100 2886 4159 
Q 2644 4219 2406 4219 
Q 1781 4219 1451 3797 
Q 1122 3375 1075 2522 
Q 1259 2794 1537 2939 
Q 1816 3084 2150 3084 
Q 2853 3084 3261 2657 
Q 3669 2231 3669 1497 
Q 3669 778 3244 343 
Q 2819 -91 2113 -91 
Q 1303 -91 875 529 
Q 447 1150 447 2328 
Q 447 3434 972 4092 
Q 1497 4750 2381 4750 
Q 2619 4750 2861 4703 
Q 3103 4656 3366 4563 
z
" id="DejaVuSans-36" transform="scale(0.015625)"/>
       </defs>
       <use xlink:href="#DejaVuSans-36"/>
       <use x="63.623047" xlink:href="#DejaVuSans-30"/>
      </g>
     </g>
    </g>
    <g id="xtick_5">
     <g id="text_5">
      <!-- 80 -->
      <g transform="translate(769.814877 287.06881)scale(0.08 -0.08)">
       <defs>
        <path d="M 2034 2216 
Q 1584 2216 1326 1975 
Q 1069 1734 1069 1313 
Q 1069 891 1326 650 
Q 1584 409 2034 409 
Q 2484 409 2743 651 
Q 3003 894 3003 1313 
Q 3003 1734 2745 1975 
Q 2488 2216 2034 2216 
z
M 1403 2484 
Q 997 2584 770 2862 
Q 544 3141 544 3541 
Q 544 4100 942 4425 
Q 1341 4750 2034 4750 
Q 2731 4750 3128 4425 
Q 3525 4100 3525 3541 
Q 3525 3141 3298 2862 
Q 3072 2584 2669 2484 
Q 3125 2378 3379 2068 
Q 3634 1759 3634 1313 
Q 3634 634 3220 271 
Q 2806 -91 2034 -91 
Q 1263 -91 848 271 
Q 434 634 434 1313 
Q 434 1759 690 2068 
Q 947 2378 1403 2484 
z
M 1172 3481 
Q 1172 3119 1398 2916 
Q 1625 2713 2034 2713 
Q 2441 2713 2670 2916 
Q 2900 3119 2900 3481 
Q 2900 3844 2670 4047 
Q 2441 4250 2034 4250 
Q 1625 4250 1398 4047 
Q 1172 3844 1172 3481 
z
" id="DejaVuSans-38" transform="scale(0.015625)"/>
       </defs>
       <use xlink:href="#DejaVuSans-38"/>
       <use x="63.623047" xlink:href="#DejaVuSans-30"/>
      </g>
     </g>
    </g>
    <g id="xtick_6">
     <g id="text_6">
      <!-- 100 -->
      <g transform="translate(942.208352 287.06881)scale(0.08 -0.08)">
       <defs>
        <path d="M 794 531 
L 1825 531 
L 1825 4091 
L 703 3866 
L 703 4441 
L 1819 4666 
L 2450 4666 
L 2450 531 
L 3481 531 
L 3481 0 
L 794 0 
L 794 531 
z
" id="DejaVuSans-31" transform="scale(0.015625)"/>
       </defs>
       <use xlink:href="#DejaVuSans-31"/>
       <use x="63.623047" xlink:href="#DejaVuSans-30"/>
       <use x="127.246094" xlink:href="#DejaVuSans-30"/>
      </g>
     </g>
    </g>
    <g id="text_7">
     <!-- Length Trimmed (bp) -->
     <g transform="translate(464.443281 300.330997)scale(0.1 -0.1)">
      <defs>
       <path d="M 628 4666 
L 1259 4666 
L 1259 531 
L 3531 531 
L 3531 0 
L 628 0 
L 628 4666 
z
" id="DejaVuSans-4c" transform="scale(0.015625)"/>
       <path d="M 3597 1894 
L 3597 1613 
L 953 1613 
Q 991 1019 1311 708 
Q 1631 397 2203 397 
Q 2534 397 2845 478 
Q 3156 559 3463 722 
L 3463 178 
Q 3153 47 2828 -22 
Q 2503 -91 2169 -91 
Q 1331 -91 842 396 
Q 353 884 353 1716 
Q 353 2575 817 3079 
Q 1281 3584 2069 3584 
Q 2775 3584 3186 3129 
Q 3597 2675 3597 1894 
z
M 3022 2063 
Q 3016 2534 2758 2815 
Q 2500 3097 2075 3097 
Q 1594 3097 1305 2825 
Q 1016 2553 972 2059 
L 3022 2063 
z
" id="DejaVuSans-65" transform="scale(0.015625)"/>
       <path d="M 3513 2113 
L 3513 0 
L 2938 0 
L 2938 2094 
Q 2938 2591 2744 2837 
Q 2550 3084 2163 3084 
Q 1697 3084 1428 2787 
Q 1159 2491 1159 1978 
L 1159 0 
L 581 0 
L 581 3500 
L 1159 3500 
L 1159 2956 
Q 1366 3272 1645 3428 
Q 1925 3584 2291 3584 
Q 2894 3584 3203 3211 
Q 3513 2838 3513 2113 
z
" id="DejaVuSans-6e" transform="scale(0.015625)"/>
       <path d="M 2906 1791 
Q 2906 2416 2648 2759 
Q 2391 3103 1925 3103 
Q 1463 3103 1205 2759 
Q 947 2416 947 1791 
Q 947 1169 1205 825 
Q 1463 481 1925 481 
Q 2391 481 2648 825 
Q 2906 1169 2906 1791 
z
M 3481 434 
Q 3481 -459 3084 -895 
Q 2688 -1331 1869 -1331 
Q 1566 -1331 1297 -1286 
Q 1028 -1241 775 -1147 
L 775 -588 
Q 1028 -725 1275 -790 
Q 1522 -856 1778 -856 
Q 2344 -856 2625 -561 
Q 2906 -266 2906 331 
L 2906 616 
Q 2728 306 2450 153 
Q 2172 0 1784 0 
Q 1141 0 747 490 
Q 353 981 353 1791 
Q 353 2603 747 3093 
Q 1141 3584 1784 3584 
Q 2172 3584 2450 3431 
Q 2728 3278 2906 2969 
L 2906 3500 
L 3481 3500 
L 3481 434 
z
" id="DejaVuSans-67" transform="scale(0.015625)"/>
       <path d="M 1172 4494 
L 1172 3500 
L 2356 3500 
L 2356 3053 
L 1172 3053 
L 1172 1153 
Q 1172 725 1289 603 
Q 1406 481 1766 481 
L 2356 481 
L 2356 0 
L 1766 0 
Q 1100 0 847 248 
Q 594 497 594 1153 
L 594 3053 
L 172 3053 
L 172 3500 
L 594 3500 
L 594 4494 
L 1172 4494 
z
" id="DejaVuSans-74" transform="scale(0.015625)"/>
       <path d="M 3513 2113 
L 3513 0 
L 2938 0 
L 2938 2094 
Q 2938 2591 2744 2837 
Q 2550 3084 2163 3084 
Q 1697 3084 1428 2787 
Q 1159 2491 1159 1978 
L 1159 0 
L 581 0 
L 581 4863 
L 1159 4863 
L 1159 2956 
Q 1366 3272 1645 3428 
Q 1925 3584 2291 3584 
Q 2894 3584 3203 3211 
Q 3513 2838 3513 2113 
z
" id="DejaVuSans-68" transform="scale(0.015625)"/>
       <path id="DejaVuSans-20" transform="scale(0.015625)"/>
       <path d="M -19 4666 
L 3928 4666 
L 3928 4134 
L 2272 4134 
L 2272 0 
L 1638 0 
L 1638 4134 
L -19 4134 
L -19 4666 
z
" id="DejaVuSans-54" transform="scale(0.015625)"/>
       <path d="M 2631 2963 
Q 2534 3019 2420 3045 
Q 2306 3072 2169 3072 
Q 1681 3072 1420 2755 
Q 1159 2438 1159 1844 
L 1159 0 
L 581 0 
L 581 3500 
L 1159 3500 
L 1159 2956 
Q 1341 3275 1631 3429 
Q 1922 3584 2338 3584 
Q 2397 3584 2469 3576 
Q 2541 3569 2628 3553 
L 2631 2963 
z
" id="DejaVuSans-72" transform="scale(0.015625)"/>
       <path d="M 603 3500 
L 1178 3500 
L 1178 0 
L 603 0 
L 603 3500 
z
M 603 4863 
L 1178 4863 
L 1178 4134 
L 603 4134 
L 603 4863 
z
" id="DejaVuSans-69" transform="scale(0.015625)"/>
       <path d="M 3328 2828 
Q 3544 3216 3844 3400 
Q 4144 3584 4550 3584 
Q 5097 3584 5394 3201 
Q 5691 2819 5691 2113 
L 5691 0 
L 5113 0 
L 5113 2094 
Q 5113 2597 4934 2840 
Q 4756 3084 4391 3084 
Q 3944 3084 3684 2787 
Q 3425 2491 3425 1978 
L 3425 0 
L 2847 0 
L 2847 2094 
Q 2847 2600 2669 2842 
Q 2491 3084 2119 3084 
Q 1678 3084 1418 2786 
Q 1159 2488 1159 1978 
L 1159 0 
L 581 0 
L 581 3500 
L 1159 3500 
L 1159 2956 
Q 1356 3278 1631 3431 
Q 1906 3584 2284 3584 
Q 2666 3584 2933 3390 
Q 3200 3197 3328 2828 
z
" id="DejaVuSans-6d" transform="scale(0.015625)"/>
       <path d="M 2906 2969 
L 2906 4863 
L 3481 4863 
L 3481 0 
L 2906 0 
L 2906 525 
Q 2725 213 2448 61 
Q 2172 -91 1784 -91 
Q 1150 -91 751 415 
Q 353 922 353 1747 
Q 353 2572 751 3078 
Q 1150 3584 1784 3584 
Q 2172 3584 2448 3432 
Q 2725 3281 2906 2969 
z
M 947 1747 
Q 947 1113 1208 752 
Q 1469 391 1925 391 
Q 2381 391 2643 752 
Q 2906 1113 2906 1747 
Q 2906 2381 2643 2742 
Q 2381 3103 1925 3103 
Q 1469 3103 1208 2742 
Q 947 2381 947 1747 
z
" id="DejaVuSans-64" transform="scale(0.015625)"/>
       <path d="M 1984 4856 
Q 1566 4138 1362 3434 
Q 1159 2731 1159 2009 
Q 1159 1288 1364 580 
Q 1569 -128 1984 -844 
L 1484 -844 
Q 1016 -109 783 600 
Q 550 1309 550 2009 
Q 550 2706 781 3412 
Q 1013 4119 1484 4856 
L 1984 4856 
z
" id="DejaVuSans-28" transform="scale(0.015625)"/>
       <path d="M 3116 1747 
Q 3116 2381 2855 2742 
Q 2594 3103 2138 3103 
Q 1681 3103 1420 2742 
Q 1159 2381 1159 1747 
Q 1159 1113 1420 752 
Q 1681 391 2138 391 
Q 2594 391 2855 752 
Q 3116 1113 3116 1747 
z
M 1159 2969 
Q 1341 3281 1617 3432 
Q 1894 3584 2278 3584 
Q 2916 3584 3314 3078 
Q 3713 2572 3713 1747 
Q 3713 922 3314 415 
Q 2916 -91 2278 -91 
Q 1894 -91 1617 61 
Q 1341 213 1159 525 
L 1159 0 
L 581 0 
L 581 4863 
L 1159 4863 
L 1159 2969 
z
" id="DejaVuSans-62" transform="scale(0.015625)"/>
       <path d="M 1159 525 
L 1159 -1331 
L 581 -1331 
L 581 3500 
L 1159 3500 
L 1159 2969 
Q 1341 3281 1617 3432 
Q 1894 3584 2278 3584 
Q 2916 3584 3314 3078 
Q 3713 2572 3713 1747 
Q 3713 922 3314 415 
Q 2916 -91 2278 -91 
Q 1894 -91 1617 61 
Q 1341 213 1159 525 
z
M 3116 1747 
Q 3116 2381 2855 2742 
Q 2594 3103 2138 3103 
Q 1681 3103 1420 2742 
Q 1159 2381 1159 1747 
Q 1159 1113 1420 752 
Q 1681 391 2138 391 
Q 2594 391 2855 752 
Q 3116 1113 3116 1747 
z
" id="DejaVuSans-70" transform="scale(0.015625)"/>
       <path d="M 513 4856 
L 1013 4856 
Q 1481 4119 1714 3412 
Q 1947 2706 1947 2009 
Q 1947 1309 1714 600 
Q 1481 -109 1013 -844 
L 513 -844 
Q 928 -128 1133 580 
Q 1338 1288 1338 2009 
Q 1338 2731 1133 3434 
Q 928 4138 513 4856 
z
" id="DejaVuSans-29" transform="scale(0.015625)"/>
      </defs>
      <use xlink:href="#DejaVuSans-4c"/>
      <use x="53.962891" xlink:href="#DejaVuSans-65"/>
      <use x="115.486328" xlink:href="#DejaVuSans-6e"/>
      <use x="178.865234" xlink:href="#DejaVuSans-67"/>
      <use x="242.341797" xlink:href="#DejaVuSans-74"/>
      <use x="281.550781" xlink:href="#DejaVuSans-68"/>
      <use x="344.929688" xlink:href="#DejaVuSans-20"/>
      <use x="376.716797" xlink:href="#DejaVuSans-54"/>
      <use x="423.050781" xlink:href="#DejaVuSans-72"/>
      <use x="464.164062" xlink:href="#DejaVuSans-69"/>
      <use x="491.947266" xlink:href="#DejaVuSans-6d"/>
      <use x="589.359375" xlink:href="#DejaVuSans-6d"/>
      <use x="686.771484" xlink:href="#DejaVuSans-65"/>
      <use x="748.294922" xlink:href="#DejaVuSans-64"/>
      <use x="811.771484" xlink:href="#DejaVuSans-20"/>
      <use x="843.558594" xlink:href="#DejaVuSans-28"/>
      <use x="882.572266" xlink:href="#DejaVuSans-62"/>
      <use x="946.048828" xlink:href="#DejaVuSans-70"/>
      <use x="1009.525391" xlink:href="#DejaVuSans-29"/>
     </g>
    </g>
   </g>
   <g id="matplotlib.axis_2">
    <g id="ytick_1">
     <g id="line2d_1">
      <path clip-path="url(#p445a4bdd0b)" d="M 40.600625 273.99006 
L 993.140625 273.99006 
" style="fill:none;stroke:#dedede;stroke-linecap:square;"/>
     </g>
     <g id="text_8">
      <!-- 0.0 -->
      <g transform="translate(20.878125 277.029435)scale(0.08 -0.08)">
       <defs>
        <path d="M 684 794 
L 1344 794 
L 1344 0 
L 684 0 
L 684 794 
z
" id="DejaVuSans-2e" transform="scale(0.015625)"/>
       </defs>
       <use xlink:href="#DejaVuSans-30"/>
       <use x="63.623047" xlink:href="#DejaVuSans-2e"/>
       <use x="95.410156" xlink:href="#DejaVuSans-30"/>
      </g>
     </g>
    </g>
    <g id="ytick_2">
     <g id="line2d_2">
      <path clip-path="url(#p445a4bdd0b)" d="M 40.600625 227.413923 
L 993.140625 227.413923 
" style="fill:none;stroke:#dedede;stroke-linecap:square;"/>
     </g>
     <g id="text_9">
      <!-- 0.2 -->
      <g transform="translate(20.878125 230.453298)scale(0.08 -0.08)">
       <use xlink:href="#DejaVuSans-30"/>
       <use x="63.623047" xlink:href="#DejaVuSans-2e"/>
       <use x="95.410156" xlink:href="#DejaVuSans-32"/>
      </g>
     </g>
    </g>
    <g id="ytick_3">
     <g id="line2d_3">
      <path clip-path="url(#p445a4bdd0b)" d="M 40.600625 180.837786 
L 993.140625 180.837786 
" style="fill:none;stroke:#dedede;stroke-linecap:square;"/>
     </g>
     <g id="text_10">
      <!-- 0.4 -->
      <g transform="translate(20.878125 183.877161)scale(0.08 -0.08)">
       <use xlink:href="#DejaVuSans-30"/>
       <use x="63.623047" xlink:href="#DejaVuSans-2e"/>
       <use x="95.410156" xlink:href="#DejaVuSans-34"/>
      </g>
     </g>
    </g>
    <g id="ytick_4">
     <g id="line2d_4">
      <path clip-path="url(#p445a4bdd0b)" d="M 40.600625 134.261649 
L 993.140625 134.261649 
" style="fill:none;stroke:#dedede;stroke-linecap:square;"/>
     </g>
     <g id="text_11">
      <!-- 0.6 -->
      <g transform="translate(20.878125 137.301024)scale(0.08 -0.08)">
       <use xlink:href="#DejaVuSans-30"/>
       <use x="63.623047" xlink:href="#DejaVuSans-2e"/>
       <use x="95.410156" xlink:href="#DejaVuSans-36"/>
      </g>
     </g>
    </g>
    <g id="ytick_5">
     <g id="line2d_5">
      <path clip-path="url(#p445a4bdd0b)" d="M 40.600625 87.685512 
L 993.140625 87.685512 
" style="fill:none;stroke:#dedede;stroke-linecap:square;"/>
     </g>
     <g id="text_12">
      <!-- 0.8 -->
      <g transform="translate(20.878125 90.724887)scale(0.08 -0.08)">
       <use xlink:href="#DejaVuSans-30"/>
       <use x="63.623047" xlink:href="#DejaVuSans-2e"/>
       <use x="95.410156" xlink:href="#DejaVuSans-38"/>
      </g>
     </g>
    </g>
    <g id="ytick_6">
     <g id="line2d_6">
      <path clip-path="url(#p445a4bdd0b)" d="M 40.600625 41.109374 
L 993.140625 41.109374 
" style="fill:none;stroke:#dedede;stroke-linecap:square;"/>
     </g>
     <g id="text_13">
      <!-- 1.0 -->
      <g transform="translate(20.878125 44.148749)scale(0.08 -0.08)">
       <use xlink:href="#DejaVuSans-31"/>
       <use x="63.623047" xlink:href="#DejaVuSans-2e"/>
       <use x="95.410156" xlink:href="#DejaVuSans-30"/>
      </g>
     </g>
    </g>
    <g id="text_14">
     <!-- Count -->
     <g transform="translate(14.798438 167.584897)rotate(-90)scale(0.1 -0.1)">
      <defs>
       <path d="M 4122 4306 
L 4122 3641 
Q 3803 3938 3442 4084 
Q 3081 4231 2675 4231 
Q 1875 4231 1450 3742 
Q 1025 3253 1025 2328 
Q 1025 1406 1450 917 
Q 1875 428 2675 428 
Q 3081 428 3442 575 
Q 3803 722 4122 1019 
L 4122 359 
Q 3791 134 3420 21 
Q 3050 -91 2638 -91 
Q 1578 -91 968 557 
Q 359 1206 359 2328 
Q 359 3453 968 4101 
Q 1578 4750 2638 4750 
Q 3056 4750 3426 4639 
Q 3797 4528 4122 4306 
z
" id="DejaVuSans-43" transform="scale(0.015625)"/>
       <path d="M 1959 3097 
Q 1497 3097 1228 2736 
Q 959 2375 959 1747 
Q 959 1119 1226 758 
Q 1494 397 1959 397 
Q 2419 397 2687 759 
Q 2956 1122 2956 1747 
Q 2956 2369 2687 2733 
Q 2419 3097 1959 3097 
z
M 1959 3584 
Q 2709 3584 3137 3096 
Q 3566 2609 3566 1747 
Q 3566 888 3137 398 
Q 2709 -91 1959 -91 
Q 1206 -91 779 398 
Q 353 888 353 1747 
Q 353 2609 779 3096 
Q 1206 3584 1959 3584 
z
" id="DejaVuSans-6f" transform="scale(0.015625)"/>
       <path d="M 544 1381 
L 544 3500 
L 1119 3500 
L 1119 1403 
Q 1119 906 1312 657 
Q 1506 409 1894 409 
Q 2359 409 2629 706 
Q 2900 1003 2900 1516 
L 2900 3500 
L 3475 3500 
L 3475 0 
L 2900 0 
L 2900 538 
Q 2691 219 2414 64 
Q 2138 -91 1772 -91 
Q 1169 -91 856 284 
Q 544 659 544 1381 
z
M 1991 3584 
L 1991 3584 
z
" id="DejaVuSans-75" transform="scale(0.015625)"/>
      </defs>
      <use xlink:href="#DejaVuSans-43"/>
      <use x="69.824219" xlink:href="#DejaVuSans-6f"/>
      <use x="131.005859" xlink:href="#DejaVuSans-75"/>
      <use x="194.384766" xlink:href="#DejaVuSans-6e"/>
      <use x="257.763672" xlink:href="#DejaVuSans-74"/>
     </g>
    </g>
    <g id="text_15">
     <!-- 1e7 -->
     <g transform="translate(40.600625 28.48286)scale(0.1 -0.1)">
      <defs>
       <path d="M 525 4666 
L 3525 4666 
L 3525 4397 
L 1831 0 
L 1172 0 
L 2766 4134 
L 525 4134 
L 525 4666 
z
" id="DejaVuSans-37" transform="scale(0.015625)"/>
      </defs>
      <use xlink:href="#DejaVuSans-31"/>
      <use x="63.623047" xlink:href="#DejaVuSans-65"/>
      <use x="125.146484" xlink:href="#DejaVuSans-37"/>
     </g>
    </g>
   </g>
   <g id="line2d_7">
    <path clip-path="url(#p445a4bdd0b)" d="M 83.897898 43.03064 
L 92.644822 218.704581 
L 101.391745 254.697665 
L 110.138669 273.399288 
L 118.885593 272.894962 
L 127.632517 273.914956 
L 136.37944 273.854104 
L 145.126364 273.960065 
L 153.873288 273.900983 
L 162.620212 273.908668 
L 171.367136 273.902823 
L 180.114059 273.976716 
L 188.860983 273.951099 
L 197.607907 273.975924 
L 206.354831 273.945789 
L 215.101754 273.956129 
L 223.848678 273.960344 
L 232.595602 273.958738 
L 241.342526 273.965724 
L 250.08945 273.966772 
L 258.836373 273.96102 
L 267.583297 273.968798 
L 276.330221 273.960531 
L 285.077145 273.966469 
L 293.824069 273.967238 
L 302.570992 273.969124 
L 311.317916 273.962813 
L 320.06484 273.972361 
L 328.811764 273.968495 
L 337.558687 273.972804 
L 346.305611 273.970195 
L 355.052535 273.969636 
L 363.799459 273.961276 
L 372.546383 273.967797 
L 381.293306 273.97299 
L 390.04023 273.978835 
L 398.787154 273.981257 
L 407.534078 273.97993 
L 416.281001 273.981117 
L 425.027925 273.97625 
L 433.774849 273.974457 
L 442.521773 273.976623 
L 451.268697 273.975342 
L 460.01562 273.975924 
L 468.762544 273.974527 
L 477.509468 273.972291 
L 486.256392 273.975062 
L 495.003316 273.976716 
L 503.750239 273.981094 
L 512.497163 273.97986 
L 521.244087 273.976064 
L 529.991011 273.979627 
L 538.737934 273.980046 
L 547.484858 273.980023 
L 556.231782 273.98 
L 564.978706 273.981071 
L 573.72563 273.979254 
L 582.472553 273.982026 
L 591.219477 273.982398 
L 599.966401 273.982026 
L 608.713325 273.981048 
L 617.460249 273.984005 
L 626.207172 273.984028 
L 634.954096 273.983469 
L 643.70102 273.979371 
L 652.447944 273.984448 
L 661.194867 273.982142 
L 669.941791 273.983772 
L 678.688715 273.984471 
L 687.435639 273.984215 
L 696.182563 273.984005 
L 704.929486 273.979883 
L 713.67641 273.984867 
L 722.423334 273.98333 
L 731.170258 273.981304 
L 739.917181 273.984401 
L 748.664105 273.982049 
L 757.411029 273.982375 
L 766.157953 273.98468 
L 774.904877 273.982445 
L 783.6518 273.982305 
L 792.398724 273.982095 
L 801.145648 273.984401 
L 809.892572 273.98468 
L 818.639496 273.982328 
L 827.386419 273.976995 
L 836.133343 273.981793 
L 844.880267 273.982049 
L 853.627191 273.983423 
L 862.374114 273.983027 
L 871.121038 273.980116 
L 879.867962 273.980046 
L 888.614886 273.981211 
L 897.36181 273.977904 
L 906.108733 273.976739 
L 914.855657 273.963931 
L 923.602581 273.963675 
L 932.349505 273.882516 
L 941.096428 272.046135 
L 949.843352 273.898398 
" style="fill:none;stroke:#7cb5ec;stroke-linecap:square;"/>
   </g>
   <g id="line2d_8">
    <path clip-path="url(#p445a4bdd0b)" d="M 83.897898 90.468808 
L 92.644822 224.692852 
L 101.391745 256.87638 
L 110.138669 273.476861 
L 118.885593 273.040256 
L 127.632517 273.926367 
L 136.37944 273.875133 
L 145.126364 273.964909 
L 153.873288 273.912115 
L 162.620212 273.918496 
L 171.367136 273.915259 
L 180.114059 273.980349 
L 188.860983 273.958901 
L 197.607907 273.979627 
L 206.354831 273.957759 
L 215.101754 273.958901 
L 223.848678 273.964234 
L 232.595602 273.962231 
L 241.342526 273.968961 
L 250.08945 273.969753 
L 258.836373 273.966842 
L 267.583297 273.975132 
L 276.330221 273.966702 
L 285.077145 273.970521 
L 293.824069 273.972012 
L 302.570992 273.975109 
L 311.317916 273.971383 
L 320.06484 273.977065 
L 328.811764 273.973502 
L 337.558687 273.976716 
L 346.305611 273.976134 
L 355.052535 273.975389 
L 363.799459 273.977368 
L 372.546383 273.97809 
L 381.293306 273.977904 
L 390.04023 273.979045 
L 398.787154 273.980838 
L 407.534078 273.981676 
L 416.281001 273.982212 
L 425.027925 273.980302 
L 433.774849 273.981327 
L 442.521773 273.979347 
L 451.268697 273.980186 
L 460.01562 273.980372 
L 468.762544 273.979976 
L 477.509468 273.978556 
L 486.256392 273.981141 
L 495.003316 273.981257 
L 503.750239 273.984285 
L 512.497163 273.983097 
L 521.244087 273.978742 
L 529.991011 273.983167 
L 538.737934 273.981211 
L 547.484858 273.982375 
L 556.231782 273.983143 
L 564.978706 273.98326 
L 573.72563 273.981606 
L 582.472553 273.982724 
L 591.219477 273.983912 
L 599.966401 273.983772 
L 608.713325 273.982422 
L 617.460249 273.985216 
L 626.207172 273.984587 
L 634.954096 273.983749 
L 643.70102 273.982072 
L 652.447944 273.985006 
L 661.194867 273.985193 
L 669.941791 273.985123 
L 678.688715 273.984634 
L 687.435639 273.984657 
L 696.182563 273.985216 
L 704.929486 273.981443 
L 713.67641 273.985076 
L 722.423334 273.98489 
L 731.170258 273.98312 
L 739.917181 273.985589 
L 748.664105 273.982841 
L 757.411029 273.983749 
L 766.157953 273.984354 
L 774.904877 273.984145 
L 783.6518 273.983539 
L 792.398724 273.983027 
L 801.145648 273.984843 
L 809.892572 273.985309 
L 818.639496 273.984168 
L 827.386419 273.981117 
L 836.133343 273.983609 
L 844.880267 273.985053 
L 853.627191 273.984354 
L 862.374114 273.984587 
L 871.121038 273.983074 
L 879.867962 273.982002 
L 888.614886 273.985286 
L 897.36181 273.980721 
L 906.108733 273.981211 
L 914.855657 273.974015 
L 923.602581 273.973782 
L 932.349505 273.934751 
L 941.096428 273.091304 
L 949.843352 273.928603 
" style="fill:none;stroke:#434348;stroke-linecap:square;"/>
   </g>
   <g id="line2d_9">
    <path clip-path="url(#p445a4bdd0b)" d="M 83.897898 82.931835 
L 92.644822 220.522797 
L 101.391745 256.063929 
L 110.138669 273.401081 
L 118.885593 273.032431 
L 127.632517 273.921989 
L 136.37944 273.865678 
L 145.126364 273.963907 
L 153.873288 273.914141 
L 162.620212 273.914514 
L 171.367136 273.890177 
L 180.114059 273.978579 
L 188.860983 273.953474 
L 197.607907 273.977019 
L 206.354831 273.95231 
L 215.101754 273.95727 
L 223.848678 273.962091 
L 232.595602 273.962347 
L 241.342526 273.967331 
L 250.08945 273.969054 
L 258.836373 273.967354 
L 267.583297 273.973153 
L 276.330221 273.965235 
L 285.077145 273.971406 
L 293.824069 273.971849 
L 302.570992 273.974597 
L 311.317916 273.972687 
L 320.06484 273.976436 
L 328.811764 273.975365 
L 337.558687 273.978602 
L 346.305611 273.977182 
L 355.052535 273.977927 
L 363.799459 273.978602 
L 372.546383 273.978532 
L 381.293306 273.979115 
L 390.04023 273.981374 
L 398.787154 273.981956 
L 407.534078 273.982119 
L 416.281001 273.981816 
L 425.027925 273.979813 
L 433.774849 273.980791 
L 442.521773 273.978765 
L 451.268697 273.981071 
L 460.01562 273.982841 
L 468.762544 273.982515 
L 477.509468 273.980069 
L 486.256392 273.981374 
L 495.003316 273.981979 
L 503.750239 273.983516 
L 512.497163 273.983726 
L 521.244087 273.980978 
L 529.991011 273.983889 
L 538.737934 273.983376 
L 547.484858 273.983865 
L 556.231782 273.983469 
L 564.978706 273.983982 
L 573.72563 273.982422 
L 582.472553 273.984704 
L 591.219477 273.985216 
L 599.966401 273.984354 
L 608.713325 273.98503 
L 617.460249 273.98503 
L 626.207172 273.985589 
L 634.954096 273.984448 
L 643.70102 273.980978 
L 652.447944 273.985961 
L 661.194867 273.98468 
L 669.941791 273.985542 
L 678.688715 273.985775 
L 687.435639 273.985798 
L 696.182563 273.985379 
L 704.929486 273.982748 
L 713.67641 273.985682 
L 722.423334 273.984261 
L 731.170258 273.984285 
L 739.917181 273.985309 
L 748.664105 273.984215 
L 757.411029 273.983819 
L 766.157953 273.985472 
L 774.904877 273.984122 
L 783.6518 273.98305 
L 792.398724 273.983865 
L 801.145648 273.984494 
L 809.892572 273.986241 
L 818.639496 273.983679 
L 827.386419 273.980931 
L 836.133343 273.982468 
L 844.880267 273.985659 
L 853.627191 273.984471 
L 862.374114 273.986008 
L 871.121038 273.983516 
L 879.867962 273.982887 
L 888.614886 273.985193 
L 897.36181 273.98163 
L 906.108733 273.980582 
L 914.855657 273.972664 
L 923.602581 273.975412 
L 932.349505 273.945696 
L 941.096428 273.296099 
L 949.843352 273.940643 
" style="fill:none;stroke:#90ed7d;stroke-linecap:square;"/>
   </g>
   <g id="line2d_10">
    <path clip-path="url(#p445a4bdd0b)" d="M 83.897898 65.921787 
L 92.644822 214.14515 
L 101.391745 253.778997 
L 110.138669 273.358627 
L 118.885593 272.822629 
L 127.632517 273.889758 
L 136.37944 273.844673 
L 145.126364 273.954569 
L 153.873288 273.87348 
L 162.620212 273.880653 
L 171.367136 273.864607 
L 180.114059 273.972804 
L 188.860983 273.924923 
L 197.607907 273.971802 
L 206.354831 273.918635 
L 215.101754 273.930955 
L 223.848678 273.9402 
L 232.595602 273.933237 
L 241.342526 273.94728 
L 250.08945 273.950959 
L 258.836373 273.945557 
L 267.583297 273.957224 
L 276.330221 273.942762 
L 285.077145 273.950098 
L 293.824069 273.951937 
L 302.570992 273.962254 
L 311.317916 273.955128 
L 320.06484 273.96442 
L 328.811764 273.960158 
L 337.558687 273.965445 
L 346.305611 273.963139 
L 355.052535 273.964234 
L 363.799459 273.965468 
L 372.546383 273.970265 
L 381.293306 273.970219 
L 390.04023 273.971267 
L 398.787154 273.973595 
L 407.534078 273.97292 
L 416.281001 273.97306 
L 425.027925 273.966772 
L 433.774849 273.975109 
L 442.521773 273.976646 
L 451.268697 273.979091 
L 460.01562 273.978253 
L 468.762544 273.974294 
L 477.509468 273.975947 
L 486.256392 273.978649 
L 495.003316 273.980419 
L 503.750239 273.980861 
L 512.497163 273.980256 
L 521.244087 273.976204 
L 529.991011 273.981211 
L 538.737934 273.978463 
L 547.484858 273.980535 
L 556.231782 273.98135 
L 564.978706 273.981443 
L 573.72563 273.9783 
L 582.472553 273.981746 
L 591.219477 273.981769 
L 599.966401 273.982002 
L 608.713325 273.983004 
L 617.460249 273.98333 
L 626.207172 273.983726 
L 634.954096 273.982654 
L 643.70102 273.979813 
L 652.447944 273.9834 
L 661.194867 273.983446 
L 669.941791 273.983074 
L 678.688715 273.983493 
L 687.435639 273.982235 
L 696.182563 273.983516 
L 704.929486 273.978695 
L 713.67641 273.983563 
L 722.423334 273.983237 
L 731.170258 273.982258 
L 739.917181 273.985006 
L 748.664105 273.98142 
L 757.411029 273.98128 
L 766.157953 273.983004 
L 774.904877 273.982282 
L 783.6518 273.982468 
L 792.398724 273.983074 
L 801.145648 273.983539 
L 809.892572 273.984261 
L 818.639496 273.981769 
L 827.386419 273.979534 
L 836.133343 273.982165 
L 844.880267 273.983656 
L 853.627191 273.98333 
L 862.374114 273.984075 
L 871.121038 273.982282 
L 879.867962 273.98163 
L 888.614886 273.984448 
L 897.36181 273.981513 
L 906.108733 273.980419 
L 914.855657 273.973898 
L 923.602581 273.975621 
L 932.349505 273.947257 
L 941.096428 273.444979 
L 949.843352 273.960368 
" style="fill:none;stroke:#f7a35c;stroke-linecap:square;"/>
   </g>
   <g id="line2d_11">
    <path clip-path="url(#p445a4bdd0b)" d="M 83.897898 51.130649 
L 92.644822 212.447659 
L 101.391745 253.391204 
L 110.138669 273.338879 
L 118.885593 272.824399 
L 127.632517 273.903149 
L 136.37944 273.840574 
L 145.126364 273.956339 
L 153.873288 273.87695 
L 162.620212 273.885473 
L 171.367136 273.866517 
L 180.114059 273.974387 
L 188.860983 273.92986 
L 197.607907 273.971127 
L 206.354831 273.920545 
L 215.101754 273.934914 
L 223.848678 273.941644 
L 232.595602 273.939082 
L 241.342526 273.950237 
L 250.08945 273.95401 
L 258.836373 273.949399 
L 267.583297 273.959459 
L 276.330221 273.943158 
L 285.077145 273.951681 
L 293.824069 273.951635 
L 302.570992 273.961113 
L 311.317916 273.952217 
L 320.06484 273.965002 
L 328.811764 273.959739 
L 337.558687 273.965281 
L 346.305611 273.960577 
L 355.052535 273.960973 
L 363.799459 273.966842 
L 372.546383 273.969636 
L 381.293306 273.971383 
L 390.04023 273.969217 
L 398.787154 273.973176 
L 407.534078 273.973246 
L 416.281001 273.974504 
L 425.027925 273.970032 
L 433.774849 273.974899 
L 442.521773 273.972058 
L 451.268697 273.974923 
L 460.01562 273.974946 
L 468.762544 273.973665 
L 477.509468 273.970242 
L 486.256392 273.974969 
L 495.003316 273.977554 
L 503.750239 273.977228 
L 512.497163 273.979371 
L 521.244087 273.974736 
L 529.991011 273.981746 
L 538.737934 273.979976 
L 547.484858 273.981606 
L 556.231782 273.982491 
L 564.978706 273.983167 
L 573.72563 273.980349 
L 582.472553 273.983306 
L 591.219477 273.984238 
L 599.966401 273.983493 
L 608.713325 273.982119 
L 617.460249 273.983516 
L 626.207172 273.983749 
L 634.954096 273.982491 
L 643.70102 273.980023 
L 652.447944 273.984261 
L 661.194867 273.983563 
L 669.941791 273.984052 
L 678.688715 273.983982 
L 687.435639 273.982911 
L 696.182563 273.983446 
L 704.929486 273.981048 
L 713.67641 273.9851 
L 722.423334 273.983353 
L 731.170258 273.982515 
L 739.917181 273.983516 
L 748.664105 273.982026 
L 757.411029 273.982375 
L 766.157953 273.982841 
L 774.904877 273.981094 
L 783.6518 273.982049 
L 792.398724 273.982748 
L 801.145648 273.983539 
L 809.892572 273.984098 
L 818.639496 273.982445 
L 827.386419 273.978765 
L 836.133343 273.981793 
L 844.880267 273.984168 
L 853.627191 273.983423 
L 862.374114 273.983563 
L 871.121038 273.982631 
L 879.867962 273.981048 
L 888.614886 273.983446 
L 897.36181 273.979743 
L 906.108733 273.978416 
L 914.855657 273.969217 
L 923.602581 273.971057 
L 932.349505 273.932888 
L 941.096428 273.164894 
L 949.843352 273.922548 
" style="fill:none;stroke:#8085e9;stroke-linecap:square;"/>
   </g>
   <g id="line2d_12">
    <path clip-path="url(#p445a4bdd0b)" d="M 83.897898 50.556086 
L 92.644822 209.332857 
L 101.391745 252.028666 
L 110.138669 273.323882 
L 118.885593 272.725518 
L 127.632517 273.88871 
L 136.37944 273.833192 
L 145.126364 273.952054 
L 153.873288 273.875553 
L 162.620212 273.880117 
L 171.367136 273.855152 
L 180.114059 273.97143 
L 188.860983 273.923037 
L 197.607907 273.970079 
L 206.354831 273.917355 
L 215.101754 273.929371 
L 223.848678 273.939688 
L 232.595602 273.934122 
L 241.342526 273.948537 
L 250.08945 273.951611 
L 258.836373 273.94558 
L 267.583297 273.95727 
L 276.330221 273.943088 
L 285.077145 273.951169 
L 293.824069 273.952869 
L 302.570992 273.962114 
L 311.317916 273.955361 
L 320.06484 273.967703 
L 328.811764 273.959902 
L 337.558687 273.967843 
L 346.305611 273.965747 
L 355.052535 273.966516 
L 363.799459 273.964909 
L 372.546383 273.971336 
L 381.293306 273.971639 
L 390.04023 273.976972 
L 398.787154 273.972757 
L 407.534078 273.974853 
L 416.281001 273.975691 
L 425.027925 273.974899 
L 433.774849 273.975086 
L 442.521773 273.973875 
L 451.268697 273.976669 
L 460.01562 273.977554 
L 468.762544 273.975971 
L 477.509468 273.975249 
L 486.256392 273.978323 
L 495.003316 273.979976 
L 503.750239 273.981606 
L 512.497163 273.980069 
L 521.244087 273.978113 
L 529.991011 273.980489 
L 538.737934 273.979161 
L 547.484858 273.98149 
L 556.231782 273.981723 
L 564.978706 273.982585 
L 573.72563 273.979767 
L 582.472553 273.982748 
L 591.219477 273.983143 
L 599.966401 273.982631 
L 608.713325 273.982748 
L 617.460249 273.983423 
L 626.207172 273.983889 
L 634.954096 273.982072 
L 643.70102 273.980069 
L 652.447944 273.983796 
L 661.194867 273.9834 
L 669.941791 273.983889 
L 678.688715 273.983796 
L 687.435639 273.982771 
L 696.182563 273.983516 
L 704.929486 273.979091 
L 713.67641 273.984727 
L 722.423334 273.983306 
L 731.170258 273.98142 
L 739.917181 273.984424 
L 748.664105 273.981909 
L 757.411029 273.982957 
L 766.157953 273.983563 
L 774.904877 273.981793 
L 783.6518 273.981769 
L 792.398724 273.981304 
L 801.145648 273.983493 
L 809.892572 273.984471 
L 818.639496 273.982654 
L 827.386419 273.978626 
L 836.133343 273.981956 
L 844.880267 273.983982 
L 853.627191 273.98333 
L 862.374114 273.984145 
L 871.121038 273.983586 
L 879.867962 273.980885 
L 888.614886 273.984331 
L 897.36181 273.98 
L 906.108733 273.977764 
L 914.855657 273.972128 
L 923.602581 273.974573 
L 932.349505 273.950214 
L 941.096428 273.499054 
L 949.843352 273.960554 
" style="fill:none;stroke:#f15c80;stroke-linecap:square;"/>
   </g>
   <g id="line2d_13">
    <path clip-path="url(#p445a4bdd0b)" d="M 40.600625 273.99006 
L 993.140625 273.99006 
" style="fill:none;stroke:#dedede;stroke-linecap:square;stroke-width:2;"/>
   </g>
   <g id="text_16">
    <!-- Cutadapt: Lengths of Trimmed Sequences (3' end) -->
    <g transform="translate(315.518125 19.3575)scale(0.16 -0.16)">
     <defs>
      <path d="M 2194 1759 
Q 1497 1759 1228 1600 
Q 959 1441 959 1056 
Q 959 750 1161 570 
Q 1363 391 1709 391 
Q 2188 391 2477 730 
Q 2766 1069 2766 1631 
L 2766 1759 
L 2194 1759 
z
M 3341 1997 
L 3341 0 
L 2766 0 
L 2766 531 
Q 2569 213 2275 61 
Q 1981 -91 1556 -91 
Q 1019 -91 701 211 
Q 384 513 384 1019 
Q 384 1609 779 1909 
Q 1175 2209 1959 2209 
L 2766 2209 
L 2766 2266 
Q 2766 2663 2505 2880 
Q 2244 3097 1772 3097 
Q 1472 3097 1187 3025 
Q 903 2953 641 2809 
L 641 3341 
Q 956 3463 1253 3523 
Q 1550 3584 1831 3584 
Q 2591 3584 2966 3190 
Q 3341 2797 3341 1997 
z
" id="DejaVuSans-61" transform="scale(0.015625)"/>
      <path d="M 750 794 
L 1409 794 
L 1409 0 
L 750 0 
L 750 794 
z
M 750 3309 
L 1409 3309 
L 1409 2516 
L 750 2516 
L 750 3309 
z
" id="DejaVuSans-3a" transform="scale(0.015625)"/>
      <path d="M 2834 3397 
L 2834 2853 
Q 2591 2978 2328 3040 
Q 2066 3103 1784 3103 
Q 1356 3103 1142 2972 
Q 928 2841 928 2578 
Q 928 2378 1081 2264 
Q 1234 2150 1697 2047 
L 1894 2003 
Q 2506 1872 2764 1633 
Q 3022 1394 3022 966 
Q 3022 478 2636 193 
Q 2250 -91 1575 -91 
Q 1294 -91 989 -36 
Q 684 19 347 128 
L 347 722 
Q 666 556 975 473 
Q 1284 391 1588 391 
Q 1994 391 2212 530 
Q 2431 669 2431 922 
Q 2431 1156 2273 1281 
Q 2116 1406 1581 1522 
L 1381 1569 
Q 847 1681 609 1914 
Q 372 2147 372 2553 
Q 372 3047 722 3315 
Q 1072 3584 1716 3584 
Q 2034 3584 2315 3537 
Q 2597 3491 2834 3397 
z
" id="DejaVuSans-73" transform="scale(0.015625)"/>
      <path d="M 2375 4863 
L 2375 4384 
L 1825 4384 
Q 1516 4384 1395 4259 
Q 1275 4134 1275 3809 
L 1275 3500 
L 2222 3500 
L 2222 3053 
L 1275 3053 
L 1275 0 
L 697 0 
L 697 3053 
L 147 3053 
L 147 3500 
L 697 3500 
L 697 3744 
Q 697 4328 969 4595 
Q 1241 4863 1831 4863 
L 2375 4863 
z
" id="DejaVuSans-66" transform="scale(0.015625)"/>
      <path d="M 3425 4513 
L 3425 3897 
Q 3066 4069 2747 4153 
Q 2428 4238 2131 4238 
Q 1616 4238 1336 4038 
Q 1056 3838 1056 3469 
Q 1056 3159 1242 3001 
Q 1428 2844 1947 2747 
L 2328 2669 
Q 3034 2534 3370 2195 
Q 3706 1856 3706 1288 
Q 3706 609 3251 259 
Q 2797 -91 1919 -91 
Q 1588 -91 1214 -16 
Q 841 59 441 206 
L 441 856 
Q 825 641 1194 531 
Q 1563 422 1919 422 
Q 2459 422 2753 634 
Q 3047 847 3047 1241 
Q 3047 1584 2836 1778 
Q 2625 1972 2144 2069 
L 1759 2144 
Q 1053 2284 737 2584 
Q 422 2884 422 3419 
Q 422 4038 858 4394 
Q 1294 4750 2059 4750 
Q 2388 4750 2728 4690 
Q 3069 4631 3425 4513 
z
" id="DejaVuSans-53" transform="scale(0.015625)"/>
      <path d="M 947 1747 
Q 947 1113 1208 752 
Q 1469 391 1925 391 
Q 2381 391 2643 752 
Q 2906 1113 2906 1747 
Q 2906 2381 2643 2742 
Q 2381 3103 1925 3103 
Q 1469 3103 1208 2742 
Q 947 2381 947 1747 
z
M 2906 525 
Q 2725 213 2448 61 
Q 2172 -91 1784 -91 
Q 1150 -91 751 415 
Q 353 922 353 1747 
Q 353 2572 751 3078 
Q 1150 3584 1784 3584 
Q 2172 3584 2448 3432 
Q 2725 3281 2906 2969 
L 2906 3500 
L 3481 3500 
L 3481 -1331 
L 2906 -1331 
L 2906 525 
z
" id="DejaVuSans-71" transform="scale(0.015625)"/>
      <path d="M 3122 3366 
L 3122 2828 
Q 2878 2963 2633 3030 
Q 2388 3097 2138 3097 
Q 1578 3097 1268 2742 
Q 959 2388 959 1747 
Q 959 1106 1268 751 
Q 1578 397 2138 397 
Q 2388 397 2633 464 
Q 2878 531 3122 666 
L 3122 134 
Q 2881 22 2623 -34 
Q 2366 -91 2075 -91 
Q 1284 -91 818 406 
Q 353 903 353 1747 
Q 353 2603 823 3093 
Q 1294 3584 2113 3584 
Q 2378 3584 2631 3529 
Q 2884 3475 3122 3366 
z
" id="DejaVuSans-63" transform="scale(0.015625)"/>
      <path d="M 2597 2516 
Q 3050 2419 3304 2112 
Q 3559 1806 3559 1356 
Q 3559 666 3084 287 
Q 2609 -91 1734 -91 
Q 1441 -91 1130 -33 
Q 819 25 488 141 
L 488 750 
Q 750 597 1062 519 
Q 1375 441 1716 441 
Q 2309 441 2620 675 
Q 2931 909 2931 1356 
Q 2931 1769 2642 2001 
Q 2353 2234 1838 2234 
L 1294 2234 
L 1294 2753 
L 1863 2753 
Q 2328 2753 2575 2939 
Q 2822 3125 2822 3475 
Q 2822 3834 2567 4026 
Q 2313 4219 1838 4219 
Q 1578 4219 1281 4162 
Q 984 4106 628 3988 
L 628 4550 
Q 988 4650 1302 4700 
Q 1616 4750 1894 4750 
Q 2613 4750 3031 4423 
Q 3450 4097 3450 3541 
Q 3450 3153 3228 2886 
Q 3006 2619 2597 2516 
z
" id="DejaVuSans-33" transform="scale(0.015625)"/>
      <path d="M 1147 4666 
L 1147 2931 
L 616 2931 
L 616 4666 
L 1147 4666 
z
" id="DejaVuSans-27" transform="scale(0.015625)"/>
     </defs>
     <use xlink:href="#DejaVuSans-43"/>
     <use x="69.824219" xlink:href="#DejaVuSans-75"/>
     <use x="133.203125" xlink:href="#DejaVuSans-74"/>
     <use x="172.412109" xlink:href="#DejaVuSans-61"/>
     <use x="233.691406" xlink:href="#DejaVuSans-64"/>
     <use x="297.167969" xlink:href="#DejaVuSans-61"/>
     <use x="358.447266" xlink:href="#DejaVuSans-70"/>
     <use x="421.923828" xlink:href="#DejaVuSans-74"/>
     <use x="461.132812" xlink:href="#DejaVuSans-3a"/>
     <use x="494.824219" xlink:href="#DejaVuSans-20"/>
     <use x="526.611328" xlink:href="#DejaVuSans-4c"/>
     <use x="580.574219" xlink:href="#DejaVuSans-65"/>
     <use x="642.097656" xlink:href="#DejaVuSans-6e"/>
     <use x="705.476562" xlink:href="#DejaVuSans-67"/>
     <use x="768.953125" xlink:href="#DejaVuSans-74"/>
     <use x="808.162109" xlink:href="#DejaVuSans-68"/>
     <use x="871.541016" xlink:href="#DejaVuSans-73"/>
     <use x="923.640625" xlink:href="#DejaVuSans-20"/>
     <use x="955.427734" xlink:href="#DejaVuSans-6f"/>
     <use x="1016.609375" xlink:href="#DejaVuSans-66"/>
     <use x="1051.814453" xlink:href="#DejaVuSans-20"/>
     <use x="1083.601562" xlink:href="#DejaVuSans-54"/>
     <use x="1129.935547" xlink:href="#DejaVuSans-72"/>
     <use x="1171.048828" xlink:href="#DejaVuSans-69"/>
     <use x="1198.832031" xlink:href="#DejaVuSans-6d"/>
     <use x="1296.244141" xlink:href="#DejaVuSans-6d"/>
     <use x="1393.65625" xlink:href="#DejaVuSans-65"/>
     <use x="1455.179688" xlink:href="#DejaVuSans-64"/>
     <use x="1518.65625" xlink:href="#DejaVuSans-20"/>
     <use x="1550.443359" xlink:href="#DejaVuSans-53"/>
     <use x="1613.919922" xlink:href="#DejaVuSans-65"/>
     <use x="1675.443359" xlink:href="#DejaVuSans-71"/>
     <use x="1738.919922" xlink:href="#DejaVuSans-75"/>
     <use x="1802.298828" xlink:href="#DejaVuSans-65"/>
     <use x="1863.822266" xlink:href="#DejaVuSans-6e"/>
     <use x="1927.201172" xlink:href="#DejaVuSans-63"/>
     <use x="1982.181641" xlink:href="#DejaVuSans-65"/>
     <use x="2043.705078" xlink:href="#DejaVuSans-73"/>
     <use x="2095.804688" xlink:href="#DejaVuSans-20"/>
     <use x="2127.591797" xlink:href="#DejaVuSans-28"/>
     <use x="2166.605469" xlink:href="#DejaVuSans-33"/>
     <use x="2230.228516" xlink:href="#DejaVuSans-27"/>
     <use x="2257.71875" xlink:href="#DejaVuSans-20"/>
     <use x="2289.505859" xlink:href="#DejaVuSans-65"/>
     <use x="2351.029297" xlink:href="#DejaVuSans-6e"/>
     <use x="2414.408203" xlink:href="#DejaVuSans-64"/>
     <use x="2477.884766" xlink:href="#DejaVuSans-29"/>
    </g>
   </g>
   <g id="legend_1">
    <g id="line2d_14">
     <path d="M 47.800625 303.935394 
L 63.800625 303.935394 
" style="fill:none;stroke:#7cb5ec;stroke-linecap:square;"/>
    </g>
    <g id="line2d_15"/>
    <g id="text_17">
     <!-- 1O - Adapter 1 -->
     <g transform="translate(70.200625 306.735394)scale(0.08 -0.08)">
      <defs>
       <path d="M 2522 4238 
Q 1834 4238 1429 3725 
Q 1025 3213 1025 2328 
Q 1025 1447 1429 934 
Q 1834 422 2522 422 
Q 3209 422 3611 934 
Q 4013 1447 4013 2328 
Q 4013 3213 3611 3725 
Q 3209 4238 2522 4238 
z
M 2522 4750 
Q 3503 4750 4090 4092 
Q 4678 3434 4678 2328 
Q 4678 1225 4090 567 
Q 3503 -91 2522 -91 
Q 1538 -91 948 565 
Q 359 1222 359 2328 
Q 359 3434 948 4092 
Q 1538 4750 2522 4750 
z
" id="DejaVuSans-4f" transform="scale(0.015625)"/>
       <path d="M 313 2009 
L 1997 2009 
L 1997 1497 
L 313 1497 
L 313 2009 
z
" id="DejaVuSans-2d" transform="scale(0.015625)"/>
       <path d="M 2188 4044 
L 1331 1722 
L 3047 1722 
L 2188 4044 
z
M 1831 4666 
L 2547 4666 
L 4325 0 
L 3669 0 
L 3244 1197 
L 1141 1197 
L 716 0 
L 50 0 
L 1831 4666 
z
" id="DejaVuSans-41" transform="scale(0.015625)"/>
      </defs>
      <use xlink:href="#DejaVuSans-31"/>
      <use x="63.623047" xlink:href="#DejaVuSans-4f"/>
      <use x="142.333984" xlink:href="#DejaVuSans-20"/>
      <use x="174.121094" xlink:href="#DejaVuSans-2d"/>
      <use x="210.205078" xlink:href="#DejaVuSans-20"/>
      <use x="241.992188" xlink:href="#DejaVuSans-41"/>
      <use x="308.650391" xlink:href="#DejaVuSans-64"/>
      <use x="372.126953" xlink:href="#DejaVuSans-61"/>
      <use x="433.40625" xlink:href="#DejaVuSans-70"/>
      <use x="496.882812" xlink:href="#DejaVuSans-74"/>
      <use x="536.091797" xlink:href="#DejaVuSans-65"/>
      <use x="597.615234" xlink:href="#DejaVuSans-72"/>
      <use x="638.728516" xlink:href="#DejaVuSans-20"/>
      <use x="670.515625" xlink:href="#DejaVuSans-31"/>
     </g>
    </g>
    <g id="line2d_16">
     <path d="M 47.800625 315.677894 
L 63.800625 315.677894 
" style="fill:none;stroke:#434348;stroke-linecap:square;"/>
    </g>
    <g id="line2d_17"/>
    <g id="text_18">
     <!-- 2O - Adapter 1 -->
     <g transform="translate(70.200625 318.477894)scale(0.08 -0.08)">
      <use xlink:href="#DejaVuSans-32"/>
      <use x="63.623047" xlink:href="#DejaVuSans-4f"/>
      <use x="142.333984" xlink:href="#DejaVuSans-20"/>
      <use x="174.121094" xlink:href="#DejaVuSans-2d"/>
      <use x="210.205078" xlink:href="#DejaVuSans-20"/>
      <use x="241.992188" xlink:href="#DejaVuSans-41"/>
      <use x="308.650391" xlink:href="#DejaVuSans-64"/>
      <use x="372.126953" xlink:href="#DejaVuSans-61"/>
      <use x="433.40625" xlink:href="#DejaVuSans-70"/>
      <use x="496.882812" xlink:href="#DejaVuSans-74"/>
      <use x="536.091797" xlink:href="#DejaVuSans-65"/>
      <use x="597.615234" xlink:href="#DejaVuSans-72"/>
      <use x="638.728516" xlink:href="#DejaVuSans-20"/>
      <use x="670.515625" xlink:href="#DejaVuSans-31"/>
     </g>
    </g>
    <g id="line2d_18">
     <path d="M 252.523125 303.935394 
L 268.523125 303.935394 
" style="fill:none;stroke:#90ed7d;stroke-linecap:square;"/>
    </g>
    <g id="line2d_19"/>
    <g id="text_19">
     <!-- 3O - Adapter 1 -->
     <g transform="translate(274.923125 306.735394)scale(0.08 -0.08)">
      <use xlink:href="#DejaVuSans-33"/>
      <use x="63.623047" xlink:href="#DejaVuSans-4f"/>
      <use x="142.333984" xlink:href="#DejaVuSans-20"/>
      <use x="174.121094" xlink:href="#DejaVuSans-2d"/>
      <use x="210.205078" xlink:href="#DejaVuSans-20"/>
      <use x="241.992188" xlink:href="#DejaVuSans-41"/>
      <use x="308.650391" xlink:href="#DejaVuSans-64"/>
      <use x="372.126953" xlink:href="#DejaVuSans-61"/>
      <use x="433.40625" xlink:href="#DejaVuSans-70"/>
      <use x="496.882812" xlink:href="#DejaVuSans-74"/>
      <use x="536.091797" xlink:href="#DejaVuSans-65"/>
      <use x="597.615234" xlink:href="#DejaVuSans-72"/>
      <use x="638.728516" xlink:href="#DejaVuSans-20"/>
      <use x="670.515625" xlink:href="#DejaVuSans-31"/>
     </g>
    </g>
    <g id="line2d_20">
     <path d="M 457.245625 303.935394 
L 473.245625 303.935394 
" style="fill:none;stroke:#f7a35c;stroke-linecap:square;"/>
    </g>
    <g id="line2d_21"/>
    <g id="text_20">
     <!-- P11_1 - Adapter 1 -->
     <g transform="translate(479.645625 306.735394)scale(0.08 -0.08)">
      <defs>
       <path d="M 1259 4147 
L 1259 2394 
L 2053 2394 
Q 2494 2394 2734 2622 
Q 2975 2850 2975 3272 
Q 2975 3691 2734 3919 
Q 2494 4147 2053 4147 
L 1259 4147 
z
M 628 4666 
L 2053 4666 
Q 2838 4666 3239 4311 
Q 3641 3956 3641 3272 
Q 3641 2581 3239 2228 
Q 2838 1875 2053 1875 
L 1259 1875 
L 1259 0 
L 628 0 
L 628 4666 
z
" id="DejaVuSans-50" transform="scale(0.015625)"/>
       <path d="M 3263 -1063 
L 3263 -1509 
L -63 -1509 
L -63 -1063 
L 3263 -1063 
z
" id="DejaVuSans-5f" transform="scale(0.015625)"/>
      </defs>
      <use xlink:href="#DejaVuSans-50"/>
      <use x="60.302734" xlink:href="#DejaVuSans-31"/>
      <use x="123.925781" xlink:href="#DejaVuSans-31"/>
      <use x="187.548828" xlink:href="#DejaVuSans-5f"/>
      <use x="237.548828" xlink:href="#DejaVuSans-31"/>
      <use x="301.171875" xlink:href="#DejaVuSans-20"/>
      <use x="332.958984" xlink:href="#DejaVuSans-2d"/>
      <use x="369.042969" xlink:href="#DejaVuSans-20"/>
      <use x="400.830078" xlink:href="#DejaVuSans-41"/>
      <use x="467.488281" xlink:href="#DejaVuSans-64"/>
      <use x="530.964844" xlink:href="#DejaVuSans-61"/>
      <use x="592.244141" xlink:href="#DejaVuSans-70"/>
      <use x="655.720703" xlink:href="#DejaVuSans-74"/>
      <use x="694.929688" xlink:href="#DejaVuSans-65"/>
      <use x="756.453125" xlink:href="#DejaVuSans-72"/>
      <use x="797.566406" xlink:href="#DejaVuSans-20"/>
      <use x="829.353516" xlink:href="#DejaVuSans-31"/>
     </g>
    </g>
    <g id="line2d_22">
     <path d="M 674.674375 303.935394 
L 690.674375 303.935394 
" style="fill:none;stroke:#8085e9;stroke-linecap:square;"/>
    </g>
    <g id="line2d_23"/>
    <g id="text_21">
     <!-- P11_2 - Adapter 1 -->
     <g transform="translate(697.074375 306.735394)scale(0.08 -0.08)">
      <use xlink:href="#DejaVuSans-50"/>
      <use x="60.302734" xlink:href="#DejaVuSans-31"/>
      <use x="123.925781" xlink:href="#DejaVuSans-31"/>
      <use x="187.548828" xlink:href="#DejaVuSans-5f"/>
      <use x="237.548828" xlink:href="#DejaVuSans-32"/>
      <use x="301.171875" xlink:href="#DejaVuSans-20"/>
      <use x="332.958984" xlink:href="#DejaVuSans-2d"/>
      <use x="369.042969" xlink:href="#DejaVuSans-20"/>
      <use x="400.830078" xlink:href="#DejaVuSans-41"/>
      <use x="467.488281" xlink:href="#DejaVuSans-64"/>
      <use x="530.964844" xlink:href="#DejaVuSans-61"/>
      <use x="592.244141" xlink:href="#DejaVuSans-70"/>
      <use x="655.720703" xlink:href="#DejaVuSans-74"/>
      <use x="694.929688" xlink:href="#DejaVuSans-65"/>
      <use x="756.453125" xlink:href="#DejaVuSans-72"/>
      <use x="797.566406" xlink:href="#DejaVuSans-20"/>
      <use x="829.353516" xlink:href="#DejaVuSans-31"/>
     </g>
    </g>
    <g id="line2d_24">
     <path d="M 892.103125 303.935394 
L 908.103125 303.935394 
" style="fill:none;stroke:#f15c80;stroke-linecap:square;"/>
    </g>
    <g id="line2d_25"/>
    <g id="text_22">
     <!-- P11_3 - Adapter 1 -->
     <g transform="translate(914.503125 306.735394)scale(0.08 -0.08)">
      <use xlink:href="#DejaVuSans-50"/>
      <use x="60.302734" xlink:href="#DejaVuSans-31"/>
      <use x="123.925781" xlink:href="#DejaVuSans-31"/>
      <use x="187.548828" xlink:href="#DejaVuSans-5f"/>
      <use x="237.548828" xlink:href="#DejaVuSans-33"/>
      <use x="301.171875" xlink:href="#DejaVuSans-20"/>
      <use x="332.958984" xlink:href="#DejaVuSans-2d"/>
      <use x="369.042969" xlink:href="#DejaVuSans-20"/>
      <use x="400.830078" xlink:href="#DejaVuSans-41"/>
      <use x="467.488281" xlink:href="#DejaVuSans-64"/>
      <use x="530.964844" xlink:href="#DejaVuSans-61"/>
      <use x="592.244141" xlink:href="#DejaVuSans-70"/>
      <use x="655.720703" xlink:href="#DejaVuSans-74"/>
      <use x="694.929688" xlink:href="#DejaVuSans-65"/>
      <use x="756.453125" xlink:href="#DejaVuSans-72"/>
      <use x="797.566406" xlink:href="#DejaVuSans-20"/>
      <use x="829.353516" xlink:href="#DejaVuSans-31"/>
     </g>
    </g>
   </g>
  </g>
 </g>
 <defs>
  <clipPath id="p445a4bdd0b">
   <rect height="242.5072" width="952.54" x="40.600625" y="31.48286"/>
  </clipPath>
 </defs>
</svg>
