<?xml version="1.0" encoding="utf-8" standalone="no"?>
<!DOCTYPE svg PUBLIC "-//W3C//DTD SVG 1.1//EN"
  "http://www.w3.org/Graphics/SVG/1.1/DTD/svg11.dtd">
<svg height="330.541644pt" version="1.1" viewBox="0 0 1000.280625 330.541644" width="1000.280625pt" xmlns="http://www.w3.org/2000/svg" xmlns:xlink="http://www.w3.org/1999/xlink">
 <metadata>
  <rdf:RDF xmlns:cc="http://creativecommons.org/ns#" xmlns:dc="http://purl.org/dc/elements/1.1/" xmlns:rdf="http://www.w3.org/1999/02/22-rdf-syntax-ns#">
   <cc:Work>
    <dc:type rdf:resource="http://purl.org/dc/dcmitype/StillImage"/>
    <dc:date>2024-09-06T15:37:35.922052</dc:date>
    <dc:format>image/svg+xml</dc:format>
    <dc:creator>
     <cc:Agent>
      <dc:title>Matplotlib v3.4.2, https://matplotlib.org/</dc:title>
     </cc:Agent>
    </dc:creator>
   </cc:Work>
  </rdf:RDF>
 </metadata>
 <defs>
  <style type="text/css">*{stroke-linecap:butt;stroke-linejoin:round;}</style>
 </defs>
 <g id="figure_1">
  <g id="axes_1">
   <g id="patch_1">
    <path d="M 40.600625 273.99006 
L 985.445625 273.99006 
L 985.445625 31.48286 
L 40.600625 31.48286 
z
" style="fill:#ffffff;"/>
   </g>
   <g id="matplotlib.axis_1">
    <g id="xtick_1">
     <g id="text_1">
      <!-- 0 -->
      <g transform="translate(38.055625 287.06881)scale(0.08 -0.08)">
       <defs>
        <path d="M 2034 4250 
Q 1547 4250 1301 3770 
Q 1056 3291 1056 2328 
Q 1056 1369 1301 889 
Q 1547 409 2034 409 
Q 2525 409 2770 889 
Q 3016 1369 3016 2328 
Q 3016 3291 2770 3770 
Q 2525 4250 2034 4250 
z
M 2034 4750 
Q 2819 4750 3233 4129 
Q 3647 3509 3647 2328 
Q 3647 1150 3233 529 
Q 2819 -91 2034 -91 
Q 1250 -91 836 529 
Q 422 1150 422 2328 
Q 422 3509 836 4129 
Q 1250 4750 2034 4750 
z
" id="DejaVuSans-30" transform="scale(0.015625)"/>
       </defs>
       <use xlink:href="#DejaVuSans-30"/>
      </g>
     </g>
    </g>
    <g id="xtick_2">
     <g id="text_2">
      <!-- 20 -->
      <g transform="translate(224.479625 287.06881)scale(0.08 -0.08)">
       <defs>
        <path d="M 1228 531 
L 3431 531 
L 3431 0 
L 469 0 
L 469 531 
Q 828 903 1448 1529 
Q 2069 2156 2228 2338 
Q 2531 2678 2651 2914 
Q 2772 3150 2772 3378 
Q 2772 3750 2511 3984 
Q 2250 4219 1831 4219 
Q 1534 4219 1204 4116 
Q 875 4013 500 3803 
L 500 4441 
Q 881 4594 1212 4672 
Q 1544 4750 1819 4750 
Q 2544 4750 2975 4387 
Q 3406 4025 3406 3419 
Q 3406 3131 3298 2873 
Q 3191 2616 2906 2266 
Q 2828 2175 2409 1742 
Q 1991 1309 1228 531 
z
" id="DejaVuSans-32" transform="scale(0.015625)"/>
       </defs>
       <use xlink:href="#DejaVuSans-32"/>
       <use x="63.623047" xlink:href="#DejaVuSans-30"/>
      </g>
     </g>
    </g>
    <g id="xtick_3">
     <g id="text_3">
      <!-- 40 -->
      <g transform="translate(413.448625 287.06881)scale(0.08 -0.08)">
       <defs>
        <path d="M 2419 4116 
L 825 1625 
L 2419 1625 
L 2419 4116 
z
M 2253 4666 
L 3047 4666 
L 3047 1625 
L 3713 1625 
L 3713 1100 
L 3047 1100 
L 3047 0 
L 2419 0 
L 2419 1100 
L 313 1100 
L 313 1709 
L 2253 4666 
z
" id="DejaVuSans-34" transform="scale(0.015625)"/>
       </defs>
       <use xlink:href="#DejaVuSans-34"/>
       <use x="63.623047" xlink:href="#DejaVuSans-30"/>
      </g>
     </g>
    </g>
    <g id="xtick_4">
     <g id="text_4">
      <!-- 60 -->
      <g transform="translate(602.417625 287.06881)scale(0.08 -0.08)">
       <defs>
        <path d="M 2113 2584 
Q 1688 2584 1439 2293 
Q 1191 2003 1191 1497 
Q 1191 994 1439 701 
Q 1688 409 2113 409 
Q 2538 409 2786 701 
Q 3034 994 3034 1497 
Q 3034 2003 2786 2293 
Q 2538 2584 2113 2584 
z
M 3366 4563 
L 3366 3988 
Q 3128 4100 2886 4159 
Q 2644 4219 2406 4219 
Q 1781 4219 1451 3797 
Q 1122 3375 1075 2522 
Q 1259 2794 1537 2939 
Q 1816 3084 2150 3084 
Q 2853 3084 3261 2657 
Q 3669 2231 3669 1497 
Q 3669 778 3244 343 
Q 2819 -91 2113 -91 
Q 1303 -91 875 529 
Q 447 1150 447 2328 
Q 447 3434 972 4092 
Q 1497 4750 2381 4750 
Q 2619 4750 2861 4703 
Q 3103 4656 3366 4563 
z
" id="DejaVuSans-36" transform="scale(0.015625)"/>
       </defs>
       <use xlink:href="#DejaVuSans-36"/>
       <use x="63.623047" xlink:href="#DejaVuSans-30"/>
      </g>
     </g>
    </g>
    <g id="xtick_5">
     <g id="text_5">
      <!-- 80 -->
      <g transform="translate(791.386625 287.06881)scale(0.08 -0.08)">
       <defs>
        <path d="M 2034 2216 
Q 1584 2216 1326 1975 
Q 1069 1734 1069 1313 
Q 1069 891 1326 650 
Q 1584 409 2034 409 
Q 2484 409 2743 651 
Q 3003 894 3003 1313 
Q 3003 1734 2745 1975 
Q 2488 2216 2034 2216 
z
M 1403 2484 
Q 997 2584 770 2862 
Q 544 3141 544 3541 
Q 544 4100 942 4425 
Q 1341 4750 2034 4750 
Q 2731 4750 3128 4425 
Q 3525 4100 3525 3541 
Q 3525 3141 3298 2862 
Q 3072 2584 2669 2484 
Q 3125 2378 3379 2068 
Q 3634 1759 3634 1313 
Q 3634 634 3220 271 
Q 2806 -91 2034 -91 
Q 1263 -91 848 271 
Q 434 634 434 1313 
Q 434 1759 690 2068 
Q 947 2378 1403 2484 
z
M 1172 3481 
Q 1172 3119 1398 2916 
Q 1625 2713 2034 2713 
Q 2441 2713 2670 2916 
Q 2900 3119 2900 3481 
Q 2900 3844 2670 4047 
Q 2441 4250 2034 4250 
Q 1625 4250 1398 4047 
Q 1172 3844 1172 3481 
z
" id="DejaVuSans-38" transform="scale(0.015625)"/>
       </defs>
       <use xlink:href="#DejaVuSans-38"/>
       <use x="63.623047" xlink:href="#DejaVuSans-30"/>
      </g>
     </g>
    </g>
    <g id="xtick_6">
     <g id="text_6">
      <!-- 100 -->
      <g transform="translate(977.810625 287.06881)scale(0.08 -0.08)">
       <defs>
        <path d="M 794 531 
L 1825 531 
L 1825 4091 
L 703 3866 
L 703 4441 
L 1819 4666 
L 2450 4666 
L 2450 531 
L 3481 531 
L 3481 0 
L 794 0 
L 794 531 
z
" id="DejaVuSans-31" transform="scale(0.015625)"/>
       </defs>
       <use xlink:href="#DejaVuSans-31"/>
       <use x="63.623047" xlink:href="#DejaVuSans-30"/>
       <use x="127.246094" xlink:href="#DejaVuSans-30"/>
      </g>
     </g>
    </g>
    <g id="text_7">
     <!-- % GC -->
     <g transform="translate(499.317656 300.330997)scale(0.1 -0.1)">
      <defs>
       <path d="M 4653 2053 
Q 4381 2053 4226 1822 
Q 4072 1591 4072 1178 
Q 4072 772 4226 539 
Q 4381 306 4653 306 
Q 4919 306 5073 539 
Q 5228 772 5228 1178 
Q 5228 1588 5073 1820 
Q 4919 2053 4653 2053 
z
M 4653 2450 
Q 5147 2450 5437 2106 
Q 5728 1763 5728 1178 
Q 5728 594 5436 251 
Q 5144 -91 4653 -91 
Q 4153 -91 3862 251 
Q 3572 594 3572 1178 
Q 3572 1766 3864 2108 
Q 4156 2450 4653 2450 
z
M 1428 4353 
Q 1159 4353 1004 4120 
Q 850 3888 850 3481 
Q 850 3069 1003 2837 
Q 1156 2606 1428 2606 
Q 1700 2606 1854 2837 
Q 2009 3069 2009 3481 
Q 2009 3884 1853 4118 
Q 1697 4353 1428 4353 
z
M 4250 4750 
L 4750 4750 
L 1831 -91 
L 1331 -91 
L 4250 4750 
z
M 1428 4750 
Q 1922 4750 2215 4408 
Q 2509 4066 2509 3481 
Q 2509 2891 2217 2550 
Q 1925 2209 1428 2209 
Q 931 2209 642 2551 
Q 353 2894 353 3481 
Q 353 4063 643 4406 
Q 934 4750 1428 4750 
z
" id="DejaVuSans-25" transform="scale(0.015625)"/>
       <path id="DejaVuSans-20" transform="scale(0.015625)"/>
       <path d="M 3809 666 
L 3809 1919 
L 2778 1919 
L 2778 2438 
L 4434 2438 
L 4434 434 
Q 4069 175 3628 42 
Q 3188 -91 2688 -91 
Q 1594 -91 976 548 
Q 359 1188 359 2328 
Q 359 3472 976 4111 
Q 1594 4750 2688 4750 
Q 3144 4750 3555 4637 
Q 3966 4525 4313 4306 
L 4313 3634 
Q 3963 3931 3569 4081 
Q 3175 4231 2741 4231 
Q 1884 4231 1454 3753 
Q 1025 3275 1025 2328 
Q 1025 1384 1454 906 
Q 1884 428 2741 428 
Q 3075 428 3337 486 
Q 3600 544 3809 666 
z
" id="DejaVuSans-47" transform="scale(0.015625)"/>
       <path d="M 4122 4306 
L 4122 3641 
Q 3803 3938 3442 4084 
Q 3081 4231 2675 4231 
Q 1875 4231 1450 3742 
Q 1025 3253 1025 2328 
Q 1025 1406 1450 917 
Q 1875 428 2675 428 
Q 3081 428 3442 575 
Q 3803 722 4122 1019 
L 4122 359 
Q 3791 134 3420 21 
Q 3050 -91 2638 -91 
Q 1578 -91 968 557 
Q 359 1206 359 2328 
Q 359 3453 968 4101 
Q 1578 4750 2638 4750 
Q 3056 4750 3426 4639 
Q 3797 4528 4122 4306 
z
" id="DejaVuSans-43" transform="scale(0.015625)"/>
      </defs>
      <use xlink:href="#DejaVuSans-25"/>
      <use x="95.019531" xlink:href="#DejaVuSans-20"/>
      <use x="126.806641" xlink:href="#DejaVuSans-47"/>
      <use x="204.296875" xlink:href="#DejaVuSans-43"/>
     </g>
    </g>
   </g>
   <g id="matplotlib.axis_2">
    <g id="ytick_1">
     <g id="line2d_1">
      <path clip-path="url(#p06a4c9e6fc)" d="M 40.600625 273.99006 
L 985.445625 273.99006 
" style="fill:none;stroke:#dedede;stroke-linecap:square;"/>
     </g>
     <g id="text_8">
      <!-- 0.0 -->
      <g transform="translate(20.878125 277.029435)scale(0.08 -0.08)">
       <defs>
        <path d="M 684 794 
L 1344 794 
L 1344 0 
L 684 0 
L 684 794 
z
" id="DejaVuSans-2e" transform="scale(0.015625)"/>
       </defs>
       <use xlink:href="#DejaVuSans-30"/>
       <use x="63.623047" xlink:href="#DejaVuSans-2e"/>
       <use x="95.410156" xlink:href="#DejaVuSans-30"/>
      </g>
     </g>
    </g>
    <g id="ytick_2">
     <g id="line2d_2">
      <path clip-path="url(#p06a4c9e6fc)" d="M 40.600625 228.121685 
L 985.445625 228.121685 
" style="fill:none;stroke:#dedede;stroke-linecap:square;"/>
     </g>
     <g id="text_9">
      <!-- 0.5 -->
      <g transform="translate(20.878125 231.16106)scale(0.08 -0.08)">
       <defs>
        <path d="M 691 4666 
L 3169 4666 
L 3169 4134 
L 1269 4134 
L 1269 2991 
Q 1406 3038 1543 3061 
Q 1681 3084 1819 3084 
Q 2600 3084 3056 2656 
Q 3513 2228 3513 1497 
Q 3513 744 3044 326 
Q 2575 -91 1722 -91 
Q 1428 -91 1123 -41 
Q 819 9 494 109 
L 494 744 
Q 775 591 1075 516 
Q 1375 441 1709 441 
Q 2250 441 2565 725 
Q 2881 1009 2881 1497 
Q 2881 1984 2565 2268 
Q 2250 2553 1709 2553 
Q 1456 2553 1204 2497 
Q 953 2441 691 2322 
L 691 4666 
z
" id="DejaVuSans-35" transform="scale(0.015625)"/>
       </defs>
       <use xlink:href="#DejaVuSans-30"/>
       <use x="63.623047" xlink:href="#DejaVuSans-2e"/>
       <use x="95.410156" xlink:href="#DejaVuSans-35"/>
      </g>
     </g>
    </g>
    <g id="ytick_3">
     <g id="line2d_3">
      <path clip-path="url(#p06a4c9e6fc)" d="M 40.600625 182.253311 
L 985.445625 182.253311 
" style="fill:none;stroke:#dedede;stroke-linecap:square;"/>
     </g>
     <g id="text_10">
      <!-- 1.0 -->
      <g transform="translate(20.878125 185.292686)scale(0.08 -0.08)">
       <use xlink:href="#DejaVuSans-31"/>
       <use x="63.623047" xlink:href="#DejaVuSans-2e"/>
       <use x="95.410156" xlink:href="#DejaVuSans-30"/>
      </g>
     </g>
    </g>
    <g id="ytick_4">
     <g id="line2d_4">
      <path clip-path="url(#p06a4c9e6fc)" d="M 40.600625 136.384936 
L 985.445625 136.384936 
" style="fill:none;stroke:#dedede;stroke-linecap:square;"/>
     </g>
     <g id="text_11">
      <!-- 1.5 -->
      <g transform="translate(20.878125 139.424311)scale(0.08 -0.08)">
       <use xlink:href="#DejaVuSans-31"/>
       <use x="63.623047" xlink:href="#DejaVuSans-2e"/>
       <use x="95.410156" xlink:href="#DejaVuSans-35"/>
      </g>
     </g>
    </g>
    <g id="ytick_5">
     <g id="line2d_5">
      <path clip-path="url(#p06a4c9e6fc)" d="M 40.600625 90.516562 
L 985.445625 90.516562 
" style="fill:none;stroke:#dedede;stroke-linecap:square;"/>
     </g>
     <g id="text_12">
      <!-- 2.0 -->
      <g transform="translate(20.878125 93.555937)scale(0.08 -0.08)">
       <use xlink:href="#DejaVuSans-32"/>
       <use x="63.623047" xlink:href="#DejaVuSans-2e"/>
       <use x="95.410156" xlink:href="#DejaVuSans-30"/>
      </g>
     </g>
    </g>
    <g id="ytick_6">
     <g id="line2d_6">
      <path clip-path="url(#p06a4c9e6fc)" d="M 40.600625 44.648187 
L 985.445625 44.648187 
" style="fill:none;stroke:#dedede;stroke-linecap:square;"/>
     </g>
     <g id="text_13">
      <!-- 2.5 -->
      <g transform="translate(20.878125 47.687562)scale(0.08 -0.08)">
       <use xlink:href="#DejaVuSans-32"/>
       <use x="63.623047" xlink:href="#DejaVuSans-2e"/>
       <use x="95.410156" xlink:href="#DejaVuSans-35"/>
      </g>
     </g>
    </g>
    <g id="text_14">
     <!-- Percentage -->
     <g transform="translate(14.798438 180.859116)rotate(-90)scale(0.1 -0.1)">
      <defs>
       <path d="M 1259 4147 
L 1259 2394 
L 2053 2394 
Q 2494 2394 2734 2622 
Q 2975 2850 2975 3272 
Q 2975 3691 2734 3919 
Q 2494 4147 2053 4147 
L 1259 4147 
z
M 628 4666 
L 2053 4666 
Q 2838 4666 3239 4311 
Q 3641 3956 3641 3272 
Q 3641 2581 3239 2228 
Q 2838 1875 2053 1875 
L 1259 1875 
L 1259 0 
L 628 0 
L 628 4666 
z
" id="DejaVuSans-50" transform="scale(0.015625)"/>
       <path d="M 3597 1894 
L 3597 1613 
L 953 1613 
Q 991 1019 1311 708 
Q 1631 397 2203 397 
Q 2534 397 2845 478 
Q 3156 559 3463 722 
L 3463 178 
Q 3153 47 2828 -22 
Q 2503 -91 2169 -91 
Q 1331 -91 842 396 
Q 353 884 353 1716 
Q 353 2575 817 3079 
Q 1281 3584 2069 3584 
Q 2775 3584 3186 3129 
Q 3597 2675 3597 1894 
z
M 3022 2063 
Q 3016 2534 2758 2815 
Q 2500 3097 2075 3097 
Q 1594 3097 1305 2825 
Q 1016 2553 972 2059 
L 3022 2063 
z
" id="DejaVuSans-65" transform="scale(0.015625)"/>
       <path d="M 2631 2963 
Q 2534 3019 2420 3045 
Q 2306 3072 2169 3072 
Q 1681 3072 1420 2755 
Q 1159 2438 1159 1844 
L 1159 0 
L 581 0 
L 581 3500 
L 1159 3500 
L 1159 2956 
Q 1341 3275 1631 3429 
Q 1922 3584 2338 3584 
Q 2397 3584 2469 3576 
Q 2541 3569 2628 3553 
L 2631 2963 
z
" id="DejaVuSans-72" transform="scale(0.015625)"/>
       <path d="M 3122 3366 
L 3122 2828 
Q 2878 2963 2633 3030 
Q 2388 3097 2138 3097 
Q 1578 3097 1268 2742 
Q 959 2388 959 1747 
Q 959 1106 1268 751 
Q 1578 397 2138 397 
Q 2388 397 2633 464 
Q 2878 531 3122 666 
L 3122 134 
Q 2881 22 2623 -34 
Q 2366 -91 2075 -91 
Q 1284 -91 818 406 
Q 353 903 353 1747 
Q 353 2603 823 3093 
Q 1294 3584 2113 3584 
Q 2378 3584 2631 3529 
Q 2884 3475 3122 3366 
z
" id="DejaVuSans-63" transform="scale(0.015625)"/>
       <path d="M 3513 2113 
L 3513 0 
L 2938 0 
L 2938 2094 
Q 2938 2591 2744 2837 
Q 2550 3084 2163 3084 
Q 1697 3084 1428 2787 
Q 1159 2491 1159 1978 
L 1159 0 
L 581 0 
L 581 3500 
L 1159 3500 
L 1159 2956 
Q 1366 3272 1645 3428 
Q 1925 3584 2291 3584 
Q 2894 3584 3203 3211 
Q 3513 2838 3513 2113 
z
" id="DejaVuSans-6e" transform="scale(0.015625)"/>
       <path d="M 1172 4494 
L 1172 3500 
L 2356 3500 
L 2356 3053 
L 1172 3053 
L 1172 1153 
Q 1172 725 1289 603 
Q 1406 481 1766 481 
L 2356 481 
L 2356 0 
L 1766 0 
Q 1100 0 847 248 
Q 594 497 594 1153 
L 594 3053 
L 172 3053 
L 172 3500 
L 594 3500 
L 594 4494 
L 1172 4494 
z
" id="DejaVuSans-74" transform="scale(0.015625)"/>
       <path d="M 2194 1759 
Q 1497 1759 1228 1600 
Q 959 1441 959 1056 
Q 959 750 1161 570 
Q 1363 391 1709 391 
Q 2188 391 2477 730 
Q 2766 1069 2766 1631 
L 2766 1759 
L 2194 1759 
z
M 3341 1997 
L 3341 0 
L 2766 0 
L 2766 531 
Q 2569 213 2275 61 
Q 1981 -91 1556 -91 
Q 1019 -91 701 211 
Q 384 513 384 1019 
Q 384 1609 779 1909 
Q 1175 2209 1959 2209 
L 2766 2209 
L 2766 2266 
Q 2766 2663 2505 2880 
Q 2244 3097 1772 3097 
Q 1472 3097 1187 3025 
Q 903 2953 641 2809 
L 641 3341 
Q 956 3463 1253 3523 
Q 1550 3584 1831 3584 
Q 2591 3584 2966 3190 
Q 3341 2797 3341 1997 
z
" id="DejaVuSans-61" transform="scale(0.015625)"/>
       <path d="M 2906 1791 
Q 2906 2416 2648 2759 
Q 2391 3103 1925 3103 
Q 1463 3103 1205 2759 
Q 947 2416 947 1791 
Q 947 1169 1205 825 
Q 1463 481 1925 481 
Q 2391 481 2648 825 
Q 2906 1169 2906 1791 
z
M 3481 434 
Q 3481 -459 3084 -895 
Q 2688 -1331 1869 -1331 
Q 1566 -1331 1297 -1286 
Q 1028 -1241 775 -1147 
L 775 -588 
Q 1028 -725 1275 -790 
Q 1522 -856 1778 -856 
Q 2344 -856 2625 -561 
Q 2906 -266 2906 331 
L 2906 616 
Q 2728 306 2450 153 
Q 2172 0 1784 0 
Q 1141 0 747 490 
Q 353 981 353 1791 
Q 353 2603 747 3093 
Q 1141 3584 1784 3584 
Q 2172 3584 2450 3431 
Q 2728 3278 2906 2969 
L 2906 3500 
L 3481 3500 
L 3481 434 
z
" id="DejaVuSans-67" transform="scale(0.015625)"/>
      </defs>
      <use xlink:href="#DejaVuSans-50"/>
      <use x="56.677734" xlink:href="#DejaVuSans-65"/>
      <use x="118.201172" xlink:href="#DejaVuSans-72"/>
      <use x="157.064453" xlink:href="#DejaVuSans-63"/>
      <use x="212.044922" xlink:href="#DejaVuSans-65"/>
      <use x="273.568359" xlink:href="#DejaVuSans-6e"/>
      <use x="336.947266" xlink:href="#DejaVuSans-74"/>
      <use x="376.15625" xlink:href="#DejaVuSans-61"/>
      <use x="437.435547" xlink:href="#DejaVuSans-67"/>
      <use x="500.912109" xlink:href="#DejaVuSans-65"/>
     </g>
    </g>
   </g>
   <g id="line2d_7">
    <path clip-path="url(#p06a4c9e6fc)" d="M 40.600625 205.97468 
L 50.049075 205.974765 
L 59.497525 205.975491 
L 68.945975 205.976158 
L 78.394425 205.97617 
L 87.842875 205.976145 
L 97.291325 205.976049 
L 106.739775 205.975879 
L 116.188225 205.975709 
L 125.636675 205.975407 
L 135.085125 205.975031 
L 144.533575 205.974765 
L 153.982025 205.974196 
L 163.430475 205.972742 
L 172.878925 205.970223 
L 182.327375 205.965694 
L 191.775825 205.958221 
L 201.224275 205.944669 
L 210.672725 205.920484 
L 220.121175 205.874523 
L 229.569625 205.796626 
L 239.018075 205.68397 
L 248.466525 205.528175 
L 257.914975 205.332814 
L 267.363425 205.088707 
L 276.811875 204.759303 
L 286.260325 204.301014 
L 295.708775 203.725007 
L 305.157225 203.06592 
L 314.605675 202.306712 
L 324.054125 201.390038 
L 333.502575 200.269113 
L 342.951025 198.907061 
L 352.399475 197.173845 
L 361.847925 194.924827 
L 371.296375 192.115134 
L 380.744825 188.479066 
L 390.193275 183.90146 
L 399.641725 178.803776 
L 409.090175 173.250927 
L 418.538625 167.173774 
L 427.987075 161.090347 
L 437.435525 155.389007 
L 446.883975 150.610602 
L 456.332425 147.223546 
L 465.780875 144.384448 
L 475.229325 141.914781 
L 484.677775 140.478997 
L 494.126225 139.78055 
L 503.574675 138.87635 
L 513.023125 133.165309 
L 522.471575 127.718649 
L 531.920025 127.369128 
L 541.368475 128.152595 
L 550.816925 129.480494 
L 560.265375 131.040742 
L 569.713825 133.247094 
L 579.162275 135.651471 
L 588.610725 137.941061 
L 598.059175 140.261243 
L 607.507625 142.883665 
L 616.956075 146.142697 
L 626.404525 149.660926 
L 635.852975 153.348707 
L 645.301425 157.490321 
L 654.749875 161.812617 
L 664.198325 166.134973 
L 673.646775 170.117764 
L 683.095225 173.738004 
L 692.543675 177.218144 
L 701.992125 180.458985 
L 711.440575 183.291628 
L 720.889025 185.703998 
L 730.337475 187.667236 
L 739.785925 189.158463 
L 749.234375 190.391147 
L 758.682825 191.483587 
L 768.131275 192.356323 
L 777.579725 193.090086 
L 787.028175 193.770452 
L 796.476625 194.370874 
L 805.925075 194.867046 
L 815.373525 195.276891 
L 824.821975 195.645389 
L 834.270425 195.991192 
L 843.718875 196.2913 
L 853.167325 196.533699 
L 862.615775 196.732451 
L 872.064225 196.892194 
L 881.512675 197.005141 
L 890.961125 197.086187 
L 900.409575 197.146354 
L 909.858025 197.184636 
L 919.306475 197.201567 
L 928.754925 197.207756 
L 938.203375 197.20778 
L 947.651825 197.19533 
L 957.100275 197.159748 
L 966.548725 197.057593 
L 975.997175 197.094592 
L 985.445625 197.213024 
" style="fill:none;stroke:#f0ad4e;stroke-linecap:square;"/>
   </g>
   <g id="line2d_8">
    <path clip-path="url(#p06a4c9e6fc)" d="M 40.600625 215.258956 
L 50.049075 215.259084 
L 59.497525 215.259318 
L 68.945975 215.259425 
L 78.394425 215.259446 
L 87.842875 215.259382 
L 97.291325 215.259339 
L 106.739775 215.259254 
L 116.188225 215.258722 
L 125.636675 215.258084 
L 135.085125 215.257467 
L 144.533575 215.25702 
L 153.982025 215.256169 
L 163.430475 215.253871 
L 172.878925 215.250403 
L 182.327375 215.243424 
L 191.775825 215.229997 
L 201.224275 215.206592 
L 210.672725 215.164419 
L 220.121175 215.085883 
L 229.569625 214.953556 
L 239.018075 214.758992 
L 248.466525 214.485254 
L 257.914975 214.129957 
L 267.363425 213.67506 
L 276.811875 213.074388 
L 286.260325 212.249704 
L 295.708775 211.225136 
L 305.157225 210.067752 
L 314.605675 208.756275 
L 324.054125 207.182336 
L 333.502575 205.386725 
L 342.951025 203.344186 
L 352.399475 200.853281 
L 361.847925 197.822623 
L 371.296375 194.176462 
L 380.744825 189.55712 
L 390.193275 183.750115 
L 399.641725 177.163833 
L 409.090175 169.70863 
L 418.538625 160.934418 
L 427.987075 151.355692 
L 437.435525 141.484227 
L 446.883975 132.372336 
L 456.332425 125.287899 
L 465.780875 119.08634 
L 475.229325 113.877241 
L 484.677775 110.936248 
L 494.126225 109.305646 
L 503.574675 107.261958 
L 513.023125 101.538532 
L 522.471575 96.859889 
L 531.920025 97.096306 
L 541.368475 98.963261 
L 550.816925 101.288093 
L 560.265375 104.078185 
L 569.713825 107.972742 
L 579.162275 112.074141 
L 588.610725 115.787454 
L 598.059175 119.32229 
L 607.507625 123.381388 
L 616.956075 128.419882 
L 626.404525 133.934998 
L 635.852975 139.732938 
L 645.301425 146.012416 
L 654.749875 152.688001 
L 664.198325 159.499423 
L 673.646775 165.802881 
L 683.095225 171.639036 
L 692.543675 177.262583 
L 701.992125 182.426445 
L 711.440575 186.879034 
L 720.889025 190.681927 
L 730.337475 193.769908 
L 739.785925 196.134124 
L 749.234375 198.084042 
L 758.682825 199.73873 
L 768.131275 201.043356 
L 777.579725 202.124778 
L 787.028175 203.124408 
L 796.476625 204.059885 
L 805.925075 204.859696 
L 815.373525 205.513711 
L 824.821975 206.123128 
L 834.270425 206.686755 
L 843.718875 207.15493 
L 853.167325 207.531568 
L 862.615775 207.832223 
L 872.064225 208.076769 
L 881.512675 208.258651 
L 890.961125 208.376594 
L 900.409575 208.443683 
L 909.858025 208.478919 
L 919.306475 208.493452 
L 928.754925 208.500154 
L 938.203375 208.500899 
L 947.651825 208.482174 
L 957.100275 208.429682 
L 966.548725 208.285398 
L 975.997175 208.341358 
L 985.445625 208.510687 
" style="fill:none;stroke:#f0ad4e;stroke-linecap:square;"/>
   </g>
   <g id="line2d_9">
    <path clip-path="url(#p06a4c9e6fc)" d="M 40.600625 222.22954 
L 50.049075 222.229516 
L 59.497525 222.230112 
L 68.945975 222.230803 
L 78.394425 222.23085 
L 87.842875 222.230779 
L 97.291325 222.230588 
L 106.739775 222.230279 
L 116.188225 222.229897 
L 125.636675 222.229707 
L 135.085125 222.229206 
L 144.533575 222.228444 
L 153.982025 222.227395 
L 163.430475 222.225537 
L 172.878925 222.221557 
L 182.327375 222.214647 
L 191.775825 222.20278 
L 201.224275 222.180357 
L 210.672725 222.140301 
L 220.121175 222.061547 
L 229.569625 221.931084 
L 239.018075 221.730136 
L 248.466525 221.442712 
L 257.914975 221.068791 
L 267.363425 220.589569 
L 276.811875 219.93554 
L 286.260325 219.060451 
L 295.708775 217.953364 
L 305.157225 216.627958 
L 314.605675 215.123811 
L 324.054125 213.328858 
L 333.502575 211.247912 
L 342.951025 208.990084 
L 352.399475 206.361075 
L 361.847925 202.99628 
L 371.296375 198.960227 
L 380.744825 194.120475 
L 390.193275 188.053159 
L 399.641725 181.030593 
L 409.090175 172.960251 
L 418.538625 163.369487 
L 427.987075 153.033643 
L 437.435525 142.126552 
L 446.883975 131.238905 
L 456.332425 121.964778 
L 465.780875 113.52304 
L 475.229325 105.889455 
L 484.677775 100.200016 
L 494.126225 96.077346 
L 503.574675 92.319446 
L 513.023125 83.878995 
L 522.471575 75.851449 
L 531.920025 73.605392 
L 541.368475 74.264664 
L 550.816925 76.468019 
L 560.265375 79.444786 
L 569.713825 84.640611 
L 579.162275 91.002571 
L 588.610725 97.054232 
L 598.059175 102.154599 
L 607.507625 107.333219 
L 616.956075 114.008171 
L 626.404525 121.704258 
L 635.852975 129.647617 
L 645.301425 137.791829 
L 654.749875 146.199683 
L 664.198325 154.559903 
L 673.646775 162.101413 
L 683.095225 168.937685 
L 692.543675 175.537265 
L 701.992125 181.758706 
L 711.440575 187.213146 
L 720.889025 191.725251 
L 730.337475 195.262066 
L 739.785925 197.86291 
L 749.234375 199.971212 
L 758.682825 201.888716 
L 768.131275 203.351377 
L 777.579725 204.50257 
L 787.028175 205.652668 
L 796.476625 206.758945 
L 805.925075 207.693868 
L 815.373525 208.439376 
L 824.821975 209.180381 
L 834.270425 209.942641 
L 843.718875 210.559736 
L 853.167325 211.011292 
L 862.615775 211.381877 
L 872.064225 211.745791 
L 881.512675 212.062929 
L 890.961125 212.300145 
L 900.409575 212.463015 
L 909.858025 212.55018 
L 919.306475 212.590189 
L 928.754925 212.612612 
L 938.203375 212.618712 
L 947.651825 212.595932 
L 957.100275 212.532642 
L 966.548725 212.355809 
L 975.997175 212.426247 
L 985.445625 212.635011 
" style="fill:none;stroke:#f0ad4e;stroke-linecap:square;"/>
   </g>
   <g id="line2d_10">
    <path clip-path="url(#p06a4c9e6fc)" d="M 40.600625 230.860544 
L 50.049075 230.860304 
L 59.497525 230.86033 
L 68.945975 230.86065 
L 78.394425 230.86065 
L 87.842875 230.860384 
L 97.291325 230.860304 
L 106.739775 230.85993 
L 116.188225 230.859476 
L 125.636675 230.859343 
L 135.085125 230.858436 
L 144.533575 230.857208 
L 153.982025 230.855794 
L 163.430475 230.852806 
L 172.878925 230.847816 
L 182.327375 230.840185 
L 191.775825 230.825669 
L 201.224275 230.797279 
L 210.672725 230.747569 
L 220.121175 230.65506 
L 229.569625 230.500219 
L 239.018075 230.266558 
L 248.466525 229.918295 
L 257.914975 229.452974 
L 267.363425 228.842658 
L 276.811875 228.015118 
L 286.260325 226.883822 
L 295.708775 225.438069 
L 305.157225 223.762897 
L 314.605675 221.797897 
L 324.054125 219.36971 
L 333.502575 216.487463 
L 342.951025 213.091278 
L 352.399475 208.889674 
L 361.847925 203.594555 
L 371.296375 197.194503 
L 380.744825 189.334609 
L 390.193275 179.746605 
L 399.641725 168.991762 
L 409.090175 157.083503 
L 418.538625 143.855754 
L 427.987075 130.189153 
L 437.435525 116.466678 
L 446.883975 103.869923 
L 456.332425 93.744527 
L 465.780875 84.539074 
L 475.229325 76.619464 
L 484.677775 71.544345 
L 494.126225 68.313487 
L 503.574675 65.164359 
L 513.023125 58.5109 
L 522.471575 53.427083 
L 531.920025 53.894325 
L 541.368475 56.112812 
L 550.816925 58.773645 
L 560.265375 62.063579 
L 569.713825 66.942873 
L 579.162275 72.54994 
L 588.610725 78.32855 
L 598.059175 84.395414 
L 607.507625 90.919675 
L 616.956075 98.697065 
L 626.404525 107.784501 
L 635.852975 117.360818 
L 645.301425 127.44176 
L 654.749875 137.99867 
L 664.198325 148.577139 
L 673.646775 158.276064 
L 683.095225 167.210153 
L 692.543675 175.818552 
L 701.992125 183.800253 
L 711.440575 190.716724 
L 720.889025 196.486449 
L 730.337475 201.36158 
L 739.785925 205.159447 
L 749.234375 208.131242 
L 758.682825 210.735669 
L 768.131275 212.784666 
L 777.579725 214.41928 
L 787.028175 216.00824 
L 796.476625 217.52593 
L 805.925075 218.859802 
L 815.373525 219.948406 
L 824.821975 220.956855 
L 834.270425 221.906069 
L 843.718875 222.615484 
L 853.167325 223.114478 
L 862.615775 223.505435 
L 872.064225 223.876832 
L 881.512675 224.176587 
L 890.961125 224.340339 
L 900.409575 224.406085 
L 909.858025 224.432795 
L 919.306475 224.451686 
L 928.754925 224.475914 
L 938.203375 224.488268 
L 947.651825 224.468363 
L 957.100275 224.400855 
L 966.548725 224.195825 
L 975.997175 224.270884 
L 985.445625 224.50852 
" style="fill:none;stroke:#f0ad4e;stroke-linecap:square;"/>
   </g>
   <g id="line2d_11">
    <path clip-path="url(#p06a4c9e6fc)" d="M 40.600625 222.994399 
L 50.049075 222.994378 
L 59.497525 222.994567 
L 68.945975 222.994672 
L 78.394425 222.994567 
L 87.842875 222.994462 
L 97.291325 222.99419 
L 106.739775 222.994085 
L 116.188225 222.993498 
L 125.636675 222.992576 
L 135.085125 222.991717 
L 144.533575 222.990606 
L 153.982025 222.989412 
L 163.430475 222.986436 
L 172.878925 222.981322 
L 182.327375 222.972289 
L 191.775825 222.955293 
L 201.224275 222.926666 
L 210.672725 222.878673 
L 220.121175 222.790758 
L 229.569625 222.63888 
L 239.018075 222.399234 
L 248.466525 222.060166 
L 257.914975 221.628006 
L 267.363425 221.055873 
L 276.811875 220.285127 
L 286.260325 219.282888 
L 295.708775 218.029203 
L 305.157225 216.559134 
L 314.605675 214.952801 
L 324.054125 213.114618 
L 333.502575 210.975237 
L 342.951025 208.612242 
L 352.399475 205.868055 
L 361.847925 202.52097 
L 371.296375 198.536553 
L 380.744825 193.721976 
L 390.193275 187.810559 
L 399.641725 181.027445 
L 409.090175 173.275456 
L 418.538625 164.06046 
L 427.987075 153.750825 
L 437.435525 142.673503 
L 446.883975 131.659745 
L 456.332425 122.0531 
L 465.780875 113.074042 
L 475.229325 105.133332 
L 484.677775 99.642926 
L 494.126225 95.864581 
L 503.574675 92.392611 
L 513.023125 84.109879 
L 522.471575 76.636118 
L 531.920025 75.520731 
L 541.368475 76.774478 
L 550.816925 79.122803 
L 560.265375 82.063402 
L 569.713825 86.351783 
L 579.162275 91.253961 
L 588.610725 95.950443 
L 598.059175 100.264434 
L 607.507625 105.041665 
L 616.956075 111.162844 
L 626.404525 118.048753 
L 635.852975 125.350266 
L 645.301425 133.369733 
L 654.749875 141.868996 
L 664.198325 150.562616 
L 673.646775 158.657781 
L 683.095225 166.123054 
L 692.543675 173.26351 
L 701.992125 179.876954 
L 711.440575 185.68677 
L 720.889025 190.528382 
L 730.337475 194.470214 
L 739.785925 197.494536 
L 749.234375 199.879788 
L 758.682825 201.926077 
L 768.131275 203.569294 
L 777.579725 204.907207 
L 787.028175 206.128198 
L 796.476625 207.29468 
L 805.925075 208.324604 
L 815.373525 209.164802 
L 824.821975 209.965642 
L 834.270425 210.735444 
L 843.718875 211.361396 
L 853.167325 211.849596 
L 862.615775 212.246107 
L 872.064225 212.582786 
L 881.512675 212.837018 
L 890.961125 212.997362 
L 900.409575 213.081967 
L 909.858025 213.122834 
L 919.306475 213.142554 
L 928.754925 213.152321 
L 938.203375 213.144462 
L 947.651825 213.078216 
L 957.100275 212.918018 
L 966.548725 212.481604 
L 975.997175 212.647146 
L 985.445625 213.163805 
" style="fill:none;stroke:#f0ad4e;stroke-linecap:square;"/>
   </g>
   <g id="line2d_12">
    <path clip-path="url(#p06a4c9e6fc)" d="M 40.600625 233.453159 
L 50.049075 233.452966 
L 59.497525 233.453159 
L 68.945975 233.453572 
L 78.394425 233.453572 
L 87.842875 233.453434 
L 97.291325 233.453352 
L 106.739775 233.453269 
L 116.188225 233.452773 
L 125.636675 233.452304 
L 135.085125 233.451367 
L 144.533575 233.450154 
L 153.982025 233.449244 
L 163.430475 233.446018 
L 172.878925 233.441442 
L 182.327375 233.432538 
L 191.775825 233.416107 
L 201.224275 233.387491 
L 210.672725 233.33751 
L 220.121175 233.239974 
L 229.569625 233.069189 
L 239.018075 232.810186 
L 248.466525 232.434873 
L 257.914975 231.934538 
L 267.363425 231.277616 
L 276.811875 230.361857 
L 286.260325 229.131572 
L 295.708775 227.558063 
L 305.157225 225.693214 
L 314.605675 223.576475 
L 324.054125 221.059694 
L 333.502575 218.161893 
L 342.951025 214.977687 
L 352.399475 211.221909 
L 361.847925 206.573419 
L 371.296375 201.076794 
L 380.744825 194.321931 
L 390.193275 185.850038 
L 399.641725 176.116241 
L 409.090175 164.734749 
L 418.538625 151.057986 
L 427.987075 135.845482 
L 437.435525 119.640194 
L 446.883975 103.96223 
L 456.332425 90.521175 
L 465.780875 78.22566 
L 475.229325 67.902317 
L 484.677775 61.115778 
L 494.126225 56.523141 
L 503.574675 52.090096 
L 513.023125 46.180638 
L 522.471575 41.712692 
L 531.920025 41.100513 
L 541.368475 42.716532 
L 550.816925 45.083838 
L 560.265375 48.593514 
L 569.713825 53.885142 
L 579.162275 59.984104 
L 588.610725 66.097953 
L 598.059175 72.138635 
L 607.507625 78.835385 
L 616.956075 87.117636 
L 626.404525 96.602852 
L 635.852975 106.907448 
L 645.301425 118.062881 
L 654.749875 129.855112 
L 664.198325 141.911225 
L 673.646775 153.093178 
L 683.095225 163.3696 
L 692.543675 173.244685 
L 701.992125 182.505302 
L 711.440575 190.570895 
L 720.889025 197.31702 
L 730.337475 202.883226 
L 739.785925 207.173192 
L 749.234375 210.640359 
L 758.682825 213.654139 
L 768.131275 216.018992 
L 777.579725 217.933932 
L 787.028175 219.742818 
L 796.476625 221.480329 
L 805.925075 223.000769 
L 815.373525 224.249828 
L 824.821975 225.442427 
L 834.270425 226.6012 
L 843.718875 227.551723 
L 853.167325 228.281121 
L 862.615775 228.883651 
L 872.064225 229.401933 
L 881.512675 229.803436 
L 890.961125 230.058745 
L 900.409575 230.196144 
L 909.858025 230.265451 
L 919.306475 230.29856 
L 928.754925 230.321497 
L 938.203375 230.325742 
L 947.651825 230.289408 
L 957.100275 230.194215 
L 966.548725 229.940918 
L 975.997175 230.044657 
L 985.445625 230.346556 
" style="fill:none;stroke:#f0ad4e;stroke-linecap:square;"/>
   </g>
   <g id="line2d_13">
    <path clip-path="url(#p06a4c9e6fc)" d="M 40.600625 273.99006 
L 985.445625 273.99006 
" style="fill:none;stroke:#dedede;stroke-linecap:square;stroke-width:2;"/>
   </g>
   <g id="text_15">
    <!-- FastQC: Per Sequence GC Content -->
    <g transform="translate(376.386875 19.3575)scale(0.16 -0.16)">
     <defs>
      <path d="M 628 4666 
L 3309 4666 
L 3309 4134 
L 1259 4134 
L 1259 2759 
L 3109 2759 
L 3109 2228 
L 1259 2228 
L 1259 0 
L 628 0 
L 628 4666 
z
" id="DejaVuSans-46" transform="scale(0.015625)"/>
      <path d="M 2834 3397 
L 2834 2853 
Q 2591 2978 2328 3040 
Q 2066 3103 1784 3103 
Q 1356 3103 1142 2972 
Q 928 2841 928 2578 
Q 928 2378 1081 2264 
Q 1234 2150 1697 2047 
L 1894 2003 
Q 2506 1872 2764 1633 
Q 3022 1394 3022 966 
Q 3022 478 2636 193 
Q 2250 -91 1575 -91 
Q 1294 -91 989 -36 
Q 684 19 347 128 
L 347 722 
Q 666 556 975 473 
Q 1284 391 1588 391 
Q 1994 391 2212 530 
Q 2431 669 2431 922 
Q 2431 1156 2273 1281 
Q 2116 1406 1581 1522 
L 1381 1569 
Q 847 1681 609 1914 
Q 372 2147 372 2553 
Q 372 3047 722 3315 
Q 1072 3584 1716 3584 
Q 2034 3584 2315 3537 
Q 2597 3491 2834 3397 
z
" id="DejaVuSans-73" transform="scale(0.015625)"/>
      <path d="M 2522 4238 
Q 1834 4238 1429 3725 
Q 1025 3213 1025 2328 
Q 1025 1447 1429 934 
Q 1834 422 2522 422 
Q 3209 422 3611 934 
Q 4013 1447 4013 2328 
Q 4013 3213 3611 3725 
Q 3209 4238 2522 4238 
z
M 3406 84 
L 4238 -825 
L 3475 -825 
L 2784 -78 
Q 2681 -84 2626 -87 
Q 2572 -91 2522 -91 
Q 1538 -91 948 567 
Q 359 1225 359 2328 
Q 359 3434 948 4092 
Q 1538 4750 2522 4750 
Q 3503 4750 4090 4092 
Q 4678 3434 4678 2328 
Q 4678 1516 4351 937 
Q 4025 359 3406 84 
z
" id="DejaVuSans-51" transform="scale(0.015625)"/>
      <path d="M 750 794 
L 1409 794 
L 1409 0 
L 750 0 
L 750 794 
z
M 750 3309 
L 1409 3309 
L 1409 2516 
L 750 2516 
L 750 3309 
z
" id="DejaVuSans-3a" transform="scale(0.015625)"/>
      <path d="M 3425 4513 
L 3425 3897 
Q 3066 4069 2747 4153 
Q 2428 4238 2131 4238 
Q 1616 4238 1336 4038 
Q 1056 3838 1056 3469 
Q 1056 3159 1242 3001 
Q 1428 2844 1947 2747 
L 2328 2669 
Q 3034 2534 3370 2195 
Q 3706 1856 3706 1288 
Q 3706 609 3251 259 
Q 2797 -91 1919 -91 
Q 1588 -91 1214 -16 
Q 841 59 441 206 
L 441 856 
Q 825 641 1194 531 
Q 1563 422 1919 422 
Q 2459 422 2753 634 
Q 3047 847 3047 1241 
Q 3047 1584 2836 1778 
Q 2625 1972 2144 2069 
L 1759 2144 
Q 1053 2284 737 2584 
Q 422 2884 422 3419 
Q 422 4038 858 4394 
Q 1294 4750 2059 4750 
Q 2388 4750 2728 4690 
Q 3069 4631 3425 4513 
z
" id="DejaVuSans-53" transform="scale(0.015625)"/>
      <path d="M 947 1747 
Q 947 1113 1208 752 
Q 1469 391 1925 391 
Q 2381 391 2643 752 
Q 2906 1113 2906 1747 
Q 2906 2381 2643 2742 
Q 2381 3103 1925 3103 
Q 1469 3103 1208 2742 
Q 947 2381 947 1747 
z
M 2906 525 
Q 2725 213 2448 61 
Q 2172 -91 1784 -91 
Q 1150 -91 751 415 
Q 353 922 353 1747 
Q 353 2572 751 3078 
Q 1150 3584 1784 3584 
Q 2172 3584 2448 3432 
Q 2725 3281 2906 2969 
L 2906 3500 
L 3481 3500 
L 3481 -1331 
L 2906 -1331 
L 2906 525 
z
" id="DejaVuSans-71" transform="scale(0.015625)"/>
      <path d="M 544 1381 
L 544 3500 
L 1119 3500 
L 1119 1403 
Q 1119 906 1312 657 
Q 1506 409 1894 409 
Q 2359 409 2629 706 
Q 2900 1003 2900 1516 
L 2900 3500 
L 3475 3500 
L 3475 0 
L 2900 0 
L 2900 538 
Q 2691 219 2414 64 
Q 2138 -91 1772 -91 
Q 1169 -91 856 284 
Q 544 659 544 1381 
z
M 1991 3584 
L 1991 3584 
z
" id="DejaVuSans-75" transform="scale(0.015625)"/>
      <path d="M 1959 3097 
Q 1497 3097 1228 2736 
Q 959 2375 959 1747 
Q 959 1119 1226 758 
Q 1494 397 1959 397 
Q 2419 397 2687 759 
Q 2956 1122 2956 1747 
Q 2956 2369 2687 2733 
Q 2419 3097 1959 3097 
z
M 1959 3584 
Q 2709 3584 3137 3096 
Q 3566 2609 3566 1747 
Q 3566 888 3137 398 
Q 2709 -91 1959 -91 
Q 1206 -91 779 398 
Q 353 888 353 1747 
Q 353 2609 779 3096 
Q 1206 3584 1959 3584 
z
" id="DejaVuSans-6f" transform="scale(0.015625)"/>
     </defs>
     <use xlink:href="#DejaVuSans-46"/>
     <use x="48.394531" xlink:href="#DejaVuSans-61"/>
     <use x="109.673828" xlink:href="#DejaVuSans-73"/>
     <use x="161.773438" xlink:href="#DejaVuSans-74"/>
     <use x="200.982422" xlink:href="#DejaVuSans-51"/>
     <use x="279.693359" xlink:href="#DejaVuSans-43"/>
     <use x="349.517578" xlink:href="#DejaVuSans-3a"/>
     <use x="383.208984" xlink:href="#DejaVuSans-20"/>
     <use x="414.996094" xlink:href="#DejaVuSans-50"/>
     <use x="471.673828" xlink:href="#DejaVuSans-65"/>
     <use x="533.197266" xlink:href="#DejaVuSans-72"/>
     <use x="574.310547" xlink:href="#DejaVuSans-20"/>
     <use x="606.097656" xlink:href="#DejaVuSans-53"/>
     <use x="669.574219" xlink:href="#DejaVuSans-65"/>
     <use x="731.097656" xlink:href="#DejaVuSans-71"/>
     <use x="794.574219" xlink:href="#DejaVuSans-75"/>
     <use x="857.953125" xlink:href="#DejaVuSans-65"/>
     <use x="919.476562" xlink:href="#DejaVuSans-6e"/>
     <use x="982.855469" xlink:href="#DejaVuSans-63"/>
     <use x="1037.835938" xlink:href="#DejaVuSans-65"/>
     <use x="1099.359375" xlink:href="#DejaVuSans-20"/>
     <use x="1131.146484" xlink:href="#DejaVuSans-47"/>
     <use x="1208.636719" xlink:href="#DejaVuSans-43"/>
     <use x="1278.460938" xlink:href="#DejaVuSans-20"/>
     <use x="1310.248047" xlink:href="#DejaVuSans-43"/>
     <use x="1380.072266" xlink:href="#DejaVuSans-6f"/>
     <use x="1441.253906" xlink:href="#DejaVuSans-6e"/>
     <use x="1504.632812" xlink:href="#DejaVuSans-74"/>
     <use x="1543.841797" xlink:href="#DejaVuSans-65"/>
     <use x="1605.365234" xlink:href="#DejaVuSans-6e"/>
     <use x="1668.744141" xlink:href="#DejaVuSans-74"/>
    </g>
   </g>
   <g id="legend_1">
    <g id="line2d_14">
     <path d="M 47.800625 303.935394 
L 63.800625 303.935394 
" style="fill:none;stroke:#f0ad4e;stroke-linecap:square;"/>
    </g>
    <g id="line2d_15"/>
    <g id="text_16">
     <!-- 1O -->
     <g transform="translate(70.200625 306.735394)scale(0.08 -0.08)">
      <defs>
       <path d="M 2522 4238 
Q 1834 4238 1429 3725 
Q 1025 3213 1025 2328 
Q 1025 1447 1429 934 
Q 1834 422 2522 422 
Q 3209 422 3611 934 
Q 4013 1447 4013 2328 
Q 4013 3213 3611 3725 
Q 3209 4238 2522 4238 
z
M 2522 4750 
Q 3503 4750 4090 4092 
Q 4678 3434 4678 2328 
Q 4678 1225 4090 567 
Q 3503 -91 2522 -91 
Q 1538 -91 948 565 
Q 359 1222 359 2328 
Q 359 3434 948 4092 
Q 1538 4750 2522 4750 
z
" id="DejaVuSans-4f" transform="scale(0.015625)"/>
      </defs>
      <use xlink:href="#DejaVuSans-31"/>
      <use x="63.623047" xlink:href="#DejaVuSans-4f"/>
     </g>
    </g>
    <g id="line2d_16">
     <path d="M 47.800625 315.677894 
L 63.800625 315.677894 
" style="fill:none;stroke:#f0ad4e;stroke-linecap:square;"/>
    </g>
    <g id="line2d_17"/>
    <g id="text_17">
     <!-- 2O -->
     <g transform="translate(70.200625 318.477894)scale(0.08 -0.08)">
      <use xlink:href="#DejaVuSans-32"/>
      <use x="63.623047" xlink:href="#DejaVuSans-4f"/>
     </g>
    </g>
    <g id="line2d_18">
     <path d="M 262.435313 303.935394 
L 278.435313 303.935394 
" style="fill:none;stroke:#f0ad4e;stroke-linecap:square;"/>
    </g>
    <g id="line2d_19"/>
    <g id="text_18">
     <!-- 3O -->
     <g transform="translate(284.835312 306.735394)scale(0.08 -0.08)">
      <defs>
       <path d="M 2597 2516 
Q 3050 2419 3304 2112 
Q 3559 1806 3559 1356 
Q 3559 666 3084 287 
Q 2609 -91 1734 -91 
Q 1441 -91 1130 -33 
Q 819 25 488 141 
L 488 750 
Q 750 597 1062 519 
Q 1375 441 1716 441 
Q 2309 441 2620 675 
Q 2931 909 2931 1356 
Q 2931 1769 2642 2001 
Q 2353 2234 1838 2234 
L 1294 2234 
L 1294 2753 
L 1863 2753 
Q 2328 2753 2575 2939 
Q 2822 3125 2822 3475 
Q 2822 3834 2567 4026 
Q 2313 4219 1838 4219 
Q 1578 4219 1281 4162 
Q 984 4106 628 3988 
L 628 4550 
Q 988 4650 1302 4700 
Q 1616 4750 1894 4750 
Q 2613 4750 3031 4423 
Q 3450 4097 3450 3541 
Q 3450 3153 3228 2886 
Q 3006 2619 2597 2516 
z
" id="DejaVuSans-33" transform="scale(0.015625)"/>
      </defs>
      <use xlink:href="#DejaVuSans-33"/>
      <use x="63.623047" xlink:href="#DejaVuSans-4f"/>
     </g>
    </g>
    <g id="line2d_20">
     <path d="M 477.07 303.935394 
L 493.07 303.935394 
" style="fill:none;stroke:#f0ad4e;stroke-linecap:square;"/>
    </g>
    <g id="line2d_21"/>
    <g id="text_19">
     <!-- P11_1 -->
     <g transform="translate(499.47 306.735394)scale(0.08 -0.08)">
      <defs>
       <path d="M 3263 -1063 
L 3263 -1509 
L -63 -1509 
L -63 -1063 
L 3263 -1063 
z
" id="DejaVuSans-5f" transform="scale(0.015625)"/>
      </defs>
      <use xlink:href="#DejaVuSans-50"/>
      <use x="60.302734" xlink:href="#DejaVuSans-31"/>
      <use x="123.925781" xlink:href="#DejaVuSans-31"/>
      <use x="187.548828" xlink:href="#DejaVuSans-5f"/>
      <use x="237.548828" xlink:href="#DejaVuSans-31"/>
     </g>
    </g>
    <g id="line2d_22">
     <path d="M 704.410938 303.935394 
L 720.410938 303.935394 
" style="fill:none;stroke:#f0ad4e;stroke-linecap:square;"/>
    </g>
    <g id="line2d_23"/>
    <g id="text_20">
     <!-- P11_2 -->
     <g transform="translate(726.810938 306.735394)scale(0.08 -0.08)">
      <use xlink:href="#DejaVuSans-50"/>
      <use x="60.302734" xlink:href="#DejaVuSans-31"/>
      <use x="123.925781" xlink:href="#DejaVuSans-31"/>
      <use x="187.548828" xlink:href="#DejaVuSans-5f"/>
      <use x="237.548828" xlink:href="#DejaVuSans-32"/>
     </g>
    </g>
    <g id="line2d_24">
     <path d="M 931.751875 303.935394 
L 947.751875 303.935394 
" style="fill:none;stroke:#f0ad4e;stroke-linecap:square;"/>
    </g>
    <g id="line2d_25"/>
    <g id="text_21">
     <!-- P11_3 -->
     <g transform="translate(954.151875 306.735394)scale(0.08 -0.08)">
      <use xlink:href="#DejaVuSans-50"/>
      <use x="60.302734" xlink:href="#DejaVuSans-31"/>
      <use x="123.925781" xlink:href="#DejaVuSans-31"/>
      <use x="187.548828" xlink:href="#DejaVuSans-5f"/>
      <use x="237.548828" xlink:href="#DejaVuSans-33"/>
     </g>
    </g>
   </g>
  </g>
 </g>
 <defs>
  <clipPath id="p06a4c9e6fc">
   <rect height="242.5072" width="944.845" x="40.600625" y="31.48286"/>
  </clipPath>
 </defs>
</svg>
