<?xml version="1.0" encoding="utf-8" standalone="no"?>
<!DOCTYPE svg PUBLIC "-//W3C//DTD SVG 1.1//EN"
  "http://www.w3.org/Graphics/SVG/1.1/DTD/svg11.dtd">
<svg height="330.541644pt" version="1.1" viewBox="0 0 1000.280625 330.541644" width="1000.280625pt" xmlns="http://www.w3.org/2000/svg" xmlns:xlink="http://www.w3.org/1999/xlink">
 <metadata>
  <rdf:RDF xmlns:cc="http://creativecommons.org/ns#" xmlns:dc="http://purl.org/dc/elements/1.1/" xmlns:rdf="http://www.w3.org/1999/02/22-rdf-syntax-ns#">
   <cc:Work>
    <dc:type rdf:resource="http://purl.org/dc/dcmitype/StillImage"/>
    <dc:date>2024-09-06T15:37:42.296434</dc:date>
    <dc:format>image/svg+xml</dc:format>
    <dc:creator>
     <cc:Agent>
      <dc:title>Matplotlib v3.4.2, https://matplotlib.org/</dc:title>
     </cc:Agent>
    </dc:creator>
   </cc:Work>
  </rdf:RDF>
 </metadata>
 <defs>
  <style type="text/css">*{stroke-linecap:butt;stroke-linejoin:round;}</style>
 </defs>
 <g id="figure_1">
  <g id="axes_1">
   <g id="patch_1">
    <path d="M 40.600625 273.99006 
L 985.445625 273.99006 
L 985.445625 31.48286 
L 40.600625 31.48286 
z
" style="fill:#ffffff;"/>
   </g>
   <g id="matplotlib.axis_1">
    <g id="xtick_1">
     <g id="text_1">
      <!-- 0 -->
      <g transform="translate(38.055625 287.06881)scale(0.08 -0.08)">
       <defs>
        <path d="M 2034 4250 
Q 1547 4250 1301 3770 
Q 1056 3291 1056 2328 
Q 1056 1369 1301 889 
Q 1547 409 2034 409 
Q 2525 409 2770 889 
Q 3016 1369 3016 2328 
Q 3016 3291 2770 3770 
Q 2525 4250 2034 4250 
z
M 2034 4750 
Q 2819 4750 3233 4129 
Q 3647 3509 3647 2328 
Q 3647 1150 3233 529 
Q 2819 -91 2034 -91 
Q 1250 -91 836 529 
Q 422 1150 422 2328 
Q 422 3509 836 4129 
Q 1250 4750 2034 4750 
z
" id="DejaVuSans-30" transform="scale(0.015625)"/>
       </defs>
       <use xlink:href="#DejaVuSans-30"/>
      </g>
     </g>
    </g>
    <g id="xtick_2">
     <g id="text_2">
      <!-- 20 -->
      <g transform="translate(224.479625 287.06881)scale(0.08 -0.08)">
       <defs>
        <path d="M 1228 531 
L 3431 531 
L 3431 0 
L 469 0 
L 469 531 
Q 828 903 1448 1529 
Q 2069 2156 2228 2338 
Q 2531 2678 2651 2914 
Q 2772 3150 2772 3378 
Q 2772 3750 2511 3984 
Q 2250 4219 1831 4219 
Q 1534 4219 1204 4116 
Q 875 4013 500 3803 
L 500 4441 
Q 881 4594 1212 4672 
Q 1544 4750 1819 4750 
Q 2544 4750 2975 4387 
Q 3406 4025 3406 3419 
Q 3406 3131 3298 2873 
Q 3191 2616 2906 2266 
Q 2828 2175 2409 1742 
Q 1991 1309 1228 531 
z
" id="DejaVuSans-32" transform="scale(0.015625)"/>
       </defs>
       <use xlink:href="#DejaVuSans-32"/>
       <use x="63.623047" xlink:href="#DejaVuSans-30"/>
      </g>
     </g>
    </g>
    <g id="xtick_3">
     <g id="text_3">
      <!-- 40 -->
      <g transform="translate(413.448625 287.06881)scale(0.08 -0.08)">
       <defs>
        <path d="M 2419 4116 
L 825 1625 
L 2419 1625 
L 2419 4116 
z
M 2253 4666 
L 3047 4666 
L 3047 1625 
L 3713 1625 
L 3713 1100 
L 3047 1100 
L 3047 0 
L 2419 0 
L 2419 1100 
L 313 1100 
L 313 1709 
L 2253 4666 
z
" id="DejaVuSans-34" transform="scale(0.015625)"/>
       </defs>
       <use xlink:href="#DejaVuSans-34"/>
       <use x="63.623047" xlink:href="#DejaVuSans-30"/>
      </g>
     </g>
    </g>
    <g id="xtick_4">
     <g id="text_4">
      <!-- 60 -->
      <g transform="translate(602.417625 287.06881)scale(0.08 -0.08)">
       <defs>
        <path d="M 2113 2584 
Q 1688 2584 1439 2293 
Q 1191 2003 1191 1497 
Q 1191 994 1439 701 
Q 1688 409 2113 409 
Q 2538 409 2786 701 
Q 3034 994 3034 1497 
Q 3034 2003 2786 2293 
Q 2538 2584 2113 2584 
z
M 3366 4563 
L 3366 3988 
Q 3128 4100 2886 4159 
Q 2644 4219 2406 4219 
Q 1781 4219 1451 3797 
Q 1122 3375 1075 2522 
Q 1259 2794 1537 2939 
Q 1816 3084 2150 3084 
Q 2853 3084 3261 2657 
Q 3669 2231 3669 1497 
Q 3669 778 3244 343 
Q 2819 -91 2113 -91 
Q 1303 -91 875 529 
Q 447 1150 447 2328 
Q 447 3434 972 4092 
Q 1497 4750 2381 4750 
Q 2619 4750 2861 4703 
Q 3103 4656 3366 4563 
z
" id="DejaVuSans-36" transform="scale(0.015625)"/>
       </defs>
       <use xlink:href="#DejaVuSans-36"/>
       <use x="63.623047" xlink:href="#DejaVuSans-30"/>
      </g>
     </g>
    </g>
    <g id="xtick_5">
     <g id="text_5">
      <!-- 80 -->
      <g transform="translate(791.386625 287.06881)scale(0.08 -0.08)">
       <defs>
        <path d="M 2034 2216 
Q 1584 2216 1326 1975 
Q 1069 1734 1069 1313 
Q 1069 891 1326 650 
Q 1584 409 2034 409 
Q 2484 409 2743 651 
Q 3003 894 3003 1313 
Q 3003 1734 2745 1975 
Q 2488 2216 2034 2216 
z
M 1403 2484 
Q 997 2584 770 2862 
Q 544 3141 544 3541 
Q 544 4100 942 4425 
Q 1341 4750 2034 4750 
Q 2731 4750 3128 4425 
Q 3525 4100 3525 3541 
Q 3525 3141 3298 2862 
Q 3072 2584 2669 2484 
Q 3125 2378 3379 2068 
Q 3634 1759 3634 1313 
Q 3634 634 3220 271 
Q 2806 -91 2034 -91 
Q 1263 -91 848 271 
Q 434 634 434 1313 
Q 434 1759 690 2068 
Q 947 2378 1403 2484 
z
M 1172 3481 
Q 1172 3119 1398 2916 
Q 1625 2713 2034 2713 
Q 2441 2713 2670 2916 
Q 2900 3119 2900 3481 
Q 2900 3844 2670 4047 
Q 2441 4250 2034 4250 
Q 1625 4250 1398 4047 
Q 1172 3844 1172 3481 
z
" id="DejaVuSans-38" transform="scale(0.015625)"/>
       </defs>
       <use xlink:href="#DejaVuSans-38"/>
       <use x="63.623047" xlink:href="#DejaVuSans-30"/>
      </g>
     </g>
    </g>
    <g id="xtick_6">
     <g id="text_6">
      <!-- 100 -->
      <g transform="translate(977.810625 287.06881)scale(0.08 -0.08)">
       <defs>
        <path d="M 794 531 
L 1825 531 
L 1825 4091 
L 703 3866 
L 703 4441 
L 1819 4666 
L 2450 4666 
L 2450 531 
L 3481 531 
L 3481 0 
L 794 0 
L 794 531 
z
" id="DejaVuSans-31" transform="scale(0.015625)"/>
       </defs>
       <use xlink:href="#DejaVuSans-31"/>
       <use x="63.623047" xlink:href="#DejaVuSans-30"/>
       <use x="127.246094" xlink:href="#DejaVuSans-30"/>
      </g>
     </g>
    </g>
    <g id="text_7">
     <!-- % GC -->
     <g transform="translate(499.317656 300.330997)scale(0.1 -0.1)">
      <defs>
       <path d="M 4653 2053 
Q 4381 2053 4226 1822 
Q 4072 1591 4072 1178 
Q 4072 772 4226 539 
Q 4381 306 4653 306 
Q 4919 306 5073 539 
Q 5228 772 5228 1178 
Q 5228 1588 5073 1820 
Q 4919 2053 4653 2053 
z
M 4653 2450 
Q 5147 2450 5437 2106 
Q 5728 1763 5728 1178 
Q 5728 594 5436 251 
Q 5144 -91 4653 -91 
Q 4153 -91 3862 251 
Q 3572 594 3572 1178 
Q 3572 1766 3864 2108 
Q 4156 2450 4653 2450 
z
M 1428 4353 
Q 1159 4353 1004 4120 
Q 850 3888 850 3481 
Q 850 3069 1003 2837 
Q 1156 2606 1428 2606 
Q 1700 2606 1854 2837 
Q 2009 3069 2009 3481 
Q 2009 3884 1853 4118 
Q 1697 4353 1428 4353 
z
M 4250 4750 
L 4750 4750 
L 1831 -91 
L 1331 -91 
L 4250 4750 
z
M 1428 4750 
Q 1922 4750 2215 4408 
Q 2509 4066 2509 3481 
Q 2509 2891 2217 2550 
Q 1925 2209 1428 2209 
Q 931 2209 642 2551 
Q 353 2894 353 3481 
Q 353 4063 643 4406 
Q 934 4750 1428 4750 
z
" id="DejaVuSans-25" transform="scale(0.015625)"/>
       <path id="DejaVuSans-20" transform="scale(0.015625)"/>
       <path d="M 3809 666 
L 3809 1919 
L 2778 1919 
L 2778 2438 
L 4434 2438 
L 4434 434 
Q 4069 175 3628 42 
Q 3188 -91 2688 -91 
Q 1594 -91 976 548 
Q 359 1188 359 2328 
Q 359 3472 976 4111 
Q 1594 4750 2688 4750 
Q 3144 4750 3555 4637 
Q 3966 4525 4313 4306 
L 4313 3634 
Q 3963 3931 3569 4081 
Q 3175 4231 2741 4231 
Q 1884 4231 1454 3753 
Q 1025 3275 1025 2328 
Q 1025 1384 1454 906 
Q 1884 428 2741 428 
Q 3075 428 3337 486 
Q 3600 544 3809 666 
z
" id="DejaVuSans-47" transform="scale(0.015625)"/>
       <path d="M 4122 4306 
L 4122 3641 
Q 3803 3938 3442 4084 
Q 3081 4231 2675 4231 
Q 1875 4231 1450 3742 
Q 1025 3253 1025 2328 
Q 1025 1406 1450 917 
Q 1875 428 2675 428 
Q 3081 428 3442 575 
Q 3803 722 4122 1019 
L 4122 359 
Q 3791 134 3420 21 
Q 3050 -91 2638 -91 
Q 1578 -91 968 557 
Q 359 1206 359 2328 
Q 359 3453 968 4101 
Q 1578 4750 2638 4750 
Q 3056 4750 3426 4639 
Q 3797 4528 4122 4306 
z
" id="DejaVuSans-43" transform="scale(0.015625)"/>
      </defs>
      <use xlink:href="#DejaVuSans-25"/>
      <use x="95.019531" xlink:href="#DejaVuSans-20"/>
      <use x="126.806641" xlink:href="#DejaVuSans-47"/>
      <use x="204.296875" xlink:href="#DejaVuSans-43"/>
     </g>
    </g>
   </g>
   <g id="matplotlib.axis_2">
    <g id="ytick_1">
     <g id="line2d_1">
      <path clip-path="url(#pd2f27ea955)" d="M 40.600625 273.99006 
L 985.445625 273.99006 
" style="fill:none;stroke:#dedede;stroke-linecap:square;"/>
     </g>
     <g id="text_8">
      <!-- 0.0 -->
      <g transform="translate(20.878125 277.029435)scale(0.08 -0.08)">
       <defs>
        <path d="M 684 794 
L 1344 794 
L 1344 0 
L 684 0 
L 684 794 
z
" id="DejaVuSans-2e" transform="scale(0.015625)"/>
       </defs>
       <use xlink:href="#DejaVuSans-30"/>
       <use x="63.623047" xlink:href="#DejaVuSans-2e"/>
       <use x="95.410156" xlink:href="#DejaVuSans-30"/>
      </g>
     </g>
    </g>
    <g id="ytick_2">
     <g id="line2d_2">
      <path clip-path="url(#pd2f27ea955)" d="M 40.600625 240.526509 
L 985.445625 240.526509 
" style="fill:none;stroke:#dedede;stroke-linecap:square;"/>
     </g>
     <g id="text_9">
      <!-- 0.5 -->
      <g transform="translate(20.878125 243.565884)scale(0.08 -0.08)">
       <defs>
        <path d="M 691 4666 
L 3169 4666 
L 3169 4134 
L 1269 4134 
L 1269 2991 
Q 1406 3038 1543 3061 
Q 1681 3084 1819 3084 
Q 2600 3084 3056 2656 
Q 3513 2228 3513 1497 
Q 3513 744 3044 326 
Q 2575 -91 1722 -91 
Q 1428 -91 1123 -41 
Q 819 9 494 109 
L 494 744 
Q 775 591 1075 516 
Q 1375 441 1709 441 
Q 2250 441 2565 725 
Q 2881 1009 2881 1497 
Q 2881 1984 2565 2268 
Q 2250 2553 1709 2553 
Q 1456 2553 1204 2497 
Q 953 2441 691 2322 
L 691 4666 
z
" id="DejaVuSans-35" transform="scale(0.015625)"/>
       </defs>
       <use xlink:href="#DejaVuSans-30"/>
       <use x="63.623047" xlink:href="#DejaVuSans-2e"/>
       <use x="95.410156" xlink:href="#DejaVuSans-35"/>
      </g>
     </g>
    </g>
    <g id="ytick_3">
     <g id="line2d_3">
      <path clip-path="url(#pd2f27ea955)" d="M 40.600625 207.062957 
L 985.445625 207.062957 
" style="fill:none;stroke:#dedede;stroke-linecap:square;"/>
     </g>
     <g id="text_10">
      <!-- 1.0 -->
      <g transform="translate(20.878125 210.102332)scale(0.08 -0.08)">
       <use xlink:href="#DejaVuSans-31"/>
       <use x="63.623047" xlink:href="#DejaVuSans-2e"/>
       <use x="95.410156" xlink:href="#DejaVuSans-30"/>
      </g>
     </g>
    </g>
    <g id="ytick_4">
     <g id="line2d_4">
      <path clip-path="url(#pd2f27ea955)" d="M 40.600625 173.599406 
L 985.445625 173.599406 
" style="fill:none;stroke:#dedede;stroke-linecap:square;"/>
     </g>
     <g id="text_11">
      <!-- 1.5 -->
      <g transform="translate(20.878125 176.638781)scale(0.08 -0.08)">
       <use xlink:href="#DejaVuSans-31"/>
       <use x="63.623047" xlink:href="#DejaVuSans-2e"/>
       <use x="95.410156" xlink:href="#DejaVuSans-35"/>
      </g>
     </g>
    </g>
    <g id="ytick_5">
     <g id="line2d_5">
      <path clip-path="url(#pd2f27ea955)" d="M 40.600625 140.135854 
L 985.445625 140.135854 
" style="fill:none;stroke:#dedede;stroke-linecap:square;"/>
     </g>
     <g id="text_12">
      <!-- 2.0 -->
      <g transform="translate(20.878125 143.175229)scale(0.08 -0.08)">
       <use xlink:href="#DejaVuSans-32"/>
       <use x="63.623047" xlink:href="#DejaVuSans-2e"/>
       <use x="95.410156" xlink:href="#DejaVuSans-30"/>
      </g>
     </g>
    </g>
    <g id="ytick_6">
     <g id="line2d_6">
      <path clip-path="url(#pd2f27ea955)" d="M 40.600625 106.672303 
L 985.445625 106.672303 
" style="fill:none;stroke:#dedede;stroke-linecap:square;"/>
     </g>
     <g id="text_13">
      <!-- 2.5 -->
      <g transform="translate(20.878125 109.711678)scale(0.08 -0.08)">
       <use xlink:href="#DejaVuSans-32"/>
       <use x="63.623047" xlink:href="#DejaVuSans-2e"/>
       <use x="95.410156" xlink:href="#DejaVuSans-35"/>
      </g>
     </g>
    </g>
    <g id="ytick_7">
     <g id="line2d_7">
      <path clip-path="url(#pd2f27ea955)" d="M 40.600625 73.208751 
L 985.445625 73.208751 
" style="fill:none;stroke:#dedede;stroke-linecap:square;"/>
     </g>
     <g id="text_14">
      <!-- 3.0 -->
      <g transform="translate(20.878125 76.248126)scale(0.08 -0.08)">
       <defs>
        <path d="M 2597 2516 
Q 3050 2419 3304 2112 
Q 3559 1806 3559 1356 
Q 3559 666 3084 287 
Q 2609 -91 1734 -91 
Q 1441 -91 1130 -33 
Q 819 25 488 141 
L 488 750 
Q 750 597 1062 519 
Q 1375 441 1716 441 
Q 2309 441 2620 675 
Q 2931 909 2931 1356 
Q 2931 1769 2642 2001 
Q 2353 2234 1838 2234 
L 1294 2234 
L 1294 2753 
L 1863 2753 
Q 2328 2753 2575 2939 
Q 2822 3125 2822 3475 
Q 2822 3834 2567 4026 
Q 2313 4219 1838 4219 
Q 1578 4219 1281 4162 
Q 984 4106 628 3988 
L 628 4550 
Q 988 4650 1302 4700 
Q 1616 4750 1894 4750 
Q 2613 4750 3031 4423 
Q 3450 4097 3450 3541 
Q 3450 3153 3228 2886 
Q 3006 2619 2597 2516 
z
" id="DejaVuSans-33" transform="scale(0.015625)"/>
       </defs>
       <use xlink:href="#DejaVuSans-33"/>
       <use x="63.623047" xlink:href="#DejaVuSans-2e"/>
       <use x="95.410156" xlink:href="#DejaVuSans-30"/>
      </g>
     </g>
    </g>
    <g id="ytick_8">
     <g id="line2d_8">
      <path clip-path="url(#pd2f27ea955)" d="M 40.600625 39.7452 
L 985.445625 39.7452 
" style="fill:none;stroke:#dedede;stroke-linecap:square;"/>
     </g>
     <g id="text_15">
      <!-- 3.5 -->
      <g transform="translate(20.878125 42.784575)scale(0.08 -0.08)">
       <use xlink:href="#DejaVuSans-33"/>
       <use x="63.623047" xlink:href="#DejaVuSans-2e"/>
       <use x="95.410156" xlink:href="#DejaVuSans-35"/>
      </g>
     </g>
    </g>
    <g id="text_16">
     <!-- Count -->
     <g transform="translate(14.798438 167.584897)rotate(-90)scale(0.1 -0.1)">
      <defs>
       <path d="M 1959 3097 
Q 1497 3097 1228 2736 
Q 959 2375 959 1747 
Q 959 1119 1226 758 
Q 1494 397 1959 397 
Q 2419 397 2687 759 
Q 2956 1122 2956 1747 
Q 2956 2369 2687 2733 
Q 2419 3097 1959 3097 
z
M 1959 3584 
Q 2709 3584 3137 3096 
Q 3566 2609 3566 1747 
Q 3566 888 3137 398 
Q 2709 -91 1959 -91 
Q 1206 -91 779 398 
Q 353 888 353 1747 
Q 353 2609 779 3096 
Q 1206 3584 1959 3584 
z
" id="DejaVuSans-6f" transform="scale(0.015625)"/>
       <path d="M 544 1381 
L 544 3500 
L 1119 3500 
L 1119 1403 
Q 1119 906 1312 657 
Q 1506 409 1894 409 
Q 2359 409 2629 706 
Q 2900 1003 2900 1516 
L 2900 3500 
L 3475 3500 
L 3475 0 
L 2900 0 
L 2900 538 
Q 2691 219 2414 64 
Q 2138 -91 1772 -91 
Q 1169 -91 856 284 
Q 544 659 544 1381 
z
M 1991 3584 
L 1991 3584 
z
" id="DejaVuSans-75" transform="scale(0.015625)"/>
       <path d="M 3513 2113 
L 3513 0 
L 2938 0 
L 2938 2094 
Q 2938 2591 2744 2837 
Q 2550 3084 2163 3084 
Q 1697 3084 1428 2787 
Q 1159 2491 1159 1978 
L 1159 0 
L 581 0 
L 581 3500 
L 1159 3500 
L 1159 2956 
Q 1366 3272 1645 3428 
Q 1925 3584 2291 3584 
Q 2894 3584 3203 3211 
Q 3513 2838 3513 2113 
z
" id="DejaVuSans-6e" transform="scale(0.015625)"/>
       <path d="M 1172 4494 
L 1172 3500 
L 2356 3500 
L 2356 3053 
L 1172 3053 
L 1172 1153 
Q 1172 725 1289 603 
Q 1406 481 1766 481 
L 2356 481 
L 2356 0 
L 1766 0 
Q 1100 0 847 248 
Q 594 497 594 1153 
L 594 3053 
L 172 3053 
L 172 3500 
L 594 3500 
L 594 4494 
L 1172 4494 
z
" id="DejaVuSans-74" transform="scale(0.015625)"/>
      </defs>
      <use xlink:href="#DejaVuSans-43"/>
      <use x="69.824219" xlink:href="#DejaVuSans-6f"/>
      <use x="131.005859" xlink:href="#DejaVuSans-75"/>
      <use x="194.384766" xlink:href="#DejaVuSans-6e"/>
      <use x="257.763672" xlink:href="#DejaVuSans-74"/>
     </g>
    </g>
    <g id="text_17">
     <!-- 1e6 -->
     <g transform="translate(40.600625 28.48286)scale(0.1 -0.1)">
      <defs>
       <path d="M 3597 1894 
L 3597 1613 
L 953 1613 
Q 991 1019 1311 708 
Q 1631 397 2203 397 
Q 2534 397 2845 478 
Q 3156 559 3463 722 
L 3463 178 
Q 3153 47 2828 -22 
Q 2503 -91 2169 -91 
Q 1331 -91 842 396 
Q 353 884 353 1716 
Q 353 2575 817 3079 
Q 1281 3584 2069 3584 
Q 2775 3584 3186 3129 
Q 3597 2675 3597 1894 
z
M 3022 2063 
Q 3016 2534 2758 2815 
Q 2500 3097 2075 3097 
Q 1594 3097 1305 2825 
Q 1016 2553 972 2059 
L 3022 2063 
z
" id="DejaVuSans-65" transform="scale(0.015625)"/>
      </defs>
      <use xlink:href="#DejaVuSans-31"/>
      <use x="63.623047" xlink:href="#DejaVuSans-65"/>
      <use x="125.146484" xlink:href="#DejaVuSans-36"/>
     </g>
    </g>
   </g>
   <g id="line2d_9">
    <path clip-path="url(#pd2f27ea955)" d="M 40.600625 273.961014 
L 50.049075 273.959809 
L 59.497525 273.960378 
L 68.945975 273.963858 
L 78.394425 273.965598 
L 87.842875 273.966301 
L 97.291325 273.965565 
L 106.739775 273.963189 
L 116.188225 273.960344 
L 125.636675 273.95673 
L 135.085125 273.953451 
L 144.533575 273.948231 
L 153.982025 273.940668 
L 163.430475 273.933138 
L 172.878925 273.921359 
L 182.327375 273.902017 
L 191.775825 273.873406 
L 201.224275 273.828766 
L 210.672725 273.75364 
L 220.121175 273.611453 
L 229.569625 273.378012 
L 239.018075 273.050738 
L 248.466525 272.600553 
L 257.914975 272.027757 
L 267.363425 271.31408 
L 276.811875 270.342232 
L 286.260325 269.029423 
L 295.708775 267.425281 
L 305.157225 265.553999 
L 314.605675 263.346977 
L 324.054125 260.692314 
L 333.502575 257.53978 
L 342.951025 253.68006 
L 352.399475 248.809842 
L 361.847925 242.471644 
L 371.296375 234.458462 
L 380.744825 224.281192 
L 390.193275 211.494 
L 399.641725 197.174344 
L 409.090175 181.664958 
L 418.538625 164.829211 
L 427.987075 147.926939 
L 437.435525 132.274262 
L 446.883975 119.438246 
L 456.332425 110.076148 
L 465.780875 102.223223 
L 475.229325 95.572008 
L 484.677775 91.559226 
L 494.126225 89.505702 
L 503.574675 86.825305 
L 513.023125 83.229311 
L 522.471575 80.599377 
L 531.920025 79.999443 
L 541.368475 82.219683 
L 550.816925 85.581833 
L 560.265375 89.914727 
L 569.713825 96.248975 
L 579.162275 102.943593 
L 588.610725 109.170792 
L 598.059175 115.571432 
L 607.507625 122.875723 
L 616.956075 131.927647 
L 626.404525 141.756996 
L 635.852975 152.133441 
L 645.301425 163.705472 
L 654.749875 175.686494 
L 664.198325 187.72156 
L 673.646775 198.612875 
L 683.095225 208.548036 
L 692.543675 218.425774 
L 701.992125 227.578959 
L 711.440575 235.494193 
L 720.889025 242.25306 
L 730.337475 247.749817 
L 739.785925 251.871489 
L 749.234375 255.207671 
L 758.682825 258.161031 
L 768.131275 260.498727 
L 777.579725 262.382658 
L 787.028175 264.181893 
L 796.476625 265.839209 
L 805.925075 267.223797 
L 815.373525 268.383242 
L 824.821975 269.430584 
L 834.270425 270.418997 
L 843.718875 271.275965 
L 853.167325 271.957283 
L 862.615775 272.527335 
L 872.064225 272.987793 
L 881.512675 273.307705 
L 890.961125 273.545631 
L 900.409575 273.728007 
L 909.858025 273.841281 
L 919.306475 273.899508 
L 928.754925 273.932603 
L 938.203375 273.9403 
L 947.651825 273.907539 
L 957.100275 273.81006 
L 966.548725 273.545999 
L 975.997175 273.657265 
L 985.445625 273.975001 
" style="fill:none;stroke:#5cb85c;stroke-linecap:square;"/>
   </g>
   <g id="line2d_10">
    <path clip-path="url(#pd2f27ea955)" d="M 40.600625 273.984103 
L 50.049075 273.983735 
L 59.497525 273.982363 
L 68.945975 273.981661 
L 78.394425 273.981426 
L 87.842875 273.979251 
L 97.291325 273.976139 
L 106.739775 273.973328 
L 116.188225 273.97025 
L 125.636675 273.967037 
L 135.085125 273.963791 
L 144.533575 273.960445 
L 153.982025 273.95586 
L 163.430475 273.946959 
L 172.878925 273.933574 
L 182.327375 273.915704 
L 191.775825 273.888766 
L 201.224275 273.847974 
L 210.672725 273.772547 
L 220.121175 273.631297 
L 229.569625 273.40582 
L 239.018075 273.085373 
L 248.466525 272.63482 
L 257.914975 272.036224 
L 267.363425 271.283662 
L 276.811875 270.291836 
L 286.260325 268.95674 
L 295.708775 267.336435 
L 305.157225 265.479241 
L 314.605675 263.313681 
L 324.054125 260.736653 
L 333.502575 257.893657 
L 342.951025 254.612054 
L 352.399475 250.643176 
L 361.847925 245.792668 
L 371.296375 239.853891 
L 380.744825 232.477989 
L 390.193275 223.231173 
L 399.641725 212.649329 
L 409.090175 200.668006 
L 418.538625 186.785819 
L 427.987075 171.566796 
L 437.435525 156.112023 
L 446.883975 142.202864 
L 456.332425 130.96239 
L 465.780875 121.248223 
L 475.229325 113.35039 
L 484.677775 108.608839 
L 494.126225 105.882797 
L 503.574675 102.574189 
L 513.023125 98.934425 
L 522.471575 97.162664 
L 531.920025 97.882331 
L 541.368475 100.844291 
L 550.816925 104.295654 
L 560.265375 108.729675 
L 569.713825 115.018849 
L 579.162275 121.497627 
L 588.610725 127.229063 
L 598.059175 132.748943 
L 607.507625 139.186025 
L 616.956075 147.110127 
L 626.404525 155.841169 
L 635.852975 165.127505 
L 645.301425 175.098907 
L 654.749875 185.607634 
L 664.198325 196.426233 
L 673.646775 206.188354 
L 683.095225 215.210328 
L 692.543675 224.255626 
L 701.992125 232.528352 
L 711.440575 239.585012 
L 720.889025 245.642015 
L 730.337475 250.591508 
L 739.785925 254.351506 
L 749.234375 257.397292 
L 758.682825 259.990884 
L 768.131275 262.029618 
L 777.579725 263.672411 
L 787.028175 265.24764 
L 796.476625 266.740215 
L 805.925075 268.007045 
L 815.373525 269.055257 
L 824.821975 270.037513 
L 834.270425 270.948993 
L 843.718875 271.707545 
L 853.167325 272.312566 
L 862.615775 272.808696 
L 872.064225 273.217587 
L 881.512675 273.513338 
L 890.961125 273.708364 
L 900.409575 273.823144 
L 909.858025 273.886223 
L 919.306475 273.922698 
L 928.754925 273.944248 
L 938.203375 273.948063 
L 947.651825 273.920355 
L 957.100275 273.840143 
L 966.548725 273.626746 
L 975.997175 273.721214 
L 985.445625 273.980489 
" style="fill:none;stroke:#5cb85c;stroke-linecap:square;"/>
   </g>
   <g id="line2d_11">
    <path clip-path="url(#pd2f27ea955)" d="M 40.600625 273.976808 
L 50.049075 273.976173 
L 59.497525 273.975972 
L 68.945975 273.977411 
L 78.394425 273.97818 
L 87.842875 273.977678 
L 97.291325 273.976373 
L 106.739775 273.974165 
L 116.188225 273.971622 
L 125.636675 273.968576 
L 135.085125 273.964327 
L 144.533575 273.959274 
L 153.982025 273.953217 
L 163.430475 273.945252 
L 172.878925 273.935046 
L 182.327375 273.919987 
L 191.775825 273.895726 
L 201.224275 273.856775 
L 210.672725 273.787773 
L 220.121175 273.66707 
L 229.569625 273.468765 
L 239.018075 273.164514 
L 248.466525 272.737218 
L 257.914975 272.180853 
L 267.363425 271.469016 
L 276.811875 270.497503 
L 286.260325 269.235257 
L 295.708775 267.683318 
L 305.157225 265.778406 
L 314.605675 263.539326 
L 324.054125 260.899085 
L 333.502575 257.975509 
L 342.951025 254.804402 
L 352.399475 251.053171 
L 361.847925 246.157788 
L 371.296375 240.312576 
L 380.744825 233.451845 
L 390.193275 224.747607 
L 399.641725 214.577198 
L 409.090175 203.065234 
L 418.538625 189.612719 
L 427.987075 174.85894 
L 437.435525 159.468551 
L 446.883975 144.45727 
L 456.332425 131.330021 
L 465.780875 119.628821 
L 475.229325 109.051729 
L 484.677775 100.732522 
L 494.126225 95.072832 
L 503.574675 89.766483 
L 513.023125 84.515851 
L 522.471575 80.267586 
L 531.920025 77.602716 
L 541.368475 78.701358 
L 550.816925 81.502324 
L 560.265375 85.713712 
L 569.713825 93.339721 
L 579.162275 102.360926 
L 588.610725 110.641716 
L 598.059175 117.673546 
L 607.507625 125.030943 
L 616.956075 134.476465 
L 626.404525 145.291818 
L 635.852975 156.613274 
L 645.301425 168.270067 
L 654.749875 180.151067 
L 664.198325 191.926724 
L 673.646775 202.294936 
L 683.095225 211.709304 
L 692.543675 221.187019 
L 701.992125 230.061084 
L 711.440575 237.695291 
L 720.889025 244.048313 
L 730.337475 249.093044 
L 739.785925 252.796422 
L 749.234375 255.784014 
L 758.682825 258.503932 
L 768.131275 260.539319 
L 777.579725 262.091191 
L 787.028175 263.750314 
L 796.476625 265.376274 
L 805.925075 266.721844 
L 815.373525 267.801478 
L 824.821975 268.882284 
L 834.270425 269.994244 
L 843.718875 270.890833 
L 853.167325 271.547689 
L 862.615775 272.087757 
L 872.064225 272.610659 
L 881.512675 273.06158 
L 890.961125 273.408597 
L 900.409575 273.651041 
L 909.858025 273.79045 
L 919.306475 273.872402 
L 928.754925 273.921259 
L 938.203375 273.935247 
L 947.651825 273.906669 
L 957.100275 273.819764 
L 966.548725 273.587962 
L 975.997175 273.694878 
L 985.445625 273.979954 
" style="fill:none;stroke:#5cb85c;stroke-linecap:square;"/>
   </g>
   <g id="line2d_12">
    <path clip-path="url(#pd2f27ea955)" d="M 40.600625 273.985777 
L 50.049075 273.985007 
L 59.497525 273.982363 
L 68.945975 273.980322 
L 78.394425 273.979887 
L 87.842875 273.978348 
L 97.291325 273.975303 
L 106.739775 273.970852 
L 116.188225 273.967037 
L 125.636675 273.963724 
L 135.085125 273.957868 
L 144.533575 273.951209 
L 153.982025 273.94465 
L 163.430475 273.935615 
L 172.878925 273.923233 
L 182.327375 273.905832 
L 191.775825 273.879061 
L 201.224275 273.834588 
L 210.672725 273.75963 
L 220.121175 273.626947 
L 229.569625 273.413182 
L 239.018075 273.102272 
L 248.466525 272.633481 
L 257.914975 272.014338 
L 267.363425 271.210946 
L 276.811875 270.104239 
L 286.260325 268.631575 
L 295.708775 266.80403 
L 305.157225 264.647405 
L 314.605675 262.054983 
L 324.054125 258.88043 
L 333.502575 255.221057 
L 342.951025 250.866712 
L 352.399475 245.489689 
L 361.847925 238.755517 
L 371.296375 230.527967 
L 380.744825 220.497636 
L 390.193275 208.308002 
L 399.641725 194.580249 
L 409.090175 179.423001 
L 418.538625 162.777996 
L 427.987075 145.526799 
L 437.435525 128.371508 
L 446.883975 112.830332 
L 456.332425 100.041366 
L 465.780875 88.581773 
L 475.229325 78.816004 
L 484.677775 72.339569 
L 494.126225 68.349342 
L 503.574675 64.301959 
L 513.023125 59.851139 
L 522.471575 57.736577 
L 531.920025 58.793858 
L 541.368475 61.710608 
L 550.816925 64.755858 
L 560.265375 68.85762 
L 569.713825 75.210876 
L 579.162275 82.320575 
L 588.610725 89.453733 
L 598.059175 96.998459 
L 607.507625 105.214195 
L 616.956075 115.017778 
L 626.404525 126.417471 
L 635.852975 138.596832 
L 645.301425 151.456273 
L 654.749875 164.742306 
L 664.198325 178.080711 
L 673.646775 190.004109 
L 683.095225 200.985273 
L 692.543675 211.972596 
L 701.992125 222.092609 
L 711.440575 230.723328 
L 720.889025 237.983479 
L 730.337475 244.236981 
L 739.785925 249.119346 
L 749.234375 252.861408 
L 758.682825 256.120624 
L 768.131275 258.704412 
L 777.579725 260.742141 
L 787.028175 262.786229 
L 796.476625 264.771253 
L 805.925075 266.508681 
L 815.373525 267.932588 
L 824.821975 269.239407 
L 834.270425 270.471234 
L 843.718875 271.401721 
L 853.167325 272.060886 
L 862.615775 272.585729 
L 872.064225 273.072489 
L 881.512675 273.459362 
L 890.961125 273.68253 
L 900.409575 273.774387 
L 909.858025 273.815581 
L 919.306475 273.864906 
L 928.754925 273.91296 
L 938.203375 273.932034 
L 947.651825 273.910049 
L 957.100275 273.827159 
L 966.548725 273.589267 
L 975.997175 273.692167 
L 985.445625 273.979921 
" style="fill:none;stroke:#5cb85c;stroke-linecap:square;"/>
   </g>
   <g id="line2d_13">
    <path clip-path="url(#pd2f27ea955)" d="M 40.600625 273.981828 
L 50.049075 273.980958 
L 59.497525 273.977779 
L 68.945975 273.975938 
L 78.394425 273.975537 
L 87.842875 273.973362 
L 97.291325 273.969748 
L 106.739775 273.96687 
L 116.188225 273.964293 
L 125.636675 273.960077 
L 135.085125 273.953284 
L 144.533575 273.945118 
L 153.982025 273.938024 
L 163.430475 273.928688 
L 172.878925 273.91373 
L 182.327375 273.88977 
L 191.775825 273.851521 
L 201.224275 273.79644 
L 210.672725 273.707728 
L 220.121175 273.549412 
L 229.569625 273.283946 
L 239.018075 272.87897 
L 248.466525 272.311327 
L 257.914975 271.580985 
L 267.363425 270.618038 
L 276.811875 269.319719 
L 286.260325 267.677362 
L 295.708775 265.674401 
L 305.157225 263.289019 
L 314.605675 260.605041 
L 324.054125 257.546774 
L 333.502575 254.095577 
L 342.951025 250.283978 
L 352.399475 245.860833 
L 361.847925 240.395131 
L 371.296375 233.825198 
L 380.744825 226.028726 
L 390.193275 216.427197 
L 399.641725 205.334364 
L 409.090175 192.742364 
L 418.538625 177.915434 
L 427.987075 161.307507 
L 437.435525 143.581529 
L 446.883975 126.239077 
L 456.332425 110.789457 
L 465.780875 96.476996 
L 475.229325 84.121818 
L 484.677775 75.20097 
L 494.126225 69.20109 
L 503.574675 63.622147 
L 513.023125 58.228224 
L 522.471575 54.433457 
L 531.920025 53.065367 
L 541.368475 55.24883 
L 550.816925 58.744801 
L 560.265375 63.401689 
L 569.713825 70.467417 
L 579.162275 78.343767 
L 588.610725 85.690857 
L 598.059175 92.57451 
L 607.507625 100.357195 
L 616.956075 110.285697 
L 626.404525 121.320102 
L 635.852975 133.118347 
L 645.301425 146.078446 
L 654.749875 159.635869 
L 664.198325 173.485295 
L 673.646775 186.06933 
L 683.095225 197.723046 
L 692.543675 209.296248 
L 701.992125 219.931199 
L 711.440575 229.186648 
L 720.889025 236.974921 
L 730.337475 243.393197 
L 739.785925 248.32017 
L 749.234375 252.163459 
L 758.682825 255.47036 
L 768.131275 258.099792 
L 777.579725 260.199831 
L 787.028175 262.235553 
L 796.476625 264.174866 
L 805.925075 265.843358 
L 815.373525 267.234237 
L 824.821975 268.561268 
L 834.270425 269.836966 
L 843.718875 270.876009 
L 853.167325 271.680372 
L 862.615775 272.340006 
L 872.064225 272.900922 
L 881.512675 273.320923 
L 890.961125 273.590438 
L 900.409575 273.738849 
L 909.858025 273.816284 
L 919.306475 273.866144 
L 928.754925 273.898872 
L 938.203375 273.891811 
L 947.651825 273.78968 
L 957.100275 273.5377 
L 966.548725 272.872846 
L 975.997175 273.150359 
L 985.445625 273.956295 
" style="fill:none;stroke:#5cb85c;stroke-linecap:square;"/>
   </g>
   <g id="line2d_14">
    <path clip-path="url(#pd2f27ea955)" d="M 40.600625 273.98571 
L 50.049075 273.985107 
L 59.497525 273.982932 
L 68.945975 273.981293 
L 78.394425 273.981326 
L 87.842875 273.980222 
L 97.291325 273.976909 
L 106.739775 273.973429 
L 116.188225 273.969781 
L 125.636675 273.965565 
L 135.085125 273.960211 
L 144.533575 273.953986 
L 153.982025 273.94726 
L 163.430475 273.936786 
L 172.878925 273.923468 
L 182.327375 273.906267 
L 191.775825 273.878626 
L 201.224275 273.832279 
L 210.672725 273.758091 
L 220.121175 273.623701 
L 229.569625 273.398759 
L 239.018075 273.06158 
L 248.466525 272.579605 
L 257.914975 271.943262 
L 267.363425 271.101787 
L 276.811875 269.923937 
L 286.260325 268.370626 
L 295.708775 266.452763 
L 305.157225 264.15124 
L 314.605675 261.457391 
L 324.054125 258.281901 
L 333.502575 254.733526 
L 342.951025 250.791821 
L 352.399475 246.143533 
L 361.847925 240.416949 
L 371.296375 233.542297 
L 380.744825 225.189326 
L 390.193275 214.714833 
L 399.641725 202.607854 
L 409.090175 188.518862 
L 418.538625 171.736523 
L 427.987075 153.134369 
L 437.435525 133.533395 
L 446.883975 114.745284 
L 456.332425 98.35052 
L 465.780875 83.657444 
L 475.229325 71.260135 
L 484.677775 62.724487 
L 494.126225 57.248143 
L 503.574675 51.832804 
L 513.023125 46.491753 
L 522.471575 43.300736 
L 531.920025 43.030618 
L 541.368475 45.059814 
L 550.816925 47.673318 
L 560.265375 51.955381 
L 569.713825 58.600573 
L 579.162275 65.993642 
L 588.610725 73.274474 
L 598.059175 80.582813 
L 607.507625 88.791556 
L 616.956075 98.8766 
L 626.404525 110.406634 
L 635.852975 123.087881 
L 645.301425 136.79231 
L 654.749875 151.195725 
L 664.198325 165.900413 
L 673.646775 179.223826 
L 683.095225 191.51462 
L 692.543675 203.671192 
L 701.992125 214.991209 
L 711.440575 224.783447 
L 720.889025 232.989111 
L 730.337475 239.847433 
L 739.785925 245.176403 
L 749.234375 249.424835 
L 758.682825 253.102981 
L 768.131275 255.984394 
L 777.579725 258.286753 
L 787.028175 260.561036 
L 796.476625 262.758354 
L 805.925075 264.641917 
L 815.373525 266.214068 
L 824.821975 267.708617 
L 834.270425 269.152904 
L 843.718875 270.342934 
L 853.167325 271.257594 
L 862.615775 272.028895 
L 872.064225 272.688964 
L 881.512675 273.18573 
L 890.961125 273.51538 
L 900.409575 273.70214 
L 909.858025 273.806077 
L 919.306475 273.873573 
L 928.754925 273.916507 
L 938.203375 273.927249 
L 947.651825 273.886356 
L 957.100275 273.77248 
L 966.548725 273.484325 
L 975.997175 273.619585 
L 985.445625 273.976808 
" style="fill:none;stroke:#5cb85c;stroke-linecap:square;"/>
   </g>
   <g id="line2d_15">
    <path clip-path="url(#pd2f27ea955)" d="M 40.600625 273.99006 
L 985.445625 273.99006 
" style="fill:none;stroke:#dedede;stroke-linecap:square;stroke-width:2;"/>
   </g>
   <g id="text_18">
    <!-- FastQC: Per Sequence GC Content -->
    <g transform="translate(376.386875 19.3575)scale(0.16 -0.16)">
     <defs>
      <path d="M 628 4666 
L 3309 4666 
L 3309 4134 
L 1259 4134 
L 1259 2759 
L 3109 2759 
L 3109 2228 
L 1259 2228 
L 1259 0 
L 628 0 
L 628 4666 
z
" id="DejaVuSans-46" transform="scale(0.015625)"/>
      <path d="M 2194 1759 
Q 1497 1759 1228 1600 
Q 959 1441 959 1056 
Q 959 750 1161 570 
Q 1363 391 1709 391 
Q 2188 391 2477 730 
Q 2766 1069 2766 1631 
L 2766 1759 
L 2194 1759 
z
M 3341 1997 
L 3341 0 
L 2766 0 
L 2766 531 
Q 2569 213 2275 61 
Q 1981 -91 1556 -91 
Q 1019 -91 701 211 
Q 384 513 384 1019 
Q 384 1609 779 1909 
Q 1175 2209 1959 2209 
L 2766 2209 
L 2766 2266 
Q 2766 2663 2505 2880 
Q 2244 3097 1772 3097 
Q 1472 3097 1187 3025 
Q 903 2953 641 2809 
L 641 3341 
Q 956 3463 1253 3523 
Q 1550 3584 1831 3584 
Q 2591 3584 2966 3190 
Q 3341 2797 3341 1997 
z
" id="DejaVuSans-61" transform="scale(0.015625)"/>
      <path d="M 2834 3397 
L 2834 2853 
Q 2591 2978 2328 3040 
Q 2066 3103 1784 3103 
Q 1356 3103 1142 2972 
Q 928 2841 928 2578 
Q 928 2378 1081 2264 
Q 1234 2150 1697 2047 
L 1894 2003 
Q 2506 1872 2764 1633 
Q 3022 1394 3022 966 
Q 3022 478 2636 193 
Q 2250 -91 1575 -91 
Q 1294 -91 989 -36 
Q 684 19 347 128 
L 347 722 
Q 666 556 975 473 
Q 1284 391 1588 391 
Q 1994 391 2212 530 
Q 2431 669 2431 922 
Q 2431 1156 2273 1281 
Q 2116 1406 1581 1522 
L 1381 1569 
Q 847 1681 609 1914 
Q 372 2147 372 2553 
Q 372 3047 722 3315 
Q 1072 3584 1716 3584 
Q 2034 3584 2315 3537 
Q 2597 3491 2834 3397 
z
" id="DejaVuSans-73" transform="scale(0.015625)"/>
      <path d="M 2522 4238 
Q 1834 4238 1429 3725 
Q 1025 3213 1025 2328 
Q 1025 1447 1429 934 
Q 1834 422 2522 422 
Q 3209 422 3611 934 
Q 4013 1447 4013 2328 
Q 4013 3213 3611 3725 
Q 3209 4238 2522 4238 
z
M 3406 84 
L 4238 -825 
L 3475 -825 
L 2784 -78 
Q 2681 -84 2626 -87 
Q 2572 -91 2522 -91 
Q 1538 -91 948 567 
Q 359 1225 359 2328 
Q 359 3434 948 4092 
Q 1538 4750 2522 4750 
Q 3503 4750 4090 4092 
Q 4678 3434 4678 2328 
Q 4678 1516 4351 937 
Q 4025 359 3406 84 
z
" id="DejaVuSans-51" transform="scale(0.015625)"/>
      <path d="M 750 794 
L 1409 794 
L 1409 0 
L 750 0 
L 750 794 
z
M 750 3309 
L 1409 3309 
L 1409 2516 
L 750 2516 
L 750 3309 
z
" id="DejaVuSans-3a" transform="scale(0.015625)"/>
      <path d="M 1259 4147 
L 1259 2394 
L 2053 2394 
Q 2494 2394 2734 2622 
Q 2975 2850 2975 3272 
Q 2975 3691 2734 3919 
Q 2494 4147 2053 4147 
L 1259 4147 
z
M 628 4666 
L 2053 4666 
Q 2838 4666 3239 4311 
Q 3641 3956 3641 3272 
Q 3641 2581 3239 2228 
Q 2838 1875 2053 1875 
L 1259 1875 
L 1259 0 
L 628 0 
L 628 4666 
z
" id="DejaVuSans-50" transform="scale(0.015625)"/>
      <path d="M 2631 2963 
Q 2534 3019 2420 3045 
Q 2306 3072 2169 3072 
Q 1681 3072 1420 2755 
Q 1159 2438 1159 1844 
L 1159 0 
L 581 0 
L 581 3500 
L 1159 3500 
L 1159 2956 
Q 1341 3275 1631 3429 
Q 1922 3584 2338 3584 
Q 2397 3584 2469 3576 
Q 2541 3569 2628 3553 
L 2631 2963 
z
" id="DejaVuSans-72" transform="scale(0.015625)"/>
      <path d="M 3425 4513 
L 3425 3897 
Q 3066 4069 2747 4153 
Q 2428 4238 2131 4238 
Q 1616 4238 1336 4038 
Q 1056 3838 1056 3469 
Q 1056 3159 1242 3001 
Q 1428 2844 1947 2747 
L 2328 2669 
Q 3034 2534 3370 2195 
Q 3706 1856 3706 1288 
Q 3706 609 3251 259 
Q 2797 -91 1919 -91 
Q 1588 -91 1214 -16 
Q 841 59 441 206 
L 441 856 
Q 825 641 1194 531 
Q 1563 422 1919 422 
Q 2459 422 2753 634 
Q 3047 847 3047 1241 
Q 3047 1584 2836 1778 
Q 2625 1972 2144 2069 
L 1759 2144 
Q 1053 2284 737 2584 
Q 422 2884 422 3419 
Q 422 4038 858 4394 
Q 1294 4750 2059 4750 
Q 2388 4750 2728 4690 
Q 3069 4631 3425 4513 
z
" id="DejaVuSans-53" transform="scale(0.015625)"/>
      <path d="M 947 1747 
Q 947 1113 1208 752 
Q 1469 391 1925 391 
Q 2381 391 2643 752 
Q 2906 1113 2906 1747 
Q 2906 2381 2643 2742 
Q 2381 3103 1925 3103 
Q 1469 3103 1208 2742 
Q 947 2381 947 1747 
z
M 2906 525 
Q 2725 213 2448 61 
Q 2172 -91 1784 -91 
Q 1150 -91 751 415 
Q 353 922 353 1747 
Q 353 2572 751 3078 
Q 1150 3584 1784 3584 
Q 2172 3584 2448 3432 
Q 2725 3281 2906 2969 
L 2906 3500 
L 3481 3500 
L 3481 -1331 
L 2906 -1331 
L 2906 525 
z
" id="DejaVuSans-71" transform="scale(0.015625)"/>
      <path d="M 3122 3366 
L 3122 2828 
Q 2878 2963 2633 3030 
Q 2388 3097 2138 3097 
Q 1578 3097 1268 2742 
Q 959 2388 959 1747 
Q 959 1106 1268 751 
Q 1578 397 2138 397 
Q 2388 397 2633 464 
Q 2878 531 3122 666 
L 3122 134 
Q 2881 22 2623 -34 
Q 2366 -91 2075 -91 
Q 1284 -91 818 406 
Q 353 903 353 1747 
Q 353 2603 823 3093 
Q 1294 3584 2113 3584 
Q 2378 3584 2631 3529 
Q 2884 3475 3122 3366 
z
" id="DejaVuSans-63" transform="scale(0.015625)"/>
     </defs>
     <use xlink:href="#DejaVuSans-46"/>
     <use x="48.394531" xlink:href="#DejaVuSans-61"/>
     <use x="109.673828" xlink:href="#DejaVuSans-73"/>
     <use x="161.773438" xlink:href="#DejaVuSans-74"/>
     <use x="200.982422" xlink:href="#DejaVuSans-51"/>
     <use x="279.693359" xlink:href="#DejaVuSans-43"/>
     <use x="349.517578" xlink:href="#DejaVuSans-3a"/>
     <use x="383.208984" xlink:href="#DejaVuSans-20"/>
     <use x="414.996094" xlink:href="#DejaVuSans-50"/>
     <use x="471.673828" xlink:href="#DejaVuSans-65"/>
     <use x="533.197266" xlink:href="#DejaVuSans-72"/>
     <use x="574.310547" xlink:href="#DejaVuSans-20"/>
     <use x="606.097656" xlink:href="#DejaVuSans-53"/>
     <use x="669.574219" xlink:href="#DejaVuSans-65"/>
     <use x="731.097656" xlink:href="#DejaVuSans-71"/>
     <use x="794.574219" xlink:href="#DejaVuSans-75"/>
     <use x="857.953125" xlink:href="#DejaVuSans-65"/>
     <use x="919.476562" xlink:href="#DejaVuSans-6e"/>
     <use x="982.855469" xlink:href="#DejaVuSans-63"/>
     <use x="1037.835938" xlink:href="#DejaVuSans-65"/>
     <use x="1099.359375" xlink:href="#DejaVuSans-20"/>
     <use x="1131.146484" xlink:href="#DejaVuSans-47"/>
     <use x="1208.636719" xlink:href="#DejaVuSans-43"/>
     <use x="1278.460938" xlink:href="#DejaVuSans-20"/>
     <use x="1310.248047" xlink:href="#DejaVuSans-43"/>
     <use x="1380.072266" xlink:href="#DejaVuSans-6f"/>
     <use x="1441.253906" xlink:href="#DejaVuSans-6e"/>
     <use x="1504.632812" xlink:href="#DejaVuSans-74"/>
     <use x="1543.841797" xlink:href="#DejaVuSans-65"/>
     <use x="1605.365234" xlink:href="#DejaVuSans-6e"/>
     <use x="1668.744141" xlink:href="#DejaVuSans-74"/>
    </g>
   </g>
   <g id="legend_1">
    <g id="line2d_16">
     <path d="M 47.800625 303.935394 
L 63.800625 303.935394 
" style="fill:none;stroke:#5cb85c;stroke-linecap:square;"/>
    </g>
    <g id="line2d_17"/>
    <g id="text_19">
     <!-- 1O -->
     <g transform="translate(70.200625 306.735394)scale(0.08 -0.08)">
      <defs>
       <path d="M 2522 4238 
Q 1834 4238 1429 3725 
Q 1025 3213 1025 2328 
Q 1025 1447 1429 934 
Q 1834 422 2522 422 
Q 3209 422 3611 934 
Q 4013 1447 4013 2328 
Q 4013 3213 3611 3725 
Q 3209 4238 2522 4238 
z
M 2522 4750 
Q 3503 4750 4090 4092 
Q 4678 3434 4678 2328 
Q 4678 1225 4090 567 
Q 3503 -91 2522 -91 
Q 1538 -91 948 565 
Q 359 1222 359 2328 
Q 359 3434 948 4092 
Q 1538 4750 2522 4750 
z
" id="DejaVuSans-4f" transform="scale(0.015625)"/>
      </defs>
      <use xlink:href="#DejaVuSans-31"/>
      <use x="63.623047" xlink:href="#DejaVuSans-4f"/>
     </g>
    </g>
    <g id="line2d_18">
     <path d="M 47.800625 315.677894 
L 63.800625 315.677894 
" style="fill:none;stroke:#5cb85c;stroke-linecap:square;"/>
    </g>
    <g id="line2d_19"/>
    <g id="text_20">
     <!-- 2O -->
     <g transform="translate(70.200625 318.477894)scale(0.08 -0.08)">
      <use xlink:href="#DejaVuSans-32"/>
      <use x="63.623047" xlink:href="#DejaVuSans-4f"/>
     </g>
    </g>
    <g id="line2d_20">
     <path d="M 262.435313 303.935394 
L 278.435313 303.935394 
" style="fill:none;stroke:#5cb85c;stroke-linecap:square;"/>
    </g>
    <g id="line2d_21"/>
    <g id="text_21">
     <!-- 3O -->
     <g transform="translate(284.835312 306.735394)scale(0.08 -0.08)">
      <use xlink:href="#DejaVuSans-33"/>
      <use x="63.623047" xlink:href="#DejaVuSans-4f"/>
     </g>
    </g>
    <g id="line2d_22">
     <path d="M 477.07 303.935394 
L 493.07 303.935394 
" style="fill:none;stroke:#5cb85c;stroke-linecap:square;"/>
    </g>
    <g id="line2d_23"/>
    <g id="text_22">
     <!-- P11_1 -->
     <g transform="translate(499.47 306.735394)scale(0.08 -0.08)">
      <defs>
       <path d="M 3263 -1063 
L 3263 -1509 
L -63 -1509 
L -63 -1063 
L 3263 -1063 
z
" id="DejaVuSans-5f" transform="scale(0.015625)"/>
      </defs>
      <use xlink:href="#DejaVuSans-50"/>
      <use x="60.302734" xlink:href="#DejaVuSans-31"/>
      <use x="123.925781" xlink:href="#DejaVuSans-31"/>
      <use x="187.548828" xlink:href="#DejaVuSans-5f"/>
      <use x="237.548828" xlink:href="#DejaVuSans-31"/>
     </g>
    </g>
    <g id="line2d_24">
     <path d="M 704.410938 303.935394 
L 720.410938 303.935394 
" style="fill:none;stroke:#5cb85c;stroke-linecap:square;"/>
    </g>
    <g id="line2d_25"/>
    <g id="text_23">
     <!-- P11_2 -->
     <g transform="translate(726.810938 306.735394)scale(0.08 -0.08)">
      <use xlink:href="#DejaVuSans-50"/>
      <use x="60.302734" xlink:href="#DejaVuSans-31"/>
      <use x="123.925781" xlink:href="#DejaVuSans-31"/>
      <use x="187.548828" xlink:href="#DejaVuSans-5f"/>
      <use x="237.548828" xlink:href="#DejaVuSans-32"/>
     </g>
    </g>
    <g id="line2d_26">
     <path d="M 931.751875 303.935394 
L 947.751875 303.935394 
" style="fill:none;stroke:#5cb85c;stroke-linecap:square;"/>
    </g>
    <g id="line2d_27"/>
    <g id="text_24">
     <!-- P11_3 -->
     <g transform="translate(954.151875 306.735394)scale(0.08 -0.08)">
      <use xlink:href="#DejaVuSans-50"/>
      <use x="60.302734" xlink:href="#DejaVuSans-31"/>
      <use x="123.925781" xlink:href="#DejaVuSans-31"/>
      <use x="187.548828" xlink:href="#DejaVuSans-5f"/>
      <use x="237.548828" xlink:href="#DejaVuSans-33"/>
     </g>
    </g>
   </g>
  </g>
 </g>
 <defs>
  <clipPath id="pd2f27ea955">
   <rect height="242.5072" width="944.845" x="40.600625" y="31.48286"/>
  </clipPath>
 </defs>
</svg>
