<?xml version="1.0" encoding="utf-8" standalone="no"?>
<!DOCTYPE svg PUBLIC "-//W3C//DTD SVG 1.1//EN"
  "http://www.w3.org/Graphics/SVG/1.1/DTD/svg11.dtd">
<svg height="330.541644pt" version="1.1" viewBox="0 0 1000.298125 330.541644" width="1000.298125pt" xmlns="http://www.w3.org/2000/svg" xmlns:xlink="http://www.w3.org/1999/xlink">
 <metadata>
  <rdf:RDF xmlns:cc="http://creativecommons.org/ns#" xmlns:dc="http://purl.org/dc/elements/1.1/" xmlns:rdf="http://www.w3.org/1999/02/22-rdf-syntax-ns#">
   <cc:Work>
    <dc:type rdf:resource="http://purl.org/dc/dcmitype/StillImage"/>
    <dc:date>2024-09-06T15:37:36.358344</dc:date>
    <dc:format>image/svg+xml</dc:format>
    <dc:creator>
     <cc:Agent>
      <dc:title>Matplotlib v3.4.2, https://matplotlib.org/</dc:title>
     </cc:Agent>
    </dc:creator>
   </cc:Work>
  </rdf:RDF>
 </metadata>
 <defs>
  <style type="text/css">*{stroke-linecap:butt;stroke-linejoin:round;}</style>
 </defs>
 <g id="figure_1">
  <g id="axes_1">
   <g id="patch_1">
    <path d="M 32.968125 273.99006 
L 985.463125 273.99006 
L 985.463125 31.48286 
L 32.968125 31.48286 
z
" style="fill:#ffffff;"/>
   </g>
   <g id="matplotlib.axis_1">
    <g id="xtick_1">
     <g id="text_1">
      <!-- 0 -->
      <g transform="translate(30.423125 287.06881)scale(0.08 -0.08)">
       <defs>
        <path d="M 2034 4250 
Q 1547 4250 1301 3770 
Q 1056 3291 1056 2328 
Q 1056 1369 1301 889 
Q 1547 409 2034 409 
Q 2525 409 2770 889 
Q 3016 1369 3016 2328 
Q 3016 3291 2770 3770 
Q 2525 4250 2034 4250 
z
M 2034 4750 
Q 2819 4750 3233 4129 
Q 3647 3509 3647 2328 
Q 3647 1150 3233 529 
Q 2819 -91 2034 -91 
Q 1250 -91 836 529 
Q 422 1150 422 2328 
Q 422 3509 836 4129 
Q 1250 4750 2034 4750 
z
" id="DejaVuSans-30" transform="scale(0.015625)"/>
       </defs>
       <use xlink:href="#DejaVuSans-30"/>
      </g>
     </g>
    </g>
    <g id="xtick_2">
     <g id="text_2">
      <!-- 20 -->
      <g transform="translate(218.377125 287.06881)scale(0.08 -0.08)">
       <defs>
        <path d="M 1228 531 
L 3431 531 
L 3431 0 
L 469 0 
L 469 531 
Q 828 903 1448 1529 
Q 2069 2156 2228 2338 
Q 2531 2678 2651 2914 
Q 2772 3150 2772 3378 
Q 2772 3750 2511 3984 
Q 2250 4219 1831 4219 
Q 1534 4219 1204 4116 
Q 875 4013 500 3803 
L 500 4441 
Q 881 4594 1212 4672 
Q 1544 4750 1819 4750 
Q 2544 4750 2975 4387 
Q 3406 4025 3406 3419 
Q 3406 3131 3298 2873 
Q 3191 2616 2906 2266 
Q 2828 2175 2409 1742 
Q 1991 1309 1228 531 
z
" id="DejaVuSans-32" transform="scale(0.015625)"/>
       </defs>
       <use xlink:href="#DejaVuSans-32"/>
       <use x="63.623047" xlink:href="#DejaVuSans-30"/>
      </g>
     </g>
    </g>
    <g id="xtick_3">
     <g id="text_3">
      <!-- 40 -->
      <g transform="translate(408.876125 287.06881)scale(0.08 -0.08)">
       <defs>
        <path d="M 2419 4116 
L 825 1625 
L 2419 1625 
L 2419 4116 
z
M 2253 4666 
L 3047 4666 
L 3047 1625 
L 3713 1625 
L 3713 1100 
L 3047 1100 
L 3047 0 
L 2419 0 
L 2419 1100 
L 313 1100 
L 313 1709 
L 2253 4666 
z
" id="DejaVuSans-34" transform="scale(0.015625)"/>
       </defs>
       <use xlink:href="#DejaVuSans-34"/>
       <use x="63.623047" xlink:href="#DejaVuSans-30"/>
      </g>
     </g>
    </g>
    <g id="xtick_4">
     <g id="text_4">
      <!-- 60 -->
      <g transform="translate(599.375125 287.06881)scale(0.08 -0.08)">
       <defs>
        <path d="M 2113 2584 
Q 1688 2584 1439 2293 
Q 1191 2003 1191 1497 
Q 1191 994 1439 701 
Q 1688 409 2113 409 
Q 2538 409 2786 701 
Q 3034 994 3034 1497 
Q 3034 2003 2786 2293 
Q 2538 2584 2113 2584 
z
M 3366 4563 
L 3366 3988 
Q 3128 4100 2886 4159 
Q 2644 4219 2406 4219 
Q 1781 4219 1451 3797 
Q 1122 3375 1075 2522 
Q 1259 2794 1537 2939 
Q 1816 3084 2150 3084 
Q 2853 3084 3261 2657 
Q 3669 2231 3669 1497 
Q 3669 778 3244 343 
Q 2819 -91 2113 -91 
Q 1303 -91 875 529 
Q 447 1150 447 2328 
Q 447 3434 972 4092 
Q 1497 4750 2381 4750 
Q 2619 4750 2861 4703 
Q 3103 4656 3366 4563 
z
" id="DejaVuSans-36" transform="scale(0.015625)"/>
       </defs>
       <use xlink:href="#DejaVuSans-36"/>
       <use x="63.623047" xlink:href="#DejaVuSans-30"/>
      </g>
     </g>
    </g>
    <g id="xtick_5">
     <g id="text_5">
      <!-- 80 -->
      <g transform="translate(789.874125 287.06881)scale(0.08 -0.08)">
       <defs>
        <path d="M 2034 2216 
Q 1584 2216 1326 1975 
Q 1069 1734 1069 1313 
Q 1069 891 1326 650 
Q 1584 409 2034 409 
Q 2484 409 2743 651 
Q 3003 894 3003 1313 
Q 3003 1734 2745 1975 
Q 2488 2216 2034 2216 
z
M 1403 2484 
Q 997 2584 770 2862 
Q 544 3141 544 3541 
Q 544 4100 942 4425 
Q 1341 4750 2034 4750 
Q 2731 4750 3128 4425 
Q 3525 4100 3525 3541 
Q 3525 3141 3298 2862 
Q 3072 2584 2669 2484 
Q 3125 2378 3379 2068 
Q 3634 1759 3634 1313 
Q 3634 634 3220 271 
Q 2806 -91 2034 -91 
Q 1263 -91 848 271 
Q 434 634 434 1313 
Q 434 1759 690 2068 
Q 947 2378 1403 2484 
z
M 1172 3481 
Q 1172 3119 1398 2916 
Q 1625 2713 2034 2713 
Q 2441 2713 2670 2916 
Q 2900 3119 2900 3481 
Q 2900 3844 2670 4047 
Q 2441 4250 2034 4250 
Q 1625 4250 1398 4047 
Q 1172 3844 1172 3481 
z
" id="DejaVuSans-38" transform="scale(0.015625)"/>
       </defs>
       <use xlink:href="#DejaVuSans-38"/>
       <use x="63.623047" xlink:href="#DejaVuSans-30"/>
      </g>
     </g>
    </g>
    <g id="xtick_6">
     <g id="text_6">
      <!-- 100 -->
      <g transform="translate(977.828125 287.06881)scale(0.08 -0.08)">
       <defs>
        <path d="M 794 531 
L 1825 531 
L 1825 4091 
L 703 3866 
L 703 4441 
L 1819 4666 
L 2450 4666 
L 2450 531 
L 3481 531 
L 3481 0 
L 794 0 
L 794 531 
z
" id="DejaVuSans-31" transform="scale(0.015625)"/>
       </defs>
       <use xlink:href="#DejaVuSans-31"/>
       <use x="63.623047" xlink:href="#DejaVuSans-30"/>
       <use x="127.246094" xlink:href="#DejaVuSans-30"/>
      </g>
     </g>
    </g>
    <g id="text_7">
     <!-- % GC -->
     <g transform="translate(495.510156 300.330997)scale(0.1 -0.1)">
      <defs>
       <path d="M 4653 2053 
Q 4381 2053 4226 1822 
Q 4072 1591 4072 1178 
Q 4072 772 4226 539 
Q 4381 306 4653 306 
Q 4919 306 5073 539 
Q 5228 772 5228 1178 
Q 5228 1588 5073 1820 
Q 4919 2053 4653 2053 
z
M 4653 2450 
Q 5147 2450 5437 2106 
Q 5728 1763 5728 1178 
Q 5728 594 5436 251 
Q 5144 -91 4653 -91 
Q 4153 -91 3862 251 
Q 3572 594 3572 1178 
Q 3572 1766 3864 2108 
Q 4156 2450 4653 2450 
z
M 1428 4353 
Q 1159 4353 1004 4120 
Q 850 3888 850 3481 
Q 850 3069 1003 2837 
Q 1156 2606 1428 2606 
Q 1700 2606 1854 2837 
Q 2009 3069 2009 3481 
Q 2009 3884 1853 4118 
Q 1697 4353 1428 4353 
z
M 4250 4750 
L 4750 4750 
L 1831 -91 
L 1331 -91 
L 4250 4750 
z
M 1428 4750 
Q 1922 4750 2215 4408 
Q 2509 4066 2509 3481 
Q 2509 2891 2217 2550 
Q 1925 2209 1428 2209 
Q 931 2209 642 2551 
Q 353 2894 353 3481 
Q 353 4063 643 4406 
Q 934 4750 1428 4750 
z
" id="DejaVuSans-25" transform="scale(0.015625)"/>
       <path id="DejaVuSans-20" transform="scale(0.015625)"/>
       <path d="M 3809 666 
L 3809 1919 
L 2778 1919 
L 2778 2438 
L 4434 2438 
L 4434 434 
Q 4069 175 3628 42 
Q 3188 -91 2688 -91 
Q 1594 -91 976 548 
Q 359 1188 359 2328 
Q 359 3472 976 4111 
Q 1594 4750 2688 4750 
Q 3144 4750 3555 4637 
Q 3966 4525 4313 4306 
L 4313 3634 
Q 3963 3931 3569 4081 
Q 3175 4231 2741 4231 
Q 1884 4231 1454 3753 
Q 1025 3275 1025 2328 
Q 1025 1384 1454 906 
Q 1884 428 2741 428 
Q 3075 428 3337 486 
Q 3600 544 3809 666 
z
" id="DejaVuSans-47" transform="scale(0.015625)"/>
       <path d="M 4122 4306 
L 4122 3641 
Q 3803 3938 3442 4084 
Q 3081 4231 2675 4231 
Q 1875 4231 1450 3742 
Q 1025 3253 1025 2328 
Q 1025 1406 1450 917 
Q 1875 428 2675 428 
Q 3081 428 3442 575 
Q 3803 722 4122 1019 
L 4122 359 
Q 3791 134 3420 21 
Q 3050 -91 2638 -91 
Q 1578 -91 968 557 
Q 359 1206 359 2328 
Q 359 3453 968 4101 
Q 1578 4750 2638 4750 
Q 3056 4750 3426 4639 
Q 3797 4528 4122 4306 
z
" id="DejaVuSans-43" transform="scale(0.015625)"/>
      </defs>
      <use xlink:href="#DejaVuSans-25"/>
      <use x="95.019531" xlink:href="#DejaVuSans-20"/>
      <use x="126.806641" xlink:href="#DejaVuSans-47"/>
      <use x="204.296875" xlink:href="#DejaVuSans-43"/>
     </g>
    </g>
   </g>
   <g id="matplotlib.axis_2">
    <g id="ytick_1">
     <g id="line2d_1">
      <path clip-path="url(#p1b2f36aff4)" d="M 32.968125 273.99006 
L 985.463125 273.99006 
" style="fill:none;stroke:#dedede;stroke-linecap:square;"/>
     </g>
     <g id="text_8">
      <!-- 0 -->
      <g transform="translate(20.878125 277.029435)scale(0.08 -0.08)">
       <use xlink:href="#DejaVuSans-30"/>
      </g>
     </g>
    </g>
    <g id="ytick_2">
     <g id="line2d_2">
      <path clip-path="url(#p1b2f36aff4)" d="M 32.968125 235.6136 
L 985.463125 235.6136 
" style="fill:none;stroke:#dedede;stroke-linecap:square;"/>
     </g>
     <g id="text_9">
      <!-- 1 -->
      <g transform="translate(20.878125 238.652975)scale(0.08 -0.08)">
       <use xlink:href="#DejaVuSans-31"/>
      </g>
     </g>
    </g>
    <g id="ytick_3">
     <g id="line2d_3">
      <path clip-path="url(#p1b2f36aff4)" d="M 32.968125 197.237139 
L 985.463125 197.237139 
" style="fill:none;stroke:#dedede;stroke-linecap:square;"/>
     </g>
     <g id="text_10">
      <!-- 2 -->
      <g transform="translate(20.878125 200.276514)scale(0.08 -0.08)">
       <use xlink:href="#DejaVuSans-32"/>
      </g>
     </g>
    </g>
    <g id="ytick_4">
     <g id="line2d_4">
      <path clip-path="url(#p1b2f36aff4)" d="M 32.968125 158.860679 
L 985.463125 158.860679 
" style="fill:none;stroke:#dedede;stroke-linecap:square;"/>
     </g>
     <g id="text_11">
      <!-- 3 -->
      <g transform="translate(20.878125 161.900054)scale(0.08 -0.08)">
       <defs>
        <path d="M 2597 2516 
Q 3050 2419 3304 2112 
Q 3559 1806 3559 1356 
Q 3559 666 3084 287 
Q 2609 -91 1734 -91 
Q 1441 -91 1130 -33 
Q 819 25 488 141 
L 488 750 
Q 750 597 1062 519 
Q 1375 441 1716 441 
Q 2309 441 2620 675 
Q 2931 909 2931 1356 
Q 2931 1769 2642 2001 
Q 2353 2234 1838 2234 
L 1294 2234 
L 1294 2753 
L 1863 2753 
Q 2328 2753 2575 2939 
Q 2822 3125 2822 3475 
Q 2822 3834 2567 4026 
Q 2313 4219 1838 4219 
Q 1578 4219 1281 4162 
Q 984 4106 628 3988 
L 628 4550 
Q 988 4650 1302 4700 
Q 1616 4750 1894 4750 
Q 2613 4750 3031 4423 
Q 3450 4097 3450 3541 
Q 3450 3153 3228 2886 
Q 3006 2619 2597 2516 
z
" id="DejaVuSans-33" transform="scale(0.015625)"/>
       </defs>
       <use xlink:href="#DejaVuSans-33"/>
      </g>
     </g>
    </g>
    <g id="ytick_5">
     <g id="line2d_5">
      <path clip-path="url(#p1b2f36aff4)" d="M 32.968125 120.484219 
L 985.463125 120.484219 
" style="fill:none;stroke:#dedede;stroke-linecap:square;"/>
     </g>
     <g id="text_12">
      <!-- 4 -->
      <g transform="translate(20.878125 123.523594)scale(0.08 -0.08)">
       <use xlink:href="#DejaVuSans-34"/>
      </g>
     </g>
    </g>
    <g id="ytick_6">
     <g id="line2d_6">
      <path clip-path="url(#p1b2f36aff4)" d="M 32.968125 82.107759 
L 985.463125 82.107759 
" style="fill:none;stroke:#dedede;stroke-linecap:square;"/>
     </g>
     <g id="text_13">
      <!-- 5 -->
      <g transform="translate(20.878125 85.147134)scale(0.08 -0.08)">
       <defs>
        <path d="M 691 4666 
L 3169 4666 
L 3169 4134 
L 1269 4134 
L 1269 2991 
Q 1406 3038 1543 3061 
Q 1681 3084 1819 3084 
Q 2600 3084 3056 2656 
Q 3513 2228 3513 1497 
Q 3513 744 3044 326 
Q 2575 -91 1722 -91 
Q 1428 -91 1123 -41 
Q 819 9 494 109 
L 494 744 
Q 775 591 1075 516 
Q 1375 441 1709 441 
Q 2250 441 2565 725 
Q 2881 1009 2881 1497 
Q 2881 1984 2565 2268 
Q 2250 2553 1709 2553 
Q 1456 2553 1204 2497 
Q 953 2441 691 2322 
L 691 4666 
z
" id="DejaVuSans-35" transform="scale(0.015625)"/>
       </defs>
       <use xlink:href="#DejaVuSans-35"/>
      </g>
     </g>
    </g>
    <g id="ytick_7">
     <g id="line2d_7">
      <path clip-path="url(#p1b2f36aff4)" d="M 32.968125 43.731298 
L 985.463125 43.731298 
" style="fill:none;stroke:#dedede;stroke-linecap:square;"/>
     </g>
     <g id="text_14">
      <!-- 6 -->
      <g transform="translate(20.878125 46.770673)scale(0.08 -0.08)">
       <use xlink:href="#DejaVuSans-36"/>
      </g>
     </g>
    </g>
    <g id="text_15">
     <!-- Count -->
     <g transform="translate(14.798437 167.584897)rotate(-90)scale(0.1 -0.1)">
      <defs>
       <path d="M 1959 3097 
Q 1497 3097 1228 2736 
Q 959 2375 959 1747 
Q 959 1119 1226 758 
Q 1494 397 1959 397 
Q 2419 397 2687 759 
Q 2956 1122 2956 1747 
Q 2956 2369 2687 2733 
Q 2419 3097 1959 3097 
z
M 1959 3584 
Q 2709 3584 3137 3096 
Q 3566 2609 3566 1747 
Q 3566 888 3137 398 
Q 2709 -91 1959 -91 
Q 1206 -91 779 398 
Q 353 888 353 1747 
Q 353 2609 779 3096 
Q 1206 3584 1959 3584 
z
" id="DejaVuSans-6f" transform="scale(0.015625)"/>
       <path d="M 544 1381 
L 544 3500 
L 1119 3500 
L 1119 1403 
Q 1119 906 1312 657 
Q 1506 409 1894 409 
Q 2359 409 2629 706 
Q 2900 1003 2900 1516 
L 2900 3500 
L 3475 3500 
L 3475 0 
L 2900 0 
L 2900 538 
Q 2691 219 2414 64 
Q 2138 -91 1772 -91 
Q 1169 -91 856 284 
Q 544 659 544 1381 
z
M 1991 3584 
L 1991 3584 
z
" id="DejaVuSans-75" transform="scale(0.015625)"/>
       <path d="M 3513 2113 
L 3513 0 
L 2938 0 
L 2938 2094 
Q 2938 2591 2744 2837 
Q 2550 3084 2163 3084 
Q 1697 3084 1428 2787 
Q 1159 2491 1159 1978 
L 1159 0 
L 581 0 
L 581 3500 
L 1159 3500 
L 1159 2956 
Q 1366 3272 1645 3428 
Q 1925 3584 2291 3584 
Q 2894 3584 3203 3211 
Q 3513 2838 3513 2113 
z
" id="DejaVuSans-6e" transform="scale(0.015625)"/>
       <path d="M 1172 4494 
L 1172 3500 
L 2356 3500 
L 2356 3053 
L 1172 3053 
L 1172 1153 
Q 1172 725 1289 603 
Q 1406 481 1766 481 
L 2356 481 
L 2356 0 
L 1766 0 
Q 1100 0 847 248 
Q 594 497 594 1153 
L 594 3053 
L 172 3053 
L 172 3500 
L 594 3500 
L 594 4494 
L 1172 4494 
z
" id="DejaVuSans-74" transform="scale(0.015625)"/>
      </defs>
      <use xlink:href="#DejaVuSans-43"/>
      <use x="69.824219" xlink:href="#DejaVuSans-6f"/>
      <use x="131.005859" xlink:href="#DejaVuSans-75"/>
      <use x="194.384766" xlink:href="#DejaVuSans-6e"/>
      <use x="257.763672" xlink:href="#DejaVuSans-74"/>
     </g>
    </g>
    <g id="text_16">
     <!-- 1e6 -->
     <g transform="translate(32.968125 28.48286)scale(0.1 -0.1)">
      <defs>
       <path d="M 3597 1894 
L 3597 1613 
L 953 1613 
Q 991 1019 1311 708 
Q 1631 397 2203 397 
Q 2534 397 2845 478 
Q 3156 559 3463 722 
L 3463 178 
Q 3153 47 2828 -22 
Q 2503 -91 2169 -91 
Q 1331 -91 842 396 
Q 353 884 353 1716 
Q 353 2575 817 3079 
Q 1281 3584 2069 3584 
Q 2775 3584 3186 3129 
Q 3597 2675 3597 1894 
z
M 3022 2063 
Q 3016 2534 2758 2815 
Q 2500 3097 2075 3097 
Q 1594 3097 1305 2825 
Q 1016 2553 972 2059 
L 3022 2063 
z
" id="DejaVuSans-65" transform="scale(0.015625)"/>
      </defs>
      <use xlink:href="#DejaVuSans-31"/>
      <use x="63.623047" xlink:href="#DejaVuSans-65"/>
      <use x="125.146484" xlink:href="#DejaVuSans-36"/>
     </g>
    </g>
   </g>
   <g id="line2d_8">
    <path clip-path="url(#p1b2f36aff4)" d="M 32.968125 166.228077 
L 42.493075 166.228211 
L 52.018025 166.229362 
L 61.542975 166.230418 
L 71.067925 166.230437 
L 80.592875 166.230399 
L 90.117825 166.230245 
L 99.642775 166.229976 
L 109.167725 166.229708 
L 118.692675 166.229228 
L 128.217625 166.228633 
L 137.742575 166.228211 
L 147.267525 166.227309 
L 156.792475 166.225007 
L 166.317425 166.221016 
L 175.842375 166.213839 
L 185.367325 166.202 
L 194.892275 166.180528 
L 204.417225 166.14221 
L 213.942175 166.06939 
L 223.467125 165.945972 
L 232.992075 165.767483 
L 242.517025 165.520645 
L 252.041975 165.21112 
L 261.566925 164.824362 
L 271.091875 164.302461 
L 280.616825 163.576359 
L 290.141775 162.663748 
L 299.666725 161.619505 
L 309.191675 160.416634 
L 318.716625 158.964276 
L 328.241575 157.18831 
L 337.766525 155.030305 
L 347.291475 152.284239 
L 356.816425 148.720947 
L 366.341375 144.269335 
L 375.866325 138.508433 
L 385.391275 131.255781 
L 394.916225 123.179129 
L 404.441175 114.381326 
L 413.966125 104.752825 
L 423.491075 95.114385 
L 433.016025 86.081315 
L 442.540975 78.510522 
L 452.065925 73.14415 
L 461.590875 68.645949 
L 471.115825 64.733066 
L 480.640775 62.458243 
L 490.165725 61.351639 
L 499.690675 59.919046 
L 509.215625 50.870606 
L 518.740575 42.241044 
L 528.265525 41.687272 
L 537.790475 42.928578 
L 547.315425 45.032471 
L 556.840375 47.504491 
L 566.365325 51.000184 
L 575.890275 54.809623 
L 585.415225 58.437196 
L 594.940175 62.113239 
L 604.465125 66.268143 
L 613.990075 71.431677 
L 623.515025 77.005877 
L 633.039975 82.848712 
L 642.564925 89.410588 
L 652.089875 96.258733 
L 661.614825 103.106974 
L 671.139775 109.417215 
L 680.664725 115.153038 
L 690.189675 120.666891 
L 699.714625 125.801604 
L 709.239575 130.289577 
L 718.764525 134.111681 
L 728.289475 137.222189 
L 737.814425 139.584855 
L 747.339375 141.53789 
L 756.864325 143.268726 
L 766.389275 144.651469 
L 775.914225 145.814026 
L 785.439175 146.891982 
L 794.964125 147.843277 
L 804.489075 148.6294 
L 814.014025 149.278749 
L 823.538975 149.862589 
L 833.063925 150.41047 
L 842.588875 150.885955 
L 852.113825 151.270007 
L 861.638775 151.584905 
L 871.163725 151.837998 
L 880.688675 152.016947 
L 890.213625 152.145355 
L 899.738575 152.240682 
L 909.263525 152.301336 
L 918.788475 152.328161 
L 928.313425 152.337967 
L 937.838375 152.338005 
L 947.363325 152.318279 
L 956.888275 152.261904 
L 966.413225 152.100052 
L 975.938175 152.158672 
L 985.463125 152.346313 
" style="fill:none;stroke:#f0ad4e;stroke-linecap:square;"/>
   </g>
   <g id="line2d_9">
    <path clip-path="url(#p1b2f36aff4)" d="M 32.968125 221.026554 
L 42.493075 221.026669 
L 52.018025 221.02688 
L 61.542975 221.026976 
L 71.067925 221.026995 
L 80.592875 221.026937 
L 90.117825 221.026899 
L 99.642775 221.026822 
L 109.167725 221.026343 
L 118.692675 221.025767 
L 128.217625 221.02521 
L 137.742575 221.024808 
L 147.267525 221.02404 
L 156.792475 221.021968 
L 166.317425 221.01884 
L 175.842375 221.012546 
L 185.367325 221.000438 
L 194.892275 220.979331 
L 204.417225 220.9413 
L 213.942175 220.870477 
L 223.467125 220.751145 
L 232.992075 220.575688 
L 242.517025 220.328831 
L 252.041975 220.008426 
L 261.566925 219.598201 
L 271.091875 219.056517 
L 280.616825 218.31282 
L 290.141775 217.388868 
L 299.666725 216.345144 
L 309.191675 215.162458 
L 318.716625 213.743085 
L 328.241575 212.12381 
L 337.766525 210.281855 
L 347.291475 208.035565 
L 356.816425 205.302528 
L 366.341375 202.014433 
L 375.866325 197.848726 
L 385.391275 192.611989 
L 394.916225 186.672503 
L 404.441175 179.949427 
L 413.966125 172.036872 
L 423.491075 163.398811 
L 433.016025 154.496758 
L 442.540975 146.279686 
L 452.065925 139.890965 
L 461.590875 134.298421 
L 471.115825 129.600873 
L 480.640775 126.948695 
L 490.165725 125.478224 
L 499.690675 123.635233 
L 509.215625 118.473868 
L 518.740575 114.254683 
L 528.265525 114.467884 
L 537.790475 116.151497 
L 547.315425 118.248023 
L 556.840375 120.764118 
L 566.365325 124.276216 
L 575.890275 127.974843 
L 585.415225 131.323497 
L 594.940175 134.511199 
L 604.465125 138.17168 
L 613.990075 142.715376 
L 623.515025 147.688889 
L 633.039975 152.917451 
L 642.564925 158.580262 
L 652.089875 164.600282 
L 661.614825 170.742799 
L 671.139775 176.427235 
L 680.664725 181.69026 
L 690.189675 186.761555 
L 699.714625 191.418309 
L 709.239575 195.433638 
L 718.764525 198.863073 
L 728.289475 201.647804 
L 737.814425 203.779846 
L 747.339375 205.538275 
L 756.864325 207.030467 
L 766.389275 208.206974 
L 775.914225 209.182196 
L 785.439175 210.08366 
L 794.964125 210.92727 
L 804.489075 211.648536 
L 814.014025 212.238325 
L 823.538975 212.787895 
L 833.063925 213.296172 
L 842.588875 213.718371 
L 852.113825 214.058022 
L 861.638775 214.329151 
L 871.163725 214.549682 
L 880.688675 214.713703 
L 890.213625 214.820063 
L 899.738575 214.880564 
L 909.263525 214.912339 
L 918.788475 214.925445 
L 928.313425 214.931489 
L 937.838375 214.932161 
L 947.363325 214.915275 
L 956.888275 214.867938 
L 966.413225 214.737822 
L 975.938175 214.788287 
L 985.463125 214.940987 
" style="fill:none;stroke:#f0ad4e;stroke-linecap:square;"/>
   </g>
   <g id="line2d_10">
    <path clip-path="url(#p1b2f36aff4)" d="M 32.968125 232.309732 
L 42.493075 232.309713 
L 52.018025 232.310192 
L 61.542975 232.310749 
L 71.067925 232.310787 
L 80.592875 232.31073 
L 90.117825 232.310576 
L 99.642775 232.310327 
L 109.167725 232.31002 
L 118.692675 232.309866 
L 128.217625 232.309463 
L 137.742575 232.308849 
L 147.267525 232.308005 
L 156.792475 232.306508 
L 166.317425 232.303304 
L 175.842375 232.297739 
L 185.367325 232.288183 
L 194.892275 232.270127 
L 204.417225 232.237872 
L 213.942175 232.174455 
L 223.467125 232.069399 
L 232.992075 231.907585 
L 242.517025 231.676137 
L 252.041975 231.375035 
L 261.566925 230.98914 
L 271.091875 230.462481 
L 280.616825 229.757812 
L 290.141775 228.866327 
L 299.666725 227.799039 
L 309.191675 226.587821 
L 318.716625 225.142429 
L 328.241575 223.46674 
L 337.766525 221.648617 
L 347.291475 219.531599 
L 356.816425 216.822086 
L 366.341375 213.572041 
L 375.866325 209.674816 
L 385.391275 204.78909 
L 394.916225 199.134145 
L 404.441175 192.635476 
L 413.966125 184.912482 
L 423.491075 176.58951 
L 433.016025 167.806539 
L 442.540975 159.039226 
L 452.065925 151.571205 
L 461.590875 144.773467 
L 471.115825 138.626499 
L 480.640775 134.045059 
L 490.165725 130.725265 
L 499.690675 127.699204 
L 509.215625 120.902503 
L 518.740575 114.438295 
L 528.265525 112.629651 
L 537.790475 113.160532 
L 547.315425 114.934791 
L 556.840375 117.331842 
L 566.365325 121.515797 
L 575.890275 126.638786 
L 585.415225 131.511906 
L 594.940175 135.618993 
L 604.465125 139.789094 
L 613.990075 145.16412 
L 623.515025 151.36142 
L 633.039975 157.757836 
L 642.564925 164.315989 
L 652.089875 171.086441 
L 661.614825 177.818535 
L 671.139775 183.891361 
L 680.664725 189.396291 
L 690.189675 194.710625 
L 699.714625 199.720461 
L 709.239575 204.112666 
L 718.764525 207.746053 
L 728.289475 210.594086 
L 737.814425 212.688423 
L 747.339375 214.38614 
L 756.864325 215.930217 
L 766.389275 217.108029 
L 775.914225 218.035032 
L 785.439175 218.961152 
L 794.964125 219.851985 
L 804.489075 220.604835 
L 814.014025 221.205158 
L 823.538975 221.801854 
L 833.063925 222.415666 
L 842.588875 222.912584 
L 852.113825 223.276201 
L 861.638775 223.574616 
L 871.163725 223.867659 
L 880.688675 224.123035 
L 890.213625 224.314054 
L 899.738575 224.445205 
L 909.263525 224.515396 
L 918.788475 224.547613 
L 928.313425 224.565669 
L 937.838375 224.570581 
L 947.363325 224.552237 
L 956.888275 224.501273 
L 966.413225 224.358878 
L 975.938175 224.415598 
L 985.463125 224.583706 
" style="fill:none;stroke:#f0ad4e;stroke-linecap:square;"/>
   </g>
   <g id="line2d_11">
    <path clip-path="url(#p1b2f36aff4)" d="M 32.968125 242.974589 
L 42.493075 242.974416 
L 52.018025 242.974435 
L 61.542975 242.974665 
L 71.067925 242.974665 
L 80.592875 242.974473 
L 90.117825 242.974416 
L 99.642775 242.974147 
L 109.167725 242.973821 
L 118.692675 242.973725 
L 128.217625 242.973073 
L 137.742575 242.97219 
L 147.267525 242.971173 
L 156.792475 242.969024 
L 166.317425 242.965436 
L 175.842375 242.959948 
L 185.367325 242.94951 
L 194.892275 242.929093 
L 204.417225 242.893346 
L 213.942175 242.82682 
L 223.467125 242.715471 
L 232.992075 242.547439 
L 242.517025 242.296995 
L 252.041975 241.962371 
L 261.566925 241.523479 
L 271.091875 240.928375 
L 280.616825 240.114832 
L 290.141775 239.075156 
L 299.666725 237.8705 
L 309.191675 236.457421 
L 318.716625 234.711254 
L 328.241575 232.638561 
L 337.766525 230.196283 
L 347.291475 227.174808 
L 356.816425 223.366961 
L 366.341375 218.76453 
L 375.866325 213.112291 
L 385.391275 206.217327 
L 394.916225 198.483261 
L 404.441175 189.919746 
L 413.966125 180.407354 
L 423.491075 170.579373 
L 433.016025 160.711211 
L 442.540975 151.652582 
L 452.065925 144.371167 
L 461.590875 137.751304 
L 471.115825 132.056122 
L 480.640775 128.406483 
L 490.165725 126.083095 
L 499.690675 123.818481 
L 509.215625 119.033819 
L 518.740575 115.377924 
L 528.265525 115.713929 
L 537.790475 117.309296 
L 547.315425 119.222765 
L 556.840375 121.588636 
L 566.365325 125.097453 
L 575.890275 129.129629 
L 585.415225 133.285167 
L 594.940175 137.647995 
L 604.465125 142.339747 
L 613.990075 147.932656 
L 623.515025 154.467649 
L 633.039975 161.354209 
L 642.564925 168.603657 
L 652.089875 176.195384 
L 661.614825 183.802615 
L 671.139775 190.777345 
L 680.664725 197.202063 
L 690.189675 203.39257 
L 699.714625 209.132403 
L 709.239575 214.106203 
L 718.764525 218.255351 
L 728.289475 221.761175 
L 737.814425 224.492313 
L 747.339375 226.629402 
L 756.864325 228.502307 
L 766.389275 229.975791 
L 775.914225 231.151281 
L 785.439175 232.29394 
L 794.964125 233.385347 
L 804.489075 234.344567 
L 814.014025 235.127408 
L 823.538975 235.852608 
L 833.063925 236.53521 
L 842.588875 237.045368 
L 852.113825 237.404207 
L 861.638775 237.685353 
L 871.163725 237.952434 
L 880.688675 238.167994 
L 890.213625 238.285753 
L 899.738575 238.333032 
L 909.263525 238.35224 
L 918.788475 238.365825 
L 928.313425 238.383248 
L 937.838375 238.392132 
L 947.363325 238.377818 
L 956.888275 238.329272 
L 966.413225 238.181829 
L 975.938175 238.235806 
L 985.463125 238.406696 
" style="fill:none;stroke:#f0ad4e;stroke-linecap:square;"/>
   </g>
   <g id="line2d_12">
    <path clip-path="url(#p1b2f36aff4)" d="M 32.968125 227.299033 
L 42.493075 227.299013 
L 52.018025 227.299186 
L 61.542975 227.299282 
L 71.067925 227.299186 
L 80.592875 227.29909 
L 90.117825 227.298841 
L 99.642775 227.298745 
L 109.167725 227.298207 
L 118.692675 227.297363 
L 128.217625 227.296576 
L 137.742575 227.29556 
L 147.267525 227.294466 
L 156.792475 227.291741 
L 166.317425 227.287059 
L 175.842375 227.278789 
L 185.367325 227.263227 
L 194.892275 227.237016 
L 204.417225 227.193075 
L 213.942175 227.112581 
L 223.467125 226.973523 
L 232.992075 226.754106 
L 242.517025 226.44366 
L 252.041975 226.047979 
L 261.566925 225.52414 
L 271.091875 224.818455 
L 280.616825 223.900816 
L 290.141775 222.752957 
L 299.666725 221.40698 
L 309.191675 219.93624 
L 318.716625 218.253221 
L 328.241575 216.294429 
L 337.766525 214.130899 
L 347.291475 211.618353 
L 356.816425 208.553801 
L 366.341375 204.905716 
L 375.866325 200.497546 
L 385.391275 195.085122 
L 394.916225 188.874583 
L 404.441175 181.776952 
L 413.966125 173.339811 
L 423.491075 163.900429 
L 433.016025 153.758164 
L 442.540975 143.674097 
L 452.065925 134.878366 
L 461.590875 126.657245 
L 471.115825 119.386825 
L 480.640775 114.359873 
L 490.165725 110.900465 
L 499.690675 107.721571 
L 509.215625 100.137998 
L 518.740575 93.295111 
L 528.265525 92.273875 
L 537.790475 93.421791 
L 547.315425 95.57189 
L 556.840375 98.264268 
L 566.365325 102.190659 
L 575.890275 106.679036 
L 585.415225 110.97908 
L 594.940175 114.928919 
L 604.465125 119.302895 
L 613.990075 124.907375 
L 623.515025 131.212032 
L 633.039975 137.897212 
L 642.564925 145.239741 
L 652.089875 153.021566 
L 661.614825 160.981343 
L 671.139775 168.393181 
L 680.664725 175.228297 
L 690.189675 181.766015 
L 699.714625 187.821206 
L 709.239575 193.140606 
L 718.764525 197.573528 
L 728.289475 201.182623 
L 737.814425 203.951658 
L 747.339375 206.135566 
L 756.864325 208.009124 
L 766.389275 209.513635 
L 775.914225 210.738611 
L 785.439175 211.856537 
L 794.964125 212.924554 
L 804.489075 213.86754 
L 814.014025 214.636815 
L 823.538975 215.370055 
L 833.063925 216.074877 
L 842.588875 216.647991 
L 852.113825 217.094981 
L 861.638775 217.458023 
L 871.163725 217.766281 
L 880.688675 217.999054 
L 890.213625 218.145863 
L 899.738575 218.223326 
L 909.263525 218.260743 
L 918.788475 218.278799 
L 928.313425 218.287741 
L 937.838375 218.280545 
L 947.363325 218.219891 
L 956.888275 218.073216 
L 966.413225 217.673641 
L 975.938175 217.825209 
L 985.463125 218.298256 
" style="fill:none;stroke:#f0ad4e;stroke-linecap:square;"/>
   </g>
   <g id="line2d_13">
    <path clip-path="url(#p1b2f36aff4)" d="M 32.968125 245.775226 
L 42.493075 245.775092 
L 52.018025 245.775226 
L 61.542975 245.775514 
L 71.067925 245.775514 
L 80.592875 245.775418 
L 90.117825 245.77536 
L 99.642775 245.775303 
L 109.167725 245.774957 
L 118.692675 245.774631 
L 128.217625 245.773979 
L 137.742575 245.773134 
L 147.267525 245.772501 
L 156.792475 245.770256 
L 166.317425 245.767071 
L 175.842375 245.760873 
L 185.367325 245.749437 
L 194.892275 245.72952 
L 204.417225 245.694731 
L 213.942175 245.626843 
L 223.467125 245.507972 
L 232.992075 245.327699 
L 242.517025 245.06647 
L 252.041975 244.718223 
L 261.566925 244.260987 
L 271.091875 243.623592 
L 280.616825 242.767279 
L 290.141775 241.672072 
L 299.666725 240.374084 
L 309.191675 238.900774 
L 318.716625 237.149023 
L 328.241575 235.132071 
L 337.766525 232.915773 
L 347.291475 230.301645 
L 356.816425 227.066164 
L 366.341375 223.240357 
L 375.866325 218.53878 
L 385.391275 212.642103 
L 394.916225 205.867104 
L 404.441175 197.945262 
L 413.966125 188.425847 
L 423.491075 177.837513 
L 433.016025 166.558172 
L 442.540975 155.645864 
L 452.065925 146.290508 
L 461.590875 137.732481 
L 471.115825 130.547141 
L 480.640775 125.823517 
L 490.165725 122.626911 
L 499.690675 119.541386 
L 509.215625 115.428235 
L 518.740575 112.318418 
L 528.265525 111.892324 
L 537.790475 113.017119 
L 547.315425 114.664832 
L 556.840375 117.107666 
L 566.365325 120.790789 
L 575.890275 125.03584 
L 585.415225 129.291252 
L 594.940175 133.495739 
L 604.465125 138.156867 
L 613.990075 143.921548 
L 623.515025 150.523527 
L 633.039975 157.695819 
L 642.564925 165.460317 
L 652.089875 173.668044 
L 661.614825 182.059441 
L 671.139775 189.842398 
L 680.664725 196.99508 
L 690.189675 203.868419 
L 699.714625 210.314072 
L 709.239575 215.927953 
L 718.764525 220.623447 
L 728.289475 224.497685 
L 737.814425 227.483623 
L 747.339375 229.896869 
L 756.864325 231.994546 
L 766.389275 233.640551 
L 775.914225 234.973404 
L 785.439175 236.232439 
L 794.964125 237.441797 
L 804.489075 238.500066 
L 814.014025 239.369446 
L 823.538975 240.199529 
L 833.063925 241.006068 
L 842.588875 241.667659 
L 852.113825 242.175341 
L 861.638775 242.594719 
L 871.163725 242.955458 
L 880.688675 243.234915 
L 890.213625 243.412617 
L 899.738575 243.508252 
L 909.263525 243.556491 
L 918.788475 243.579536 
L 928.313425 243.595501 
L 937.838375 243.598455 
L 947.363325 243.573165 
L 956.888275 243.506908 
L 966.413225 243.330607 
L 975.938175 243.402812 
L 985.463125 243.612943 
" style="fill:none;stroke:#f0ad4e;stroke-linecap:square;"/>
   </g>
   <g id="line2d_14">
    <path clip-path="url(#p1b2f36aff4)" d="M 32.968125 273.99006 
L 985.463125 273.99006 
" style="fill:none;stroke:#dedede;stroke-linecap:square;stroke-width:2;"/>
   </g>
   <g id="text_17">
    <!-- FastQC: Per Sequence GC Content -->
    <g transform="translate(372.579375 19.3575)scale(0.16 -0.16)">
     <defs>
      <path d="M 628 4666 
L 3309 4666 
L 3309 4134 
L 1259 4134 
L 1259 2759 
L 3109 2759 
L 3109 2228 
L 1259 2228 
L 1259 0 
L 628 0 
L 628 4666 
z
" id="DejaVuSans-46" transform="scale(0.015625)"/>
      <path d="M 2194 1759 
Q 1497 1759 1228 1600 
Q 959 1441 959 1056 
Q 959 750 1161 570 
Q 1363 391 1709 391 
Q 2188 391 2477 730 
Q 2766 1069 2766 1631 
L 2766 1759 
L 2194 1759 
z
M 3341 1997 
L 3341 0 
L 2766 0 
L 2766 531 
Q 2569 213 2275 61 
Q 1981 -91 1556 -91 
Q 1019 -91 701 211 
Q 384 513 384 1019 
Q 384 1609 779 1909 
Q 1175 2209 1959 2209 
L 2766 2209 
L 2766 2266 
Q 2766 2663 2505 2880 
Q 2244 3097 1772 3097 
Q 1472 3097 1187 3025 
Q 903 2953 641 2809 
L 641 3341 
Q 956 3463 1253 3523 
Q 1550 3584 1831 3584 
Q 2591 3584 2966 3190 
Q 3341 2797 3341 1997 
z
" id="DejaVuSans-61" transform="scale(0.015625)"/>
      <path d="M 2834 3397 
L 2834 2853 
Q 2591 2978 2328 3040 
Q 2066 3103 1784 3103 
Q 1356 3103 1142 2972 
Q 928 2841 928 2578 
Q 928 2378 1081 2264 
Q 1234 2150 1697 2047 
L 1894 2003 
Q 2506 1872 2764 1633 
Q 3022 1394 3022 966 
Q 3022 478 2636 193 
Q 2250 -91 1575 -91 
Q 1294 -91 989 -36 
Q 684 19 347 128 
L 347 722 
Q 666 556 975 473 
Q 1284 391 1588 391 
Q 1994 391 2212 530 
Q 2431 669 2431 922 
Q 2431 1156 2273 1281 
Q 2116 1406 1581 1522 
L 1381 1569 
Q 847 1681 609 1914 
Q 372 2147 372 2553 
Q 372 3047 722 3315 
Q 1072 3584 1716 3584 
Q 2034 3584 2315 3537 
Q 2597 3491 2834 3397 
z
" id="DejaVuSans-73" transform="scale(0.015625)"/>
      <path d="M 2522 4238 
Q 1834 4238 1429 3725 
Q 1025 3213 1025 2328 
Q 1025 1447 1429 934 
Q 1834 422 2522 422 
Q 3209 422 3611 934 
Q 4013 1447 4013 2328 
Q 4013 3213 3611 3725 
Q 3209 4238 2522 4238 
z
M 3406 84 
L 4238 -825 
L 3475 -825 
L 2784 -78 
Q 2681 -84 2626 -87 
Q 2572 -91 2522 -91 
Q 1538 -91 948 567 
Q 359 1225 359 2328 
Q 359 3434 948 4092 
Q 1538 4750 2522 4750 
Q 3503 4750 4090 4092 
Q 4678 3434 4678 2328 
Q 4678 1516 4351 937 
Q 4025 359 3406 84 
z
" id="DejaVuSans-51" transform="scale(0.015625)"/>
      <path d="M 750 794 
L 1409 794 
L 1409 0 
L 750 0 
L 750 794 
z
M 750 3309 
L 1409 3309 
L 1409 2516 
L 750 2516 
L 750 3309 
z
" id="DejaVuSans-3a" transform="scale(0.015625)"/>
      <path d="M 1259 4147 
L 1259 2394 
L 2053 2394 
Q 2494 2394 2734 2622 
Q 2975 2850 2975 3272 
Q 2975 3691 2734 3919 
Q 2494 4147 2053 4147 
L 1259 4147 
z
M 628 4666 
L 2053 4666 
Q 2838 4666 3239 4311 
Q 3641 3956 3641 3272 
Q 3641 2581 3239 2228 
Q 2838 1875 2053 1875 
L 1259 1875 
L 1259 0 
L 628 0 
L 628 4666 
z
" id="DejaVuSans-50" transform="scale(0.015625)"/>
      <path d="M 2631 2963 
Q 2534 3019 2420 3045 
Q 2306 3072 2169 3072 
Q 1681 3072 1420 2755 
Q 1159 2438 1159 1844 
L 1159 0 
L 581 0 
L 581 3500 
L 1159 3500 
L 1159 2956 
Q 1341 3275 1631 3429 
Q 1922 3584 2338 3584 
Q 2397 3584 2469 3576 
Q 2541 3569 2628 3553 
L 2631 2963 
z
" id="DejaVuSans-72" transform="scale(0.015625)"/>
      <path d="M 3425 4513 
L 3425 3897 
Q 3066 4069 2747 4153 
Q 2428 4238 2131 4238 
Q 1616 4238 1336 4038 
Q 1056 3838 1056 3469 
Q 1056 3159 1242 3001 
Q 1428 2844 1947 2747 
L 2328 2669 
Q 3034 2534 3370 2195 
Q 3706 1856 3706 1288 
Q 3706 609 3251 259 
Q 2797 -91 1919 -91 
Q 1588 -91 1214 -16 
Q 841 59 441 206 
L 441 856 
Q 825 641 1194 531 
Q 1563 422 1919 422 
Q 2459 422 2753 634 
Q 3047 847 3047 1241 
Q 3047 1584 2836 1778 
Q 2625 1972 2144 2069 
L 1759 2144 
Q 1053 2284 737 2584 
Q 422 2884 422 3419 
Q 422 4038 858 4394 
Q 1294 4750 2059 4750 
Q 2388 4750 2728 4690 
Q 3069 4631 3425 4513 
z
" id="DejaVuSans-53" transform="scale(0.015625)"/>
      <path d="M 947 1747 
Q 947 1113 1208 752 
Q 1469 391 1925 391 
Q 2381 391 2643 752 
Q 2906 1113 2906 1747 
Q 2906 2381 2643 2742 
Q 2381 3103 1925 3103 
Q 1469 3103 1208 2742 
Q 947 2381 947 1747 
z
M 2906 525 
Q 2725 213 2448 61 
Q 2172 -91 1784 -91 
Q 1150 -91 751 415 
Q 353 922 353 1747 
Q 353 2572 751 3078 
Q 1150 3584 1784 3584 
Q 2172 3584 2448 3432 
Q 2725 3281 2906 2969 
L 2906 3500 
L 3481 3500 
L 3481 -1331 
L 2906 -1331 
L 2906 525 
z
" id="DejaVuSans-71" transform="scale(0.015625)"/>
      <path d="M 3122 3366 
L 3122 2828 
Q 2878 2963 2633 3030 
Q 2388 3097 2138 3097 
Q 1578 3097 1268 2742 
Q 959 2388 959 1747 
Q 959 1106 1268 751 
Q 1578 397 2138 397 
Q 2388 397 2633 464 
Q 2878 531 3122 666 
L 3122 134 
Q 2881 22 2623 -34 
Q 2366 -91 2075 -91 
Q 1284 -91 818 406 
Q 353 903 353 1747 
Q 353 2603 823 3093 
Q 1294 3584 2113 3584 
Q 2378 3584 2631 3529 
Q 2884 3475 3122 3366 
z
" id="DejaVuSans-63" transform="scale(0.015625)"/>
     </defs>
     <use xlink:href="#DejaVuSans-46"/>
     <use x="48.394531" xlink:href="#DejaVuSans-61"/>
     <use x="109.673828" xlink:href="#DejaVuSans-73"/>
     <use x="161.773438" xlink:href="#DejaVuSans-74"/>
     <use x="200.982422" xlink:href="#DejaVuSans-51"/>
     <use x="279.693359" xlink:href="#DejaVuSans-43"/>
     <use x="349.517578" xlink:href="#DejaVuSans-3a"/>
     <use x="383.208984" xlink:href="#DejaVuSans-20"/>
     <use x="414.996094" xlink:href="#DejaVuSans-50"/>
     <use x="471.673828" xlink:href="#DejaVuSans-65"/>
     <use x="533.197266" xlink:href="#DejaVuSans-72"/>
     <use x="574.310547" xlink:href="#DejaVuSans-20"/>
     <use x="606.097656" xlink:href="#DejaVuSans-53"/>
     <use x="669.574219" xlink:href="#DejaVuSans-65"/>
     <use x="731.097656" xlink:href="#DejaVuSans-71"/>
     <use x="794.574219" xlink:href="#DejaVuSans-75"/>
     <use x="857.953125" xlink:href="#DejaVuSans-65"/>
     <use x="919.476562" xlink:href="#DejaVuSans-6e"/>
     <use x="982.855469" xlink:href="#DejaVuSans-63"/>
     <use x="1037.835938" xlink:href="#DejaVuSans-65"/>
     <use x="1099.359375" xlink:href="#DejaVuSans-20"/>
     <use x="1131.146484" xlink:href="#DejaVuSans-47"/>
     <use x="1208.636719" xlink:href="#DejaVuSans-43"/>
     <use x="1278.460938" xlink:href="#DejaVuSans-20"/>
     <use x="1310.248047" xlink:href="#DejaVuSans-43"/>
     <use x="1380.072266" xlink:href="#DejaVuSans-6f"/>
     <use x="1441.253906" xlink:href="#DejaVuSans-6e"/>
     <use x="1504.632812" xlink:href="#DejaVuSans-74"/>
     <use x="1543.841797" xlink:href="#DejaVuSans-65"/>
     <use x="1605.365234" xlink:href="#DejaVuSans-6e"/>
     <use x="1668.744141" xlink:href="#DejaVuSans-74"/>
    </g>
   </g>
   <g id="legend_1">
    <g id="line2d_15">
     <path d="M 40.168125 303.935394 
L 56.168125 303.935394 
" style="fill:none;stroke:#f0ad4e;stroke-linecap:square;"/>
    </g>
    <g id="line2d_16"/>
    <g id="text_18">
     <!-- 1O -->
     <g transform="translate(62.568125 306.735394)scale(0.08 -0.08)">
      <defs>
       <path d="M 2522 4238 
Q 1834 4238 1429 3725 
Q 1025 3213 1025 2328 
Q 1025 1447 1429 934 
Q 1834 422 2522 422 
Q 3209 422 3611 934 
Q 4013 1447 4013 2328 
Q 4013 3213 3611 3725 
Q 3209 4238 2522 4238 
z
M 2522 4750 
Q 3503 4750 4090 4092 
Q 4678 3434 4678 2328 
Q 4678 1225 4090 567 
Q 3503 -91 2522 -91 
Q 1538 -91 948 565 
Q 359 1222 359 2328 
Q 359 3434 948 4092 
Q 1538 4750 2522 4750 
z
" id="DejaVuSans-4f" transform="scale(0.015625)"/>
      </defs>
      <use xlink:href="#DejaVuSans-31"/>
      <use x="63.623047" xlink:href="#DejaVuSans-4f"/>
     </g>
    </g>
    <g id="line2d_17">
     <path d="M 40.168125 315.677894 
L 56.168125 315.677894 
" style="fill:none;stroke:#f0ad4e;stroke-linecap:square;"/>
    </g>
    <g id="line2d_18"/>
    <g id="text_19">
     <!-- 2O -->
     <g transform="translate(62.568125 318.477894)scale(0.08 -0.08)">
      <use xlink:href="#DejaVuSans-32"/>
      <use x="63.623047" xlink:href="#DejaVuSans-4f"/>
     </g>
    </g>
    <g id="line2d_19">
     <path d="M 256.715313 303.935394 
L 272.715313 303.935394 
" style="fill:none;stroke:#f0ad4e;stroke-linecap:square;"/>
    </g>
    <g id="line2d_20"/>
    <g id="text_20">
     <!-- 3O -->
     <g transform="translate(279.115313 306.735394)scale(0.08 -0.08)">
      <use xlink:href="#DejaVuSans-33"/>
      <use x="63.623047" xlink:href="#DejaVuSans-4f"/>
     </g>
    </g>
    <g id="line2d_21">
     <path d="M 473.2625 303.935394 
L 489.2625 303.935394 
" style="fill:none;stroke:#f0ad4e;stroke-linecap:square;"/>
    </g>
    <g id="line2d_22"/>
    <g id="text_21">
     <!-- P11_1 -->
     <g transform="translate(495.6625 306.735394)scale(0.08 -0.08)">
      <defs>
       <path d="M 3263 -1063 
L 3263 -1509 
L -63 -1509 
L -63 -1063 
L 3263 -1063 
z
" id="DejaVuSans-5f" transform="scale(0.015625)"/>
      </defs>
      <use xlink:href="#DejaVuSans-50"/>
      <use x="60.302734" xlink:href="#DejaVuSans-31"/>
      <use x="123.925781" xlink:href="#DejaVuSans-31"/>
      <use x="187.548828" xlink:href="#DejaVuSans-5f"/>
      <use x="237.548828" xlink:href="#DejaVuSans-31"/>
     </g>
    </g>
    <g id="line2d_23">
     <path d="M 702.515938 303.935394 
L 718.515938 303.935394 
" style="fill:none;stroke:#f0ad4e;stroke-linecap:square;"/>
    </g>
    <g id="line2d_24"/>
    <g id="text_22">
     <!-- P11_2 -->
     <g transform="translate(724.915938 306.735394)scale(0.08 -0.08)">
      <use xlink:href="#DejaVuSans-50"/>
      <use x="60.302734" xlink:href="#DejaVuSans-31"/>
      <use x="123.925781" xlink:href="#DejaVuSans-31"/>
      <use x="187.548828" xlink:href="#DejaVuSans-5f"/>
      <use x="237.548828" xlink:href="#DejaVuSans-32"/>
     </g>
    </g>
    <g id="line2d_25">
     <path d="M 931.769375 303.935394 
L 947.769375 303.935394 
" style="fill:none;stroke:#f0ad4e;stroke-linecap:square;"/>
    </g>
    <g id="line2d_26"/>
    <g id="text_23">
     <!-- P11_3 -->
     <g transform="translate(954.169375 306.735394)scale(0.08 -0.08)">
      <use xlink:href="#DejaVuSans-50"/>
      <use x="60.302734" xlink:href="#DejaVuSans-31"/>
      <use x="123.925781" xlink:href="#DejaVuSans-31"/>
      <use x="187.548828" xlink:href="#DejaVuSans-5f"/>
      <use x="237.548828" xlink:href="#DejaVuSans-33"/>
     </g>
    </g>
   </g>
  </g>
 </g>
 <defs>
  <clipPath id="p1b2f36aff4">
   <rect height="242.5072" width="952.495" x="32.968125" y="31.48286"/>
  </clipPath>
 </defs>
</svg>
