<?xml version="1.0" encoding="utf-8" standalone="no"?>
<!DOCTYPE svg PUBLIC "-//W3C//DTD SVG 1.1//EN"
  "http://www.w3.org/Graphics/SVG/1.1/DTD/svg11.dtd">
<svg height="330.541644pt" version="1.1" viewBox="0 0 1000.318125 330.541644" width="1000.318125pt" xmlns="http://www.w3.org/2000/svg" xmlns:xlink="http://www.w3.org/1999/xlink">
 <metadata>
  <rdf:RDF xmlns:cc="http://creativecommons.org/ns#" xmlns:dc="http://purl.org/dc/elements/1.1/" xmlns:rdf="http://www.w3.org/1999/02/22-rdf-syntax-ns#">
   <cc:Work>
    <dc:type rdf:resource="http://purl.org/dc/dcmitype/StillImage"/>
    <dc:date>2024-09-06T15:37:35.006925</dc:date>
    <dc:format>image/svg+xml</dc:format>
    <dc:creator>
     <cc:Agent>
      <dc:title>Matplotlib v3.4.2, https://matplotlib.org/</dc:title>
     </cc:Agent>
    </dc:creator>
   </cc:Work>
  </rdf:RDF>
 </metadata>
 <defs>
  <style type="text/css">*{stroke-linecap:butt;stroke-linejoin:round;}</style>
 </defs>
 <g id="figure_1">
  <g id="axes_1">
   <g id="patch_1">
    <path d="M 38.058125 273.99006 
L 993.118125 273.99006 
L 993.118125 31.48286 
L 38.058125 31.48286 
z
" style="fill:#ffffff;"/>
   </g>
   <g id="patch_2">
    <path clip-path="url(#pa96aaa6f76)" d="M 38.058125 103.391417 
L 958.476371 103.391417 
L 958.476371 -335.290806 
L 38.058125 -335.290806 
z
" style="fill:#c3e6c3;"/>
   </g>
   <g id="patch_3">
    <path clip-path="url(#pa96aaa6f76)" d="M 38.058125 152.133887 
L 958.476371 152.133887 
L 958.476371 103.391417 
L 38.058125 103.391417 
z
" style="fill:#e6dcc3;"/>
   </g>
   <g id="patch_4">
    <path clip-path="url(#pa96aaa6f76)" d="M 38.058125 273.99006 
L 958.476371 273.99006 
L 958.476371 152.133887 
L 38.058125 152.133887 
z
" style="fill:#e6c3c3;"/>
   </g>
   <g id="matplotlib.axis_1">
    <g id="xtick_1">
     <g id="text_1">
      <!-- 0 -->
      <g transform="translate(70.154879 287.06881)scale(0.08 -0.08)">
       <defs>
        <path d="M 2034 4250 
Q 1547 4250 1301 3770 
Q 1056 3291 1056 2328 
Q 1056 1369 1301 889 
Q 1547 409 2034 409 
Q 2525 409 2770 889 
Q 3016 1369 3016 2328 
Q 3016 3291 2770 3770 
Q 2525 4250 2034 4250 
z
M 2034 4750 
Q 2819 4750 3233 4129 
Q 3647 3509 3647 2328 
Q 3647 1150 3233 529 
Q 2819 -91 2034 -91 
Q 1250 -91 836 529 
Q 422 1150 422 2328 
Q 422 3509 836 4129 
Q 1250 4750 2034 4750 
z
" id="DejaVuSans-30" transform="scale(0.015625)"/>
       </defs>
       <use xlink:href="#DejaVuSans-30"/>
      </g>
     </g>
    </g>
    <g id="xtick_2">
     <g id="text_2">
      <!-- 20 -->
      <g transform="translate(243.011164 287.06881)scale(0.08 -0.08)">
       <defs>
        <path d="M 1228 531 
L 3431 531 
L 3431 0 
L 469 0 
L 469 531 
Q 828 903 1448 1529 
Q 2069 2156 2228 2338 
Q 2531 2678 2651 2914 
Q 2772 3150 2772 3378 
Q 2772 3750 2511 3984 
Q 2250 4219 1831 4219 
Q 1534 4219 1204 4116 
Q 875 4013 500 3803 
L 500 4441 
Q 881 4594 1212 4672 
Q 1544 4750 1819 4750 
Q 2544 4750 2975 4387 
Q 3406 4025 3406 3419 
Q 3406 3131 3298 2873 
Q 3191 2616 2906 2266 
Q 2828 2175 2409 1742 
Q 1991 1309 1228 531 
z
" id="DejaVuSans-32" transform="scale(0.015625)"/>
       </defs>
       <use xlink:href="#DejaVuSans-32"/>
       <use x="63.623047" xlink:href="#DejaVuSans-30"/>
      </g>
     </g>
    </g>
    <g id="xtick_3">
     <g id="text_3">
      <!-- 40 -->
      <g transform="translate(418.41245 287.06881)scale(0.08 -0.08)">
       <defs>
        <path d="M 2419 4116 
L 825 1625 
L 2419 1625 
L 2419 4116 
z
M 2253 4666 
L 3047 4666 
L 3047 1625 
L 3713 1625 
L 3713 1100 
L 3047 1100 
L 3047 0 
L 2419 0 
L 2419 1100 
L 313 1100 
L 313 1709 
L 2253 4666 
z
" id="DejaVuSans-34" transform="scale(0.015625)"/>
       </defs>
       <use xlink:href="#DejaVuSans-34"/>
       <use x="63.623047" xlink:href="#DejaVuSans-30"/>
      </g>
     </g>
    </g>
    <g id="xtick_4">
     <g id="text_4">
      <!-- 60 -->
      <g transform="translate(593.813736 287.06881)scale(0.08 -0.08)">
       <defs>
        <path d="M 2113 2584 
Q 1688 2584 1439 2293 
Q 1191 2003 1191 1497 
Q 1191 994 1439 701 
Q 1688 409 2113 409 
Q 2538 409 2786 701 
Q 3034 994 3034 1497 
Q 3034 2003 2786 2293 
Q 2538 2584 2113 2584 
z
M 3366 4563 
L 3366 3988 
Q 3128 4100 2886 4159 
Q 2644 4219 2406 4219 
Q 1781 4219 1451 3797 
Q 1122 3375 1075 2522 
Q 1259 2794 1537 2939 
Q 1816 3084 2150 3084 
Q 2853 3084 3261 2657 
Q 3669 2231 3669 1497 
Q 3669 778 3244 343 
Q 2819 -91 2113 -91 
Q 1303 -91 875 529 
Q 447 1150 447 2328 
Q 447 3434 972 4092 
Q 1497 4750 2381 4750 
Q 2619 4750 2861 4703 
Q 3103 4656 3366 4563 
z
" id="DejaVuSans-36" transform="scale(0.015625)"/>
       </defs>
       <use xlink:href="#DejaVuSans-36"/>
       <use x="63.623047" xlink:href="#DejaVuSans-30"/>
      </g>
     </g>
    </g>
    <g id="xtick_5">
     <g id="text_5">
      <!-- 80 -->
      <g transform="translate(769.215021 287.06881)scale(0.08 -0.08)">
       <defs>
        <path d="M 2034 2216 
Q 1584 2216 1326 1975 
Q 1069 1734 1069 1313 
Q 1069 891 1326 650 
Q 1584 409 2034 409 
Q 2484 409 2743 651 
Q 3003 894 3003 1313 
Q 3003 1734 2745 1975 
Q 2488 2216 2034 2216 
z
M 1403 2484 
Q 997 2584 770 2862 
Q 544 3141 544 3541 
Q 544 4100 942 4425 
Q 1341 4750 2034 4750 
Q 2731 4750 3128 4425 
Q 3525 4100 3525 3541 
Q 3525 3141 3298 2862 
Q 3072 2584 2669 2484 
Q 3125 2378 3379 2068 
Q 3634 1759 3634 1313 
Q 3634 634 3220 271 
Q 2806 -91 2034 -91 
Q 1263 -91 848 271 
Q 434 634 434 1313 
Q 434 1759 690 2068 
Q 947 2378 1403 2484 
z
M 1172 3481 
Q 1172 3119 1398 2916 
Q 1625 2713 2034 2713 
Q 2441 2713 2670 2916 
Q 2900 3119 2900 3481 
Q 2900 3844 2670 4047 
Q 2441 4250 2034 4250 
Q 1625 4250 1398 4047 
Q 1172 3844 1172 3481 
z
" id="DejaVuSans-38" transform="scale(0.015625)"/>
       </defs>
       <use xlink:href="#DejaVuSans-38"/>
       <use x="63.623047" xlink:href="#DejaVuSans-30"/>
      </g>
     </g>
    </g>
    <g id="xtick_6">
     <g id="text_6">
      <!-- 100 -->
      <g transform="translate(942.071307 287.06881)scale(0.08 -0.08)">
       <defs>
        <path d="M 794 531 
L 1825 531 
L 1825 4091 
L 703 3866 
L 703 4441 
L 1819 4666 
L 2450 4666 
L 2450 531 
L 3481 531 
L 3481 0 
L 794 0 
L 794 531 
z
" id="DejaVuSans-31" transform="scale(0.015625)"/>
       </defs>
       <use xlink:href="#DejaVuSans-31"/>
       <use x="63.623047" xlink:href="#DejaVuSans-30"/>
       <use x="127.246094" xlink:href="#DejaVuSans-30"/>
      </g>
     </g>
    </g>
    <g id="text_7">
     <!-- Position (bp) -->
     <g transform="translate(484.285 300.330997)scale(0.1 -0.1)">
      <defs>
       <path d="M 1259 4147 
L 1259 2394 
L 2053 2394 
Q 2494 2394 2734 2622 
Q 2975 2850 2975 3272 
Q 2975 3691 2734 3919 
Q 2494 4147 2053 4147 
L 1259 4147 
z
M 628 4666 
L 2053 4666 
Q 2838 4666 3239 4311 
Q 3641 3956 3641 3272 
Q 3641 2581 3239 2228 
Q 2838 1875 2053 1875 
L 1259 1875 
L 1259 0 
L 628 0 
L 628 4666 
z
" id="DejaVuSans-50" transform="scale(0.015625)"/>
       <path d="M 1959 3097 
Q 1497 3097 1228 2736 
Q 959 2375 959 1747 
Q 959 1119 1226 758 
Q 1494 397 1959 397 
Q 2419 397 2687 759 
Q 2956 1122 2956 1747 
Q 2956 2369 2687 2733 
Q 2419 3097 1959 3097 
z
M 1959 3584 
Q 2709 3584 3137 3096 
Q 3566 2609 3566 1747 
Q 3566 888 3137 398 
Q 2709 -91 1959 -91 
Q 1206 -91 779 398 
Q 353 888 353 1747 
Q 353 2609 779 3096 
Q 1206 3584 1959 3584 
z
" id="DejaVuSans-6f" transform="scale(0.015625)"/>
       <path d="M 2834 3397 
L 2834 2853 
Q 2591 2978 2328 3040 
Q 2066 3103 1784 3103 
Q 1356 3103 1142 2972 
Q 928 2841 928 2578 
Q 928 2378 1081 2264 
Q 1234 2150 1697 2047 
L 1894 2003 
Q 2506 1872 2764 1633 
Q 3022 1394 3022 966 
Q 3022 478 2636 193 
Q 2250 -91 1575 -91 
Q 1294 -91 989 -36 
Q 684 19 347 128 
L 347 722 
Q 666 556 975 473 
Q 1284 391 1588 391 
Q 1994 391 2212 530 
Q 2431 669 2431 922 
Q 2431 1156 2273 1281 
Q 2116 1406 1581 1522 
L 1381 1569 
Q 847 1681 609 1914 
Q 372 2147 372 2553 
Q 372 3047 722 3315 
Q 1072 3584 1716 3584 
Q 2034 3584 2315 3537 
Q 2597 3491 2834 3397 
z
" id="DejaVuSans-73" transform="scale(0.015625)"/>
       <path d="M 603 3500 
L 1178 3500 
L 1178 0 
L 603 0 
L 603 3500 
z
M 603 4863 
L 1178 4863 
L 1178 4134 
L 603 4134 
L 603 4863 
z
" id="DejaVuSans-69" transform="scale(0.015625)"/>
       <path d="M 1172 4494 
L 1172 3500 
L 2356 3500 
L 2356 3053 
L 1172 3053 
L 1172 1153 
Q 1172 725 1289 603 
Q 1406 481 1766 481 
L 2356 481 
L 2356 0 
L 1766 0 
Q 1100 0 847 248 
Q 594 497 594 1153 
L 594 3053 
L 172 3053 
L 172 3500 
L 594 3500 
L 594 4494 
L 1172 4494 
z
" id="DejaVuSans-74" transform="scale(0.015625)"/>
       <path d="M 3513 2113 
L 3513 0 
L 2938 0 
L 2938 2094 
Q 2938 2591 2744 2837 
Q 2550 3084 2163 3084 
Q 1697 3084 1428 2787 
Q 1159 2491 1159 1978 
L 1159 0 
L 581 0 
L 581 3500 
L 1159 3500 
L 1159 2956 
Q 1366 3272 1645 3428 
Q 1925 3584 2291 3584 
Q 2894 3584 3203 3211 
Q 3513 2838 3513 2113 
z
" id="DejaVuSans-6e" transform="scale(0.015625)"/>
       <path id="DejaVuSans-20" transform="scale(0.015625)"/>
       <path d="M 1984 4856 
Q 1566 4138 1362 3434 
Q 1159 2731 1159 2009 
Q 1159 1288 1364 580 
Q 1569 -128 1984 -844 
L 1484 -844 
Q 1016 -109 783 600 
Q 550 1309 550 2009 
Q 550 2706 781 3412 
Q 1013 4119 1484 4856 
L 1984 4856 
z
" id="DejaVuSans-28" transform="scale(0.015625)"/>
       <path d="M 3116 1747 
Q 3116 2381 2855 2742 
Q 2594 3103 2138 3103 
Q 1681 3103 1420 2742 
Q 1159 2381 1159 1747 
Q 1159 1113 1420 752 
Q 1681 391 2138 391 
Q 2594 391 2855 752 
Q 3116 1113 3116 1747 
z
M 1159 2969 
Q 1341 3281 1617 3432 
Q 1894 3584 2278 3584 
Q 2916 3584 3314 3078 
Q 3713 2572 3713 1747 
Q 3713 922 3314 415 
Q 2916 -91 2278 -91 
Q 1894 -91 1617 61 
Q 1341 213 1159 525 
L 1159 0 
L 581 0 
L 581 4863 
L 1159 4863 
L 1159 2969 
z
" id="DejaVuSans-62" transform="scale(0.015625)"/>
       <path d="M 1159 525 
L 1159 -1331 
L 581 -1331 
L 581 3500 
L 1159 3500 
L 1159 2969 
Q 1341 3281 1617 3432 
Q 1894 3584 2278 3584 
Q 2916 3584 3314 3078 
Q 3713 2572 3713 1747 
Q 3713 922 3314 415 
Q 2916 -91 2278 -91 
Q 1894 -91 1617 61 
Q 1341 213 1159 525 
z
M 3116 1747 
Q 3116 2381 2855 2742 
Q 2594 3103 2138 3103 
Q 1681 3103 1420 2742 
Q 1159 2381 1159 1747 
Q 1159 1113 1420 752 
Q 1681 391 2138 391 
Q 2594 391 2855 752 
Q 3116 1113 3116 1747 
z
" id="DejaVuSans-70" transform="scale(0.015625)"/>
       <path d="M 513 4856 
L 1013 4856 
Q 1481 4119 1714 3412 
Q 1947 2706 1947 2009 
Q 1947 1309 1714 600 
Q 1481 -109 1013 -844 
L 513 -844 
Q 928 -128 1133 580 
Q 1338 1288 1338 2009 
Q 1338 2731 1133 3434 
Q 928 4138 513 4856 
z
" id="DejaVuSans-29" transform="scale(0.015625)"/>
      </defs>
      <use xlink:href="#DejaVuSans-50"/>
      <use x="56.677734" xlink:href="#DejaVuSans-6f"/>
      <use x="117.859375" xlink:href="#DejaVuSans-73"/>
      <use x="169.958984" xlink:href="#DejaVuSans-69"/>
      <use x="197.742188" xlink:href="#DejaVuSans-74"/>
      <use x="236.951172" xlink:href="#DejaVuSans-69"/>
      <use x="264.734375" xlink:href="#DejaVuSans-6f"/>
      <use x="325.916016" xlink:href="#DejaVuSans-6e"/>
      <use x="389.294922" xlink:href="#DejaVuSans-20"/>
      <use x="421.082031" xlink:href="#DejaVuSans-28"/>
      <use x="460.095703" xlink:href="#DejaVuSans-62"/>
      <use x="523.572266" xlink:href="#DejaVuSans-70"/>
      <use x="587.048828" xlink:href="#DejaVuSans-29"/>
     </g>
    </g>
   </g>
   <g id="matplotlib.axis_2">
    <g id="ytick_1">
     <g id="line2d_1">
      <path clip-path="url(#pa96aaa6f76)" d="M 38.058125 273.99006 
L 993.118125 273.99006 
" style="fill:none;stroke:#dedede;stroke-linecap:square;"/>
     </g>
     <g id="text_8">
      <!-- 0 -->
      <g transform="translate(25.968125 277.029435)scale(0.08 -0.08)">
       <use xlink:href="#DejaVuSans-30"/>
      </g>
     </g>
    </g>
    <g id="ytick_2">
     <g id="line2d_2">
      <path clip-path="url(#pa96aaa6f76)" d="M 38.058125 243.526017 
L 993.118125 243.526017 
" style="fill:none;stroke:#dedede;stroke-linecap:square;"/>
     </g>
     <g id="text_9">
      <!-- 5 -->
      <g transform="translate(25.968125 246.565392)scale(0.08 -0.08)">
       <defs>
        <path d="M 691 4666 
L 3169 4666 
L 3169 4134 
L 1269 4134 
L 1269 2991 
Q 1406 3038 1543 3061 
Q 1681 3084 1819 3084 
Q 2600 3084 3056 2656 
Q 3513 2228 3513 1497 
Q 3513 744 3044 326 
Q 2575 -91 1722 -91 
Q 1428 -91 1123 -41 
Q 819 9 494 109 
L 494 744 
Q 775 591 1075 516 
Q 1375 441 1709 441 
Q 2250 441 2565 725 
Q 2881 1009 2881 1497 
Q 2881 1984 2565 2268 
Q 2250 2553 1709 2553 
Q 1456 2553 1204 2497 
Q 953 2441 691 2322 
L 691 4666 
z
" id="DejaVuSans-35" transform="scale(0.015625)"/>
       </defs>
       <use xlink:href="#DejaVuSans-35"/>
      </g>
     </g>
    </g>
    <g id="ytick_3">
     <g id="line2d_3">
      <path clip-path="url(#pa96aaa6f76)" d="M 38.058125 213.061973 
L 993.118125 213.061973 
" style="fill:none;stroke:#dedede;stroke-linecap:square;"/>
     </g>
     <g id="text_10">
      <!-- 10 -->
      <g transform="translate(20.878125 216.101348)scale(0.08 -0.08)">
       <use xlink:href="#DejaVuSans-31"/>
       <use x="63.623047" xlink:href="#DejaVuSans-30"/>
      </g>
     </g>
    </g>
    <g id="ytick_4">
     <g id="line2d_4">
      <path clip-path="url(#pa96aaa6f76)" d="M 38.058125 182.59793 
L 993.118125 182.59793 
" style="fill:none;stroke:#dedede;stroke-linecap:square;"/>
     </g>
     <g id="text_11">
      <!-- 15 -->
      <g transform="translate(20.878125 185.637305)scale(0.08 -0.08)">
       <use xlink:href="#DejaVuSans-31"/>
       <use x="63.623047" xlink:href="#DejaVuSans-35"/>
      </g>
     </g>
    </g>
    <g id="ytick_5">
     <g id="line2d_5">
      <path clip-path="url(#pa96aaa6f76)" d="M 38.058125 152.133887 
L 993.118125 152.133887 
" style="fill:none;stroke:#dedede;stroke-linecap:square;"/>
     </g>
     <g id="text_12">
      <!-- 20 -->
      <g transform="translate(20.878125 155.173262)scale(0.08 -0.08)">
       <use xlink:href="#DejaVuSans-32"/>
       <use x="63.623047" xlink:href="#DejaVuSans-30"/>
      </g>
     </g>
    </g>
    <g id="ytick_6">
     <g id="line2d_6">
      <path clip-path="url(#pa96aaa6f76)" d="M 38.058125 121.669843 
L 993.118125 121.669843 
" style="fill:none;stroke:#dedede;stroke-linecap:square;"/>
     </g>
     <g id="text_13">
      <!-- 25 -->
      <g transform="translate(20.878125 124.709218)scale(0.08 -0.08)">
       <use xlink:href="#DejaVuSans-32"/>
       <use x="63.623047" xlink:href="#DejaVuSans-35"/>
      </g>
     </g>
    </g>
    <g id="ytick_7">
     <g id="line2d_7">
      <path clip-path="url(#pa96aaa6f76)" d="M 38.058125 91.2058 
L 993.118125 91.2058 
" style="fill:none;stroke:#dedede;stroke-linecap:square;"/>
     </g>
     <g id="text_14">
      <!-- 30 -->
      <g transform="translate(20.878125 94.245175)scale(0.08 -0.08)">
       <defs>
        <path d="M 2597 2516 
Q 3050 2419 3304 2112 
Q 3559 1806 3559 1356 
Q 3559 666 3084 287 
Q 2609 -91 1734 -91 
Q 1441 -91 1130 -33 
Q 819 25 488 141 
L 488 750 
Q 750 597 1062 519 
Q 1375 441 1716 441 
Q 2309 441 2620 675 
Q 2931 909 2931 1356 
Q 2931 1769 2642 2001 
Q 2353 2234 1838 2234 
L 1294 2234 
L 1294 2753 
L 1863 2753 
Q 2328 2753 2575 2939 
Q 2822 3125 2822 3475 
Q 2822 3834 2567 4026 
Q 2313 4219 1838 4219 
Q 1578 4219 1281 4162 
Q 984 4106 628 3988 
L 628 4550 
Q 988 4650 1302 4700 
Q 1616 4750 1894 4750 
Q 2613 4750 3031 4423 
Q 3450 4097 3450 3541 
Q 3450 3153 3228 2886 
Q 3006 2619 2597 2516 
z
" id="DejaVuSans-33" transform="scale(0.015625)"/>
       </defs>
       <use xlink:href="#DejaVuSans-33"/>
       <use x="63.623047" xlink:href="#DejaVuSans-30"/>
      </g>
     </g>
    </g>
    <g id="ytick_8">
     <g id="line2d_8">
      <path clip-path="url(#pa96aaa6f76)" d="M 38.058125 60.741757 
L 993.118125 60.741757 
" style="fill:none;stroke:#dedede;stroke-linecap:square;"/>
     </g>
     <g id="text_15">
      <!-- 35 -->
      <g transform="translate(20.878125 63.781132)scale(0.08 -0.08)">
       <use xlink:href="#DejaVuSans-33"/>
       <use x="63.623047" xlink:href="#DejaVuSans-35"/>
      </g>
     </g>
    </g>
    <g id="text_16">
     <!-- Phred Score -->
     <g transform="translate(14.798438 182.70521)rotate(-90)scale(0.1 -0.1)">
      <defs>
       <path d="M 3513 2113 
L 3513 0 
L 2938 0 
L 2938 2094 
Q 2938 2591 2744 2837 
Q 2550 3084 2163 3084 
Q 1697 3084 1428 2787 
Q 1159 2491 1159 1978 
L 1159 0 
L 581 0 
L 581 4863 
L 1159 4863 
L 1159 2956 
Q 1366 3272 1645 3428 
Q 1925 3584 2291 3584 
Q 2894 3584 3203 3211 
Q 3513 2838 3513 2113 
z
" id="DejaVuSans-68" transform="scale(0.015625)"/>
       <path d="M 2631 2963 
Q 2534 3019 2420 3045 
Q 2306 3072 2169 3072 
Q 1681 3072 1420 2755 
Q 1159 2438 1159 1844 
L 1159 0 
L 581 0 
L 581 3500 
L 1159 3500 
L 1159 2956 
Q 1341 3275 1631 3429 
Q 1922 3584 2338 3584 
Q 2397 3584 2469 3576 
Q 2541 3569 2628 3553 
L 2631 2963 
z
" id="DejaVuSans-72" transform="scale(0.015625)"/>
       <path d="M 3597 1894 
L 3597 1613 
L 953 1613 
Q 991 1019 1311 708 
Q 1631 397 2203 397 
Q 2534 397 2845 478 
Q 3156 559 3463 722 
L 3463 178 
Q 3153 47 2828 -22 
Q 2503 -91 2169 -91 
Q 1331 -91 842 396 
Q 353 884 353 1716 
Q 353 2575 817 3079 
Q 1281 3584 2069 3584 
Q 2775 3584 3186 3129 
Q 3597 2675 3597 1894 
z
M 3022 2063 
Q 3016 2534 2758 2815 
Q 2500 3097 2075 3097 
Q 1594 3097 1305 2825 
Q 1016 2553 972 2059 
L 3022 2063 
z
" id="DejaVuSans-65" transform="scale(0.015625)"/>
       <path d="M 2906 2969 
L 2906 4863 
L 3481 4863 
L 3481 0 
L 2906 0 
L 2906 525 
Q 2725 213 2448 61 
Q 2172 -91 1784 -91 
Q 1150 -91 751 415 
Q 353 922 353 1747 
Q 353 2572 751 3078 
Q 1150 3584 1784 3584 
Q 2172 3584 2448 3432 
Q 2725 3281 2906 2969 
z
M 947 1747 
Q 947 1113 1208 752 
Q 1469 391 1925 391 
Q 2381 391 2643 752 
Q 2906 1113 2906 1747 
Q 2906 2381 2643 2742 
Q 2381 3103 1925 3103 
Q 1469 3103 1208 2742 
Q 947 2381 947 1747 
z
" id="DejaVuSans-64" transform="scale(0.015625)"/>
       <path d="M 3425 4513 
L 3425 3897 
Q 3066 4069 2747 4153 
Q 2428 4238 2131 4238 
Q 1616 4238 1336 4038 
Q 1056 3838 1056 3469 
Q 1056 3159 1242 3001 
Q 1428 2844 1947 2747 
L 2328 2669 
Q 3034 2534 3370 2195 
Q 3706 1856 3706 1288 
Q 3706 609 3251 259 
Q 2797 -91 1919 -91 
Q 1588 -91 1214 -16 
Q 841 59 441 206 
L 441 856 
Q 825 641 1194 531 
Q 1563 422 1919 422 
Q 2459 422 2753 634 
Q 3047 847 3047 1241 
Q 3047 1584 2836 1778 
Q 2625 1972 2144 2069 
L 1759 2144 
Q 1053 2284 737 2584 
Q 422 2884 422 3419 
Q 422 4038 858 4394 
Q 1294 4750 2059 4750 
Q 2388 4750 2728 4690 
Q 3069 4631 3425 4513 
z
" id="DejaVuSans-53" transform="scale(0.015625)"/>
       <path d="M 3122 3366 
L 3122 2828 
Q 2878 2963 2633 3030 
Q 2388 3097 2138 3097 
Q 1578 3097 1268 2742 
Q 959 2388 959 1747 
Q 959 1106 1268 751 
Q 1578 397 2138 397 
Q 2388 397 2633 464 
Q 2878 531 3122 666 
L 3122 134 
Q 2881 22 2623 -34 
Q 2366 -91 2075 -91 
Q 1284 -91 818 406 
Q 353 903 353 1747 
Q 353 2603 823 3093 
Q 1294 3584 2113 3584 
Q 2378 3584 2631 3529 
Q 2884 3475 3122 3366 
z
" id="DejaVuSans-63" transform="scale(0.015625)"/>
      </defs>
      <use xlink:href="#DejaVuSans-50"/>
      <use x="60.302734" xlink:href="#DejaVuSans-68"/>
      <use x="123.681641" xlink:href="#DejaVuSans-72"/>
      <use x="162.544922" xlink:href="#DejaVuSans-65"/>
      <use x="224.068359" xlink:href="#DejaVuSans-64"/>
      <use x="287.544922" xlink:href="#DejaVuSans-20"/>
      <use x="319.332031" xlink:href="#DejaVuSans-53"/>
      <use x="382.808594" xlink:href="#DejaVuSans-63"/>
      <use x="437.789062" xlink:href="#DejaVuSans-6f"/>
      <use x="498.970703" xlink:href="#DejaVuSans-72"/>
      <use x="537.833984" xlink:href="#DejaVuSans-65"/>
     </g>
    </g>
   </g>
   <g id="line2d_9">
    <path clip-path="url(#pa96aaa6f76)" d="M 81.469943 118.015264 
L 90.240007 49.106275 
L 99.010072 45.66713 
L 107.780136 47.163562 
L 116.5502 44.122464 
L 125.320265 42.056505 
L 134.090329 41.624777 
L 142.860393 41.101363 
L 151.630457 40.522256 
L 160.400522 40.621135 
L 177.94065 39.830079 
L 195.480779 39.649363 
L 213.020907 36.141289 
L 230.561036 36.278896 
L 248.101164 35.925058 
L 265.641293 35.708017 
L 283.181422 35.828157 
L 300.72155 40.119507 
L 318.261679 40.003975 
L 335.801807 39.632908 
L 353.341936 39.702345 
L 370.882064 39.534851 
L 388.422193 38.628218 
L 405.962322 38.457708 
L 423.50245 38.34142 
L 441.042579 38.278715 
L 458.582707 38.119199 
L 476.122836 38.311349 
L 493.662964 38.315963 
L 511.203093 38.226275 
L 528.743221 38.118709 
L 546.28335 38.16105 
L 563.823479 38.472239 
L 581.363607 38.262873 
L 598.903736 38.58476 
L 616.443864 38.528136 
L 633.983993 38.59109 
L 651.524121 38.579873 
L 669.06425 38.741236 
L 686.604378 38.496177 
L 704.144507 38.387904 
L 721.684636 38.370964 
L 739.224764 38.284875 
L 756.764893 38.519791 
L 774.305021 38.514946 
L 791.84515 38.510985 
L 809.385278 38.603543 
L 826.925407 39.03001 
L 844.465535 38.691472 
L 862.005664 38.903422 
L 879.545793 38.86817 
L 897.085921 38.807669 
L 914.62605 38.875183 
L 932.166178 39.013302 
L 949.706307 38.696415 
" style="fill:none;stroke:#f0ad4e;stroke-linecap:square;"/>
   </g>
   <g id="line2d_10">
    <path clip-path="url(#pa96aaa6f76)" d="M 81.469943 120.211149 
L 90.240007 49.088855 
L 99.010072 45.656251 
L 107.780136 46.46688 
L 116.5502 44.08617 
L 125.320265 42.131425 
L 134.090329 41.791817 
L 142.860393 41.271752 
L 151.630457 40.713863 
L 160.400522 40.737064 
L 177.94065 39.926945 
L 195.480779 39.762017 
L 213.020907 36.224857 
L 230.561036 36.372122 
L 248.101164 36.010155 
L 265.641293 35.785797 
L 283.181422 35.869619 
L 300.72155 40.218949 
L 318.261679 40.096603 
L 335.801807 39.722498 
L 353.341936 39.783814 
L 370.882064 39.590709 
L 388.422193 38.718845 
L 405.962322 38.520008 
L 423.50245 38.42883 
L 441.042579 38.367876 
L 458.582707 38.175725 
L 476.122836 38.323379 
L 493.662964 38.257641 
L 511.203093 38.157823 
L 528.743221 38.122666 
L 546.28335 38.130947 
L 563.823479 38.379511 
L 581.363607 38.152069 
L 598.903736 38.450054 
L 616.443864 38.388402 
L 633.983993 38.438511 
L 651.524121 38.403531 
L 669.06425 38.546926 
L 686.604378 38.324234 
L 704.144507 38.237619 
L 721.684636 38.233761 
L 739.224764 38.146032 
L 756.764893 38.365443 
L 774.305021 38.363523 
L 791.84515 38.369192 
L 809.385278 38.472443 
L 826.925407 38.902635 
L 844.465535 38.531623 
L 862.005664 38.725912 
L 879.545793 38.693251 
L 897.085921 38.647657 
L 914.62605 38.706873 
L 932.166178 38.81274 
L 949.706307 38.43046 
" style="fill:none;stroke:#f0ad4e;stroke-linecap:square;"/>
   </g>
   <g id="line2d_11">
    <path clip-path="url(#pa96aaa6f76)" d="M 81.469943 117.251419 
L 90.240007 48.719745 
L 99.010072 45.13897 
L 107.780136 45.707388 
L 116.5502 43.790513 
L 125.320265 41.946372 
L 134.090329 41.748054 
L 142.860393 41.28848 
L 151.630457 40.762424 
L 160.400522 40.700105 
L 177.94065 39.907827 
L 195.480779 39.750363 
L 213.020907 36.289257 
L 230.561036 36.434191 
L 248.101164 36.056865 
L 265.641293 35.819067 
L 283.181422 35.914477 
L 300.72155 40.246244 
L 318.261679 40.131001 
L 335.801807 39.785232 
L 353.341936 39.84532 
L 370.882064 39.675543 
L 388.422193 38.80686 
L 405.962322 38.621468 
L 423.50245 38.529716 
L 441.042579 38.490884 
L 458.582707 38.307976 
L 476.122836 38.465496 
L 493.662964 38.406553 
L 511.203093 38.318717 
L 528.743221 38.281378 
L 546.28335 38.308734 
L 563.823479 38.569992 
L 581.363607 38.323474 
L 598.903736 38.632005 
L 616.443864 38.556077 
L 633.983993 38.626612 
L 651.524121 38.603811 
L 669.06425 38.754386 
L 686.604378 38.521945 
L 704.144507 38.455241 
L 721.684636 38.452654 
L 739.224764 38.392594 
L 756.764893 38.639698 
L 774.305021 38.655043 
L 791.84515 38.670113 
L 809.385278 38.786655 
L 826.925407 39.22964 
L 844.465535 38.862366 
L 862.005664 39.069536 
L 879.545793 39.058404 
L 897.085921 39.036704 
L 914.62605 39.11146 
L 932.166178 39.24427 
L 949.706307 38.870689 
" style="fill:none;stroke:#f0ad4e;stroke-linecap:square;"/>
   </g>
   <g id="line2d_12">
    <path clip-path="url(#pa96aaa6f76)" d="M 81.469943 116.247997 
L 90.240007 47.919804 
L 99.010072 45.047424 
L 107.780136 46.034242 
L 116.5502 43.922171 
L 125.320265 42.075993 
L 134.090329 41.819739 
L 142.860393 41.279667 
L 151.630457 40.717956 
L 160.400522 40.732491 
L 177.94065 39.922181 
L 195.480779 39.757806 
L 213.020907 36.328005 
L 230.561036 36.476498 
L 248.101164 36.097348 
L 265.641293 35.864939 
L 283.181422 35.963005 
L 300.72155 40.297081 
L 318.261679 40.19223 
L 335.801807 39.860422 
L 353.341936 39.912828 
L 370.882064 39.76123 
L 388.422193 38.902453 
L 405.962322 38.714775 
L 423.50245 38.618665 
L 441.042579 38.588299 
L 458.582707 38.409554 
L 476.122836 38.559495 
L 493.662964 38.486932 
L 511.203093 38.39985 
L 528.743221 38.385761 
L 546.28335 38.407172 
L 563.823479 38.667234 
L 581.363607 38.43463 
L 598.903736 38.718359 
L 616.443864 38.657739 
L 633.983993 38.726358 
L 651.524121 38.709329 
L 669.06425 38.862771 
L 686.604378 38.644377 
L 704.144507 38.565245 
L 721.684636 38.571597 
L 739.224764 38.523555 
L 756.764893 38.78133 
L 774.305021 38.787338 
L 791.84515 38.810302 
L 809.385278 38.936992 
L 826.925407 39.376894 
L 844.465535 39.031556 
L 862.005664 39.246808 
L 879.545793 39.241679 
L 897.085921 39.215509 
L 914.62605 39.297916 
L 932.166178 39.440217 
L 949.706307 39.019965 
" style="fill:none;stroke:#f0ad4e;stroke-linecap:square;"/>
   </g>
   <g id="line2d_13">
    <path clip-path="url(#pa96aaa6f76)" d="M 81.469943 118.790898 
L 90.240007 49.657345 
L 99.010072 46.022112 
L 107.780136 46.016752 
L 116.5502 44.181911 
L 125.320265 42.212301 
L 134.090329 42.012415 
L 142.860393 41.653064 
L 151.630457 41.08771 
L 160.400522 40.998827 
L 177.94065 40.22825 
L 195.480779 40.051409 
L 213.020907 36.410028 
L 230.561036 36.58108 
L 248.101164 36.178999 
L 265.641293 35.933861 
L 283.181422 36.036457 
L 300.72155 40.512284 
L 318.261679 40.376055 
L 335.801807 40.008767 
L 353.341936 40.086577 
L 370.882064 39.903292 
L 388.422193 38.998434 
L 405.962322 38.803782 
L 423.50245 38.691952 
L 441.042579 38.650458 
L 458.582707 38.451983 
L 476.122836 38.619043 
L 493.662964 38.562411 
L 511.203093 38.47622 
L 528.743221 38.503116 
L 546.28335 38.50539 
L 563.823479 38.777681 
L 581.363607 38.517893 
L 598.903736 38.806336 
L 616.443864 38.697058 
L 633.983993 38.767046 
L 651.524121 38.748577 
L 669.06425 38.914164 
L 686.604378 38.706568 
L 704.144507 38.621753 
L 721.684636 38.626382 
L 739.224764 38.555312 
L 756.764893 38.827148 
L 774.305021 38.849789 
L 791.84515 38.862309 
L 809.385278 38.983947 
L 826.925407 39.430888 
L 844.465535 39.088378 
L 862.005664 39.327156 
L 879.545793 39.315313 
L 897.085921 39.271749 
L 914.62605 39.357017 
L 932.166178 39.490898 
L 949.706307 39.125206 
" style="fill:none;stroke:#f0ad4e;stroke-linecap:square;"/>
   </g>
   <g id="line2d_14">
    <path clip-path="url(#pa96aaa6f76)" d="M 81.469943 117.5763 
L 90.240007 48.176147 
L 99.010072 44.928837 
L 107.780136 45.582407 
L 116.5502 43.724312 
L 125.320265 41.989376 
L 134.090329 41.815883 
L 142.860393 41.312517 
L 151.630457 40.776064 
L 160.400522 40.741183 
L 177.94065 39.930056 
L 195.480779 39.798322 
L 213.020907 36.300327 
L 230.561036 36.450731 
L 248.101164 36.075259 
L 265.641293 35.837407 
L 283.181422 35.934911 
L 300.72155 40.237844 
L 318.261679 40.13611 
L 335.801807 39.794999 
L 353.341936 39.851571 
L 370.882064 39.683883 
L 388.422193 38.806063 
L 405.962322 38.625112 
L 423.50245 38.531115 
L 441.042579 38.499435 
L 458.582707 38.308469 
L 476.122836 38.44596 
L 493.662964 38.371188 
L 511.203093 38.274393 
L 528.743221 38.274544 
L 546.28335 38.293807 
L 563.823479 38.545976 
L 581.363607 38.293849 
L 598.903736 38.584476 
L 616.443864 38.50637 
L 633.983993 38.572838 
L 651.524121 38.54132 
L 669.06425 38.688228 
L 686.604378 38.459907 
L 704.144507 38.39181 
L 721.684636 38.397518 
L 739.224764 38.340403 
L 756.764893 38.583523 
L 774.305021 38.60457 
L 791.84515 38.62617 
L 809.385278 38.749122 
L 826.925407 39.178885 
L 844.465535 38.822239 
L 862.005664 39.033058 
L 879.545793 39.03468 
L 897.085921 39.006695 
L 914.62605 39.097849 
L 932.166178 39.230717 
L 949.706307 38.816478 
" style="fill:none;stroke:#f0ad4e;stroke-linecap:square;"/>
   </g>
   <g id="line2d_15">
    <path clip-path="url(#pa96aaa6f76)" d="M 38.058125 273.99006 
L 993.118125 273.99006 
" style="fill:none;stroke:#dedede;stroke-linecap:square;stroke-width:2;"/>
   </g>
   <g id="text_17">
    <!-- FastQC: Mean Quality Scores -->
    <g transform="translate(400.349375 19.3575)scale(0.16 -0.16)">
     <defs>
      <path d="M 628 4666 
L 3309 4666 
L 3309 4134 
L 1259 4134 
L 1259 2759 
L 3109 2759 
L 3109 2228 
L 1259 2228 
L 1259 0 
L 628 0 
L 628 4666 
z
" id="DejaVuSans-46" transform="scale(0.015625)"/>
      <path d="M 2194 1759 
Q 1497 1759 1228 1600 
Q 959 1441 959 1056 
Q 959 750 1161 570 
Q 1363 391 1709 391 
Q 2188 391 2477 730 
Q 2766 1069 2766 1631 
L 2766 1759 
L 2194 1759 
z
M 3341 1997 
L 3341 0 
L 2766 0 
L 2766 531 
Q 2569 213 2275 61 
Q 1981 -91 1556 -91 
Q 1019 -91 701 211 
Q 384 513 384 1019 
Q 384 1609 779 1909 
Q 1175 2209 1959 2209 
L 2766 2209 
L 2766 2266 
Q 2766 2663 2505 2880 
Q 2244 3097 1772 3097 
Q 1472 3097 1187 3025 
Q 903 2953 641 2809 
L 641 3341 
Q 956 3463 1253 3523 
Q 1550 3584 1831 3584 
Q 2591 3584 2966 3190 
Q 3341 2797 3341 1997 
z
" id="DejaVuSans-61" transform="scale(0.015625)"/>
      <path d="M 2522 4238 
Q 1834 4238 1429 3725 
Q 1025 3213 1025 2328 
Q 1025 1447 1429 934 
Q 1834 422 2522 422 
Q 3209 422 3611 934 
Q 4013 1447 4013 2328 
Q 4013 3213 3611 3725 
Q 3209 4238 2522 4238 
z
M 3406 84 
L 4238 -825 
L 3475 -825 
L 2784 -78 
Q 2681 -84 2626 -87 
Q 2572 -91 2522 -91 
Q 1538 -91 948 567 
Q 359 1225 359 2328 
Q 359 3434 948 4092 
Q 1538 4750 2522 4750 
Q 3503 4750 4090 4092 
Q 4678 3434 4678 2328 
Q 4678 1516 4351 937 
Q 4025 359 3406 84 
z
" id="DejaVuSans-51" transform="scale(0.015625)"/>
      <path d="M 4122 4306 
L 4122 3641 
Q 3803 3938 3442 4084 
Q 3081 4231 2675 4231 
Q 1875 4231 1450 3742 
Q 1025 3253 1025 2328 
Q 1025 1406 1450 917 
Q 1875 428 2675 428 
Q 3081 428 3442 575 
Q 3803 722 4122 1019 
L 4122 359 
Q 3791 134 3420 21 
Q 3050 -91 2638 -91 
Q 1578 -91 968 557 
Q 359 1206 359 2328 
Q 359 3453 968 4101 
Q 1578 4750 2638 4750 
Q 3056 4750 3426 4639 
Q 3797 4528 4122 4306 
z
" id="DejaVuSans-43" transform="scale(0.015625)"/>
      <path d="M 750 794 
L 1409 794 
L 1409 0 
L 750 0 
L 750 794 
z
M 750 3309 
L 1409 3309 
L 1409 2516 
L 750 2516 
L 750 3309 
z
" id="DejaVuSans-3a" transform="scale(0.015625)"/>
      <path d="M 628 4666 
L 1569 4666 
L 2759 1491 
L 3956 4666 
L 4897 4666 
L 4897 0 
L 4281 0 
L 4281 4097 
L 3078 897 
L 2444 897 
L 1241 4097 
L 1241 0 
L 628 0 
L 628 4666 
z
" id="DejaVuSans-4d" transform="scale(0.015625)"/>
      <path d="M 544 1381 
L 544 3500 
L 1119 3500 
L 1119 1403 
Q 1119 906 1312 657 
Q 1506 409 1894 409 
Q 2359 409 2629 706 
Q 2900 1003 2900 1516 
L 2900 3500 
L 3475 3500 
L 3475 0 
L 2900 0 
L 2900 538 
Q 2691 219 2414 64 
Q 2138 -91 1772 -91 
Q 1169 -91 856 284 
Q 544 659 544 1381 
z
M 1991 3584 
L 1991 3584 
z
" id="DejaVuSans-75" transform="scale(0.015625)"/>
      <path d="M 603 4863 
L 1178 4863 
L 1178 0 
L 603 0 
L 603 4863 
z
" id="DejaVuSans-6c" transform="scale(0.015625)"/>
      <path d="M 2059 -325 
Q 1816 -950 1584 -1140 
Q 1353 -1331 966 -1331 
L 506 -1331 
L 506 -850 
L 844 -850 
Q 1081 -850 1212 -737 
Q 1344 -625 1503 -206 
L 1606 56 
L 191 3500 
L 800 3500 
L 1894 763 
L 2988 3500 
L 3597 3500 
L 2059 -325 
z
" id="DejaVuSans-79" transform="scale(0.015625)"/>
     </defs>
     <use xlink:href="#DejaVuSans-46"/>
     <use x="48.394531" xlink:href="#DejaVuSans-61"/>
     <use x="109.673828" xlink:href="#DejaVuSans-73"/>
     <use x="161.773438" xlink:href="#DejaVuSans-74"/>
     <use x="200.982422" xlink:href="#DejaVuSans-51"/>
     <use x="279.693359" xlink:href="#DejaVuSans-43"/>
     <use x="349.517578" xlink:href="#DejaVuSans-3a"/>
     <use x="383.208984" xlink:href="#DejaVuSans-20"/>
     <use x="414.996094" xlink:href="#DejaVuSans-4d"/>
     <use x="501.275391" xlink:href="#DejaVuSans-65"/>
     <use x="562.798828" xlink:href="#DejaVuSans-61"/>
     <use x="624.078125" xlink:href="#DejaVuSans-6e"/>
     <use x="687.457031" xlink:href="#DejaVuSans-20"/>
     <use x="719.244141" xlink:href="#DejaVuSans-51"/>
     <use x="797.955078" xlink:href="#DejaVuSans-75"/>
     <use x="861.333984" xlink:href="#DejaVuSans-61"/>
     <use x="922.613281" xlink:href="#DejaVuSans-6c"/>
     <use x="950.396484" xlink:href="#DejaVuSans-69"/>
     <use x="978.179688" xlink:href="#DejaVuSans-74"/>
     <use x="1017.388672" xlink:href="#DejaVuSans-79"/>
     <use x="1076.568359" xlink:href="#DejaVuSans-20"/>
     <use x="1108.355469" xlink:href="#DejaVuSans-53"/>
     <use x="1171.832031" xlink:href="#DejaVuSans-63"/>
     <use x="1226.8125" xlink:href="#DejaVuSans-6f"/>
     <use x="1287.994141" xlink:href="#DejaVuSans-72"/>
     <use x="1326.857422" xlink:href="#DejaVuSans-65"/>
     <use x="1388.380859" xlink:href="#DejaVuSans-73"/>
    </g>
   </g>
   <g id="legend_1">
    <g id="line2d_16">
     <path d="M 45.258125 303.935394 
L 61.258125 303.935394 
" style="fill:none;stroke:#f0ad4e;stroke-linecap:square;"/>
    </g>
    <g id="line2d_17"/>
    <g id="text_18">
     <!-- 1O -->
     <g transform="translate(67.658125 306.735394)scale(0.08 -0.08)">
      <defs>
       <path d="M 2522 4238 
Q 1834 4238 1429 3725 
Q 1025 3213 1025 2328 
Q 1025 1447 1429 934 
Q 1834 422 2522 422 
Q 3209 422 3611 934 
Q 4013 1447 4013 2328 
Q 4013 3213 3611 3725 
Q 3209 4238 2522 4238 
z
M 2522 4750 
Q 3503 4750 4090 4092 
Q 4678 3434 4678 2328 
Q 4678 1225 4090 567 
Q 3503 -91 2522 -91 
Q 1538 -91 948 565 
Q 359 1222 359 2328 
Q 359 3434 948 4092 
Q 1538 4750 2522 4750 
z
" id="DejaVuSans-4f" transform="scale(0.015625)"/>
      </defs>
      <use xlink:href="#DejaVuSans-31"/>
      <use x="63.623047" xlink:href="#DejaVuSans-4f"/>
     </g>
    </g>
    <g id="line2d_18">
     <path d="M 45.258125 315.677894 
L 61.258125 315.677894 
" style="fill:none;stroke:#f0ad4e;stroke-linecap:square;"/>
    </g>
    <g id="line2d_19"/>
    <g id="text_19">
     <!-- 2O -->
     <g transform="translate(67.658125 318.477894)scale(0.08 -0.08)">
      <use xlink:href="#DejaVuSans-32"/>
      <use x="63.623047" xlink:href="#DejaVuSans-4f"/>
     </g>
    </g>
    <g id="line2d_20">
     <path d="M 262.446563 303.935394 
L 278.446563 303.935394 
" style="fill:none;stroke:#f0ad4e;stroke-linecap:square;"/>
    </g>
    <g id="line2d_21"/>
    <g id="text_20">
     <!-- 3O -->
     <g transform="translate(284.846563 306.735394)scale(0.08 -0.08)">
      <use xlink:href="#DejaVuSans-33"/>
      <use x="63.623047" xlink:href="#DejaVuSans-4f"/>
     </g>
    </g>
    <g id="line2d_22">
     <path d="M 479.635 303.935394 
L 495.635 303.935394 
" style="fill:none;stroke:#f0ad4e;stroke-linecap:square;"/>
    </g>
    <g id="line2d_23"/>
    <g id="text_21">
     <!-- P11_1 -->
     <g transform="translate(502.035 306.735394)scale(0.08 -0.08)">
      <defs>
       <path d="M 3263 -1063 
L 3263 -1509 
L -63 -1509 
L -63 -1063 
L 3263 -1063 
z
" id="DejaVuSans-5f" transform="scale(0.015625)"/>
      </defs>
      <use xlink:href="#DejaVuSans-50"/>
      <use x="60.302734" xlink:href="#DejaVuSans-31"/>
      <use x="123.925781" xlink:href="#DejaVuSans-31"/>
      <use x="187.548828" xlink:href="#DejaVuSans-5f"/>
      <use x="237.548828" xlink:href="#DejaVuSans-31"/>
     </g>
    </g>
    <g id="line2d_24">
     <path d="M 709.529688 303.935394 
L 725.529688 303.935394 
" style="fill:none;stroke:#f0ad4e;stroke-linecap:square;"/>
    </g>
    <g id="line2d_25"/>
    <g id="text_22">
     <!-- P11_2 -->
     <g transform="translate(731.929688 306.735394)scale(0.08 -0.08)">
      <use xlink:href="#DejaVuSans-50"/>
      <use x="60.302734" xlink:href="#DejaVuSans-31"/>
      <use x="123.925781" xlink:href="#DejaVuSans-31"/>
      <use x="187.548828" xlink:href="#DejaVuSans-5f"/>
      <use x="237.548828" xlink:href="#DejaVuSans-32"/>
     </g>
    </g>
    <g id="line2d_26">
     <path d="M 939.424375 303.935394 
L 955.424375 303.935394 
" style="fill:none;stroke:#f0ad4e;stroke-linecap:square;"/>
    </g>
    <g id="line2d_27"/>
    <g id="text_23">
     <!-- P11_3 -->
     <g transform="translate(961.824375 306.735394)scale(0.08 -0.08)">
      <use xlink:href="#DejaVuSans-50"/>
      <use x="60.302734" xlink:href="#DejaVuSans-31"/>
      <use x="123.925781" xlink:href="#DejaVuSans-31"/>
      <use x="187.548828" xlink:href="#DejaVuSans-5f"/>
      <use x="237.548828" xlink:href="#DejaVuSans-33"/>
     </g>
    </g>
   </g>
  </g>
 </g>
 <defs>
  <clipPath id="pa96aaa6f76">
   <rect height="242.5072" width="955.06" x="38.058125" y="31.48286"/>
  </clipPath>
 </defs>
</svg>
