<?xml version="1.0" encoding="utf-8" standalone="no"?>
<!DOCTYPE svg PUBLIC "-//W3C//DTD SVG 1.1//EN"
  "http://www.w3.org/Graphics/SVG/1.1/DTD/svg11.dtd">
<svg height="330.541644pt" version="1.1" viewBox="0 0 1000.198125 330.541644" width="1000.198125pt" xmlns="http://www.w3.org/2000/svg" xmlns:xlink="http://www.w3.org/1999/xlink">
 <metadata>
  <rdf:RDF xmlns:cc="http://creativecommons.org/ns#" xmlns:dc="http://purl.org/dc/elements/1.1/" xmlns:rdf="http://www.w3.org/1999/02/22-rdf-syntax-ns#">
   <cc:Work>
    <dc:type rdf:resource="http://purl.org/dc/dcmitype/StillImage"/>
    <dc:date>2024-09-06T15:37:39.519521</dc:date>
    <dc:format>image/svg+xml</dc:format>
    <dc:creator>
     <cc:Agent>
      <dc:title>Matplotlib v3.4.2, https://matplotlib.org/</dc:title>
     </cc:Agent>
    </dc:creator>
   </cc:Work>
  </rdf:RDF>
 </metadata>
 <defs>
  <style type="text/css">*{stroke-linecap:butt;stroke-linejoin:round;}</style>
 </defs>
 <g id="figure_1">
  <g id="axes_1">
   <g id="patch_1">
    <path d="M 53.328125 273.99006 
L 992.998125 273.99006 
L 992.998125 31.48286 
L 53.328125 31.48286 
z
" style="fill:#ffffff;"/>
   </g>
   <g id="matplotlib.axis_1">
    <g id="xtick_1">
     <g id="text_1">
      <!-- 0 -->
      <g transform="translate(84.866656 287.06881)scale(0.08 -0.08)">
       <defs>
        <path d="M 2034 4250 
Q 1547 4250 1301 3770 
Q 1056 3291 1056 2328 
Q 1056 1369 1301 889 
Q 1547 409 2034 409 
Q 2525 409 2770 889 
Q 3016 1369 3016 2328 
Q 3016 3291 2770 3770 
Q 2525 4250 2034 4250 
z
M 2034 4750 
Q 2819 4750 3233 4129 
Q 3647 3509 3647 2328 
Q 3647 1150 3233 529 
Q 2819 -91 2034 -91 
Q 1250 -91 836 529 
Q 422 1150 422 2328 
Q 422 3509 836 4129 
Q 1250 4750 2034 4750 
z
" id="DejaVuSans-30" transform="scale(0.015625)"/>
       </defs>
       <use xlink:href="#DejaVuSans-30"/>
      </g>
     </g>
    </g>
    <g id="xtick_2">
     <g id="text_2">
      <!-- 20 -->
      <g transform="translate(254.896495 287.06881)scale(0.08 -0.08)">
       <defs>
        <path d="M 1228 531 
L 3431 531 
L 3431 0 
L 469 0 
L 469 531 
Q 828 903 1448 1529 
Q 2069 2156 2228 2338 
Q 2531 2678 2651 2914 
Q 2772 3150 2772 3378 
Q 2772 3750 2511 3984 
Q 2250 4219 1831 4219 
Q 1534 4219 1204 4116 
Q 875 4013 500 3803 
L 500 4441 
Q 881 4594 1212 4672 
Q 1544 4750 1819 4750 
Q 2544 4750 2975 4387 
Q 3406 4025 3406 3419 
Q 3406 3131 3298 2873 
Q 3191 2616 2906 2266 
Q 2828 2175 2409 1742 
Q 1991 1309 1228 531 
z
" id="DejaVuSans-32" transform="scale(0.015625)"/>
       </defs>
       <use xlink:href="#DejaVuSans-32"/>
       <use x="63.623047" xlink:href="#DejaVuSans-30"/>
      </g>
     </g>
    </g>
    <g id="xtick_3">
     <g id="text_3">
      <!-- 40 -->
      <g transform="translate(427.471334 287.06881)scale(0.08 -0.08)">
       <defs>
        <path d="M 2419 4116 
L 825 1625 
L 2419 1625 
L 2419 4116 
z
M 2253 4666 
L 3047 4666 
L 3047 1625 
L 3713 1625 
L 3713 1100 
L 3047 1100 
L 3047 0 
L 2419 0 
L 2419 1100 
L 313 1100 
L 313 1709 
L 2253 4666 
z
" id="DejaVuSans-34" transform="scale(0.015625)"/>
       </defs>
       <use xlink:href="#DejaVuSans-34"/>
       <use x="63.623047" xlink:href="#DejaVuSans-30"/>
      </g>
     </g>
    </g>
    <g id="xtick_4">
     <g id="text_4">
      <!-- 60 -->
      <g transform="translate(600.046174 287.06881)scale(0.08 -0.08)">
       <defs>
        <path d="M 2113 2584 
Q 1688 2584 1439 2293 
Q 1191 2003 1191 1497 
Q 1191 994 1439 701 
Q 1688 409 2113 409 
Q 2538 409 2786 701 
Q 3034 994 3034 1497 
Q 3034 2003 2786 2293 
Q 2538 2584 2113 2584 
z
M 3366 4563 
L 3366 3988 
Q 3128 4100 2886 4159 
Q 2644 4219 2406 4219 
Q 1781 4219 1451 3797 
Q 1122 3375 1075 2522 
Q 1259 2794 1537 2939 
Q 1816 3084 2150 3084 
Q 2853 3084 3261 2657 
Q 3669 2231 3669 1497 
Q 3669 778 3244 343 
Q 2819 -91 2113 -91 
Q 1303 -91 875 529 
Q 447 1150 447 2328 
Q 447 3434 972 4092 
Q 1497 4750 2381 4750 
Q 2619 4750 2861 4703 
Q 3103 4656 3366 4563 
z
" id="DejaVuSans-36" transform="scale(0.015625)"/>
       </defs>
       <use xlink:href="#DejaVuSans-36"/>
       <use x="63.623047" xlink:href="#DejaVuSans-30"/>
      </g>
     </g>
    </g>
    <g id="xtick_5">
     <g id="text_5">
      <!-- 80 -->
      <g transform="translate(772.621013 287.06881)scale(0.08 -0.08)">
       <defs>
        <path d="M 2034 2216 
Q 1584 2216 1326 1975 
Q 1069 1734 1069 1313 
Q 1069 891 1326 650 
Q 1584 409 2034 409 
Q 2484 409 2743 651 
Q 3003 894 3003 1313 
Q 3003 1734 2745 1975 
Q 2488 2216 2034 2216 
z
M 1403 2484 
Q 997 2584 770 2862 
Q 544 3141 544 3541 
Q 544 4100 942 4425 
Q 1341 4750 2034 4750 
Q 2731 4750 3128 4425 
Q 3525 4100 3525 3541 
Q 3525 3141 3298 2862 
Q 3072 2584 2669 2484 
Q 3125 2378 3379 2068 
Q 3634 1759 3634 1313 
Q 3634 634 3220 271 
Q 2806 -91 2034 -91 
Q 1263 -91 848 271 
Q 434 634 434 1313 
Q 434 1759 690 2068 
Q 947 2378 1403 2484 
z
M 1172 3481 
Q 1172 3119 1398 2916 
Q 1625 2713 2034 2713 
Q 2441 2713 2670 2916 
Q 2900 3119 2900 3481 
Q 2900 3844 2670 4047 
Q 2441 4250 2034 4250 
Q 1625 4250 1398 4047 
Q 1172 3844 1172 3481 
z
" id="DejaVuSans-38" transform="scale(0.015625)"/>
       </defs>
       <use xlink:href="#DejaVuSans-38"/>
       <use x="63.623047" xlink:href="#DejaVuSans-30"/>
      </g>
     </g>
    </g>
    <g id="xtick_6">
     <g id="text_6">
      <!-- 100 -->
      <g transform="translate(942.650852 287.06881)scale(0.08 -0.08)">
       <defs>
        <path d="M 794 531 
L 1825 531 
L 1825 4091 
L 703 3866 
L 703 4441 
L 1819 4666 
L 2450 4666 
L 2450 531 
L 3481 531 
L 3481 0 
L 794 0 
L 794 531 
z
" id="DejaVuSans-31" transform="scale(0.015625)"/>
       </defs>
       <use xlink:href="#DejaVuSans-31"/>
       <use x="63.623047" xlink:href="#DejaVuSans-30"/>
       <use x="127.246094" xlink:href="#DejaVuSans-30"/>
      </g>
     </g>
    </g>
    <g id="text_7">
     <!-- Length Trimmed (bp) -->
     <g transform="translate(470.735781 300.330997)scale(0.1 -0.1)">
      <defs>
       <path d="M 628 4666 
L 1259 4666 
L 1259 531 
L 3531 531 
L 3531 0 
L 628 0 
L 628 4666 
z
" id="DejaVuSans-4c" transform="scale(0.015625)"/>
       <path d="M 3597 1894 
L 3597 1613 
L 953 1613 
Q 991 1019 1311 708 
Q 1631 397 2203 397 
Q 2534 397 2845 478 
Q 3156 559 3463 722 
L 3463 178 
Q 3153 47 2828 -22 
Q 2503 -91 2169 -91 
Q 1331 -91 842 396 
Q 353 884 353 1716 
Q 353 2575 817 3079 
Q 1281 3584 2069 3584 
Q 2775 3584 3186 3129 
Q 3597 2675 3597 1894 
z
M 3022 2063 
Q 3016 2534 2758 2815 
Q 2500 3097 2075 3097 
Q 1594 3097 1305 2825 
Q 1016 2553 972 2059 
L 3022 2063 
z
" id="DejaVuSans-65" transform="scale(0.015625)"/>
       <path d="M 3513 2113 
L 3513 0 
L 2938 0 
L 2938 2094 
Q 2938 2591 2744 2837 
Q 2550 3084 2163 3084 
Q 1697 3084 1428 2787 
Q 1159 2491 1159 1978 
L 1159 0 
L 581 0 
L 581 3500 
L 1159 3500 
L 1159 2956 
Q 1366 3272 1645 3428 
Q 1925 3584 2291 3584 
Q 2894 3584 3203 3211 
Q 3513 2838 3513 2113 
z
" id="DejaVuSans-6e" transform="scale(0.015625)"/>
       <path d="M 2906 1791 
Q 2906 2416 2648 2759 
Q 2391 3103 1925 3103 
Q 1463 3103 1205 2759 
Q 947 2416 947 1791 
Q 947 1169 1205 825 
Q 1463 481 1925 481 
Q 2391 481 2648 825 
Q 2906 1169 2906 1791 
z
M 3481 434 
Q 3481 -459 3084 -895 
Q 2688 -1331 1869 -1331 
Q 1566 -1331 1297 -1286 
Q 1028 -1241 775 -1147 
L 775 -588 
Q 1028 -725 1275 -790 
Q 1522 -856 1778 -856 
Q 2344 -856 2625 -561 
Q 2906 -266 2906 331 
L 2906 616 
Q 2728 306 2450 153 
Q 2172 0 1784 0 
Q 1141 0 747 490 
Q 353 981 353 1791 
Q 353 2603 747 3093 
Q 1141 3584 1784 3584 
Q 2172 3584 2450 3431 
Q 2728 3278 2906 2969 
L 2906 3500 
L 3481 3500 
L 3481 434 
z
" id="DejaVuSans-67" transform="scale(0.015625)"/>
       <path d="M 1172 4494 
L 1172 3500 
L 2356 3500 
L 2356 3053 
L 1172 3053 
L 1172 1153 
Q 1172 725 1289 603 
Q 1406 481 1766 481 
L 2356 481 
L 2356 0 
L 1766 0 
Q 1100 0 847 248 
Q 594 497 594 1153 
L 594 3053 
L 172 3053 
L 172 3500 
L 594 3500 
L 594 4494 
L 1172 4494 
z
" id="DejaVuSans-74" transform="scale(0.015625)"/>
       <path d="M 3513 2113 
L 3513 0 
L 2938 0 
L 2938 2094 
Q 2938 2591 2744 2837 
Q 2550 3084 2163 3084 
Q 1697 3084 1428 2787 
Q 1159 2491 1159 1978 
L 1159 0 
L 581 0 
L 581 4863 
L 1159 4863 
L 1159 2956 
Q 1366 3272 1645 3428 
Q 1925 3584 2291 3584 
Q 2894 3584 3203 3211 
Q 3513 2838 3513 2113 
z
" id="DejaVuSans-68" transform="scale(0.015625)"/>
       <path id="DejaVuSans-20" transform="scale(0.015625)"/>
       <path d="M -19 4666 
L 3928 4666 
L 3928 4134 
L 2272 4134 
L 2272 0 
L 1638 0 
L 1638 4134 
L -19 4134 
L -19 4666 
z
" id="DejaVuSans-54" transform="scale(0.015625)"/>
       <path d="M 2631 2963 
Q 2534 3019 2420 3045 
Q 2306 3072 2169 3072 
Q 1681 3072 1420 2755 
Q 1159 2438 1159 1844 
L 1159 0 
L 581 0 
L 581 3500 
L 1159 3500 
L 1159 2956 
Q 1341 3275 1631 3429 
Q 1922 3584 2338 3584 
Q 2397 3584 2469 3576 
Q 2541 3569 2628 3553 
L 2631 2963 
z
" id="DejaVuSans-72" transform="scale(0.015625)"/>
       <path d="M 603 3500 
L 1178 3500 
L 1178 0 
L 603 0 
L 603 3500 
z
M 603 4863 
L 1178 4863 
L 1178 4134 
L 603 4134 
L 603 4863 
z
" id="DejaVuSans-69" transform="scale(0.015625)"/>
       <path d="M 3328 2828 
Q 3544 3216 3844 3400 
Q 4144 3584 4550 3584 
Q 5097 3584 5394 3201 
Q 5691 2819 5691 2113 
L 5691 0 
L 5113 0 
L 5113 2094 
Q 5113 2597 4934 2840 
Q 4756 3084 4391 3084 
Q 3944 3084 3684 2787 
Q 3425 2491 3425 1978 
L 3425 0 
L 2847 0 
L 2847 2094 
Q 2847 2600 2669 2842 
Q 2491 3084 2119 3084 
Q 1678 3084 1418 2786 
Q 1159 2488 1159 1978 
L 1159 0 
L 581 0 
L 581 3500 
L 1159 3500 
L 1159 2956 
Q 1356 3278 1631 3431 
Q 1906 3584 2284 3584 
Q 2666 3584 2933 3390 
Q 3200 3197 3328 2828 
z
" id="DejaVuSans-6d" transform="scale(0.015625)"/>
       <path d="M 2906 2969 
L 2906 4863 
L 3481 4863 
L 3481 0 
L 2906 0 
L 2906 525 
Q 2725 213 2448 61 
Q 2172 -91 1784 -91 
Q 1150 -91 751 415 
Q 353 922 353 1747 
Q 353 2572 751 3078 
Q 1150 3584 1784 3584 
Q 2172 3584 2448 3432 
Q 2725 3281 2906 2969 
z
M 947 1747 
Q 947 1113 1208 752 
Q 1469 391 1925 391 
Q 2381 391 2643 752 
Q 2906 1113 2906 1747 
Q 2906 2381 2643 2742 
Q 2381 3103 1925 3103 
Q 1469 3103 1208 2742 
Q 947 2381 947 1747 
z
" id="DejaVuSans-64" transform="scale(0.015625)"/>
       <path d="M 1984 4856 
Q 1566 4138 1362 3434 
Q 1159 2731 1159 2009 
Q 1159 1288 1364 580 
Q 1569 -128 1984 -844 
L 1484 -844 
Q 1016 -109 783 600 
Q 550 1309 550 2009 
Q 550 2706 781 3412 
Q 1013 4119 1484 4856 
L 1984 4856 
z
" id="DejaVuSans-28" transform="scale(0.015625)"/>
       <path d="M 3116 1747 
Q 3116 2381 2855 2742 
Q 2594 3103 2138 3103 
Q 1681 3103 1420 2742 
Q 1159 2381 1159 1747 
Q 1159 1113 1420 752 
Q 1681 391 2138 391 
Q 2594 391 2855 752 
Q 3116 1113 3116 1747 
z
M 1159 2969 
Q 1341 3281 1617 3432 
Q 1894 3584 2278 3584 
Q 2916 3584 3314 3078 
Q 3713 2572 3713 1747 
Q 3713 922 3314 415 
Q 2916 -91 2278 -91 
Q 1894 -91 1617 61 
Q 1341 213 1159 525 
L 1159 0 
L 581 0 
L 581 4863 
L 1159 4863 
L 1159 2969 
z
" id="DejaVuSans-62" transform="scale(0.015625)"/>
       <path d="M 1159 525 
L 1159 -1331 
L 581 -1331 
L 581 3500 
L 1159 3500 
L 1159 2969 
Q 1341 3281 1617 3432 
Q 1894 3584 2278 3584 
Q 2916 3584 3314 3078 
Q 3713 2572 3713 1747 
Q 3713 922 3314 415 
Q 2916 -91 2278 -91 
Q 1894 -91 1617 61 
Q 1341 213 1159 525 
z
M 3116 1747 
Q 3116 2381 2855 2742 
Q 2594 3103 2138 3103 
Q 1681 3103 1420 2742 
Q 1159 2381 1159 1747 
Q 1159 1113 1420 752 
Q 1681 391 2138 391 
Q 2594 391 2855 752 
Q 3116 1113 3116 1747 
z
" id="DejaVuSans-70" transform="scale(0.015625)"/>
       <path d="M 513 4856 
L 1013 4856 
Q 1481 4119 1714 3412 
Q 1947 2706 1947 2009 
Q 1947 1309 1714 600 
Q 1481 -109 1013 -844 
L 513 -844 
Q 928 -128 1133 580 
Q 1338 1288 1338 2009 
Q 1338 2731 1133 3434 
Q 928 4138 513 4856 
z
" id="DejaVuSans-29" transform="scale(0.015625)"/>
      </defs>
      <use xlink:href="#DejaVuSans-4c"/>
      <use x="53.962891" xlink:href="#DejaVuSans-65"/>
      <use x="115.486328" xlink:href="#DejaVuSans-6e"/>
      <use x="178.865234" xlink:href="#DejaVuSans-67"/>
      <use x="242.341797" xlink:href="#DejaVuSans-74"/>
      <use x="281.550781" xlink:href="#DejaVuSans-68"/>
      <use x="344.929688" xlink:href="#DejaVuSans-20"/>
      <use x="376.716797" xlink:href="#DejaVuSans-54"/>
      <use x="423.050781" xlink:href="#DejaVuSans-72"/>
      <use x="464.164062" xlink:href="#DejaVuSans-69"/>
      <use x="491.947266" xlink:href="#DejaVuSans-6d"/>
      <use x="589.359375" xlink:href="#DejaVuSans-6d"/>
      <use x="686.771484" xlink:href="#DejaVuSans-65"/>
      <use x="748.294922" xlink:href="#DejaVuSans-64"/>
      <use x="811.771484" xlink:href="#DejaVuSans-20"/>
      <use x="843.558594" xlink:href="#DejaVuSans-28"/>
      <use x="882.572266" xlink:href="#DejaVuSans-62"/>
      <use x="946.048828" xlink:href="#DejaVuSans-70"/>
      <use x="1009.525391" xlink:href="#DejaVuSans-29"/>
     </g>
    </g>
   </g>
   <g id="matplotlib.axis_2">
    <g id="ytick_1">
     <g id="line2d_1">
      <path clip-path="url(#p4fab226791)" d="M 53.328125 273.99006 
L 992.998125 273.99006 
" style="fill:none;stroke:#dedede;stroke-linecap:square;"/>
     </g>
     <g id="text_8">
      <!-- 0 -->
      <g transform="translate(41.238125 277.029435)scale(0.08 -0.08)">
       <use xlink:href="#DejaVuSans-30"/>
      </g>
     </g>
    </g>
    <g id="ytick_2">
     <g id="line2d_2">
      <path clip-path="url(#p4fab226791)" d="M 53.328125 246.874693 
L 992.998125 246.874693 
" style="fill:none;stroke:#dedede;stroke-linecap:square;"/>
     </g>
     <g id="text_9">
      <!-- 2000 -->
      <g transform="translate(25.968125 249.914068)scale(0.08 -0.08)">
       <use xlink:href="#DejaVuSans-32"/>
       <use x="63.623047" xlink:href="#DejaVuSans-30"/>
       <use x="127.246094" xlink:href="#DejaVuSans-30"/>
       <use x="190.869141" xlink:href="#DejaVuSans-30"/>
      </g>
     </g>
    </g>
    <g id="ytick_3">
     <g id="line2d_3">
      <path clip-path="url(#p4fab226791)" d="M 53.328125 219.759326 
L 992.998125 219.759326 
" style="fill:none;stroke:#dedede;stroke-linecap:square;"/>
     </g>
     <g id="text_10">
      <!-- 4000 -->
      <g transform="translate(25.968125 222.798701)scale(0.08 -0.08)">
       <use xlink:href="#DejaVuSans-34"/>
       <use x="63.623047" xlink:href="#DejaVuSans-30"/>
       <use x="127.246094" xlink:href="#DejaVuSans-30"/>
       <use x="190.869141" xlink:href="#DejaVuSans-30"/>
      </g>
     </g>
    </g>
    <g id="ytick_4">
     <g id="line2d_4">
      <path clip-path="url(#p4fab226791)" d="M 53.328125 192.643959 
L 992.998125 192.643959 
" style="fill:none;stroke:#dedede;stroke-linecap:square;"/>
     </g>
     <g id="text_11">
      <!-- 6000 -->
      <g transform="translate(25.968125 195.683334)scale(0.08 -0.08)">
       <use xlink:href="#DejaVuSans-36"/>
       <use x="63.623047" xlink:href="#DejaVuSans-30"/>
       <use x="127.246094" xlink:href="#DejaVuSans-30"/>
       <use x="190.869141" xlink:href="#DejaVuSans-30"/>
      </g>
     </g>
    </g>
    <g id="ytick_5">
     <g id="line2d_5">
      <path clip-path="url(#p4fab226791)" d="M 53.328125 165.528592 
L 992.998125 165.528592 
" style="fill:none;stroke:#dedede;stroke-linecap:square;"/>
     </g>
     <g id="text_12">
      <!-- 8000 -->
      <g transform="translate(25.968125 168.567967)scale(0.08 -0.08)">
       <use xlink:href="#DejaVuSans-38"/>
       <use x="63.623047" xlink:href="#DejaVuSans-30"/>
       <use x="127.246094" xlink:href="#DejaVuSans-30"/>
       <use x="190.869141" xlink:href="#DejaVuSans-30"/>
      </g>
     </g>
    </g>
    <g id="ytick_6">
     <g id="line2d_6">
      <path clip-path="url(#p4fab226791)" d="M 53.328125 138.413225 
L 992.998125 138.413225 
" style="fill:none;stroke:#dedede;stroke-linecap:square;"/>
     </g>
     <g id="text_13">
      <!-- 10000 -->
      <g transform="translate(20.878125 141.4526)scale(0.08 -0.08)">
       <use xlink:href="#DejaVuSans-31"/>
       <use x="63.623047" xlink:href="#DejaVuSans-30"/>
       <use x="127.246094" xlink:href="#DejaVuSans-30"/>
       <use x="190.869141" xlink:href="#DejaVuSans-30"/>
       <use x="254.492188" xlink:href="#DejaVuSans-30"/>
      </g>
     </g>
    </g>
    <g id="ytick_7">
     <g id="line2d_7">
      <path clip-path="url(#p4fab226791)" d="M 53.328125 111.297858 
L 992.998125 111.297858 
" style="fill:none;stroke:#dedede;stroke-linecap:square;"/>
     </g>
     <g id="text_14">
      <!-- 12000 -->
      <g transform="translate(20.878125 114.337233)scale(0.08 -0.08)">
       <use xlink:href="#DejaVuSans-31"/>
       <use x="63.623047" xlink:href="#DejaVuSans-32"/>
       <use x="127.246094" xlink:href="#DejaVuSans-30"/>
       <use x="190.869141" xlink:href="#DejaVuSans-30"/>
       <use x="254.492188" xlink:href="#DejaVuSans-30"/>
      </g>
     </g>
    </g>
    <g id="ytick_8">
     <g id="line2d_8">
      <path clip-path="url(#p4fab226791)" d="M 53.328125 84.182491 
L 992.998125 84.182491 
" style="fill:none;stroke:#dedede;stroke-linecap:square;"/>
     </g>
     <g id="text_15">
      <!-- 14000 -->
      <g transform="translate(20.878125 87.221866)scale(0.08 -0.08)">
       <use xlink:href="#DejaVuSans-31"/>
       <use x="63.623047" xlink:href="#DejaVuSans-34"/>
       <use x="127.246094" xlink:href="#DejaVuSans-30"/>
       <use x="190.869141" xlink:href="#DejaVuSans-30"/>
       <use x="254.492188" xlink:href="#DejaVuSans-30"/>
      </g>
     </g>
    </g>
    <g id="ytick_9">
     <g id="line2d_9">
      <path clip-path="url(#p4fab226791)" d="M 53.328125 57.067123 
L 992.998125 57.067123 
" style="fill:none;stroke:#dedede;stroke-linecap:square;"/>
     </g>
     <g id="text_16">
      <!-- 16000 -->
      <g transform="translate(20.878125 60.106498)scale(0.08 -0.08)">
       <use xlink:href="#DejaVuSans-31"/>
       <use x="63.623047" xlink:href="#DejaVuSans-36"/>
       <use x="127.246094" xlink:href="#DejaVuSans-30"/>
       <use x="190.869141" xlink:href="#DejaVuSans-30"/>
       <use x="254.492188" xlink:href="#DejaVuSans-30"/>
      </g>
     </g>
    </g>
    <g id="text_17">
     <!-- Observed / Expected -->
     <g transform="translate(14.798438 204.985679)rotate(-90)scale(0.1 -0.1)">
      <defs>
       <path d="M 2522 4238 
Q 1834 4238 1429 3725 
Q 1025 3213 1025 2328 
Q 1025 1447 1429 934 
Q 1834 422 2522 422 
Q 3209 422 3611 934 
Q 4013 1447 4013 2328 
Q 4013 3213 3611 3725 
Q 3209 4238 2522 4238 
z
M 2522 4750 
Q 3503 4750 4090 4092 
Q 4678 3434 4678 2328 
Q 4678 1225 4090 567 
Q 3503 -91 2522 -91 
Q 1538 -91 948 565 
Q 359 1222 359 2328 
Q 359 3434 948 4092 
Q 1538 4750 2522 4750 
z
" id="DejaVuSans-4f" transform="scale(0.015625)"/>
       <path d="M 2834 3397 
L 2834 2853 
Q 2591 2978 2328 3040 
Q 2066 3103 1784 3103 
Q 1356 3103 1142 2972 
Q 928 2841 928 2578 
Q 928 2378 1081 2264 
Q 1234 2150 1697 2047 
L 1894 2003 
Q 2506 1872 2764 1633 
Q 3022 1394 3022 966 
Q 3022 478 2636 193 
Q 2250 -91 1575 -91 
Q 1294 -91 989 -36 
Q 684 19 347 128 
L 347 722 
Q 666 556 975 473 
Q 1284 391 1588 391 
Q 1994 391 2212 530 
Q 2431 669 2431 922 
Q 2431 1156 2273 1281 
Q 2116 1406 1581 1522 
L 1381 1569 
Q 847 1681 609 1914 
Q 372 2147 372 2553 
Q 372 3047 722 3315 
Q 1072 3584 1716 3584 
Q 2034 3584 2315 3537 
Q 2597 3491 2834 3397 
z
" id="DejaVuSans-73" transform="scale(0.015625)"/>
       <path d="M 191 3500 
L 800 3500 
L 1894 563 
L 2988 3500 
L 3597 3500 
L 2284 0 
L 1503 0 
L 191 3500 
z
" id="DejaVuSans-76" transform="scale(0.015625)"/>
       <path d="M 1625 4666 
L 2156 4666 
L 531 -594 
L 0 -594 
L 1625 4666 
z
" id="DejaVuSans-2f" transform="scale(0.015625)"/>
       <path d="M 628 4666 
L 3578 4666 
L 3578 4134 
L 1259 4134 
L 1259 2753 
L 3481 2753 
L 3481 2222 
L 1259 2222 
L 1259 531 
L 3634 531 
L 3634 0 
L 628 0 
L 628 4666 
z
" id="DejaVuSans-45" transform="scale(0.015625)"/>
       <path d="M 3513 3500 
L 2247 1797 
L 3578 0 
L 2900 0 
L 1881 1375 
L 863 0 
L 184 0 
L 1544 1831 
L 300 3500 
L 978 3500 
L 1906 2253 
L 2834 3500 
L 3513 3500 
z
" id="DejaVuSans-78" transform="scale(0.015625)"/>
       <path d="M 3122 3366 
L 3122 2828 
Q 2878 2963 2633 3030 
Q 2388 3097 2138 3097 
Q 1578 3097 1268 2742 
Q 959 2388 959 1747 
Q 959 1106 1268 751 
Q 1578 397 2138 397 
Q 2388 397 2633 464 
Q 2878 531 3122 666 
L 3122 134 
Q 2881 22 2623 -34 
Q 2366 -91 2075 -91 
Q 1284 -91 818 406 
Q 353 903 353 1747 
Q 353 2603 823 3093 
Q 1294 3584 2113 3584 
Q 2378 3584 2631 3529 
Q 2884 3475 3122 3366 
z
" id="DejaVuSans-63" transform="scale(0.015625)"/>
      </defs>
      <use xlink:href="#DejaVuSans-4f"/>
      <use x="78.710938" xlink:href="#DejaVuSans-62"/>
      <use x="142.1875" xlink:href="#DejaVuSans-73"/>
      <use x="194.287109" xlink:href="#DejaVuSans-65"/>
      <use x="255.810547" xlink:href="#DejaVuSans-72"/>
      <use x="296.923828" xlink:href="#DejaVuSans-76"/>
      <use x="356.103516" xlink:href="#DejaVuSans-65"/>
      <use x="417.626953" xlink:href="#DejaVuSans-64"/>
      <use x="481.103516" xlink:href="#DejaVuSans-20"/>
      <use x="512.890625" xlink:href="#DejaVuSans-2f"/>
      <use x="546.582031" xlink:href="#DejaVuSans-20"/>
      <use x="578.369141" xlink:href="#DejaVuSans-45"/>
      <use x="641.552734" xlink:href="#DejaVuSans-78"/>
      <use x="700.732422" xlink:href="#DejaVuSans-70"/>
      <use x="764.208984" xlink:href="#DejaVuSans-65"/>
      <use x="825.732422" xlink:href="#DejaVuSans-63"/>
      <use x="880.712891" xlink:href="#DejaVuSans-74"/>
      <use x="919.921875" xlink:href="#DejaVuSans-65"/>
      <use x="981.445312" xlink:href="#DejaVuSans-64"/>
     </g>
    </g>
   </g>
   <g id="line2d_10">
    <path clip-path="url(#p4fab226791)" d="M 96.040398 273.983491 
L 104.66914 273.98377 
L 113.297882 273.98128 
L 121.926624 273.988985 
L 130.555366 273.982086 
L 139.184108 273.987873 
L 147.81285 273.974221 
L 156.441591 273.976081 
L 165.070333 273.824008 
L 173.699075 273.383349 
L 182.327817 271.385594 
L 190.956559 272.404641 
L 199.585301 269.361079 
L 208.214043 272.310567 
L 216.842785 268.730232 
L 225.471527 269.958724 
L 234.100269 270.459529 
L 242.729011 270.268614 
L 251.357753 271.098676 
L 259.986495 271.223186 
L 268.615237 270.539768 
L 277.243979 271.463904 
L 285.872721 270.481664 
L 294.501463 271.187216 
L 303.130205 271.278523 
L 311.758947 271.50264 
L 320.387689 270.752817 
L 329.016431 271.887236 
L 337.645173 271.427934 
L 346.273915 271.939806 
L 354.902657 271.629916 
L 363.531399 271.563511 
L 372.160141 270.570204 
L 380.788883 271.344928 
L 389.417625 271.961941 
L 398.046367 272.656427 
L 406.675108 272.944182 
L 415.30385 272.78647 
L 423.932592 272.92758 
L 432.561334 272.349304 
L 441.190076 272.136254 
L 449.818818 272.393574 
L 458.44756 272.241396 
L 467.076302 272.310567 
L 475.705044 272.144555 
L 484.333786 271.878935 
L 492.962528 272.208193 
L 501.59127 272.404641 
L 510.220012 272.924813 
L 518.848754 272.778169 
L 527.477496 272.327169 
L 536.106238 272.7505 
L 544.73498 272.800304 
L 553.363722 272.797537 
L 561.992464 272.79477 
L 570.621206 272.922047 
L 579.249948 272.70623 
L 587.87869 273.035488 
L 596.507432 273.079758 
L 605.136174 273.035488 
L 613.764916 272.91928 
L 622.393658 273.270673 
L 631.0224 273.27344 
L 639.651142 273.207035 
L 648.279883 272.720065 
L 656.908625 273.323243 
L 665.537367 273.049323 
L 674.166109 273.243004 
L 682.794851 273.32601 
L 691.423593 273.295575 
L 700.052335 273.270673 
L 708.681077 272.780936 
L 717.309819 273.373047 
L 725.938561 273.190433 
L 734.567303 272.949715 
L 743.196045 273.31771 
L 751.824787 273.038255 
L 760.453529 273.076992 
L 769.082271 273.350912 
L 777.711013 273.085292 
L 786.339755 273.068691 
L 794.968497 273.043789 
L 803.597239 273.31771 
L 812.225981 273.350912 
L 820.854723 273.071458 
L 829.483465 272.437844 
L 838.112207 273.00782 
L 846.740949 273.038255 
L 855.369691 273.201501 
L 863.998433 273.154464 
L 872.627175 272.808605 
L 881.255917 272.800304 
L 889.884659 272.938648 
L 898.5134 272.545752 
L 907.142142 272.407408 
L 915.770884 270.885627 
L 924.399626 270.855192 
L 933.028368 261.212635 
L 941.65711 43.030771 
L 950.285852 263.099643 
" style="fill:none;stroke:#7cb5ec;stroke-linecap:square;"/>
   </g>
   <g id="line2d_11">
    <path clip-path="url(#p4fab226791)" d="M 96.040398 273.983978 
L 104.66914 273.983525 
L 113.297882 273.980986 
L 121.926624 273.988972 
L 130.555366 273.982002 
L 139.184108 273.987899 
L 147.81285 273.97446 
L 156.441591 273.976404 
L 165.070333 273.820804 
L 173.699075 273.368228 
L 182.327817 271.39796 
L 190.956559 272.643976 
L 199.585301 269.670969 
L 208.214043 272.543907 
L 216.842785 269.512796 
L 225.471527 269.670969 
L 234.100269 270.410186 
L 242.729011 270.132576 
L 251.357753 271.065474 
L 259.986495 271.175227 
L 268.615237 270.771724 
L 277.243979 271.920899 
L 285.872721 270.752356 
L 294.501463 271.281751 
L 303.130205 271.488345 
L 311.758947 271.917671 
L 320.387689 271.401188 
L 329.016431 272.188825 
L 337.645173 271.694938 
L 346.273915 272.140405 
L 354.902657 272.059704 
L 363.531399 271.956407 
L 372.160141 272.230789 
L 380.788883 272.330858 
L 389.417625 272.305034 
L 398.046367 272.463207 
L 406.675108 272.711764 
L 415.30385 272.827973 
L 423.932592 272.902217 
L 432.561334 272.63752 
L 441.190076 272.779553 
L 449.818818 272.505171 
L 458.44756 272.62138 
L 467.076302 272.647204 
L 475.705044 272.592327 
L 484.333786 272.395418 
L 492.962528 272.753728 
L 501.59127 272.769868 
L 510.220012 273.189511 
L 518.848754 273.024882 
L 527.477496 272.421242 
L 536.106238 273.034566 
L 544.73498 272.763412 
L 553.363722 272.924813 
L 561.992464 273.031338 
L 570.621206 273.047478 
L 579.249948 272.818289 
L 587.87869 272.973234 
L 596.507432 273.137863 
L 605.136174 273.118495 
L 613.764916 272.931269 
L 622.393658 273.318632 
L 631.0224 273.231475 
L 639.651142 273.115267 
L 648.279883 272.882849 
L 656.908625 273.28958 
L 665.537367 273.315404 
L 674.166109 273.30572 
L 682.794851 273.237931 
L 691.423593 273.241159 
L 700.052335 273.318632 
L 708.681077 272.795693 
L 717.309819 273.299264 
L 725.938561 273.27344 
L 734.567303 273.02811 
L 743.196045 273.37028 
L 751.824787 272.989374 
L 760.453529 273.115267 
L 769.082271 273.199195 
L 777.711013 273.170143 
L 786.339755 273.086214 
L 794.968497 273.015198 
L 803.597239 273.266984 
L 812.225981 273.331544 
L 820.854723 273.173371 
L 829.483465 272.7505 
L 838.112207 273.095898 
L 846.740949 273.296036 
L 855.369691 273.199195 
L 863.998433 273.231475 
L 872.627175 273.021654 
L 881.255917 272.873165 
L 889.884659 273.328316 
L 898.5134 272.695624 
L 907.142142 272.763412 
L 915.770884 271.765954 
L 924.399626 271.733674 
L 933.028368 266.323513 
L 941.65711 149.411088 
L 950.285852 265.471316 
" style="fill:none;stroke:#434348;stroke-linecap:square;"/>
   </g>
   <g id="line2d_12">
    <path clip-path="url(#p4fab226791)" d="M 96.040398 273.984061 
L 104.66914 273.983344 
L 113.297882 273.981054 
L 121.926624 273.988876 
L 130.555366 273.982362 
L 139.184108 273.987871 
L 147.81285 273.974062 
L 156.441591 273.976605 
L 165.070333 273.833828 
L 173.699075 273.367979 
L 182.327817 270.704811 
L 190.956559 272.470983 
L 199.585301 269.149351 
L 208.214043 272.264537 
L 216.842785 268.995286 
L 225.471527 269.651601 
L 234.100269 270.289429 
L 242.729011 270.323323 
L 251.357753 270.982719 
L 259.986495 271.210735 
L 268.615237 270.985801 
L 277.243979 271.753042 
L 285.872721 270.705403 
L 294.501463 271.521945 
L 303.130205 271.58049 
L 311.758947 271.944082 
L 320.387689 271.691416 
L 329.016431 272.187504 
L 337.645173 272.045765 
L 346.273915 272.474064 
L 354.902657 272.286106 
L 363.531399 272.384707 
L 372.160141 272.474064 
L 380.788883 272.464821 
L 389.417625 272.541853 
L 398.046367 272.840738 
L 406.675108 272.91777 
L 415.30385 272.93934 
L 423.932592 272.899283 
L 432.561334 272.634292 
L 441.190076 272.763706 
L 449.818818 272.495634 
L 458.44756 272.800681 
L 467.076302 273.03486 
L 475.705044 272.991721 
L 484.333786 272.668186 
L 492.962528 272.840738 
L 501.59127 272.920852 
L 510.220012 273.124217 
L 518.848754 273.151949 
L 527.477496 272.788356 
L 536.106238 273.173518 
L 544.73498 273.105729 
L 553.363722 273.170436 
L 561.992464 273.118054 
L 570.621206 273.185843 
L 579.249948 272.979396 
L 587.87869 273.281363 
L 596.507432 273.349151 
L 605.136174 273.235144 
L 613.764916 273.324501 
L 622.393658 273.324501 
L 631.0224 273.398452 
L 639.651142 273.247469 
L 648.279883 272.788356 
L 656.908625 273.447753 
L 665.537367 273.278282 
L 674.166109 273.392289 
L 682.794851 273.423102 
L 691.423593 273.426184 
L 700.052335 273.37072 
L 708.681077 273.022534 
L 717.309819 273.410777 
L 725.938561 273.222818 
L 734.567303 273.2259 
L 743.196045 273.361476 
L 751.824787 273.216656 
L 760.453529 273.164274 
L 769.082271 273.383046 
L 777.711013 273.204331 
L 786.339755 273.062591 
L 794.968497 273.170436 
L 803.597239 273.253631 
L 812.225981 273.484728 
L 820.854723 273.145786 
L 829.483465 272.782194 
L 838.112207 272.985559 
L 846.740949 273.407696 
L 855.369691 273.25055 
L 863.998433 273.453915 
L 872.627175 273.124217 
L 881.255917 273.041022 
L 889.884659 273.34607 
L 898.5134 272.874632 
L 907.142142 272.735974 
L 915.770884 271.688335 
L 924.399626 272.051928 
L 933.028368 268.120199 
L 941.65711 182.170648 
L 950.285852 267.451559 
" style="fill:none;stroke:#90ed7d;stroke-linecap:square;"/>
   </g>
   <g id="line2d_13">
    <path clip-path="url(#p4fab226791)" d="M 96.040398 273.984325 
L 104.66914 273.983461 
L 113.297882 273.981146 
L 121.926624 273.988946 
L 130.555366 273.981822 
L 139.184108 273.987229 
L 147.81285 273.973645 
L 156.441591 273.974031 
L 165.070333 273.779481 
L 173.699075 273.199812 
L 182.327817 270.356466 
L 190.956559 271.980811 
L 199.585301 266.405892 
L 208.214043 271.864215 
L 216.842785 265.673777 
L 225.471527 267.10818 
L 234.100269 268.18466 
L 242.729011 267.37391 
L 251.357753 269.008967 
L 259.986495 269.43739 
L 268.615237 268.808313 
L 277.243979 270.166793 
L 285.872721 268.482929 
L 294.501463 269.337063 
L 303.130205 269.551274 
L 311.758947 270.752485 
L 320.387689 269.922755 
L 329.016431 271.004658 
L 337.645173 270.508447 
L 346.273915 271.123966 
L 354.902657 270.855524 
L 363.531399 270.982966 
L 372.160141 271.126677 
L 380.788883 271.685254 
L 389.417625 271.679831 
L 398.046367 271.80185 
L 406.675108 272.073004 
L 415.30385 271.994369 
L 423.932592 272.010638 
L 432.561334 271.278523 
L 441.190076 272.249253 
L 449.818818 272.428215 
L 458.44756 272.712926 
L 467.076302 272.615311 
L 475.705044 272.15435 
L 484.333786 272.346869 
L 492.962528 272.661407 
L 501.59127 272.867484 
L 510.220012 272.919003 
L 518.848754 272.848503 
L 527.477496 272.376696 
L 536.106238 272.959676 
L 544.73498 272.639715 
L 553.363722 272.881041 
L 561.992464 272.975945 
L 570.621206 272.986791 
L 579.249948 272.620734 
L 587.87869 273.022041 
L 596.507432 273.024753 
L 605.136174 273.051868 
L 613.764916 273.168464 
L 622.393658 273.206426 
L 631.0224 273.252522 
L 639.651142 273.127791 
L 648.279883 272.796984 
L 656.908625 273.214561 
L 665.537367 273.219984 
L 674.166109 273.176599 
L 682.794851 273.225407 
L 691.423593 273.078984 
L 700.052335 273.228118 
L 708.681077 272.66683 
L 717.309819 273.233541 
L 725.938561 273.19558 
L 734.567303 273.081695 
L 743.196045 273.401657 
L 751.824787 272.98408 
L 760.453529 272.967811 
L 769.082271 273.168464 
L 777.711013 273.084407 
L 786.339755 273.106099 
L 794.968497 273.176599 
L 803.597239 273.23083 
L 812.225981 273.314887 
L 820.854723 273.024753 
L 829.483465 272.764445 
L 838.112207 273.070849 
L 846.740949 273.244387 
L 855.369691 273.206426 
L 863.998433 273.293195 
L 872.627175 273.084407 
L 881.255917 273.008484 
L 889.884659 273.33658 
L 898.5134 272.994926 
L 907.142142 272.867484 
L 915.770884 272.108254 
L 924.399626 272.308907 
L 933.028368 269.006256 
L 941.65711 210.523832 
L 950.285852 270.532851 
" style="fill:none;stroke:#f7a35c;stroke-linecap:square;"/>
   </g>
   <g id="line2d_14">
    <path clip-path="url(#p4fab226791)" d="M 96.040398 273.983978 
L 104.66914 273.983341 
L 113.297882 273.981065 
L 121.926624 273.988923 
L 130.555366 273.981916 
L 139.184108 273.987631 
L 147.81285 273.973349 
L 156.441591 273.974981 
L 165.070333 273.787757 
L 173.699075 273.242056 
L 182.327817 270.44703 
L 190.956559 272.200977 
L 199.585301 267.118175 
L 208.214043 271.828806 
L 216.842785 266.054828 
L 225.471527 267.695041 
L 234.100269 268.46331 
L 242.729011 268.17089 
L 251.357753 269.444248 
L 259.986495 269.874904 
L 268.615237 269.348547 
L 277.243979 270.496963 
L 285.872721 268.636104 
L 294.501463 269.609067 
L 303.130205 269.603751 
L 311.758947 270.685707 
L 320.387689 269.67021 
L 329.016431 271.129655 
L 337.645173 270.528863 
L 346.273915 271.161555 
L 354.902657 270.624564 
L 363.531399 270.669757 
L 372.160141 271.339666 
L 380.788883 271.65867 
L 389.417625 271.858048 
L 398.046367 271.610819 
L 406.675108 272.062742 
L 415.30385 272.070717 
L 423.932592 272.214269 
L 432.561334 271.703862 
L 441.190076 272.259462 
L 449.818818 271.935141 
L 458.44756 272.26212 
L 467.076302 272.264778 
L 475.705044 272.118568 
L 484.333786 271.727788 
L 492.962528 272.267437 
L 501.59127 272.562516 
L 510.220012 272.525299 
L 518.848754 272.769868 
L 527.477496 272.240853 
L 536.106238 273.041022 
L 544.73498 272.838986 
L 553.363722 273.025072 
L 561.992464 273.12609 
L 570.621206 273.203183 
L 579.249948 272.88152 
L 587.87869 273.219133 
L 596.507432 273.325468 
L 605.136174 273.2404 
L 613.764916 273.083556 
L 622.393658 273.243058 
L 631.0224 273.269642 
L 639.651142 273.12609 
L 648.279883 272.844303 
L 656.908625 273.328126 
L 665.537367 273.248375 
L 674.166109 273.304201 
L 682.794851 273.296226 
L 691.423593 273.173941 
L 700.052335 273.235083 
L 708.681077 272.961271 
L 717.309819 273.423827 
L 725.938561 273.22445 
L 734.567303 273.128748 
L 743.196045 273.243058 
L 751.824787 273.072923 
L 760.453529 273.112798 
L 769.082271 273.165966 
L 777.711013 272.966588 
L 786.339755 273.075581 
L 794.968497 273.155332 
L 803.597239 273.245717 
L 812.225981 273.309517 
L 820.854723 273.120773 
L 829.483465 272.700751 
L 838.112207 273.046339 
L 846.740949 273.317493 
L 855.369691 273.232425 
L 863.998433 273.248375 
L 872.627175 273.14204 
L 881.255917 272.961271 
L 889.884659 273.235083 
L 898.5134 272.812402 
L 907.142142 272.660875 
L 915.770884 271.610819 
L 924.399626 271.820831 
L 933.028368 267.463763 
L 941.65711 179.79606 
L 950.285852 266.283447 
" style="fill:none;stroke:#8085e9;stroke-linecap:square;"/>
   </g>
   <g id="line2d_15">
    <path clip-path="url(#p4fab226791)" d="M 96.040398 273.984235 
L 104.66914 273.983317 
L 113.297882 273.980899 
L 121.926624 273.988948 
L 130.555366 273.98162 
L 139.184108 273.987354 
L 147.81285 273.973308 
L 156.441591 273.973825 
L 165.070333 273.794395 
L 173.699075 273.238818 
L 182.327817 270.302752 
L 190.956559 271.943617 
L 199.585301 266.627982 
L 208.214043 271.79525 
L 216.842785 266.003817 
L 225.471527 267.323773 
L 234.100269 268.45699 
L 242.729011 267.845616 
L 251.357753 269.429051 
L 259.986495 269.766714 
L 268.615237 269.104178 
L 277.243979 270.388321 
L 285.872721 268.830466 
L 294.501463 269.718111 
L 303.130205 269.904849 
L 311.758947 270.920396 
L 320.387689 270.17856 
L 329.016431 271.534329 
L 337.645173 270.677381 
L 346.273915 271.549677 
L 354.902657 271.319452 
L 363.531399 271.403868 
L 372.160141 271.227362 
L 380.788883 271.933385 
L 389.417625 271.96664 
L 398.046367 272.552434 
L 406.675108 272.089426 
L 415.30385 272.319651 
L 423.932592 272.411741 
L 432.561334 272.324767 
L 441.190076 272.345232 
L 449.818818 272.212213 
L 458.44756 272.519179 
L 467.076302 272.616385 
L 475.705044 272.442438 
L 484.333786 272.363138 
L 492.962528 272.700801 
L 501.59127 272.882423 
L 510.220012 273.061487 
L 518.848754 272.892655 
L 527.477496 272.677779 
L 536.106238 272.9387 
L 544.73498 272.792891 
L 553.363722 273.048696 
L 561.992464 273.074277 
L 570.621206 273.168925 
L 579.249948 272.8594 
L 587.87869 273.186831 
L 596.507432 273.230318 
L 605.136174 273.174041 
L 613.764916 273.186831 
L 622.393658 273.261015 
L 631.0224 273.312176 
L 639.651142 273.112648 
L 648.279883 272.892655 
L 656.908625 273.301944 
L 665.537367 273.258457 
L 674.166109 273.312176 
L 682.794851 273.301944 
L 691.423593 273.189389 
L 700.052335 273.271247 
L 708.681077 272.785217 
L 717.309819 273.404266 
L 725.938561 273.248224 
L 734.567303 273.041022 
L 743.196045 273.371011 
L 751.824787 273.094741 
L 760.453529 273.209854 
L 769.082271 273.276363 
L 777.711013 273.081951 
L 786.339755 273.079393 
L 794.968497 273.028232 
L 803.597239 273.268689 
L 812.225981 273.376127 
L 820.854723 273.176599 
L 829.483465 272.734056 
L 838.112207 273.099857 
L 846.740949 273.322408 
L 855.369691 273.250783 
L 863.998433 273.340314 
L 872.627175 273.278921 
L 881.255917 272.982187 
L 889.884659 273.360779 
L 898.5134 272.884981 
L 907.142142 272.639408 
L 915.770884 272.020359 
L 924.399626 272.288954 
L 933.028368 269.61323 
L 941.65711 220.05606 
L 950.285852 270.749006 
" style="fill:none;stroke:#f15c80;stroke-linecap:square;"/>
   </g>
   <g id="line2d_16">
    <path clip-path="url(#p4fab226791)" d="M 53.328125 273.99006 
L 992.998125 273.99006 
" style="fill:none;stroke:#dedede;stroke-linecap:square;stroke-width:2;"/>
   </g>
   <g id="text_18">
    <!-- Cutadapt: Lengths of Trimmed Sequences (3' end) -->
    <g transform="translate(321.810625 19.3575)scale(0.16 -0.16)">
     <defs>
      <path d="M 4122 4306 
L 4122 3641 
Q 3803 3938 3442 4084 
Q 3081 4231 2675 4231 
Q 1875 4231 1450 3742 
Q 1025 3253 1025 2328 
Q 1025 1406 1450 917 
Q 1875 428 2675 428 
Q 3081 428 3442 575 
Q 3803 722 4122 1019 
L 4122 359 
Q 3791 134 3420 21 
Q 3050 -91 2638 -91 
Q 1578 -91 968 557 
Q 359 1206 359 2328 
Q 359 3453 968 4101 
Q 1578 4750 2638 4750 
Q 3056 4750 3426 4639 
Q 3797 4528 4122 4306 
z
" id="DejaVuSans-43" transform="scale(0.015625)"/>
      <path d="M 544 1381 
L 544 3500 
L 1119 3500 
L 1119 1403 
Q 1119 906 1312 657 
Q 1506 409 1894 409 
Q 2359 409 2629 706 
Q 2900 1003 2900 1516 
L 2900 3500 
L 3475 3500 
L 3475 0 
L 2900 0 
L 2900 538 
Q 2691 219 2414 64 
Q 2138 -91 1772 -91 
Q 1169 -91 856 284 
Q 544 659 544 1381 
z
M 1991 3584 
L 1991 3584 
z
" id="DejaVuSans-75" transform="scale(0.015625)"/>
      <path d="M 2194 1759 
Q 1497 1759 1228 1600 
Q 959 1441 959 1056 
Q 959 750 1161 570 
Q 1363 391 1709 391 
Q 2188 391 2477 730 
Q 2766 1069 2766 1631 
L 2766 1759 
L 2194 1759 
z
M 3341 1997 
L 3341 0 
L 2766 0 
L 2766 531 
Q 2569 213 2275 61 
Q 1981 -91 1556 -91 
Q 1019 -91 701 211 
Q 384 513 384 1019 
Q 384 1609 779 1909 
Q 1175 2209 1959 2209 
L 2766 2209 
L 2766 2266 
Q 2766 2663 2505 2880 
Q 2244 3097 1772 3097 
Q 1472 3097 1187 3025 
Q 903 2953 641 2809 
L 641 3341 
Q 956 3463 1253 3523 
Q 1550 3584 1831 3584 
Q 2591 3584 2966 3190 
Q 3341 2797 3341 1997 
z
" id="DejaVuSans-61" transform="scale(0.015625)"/>
      <path d="M 750 794 
L 1409 794 
L 1409 0 
L 750 0 
L 750 794 
z
M 750 3309 
L 1409 3309 
L 1409 2516 
L 750 2516 
L 750 3309 
z
" id="DejaVuSans-3a" transform="scale(0.015625)"/>
      <path d="M 1959 3097 
Q 1497 3097 1228 2736 
Q 959 2375 959 1747 
Q 959 1119 1226 758 
Q 1494 397 1959 397 
Q 2419 397 2687 759 
Q 2956 1122 2956 1747 
Q 2956 2369 2687 2733 
Q 2419 3097 1959 3097 
z
M 1959 3584 
Q 2709 3584 3137 3096 
Q 3566 2609 3566 1747 
Q 3566 888 3137 398 
Q 2709 -91 1959 -91 
Q 1206 -91 779 398 
Q 353 888 353 1747 
Q 353 2609 779 3096 
Q 1206 3584 1959 3584 
z
" id="DejaVuSans-6f" transform="scale(0.015625)"/>
      <path d="M 2375 4863 
L 2375 4384 
L 1825 4384 
Q 1516 4384 1395 4259 
Q 1275 4134 1275 3809 
L 1275 3500 
L 2222 3500 
L 2222 3053 
L 1275 3053 
L 1275 0 
L 697 0 
L 697 3053 
L 147 3053 
L 147 3500 
L 697 3500 
L 697 3744 
Q 697 4328 969 4595 
Q 1241 4863 1831 4863 
L 2375 4863 
z
" id="DejaVuSans-66" transform="scale(0.015625)"/>
      <path d="M 3425 4513 
L 3425 3897 
Q 3066 4069 2747 4153 
Q 2428 4238 2131 4238 
Q 1616 4238 1336 4038 
Q 1056 3838 1056 3469 
Q 1056 3159 1242 3001 
Q 1428 2844 1947 2747 
L 2328 2669 
Q 3034 2534 3370 2195 
Q 3706 1856 3706 1288 
Q 3706 609 3251 259 
Q 2797 -91 1919 -91 
Q 1588 -91 1214 -16 
Q 841 59 441 206 
L 441 856 
Q 825 641 1194 531 
Q 1563 422 1919 422 
Q 2459 422 2753 634 
Q 3047 847 3047 1241 
Q 3047 1584 2836 1778 
Q 2625 1972 2144 2069 
L 1759 2144 
Q 1053 2284 737 2584 
Q 422 2884 422 3419 
Q 422 4038 858 4394 
Q 1294 4750 2059 4750 
Q 2388 4750 2728 4690 
Q 3069 4631 3425 4513 
z
" id="DejaVuSans-53" transform="scale(0.015625)"/>
      <path d="M 947 1747 
Q 947 1113 1208 752 
Q 1469 391 1925 391 
Q 2381 391 2643 752 
Q 2906 1113 2906 1747 
Q 2906 2381 2643 2742 
Q 2381 3103 1925 3103 
Q 1469 3103 1208 2742 
Q 947 2381 947 1747 
z
M 2906 525 
Q 2725 213 2448 61 
Q 2172 -91 1784 -91 
Q 1150 -91 751 415 
Q 353 922 353 1747 
Q 353 2572 751 3078 
Q 1150 3584 1784 3584 
Q 2172 3584 2448 3432 
Q 2725 3281 2906 2969 
L 2906 3500 
L 3481 3500 
L 3481 -1331 
L 2906 -1331 
L 2906 525 
z
" id="DejaVuSans-71" transform="scale(0.015625)"/>
      <path d="M 2597 2516 
Q 3050 2419 3304 2112 
Q 3559 1806 3559 1356 
Q 3559 666 3084 287 
Q 2609 -91 1734 -91 
Q 1441 -91 1130 -33 
Q 819 25 488 141 
L 488 750 
Q 750 597 1062 519 
Q 1375 441 1716 441 
Q 2309 441 2620 675 
Q 2931 909 2931 1356 
Q 2931 1769 2642 2001 
Q 2353 2234 1838 2234 
L 1294 2234 
L 1294 2753 
L 1863 2753 
Q 2328 2753 2575 2939 
Q 2822 3125 2822 3475 
Q 2822 3834 2567 4026 
Q 2313 4219 1838 4219 
Q 1578 4219 1281 4162 
Q 984 4106 628 3988 
L 628 4550 
Q 988 4650 1302 4700 
Q 1616 4750 1894 4750 
Q 2613 4750 3031 4423 
Q 3450 4097 3450 3541 
Q 3450 3153 3228 2886 
Q 3006 2619 2597 2516 
z
" id="DejaVuSans-33" transform="scale(0.015625)"/>
      <path d="M 1147 4666 
L 1147 2931 
L 616 2931 
L 616 4666 
L 1147 4666 
z
" id="DejaVuSans-27" transform="scale(0.015625)"/>
     </defs>
     <use xlink:href="#DejaVuSans-43"/>
     <use x="69.824219" xlink:href="#DejaVuSans-75"/>
     <use x="133.203125" xlink:href="#DejaVuSans-74"/>
     <use x="172.412109" xlink:href="#DejaVuSans-61"/>
     <use x="233.691406" xlink:href="#DejaVuSans-64"/>
     <use x="297.167969" xlink:href="#DejaVuSans-61"/>
     <use x="358.447266" xlink:href="#DejaVuSans-70"/>
     <use x="421.923828" xlink:href="#DejaVuSans-74"/>
     <use x="461.132812" xlink:href="#DejaVuSans-3a"/>
     <use x="494.824219" xlink:href="#DejaVuSans-20"/>
     <use x="526.611328" xlink:href="#DejaVuSans-4c"/>
     <use x="580.574219" xlink:href="#DejaVuSans-65"/>
     <use x="642.097656" xlink:href="#DejaVuSans-6e"/>
     <use x="705.476562" xlink:href="#DejaVuSans-67"/>
     <use x="768.953125" xlink:href="#DejaVuSans-74"/>
     <use x="808.162109" xlink:href="#DejaVuSans-68"/>
     <use x="871.541016" xlink:href="#DejaVuSans-73"/>
     <use x="923.640625" xlink:href="#DejaVuSans-20"/>
     <use x="955.427734" xlink:href="#DejaVuSans-6f"/>
     <use x="1016.609375" xlink:href="#DejaVuSans-66"/>
     <use x="1051.814453" xlink:href="#DejaVuSans-20"/>
     <use x="1083.601562" xlink:href="#DejaVuSans-54"/>
     <use x="1129.935547" xlink:href="#DejaVuSans-72"/>
     <use x="1171.048828" xlink:href="#DejaVuSans-69"/>
     <use x="1198.832031" xlink:href="#DejaVuSans-6d"/>
     <use x="1296.244141" xlink:href="#DejaVuSans-6d"/>
     <use x="1393.65625" xlink:href="#DejaVuSans-65"/>
     <use x="1455.179688" xlink:href="#DejaVuSans-64"/>
     <use x="1518.65625" xlink:href="#DejaVuSans-20"/>
     <use x="1550.443359" xlink:href="#DejaVuSans-53"/>
     <use x="1613.919922" xlink:href="#DejaVuSans-65"/>
     <use x="1675.443359" xlink:href="#DejaVuSans-71"/>
     <use x="1738.919922" xlink:href="#DejaVuSans-75"/>
     <use x="1802.298828" xlink:href="#DejaVuSans-65"/>
     <use x="1863.822266" xlink:href="#DejaVuSans-6e"/>
     <use x="1927.201172" xlink:href="#DejaVuSans-63"/>
     <use x="1982.181641" xlink:href="#DejaVuSans-65"/>
     <use x="2043.705078" xlink:href="#DejaVuSans-73"/>
     <use x="2095.804688" xlink:href="#DejaVuSans-20"/>
     <use x="2127.591797" xlink:href="#DejaVuSans-28"/>
     <use x="2166.605469" xlink:href="#DejaVuSans-33"/>
     <use x="2230.228516" xlink:href="#DejaVuSans-27"/>
     <use x="2257.71875" xlink:href="#DejaVuSans-20"/>
     <use x="2289.505859" xlink:href="#DejaVuSans-65"/>
     <use x="2351.029297" xlink:href="#DejaVuSans-6e"/>
     <use x="2414.408203" xlink:href="#DejaVuSans-64"/>
     <use x="2477.884766" xlink:href="#DejaVuSans-29"/>
    </g>
   </g>
   <g id="legend_1">
    <g id="line2d_17">
     <path d="M 60.528125 303.935394 
L 76.528125 303.935394 
" style="fill:none;stroke:#7cb5ec;stroke-linecap:square;"/>
    </g>
    <g id="line2d_18"/>
    <g id="text_19">
     <!-- 1O - Adapter 1 -->
     <g transform="translate(82.928125 306.735394)scale(0.08 -0.08)">
      <defs>
       <path d="M 313 2009 
L 1997 2009 
L 1997 1497 
L 313 1497 
L 313 2009 
z
" id="DejaVuSans-2d" transform="scale(0.015625)"/>
       <path d="M 2188 4044 
L 1331 1722 
L 3047 1722 
L 2188 4044 
z
M 1831 4666 
L 2547 4666 
L 4325 0 
L 3669 0 
L 3244 1197 
L 1141 1197 
L 716 0 
L 50 0 
L 1831 4666 
z
" id="DejaVuSans-41" transform="scale(0.015625)"/>
      </defs>
      <use xlink:href="#DejaVuSans-31"/>
      <use x="63.623047" xlink:href="#DejaVuSans-4f"/>
      <use x="142.333984" xlink:href="#DejaVuSans-20"/>
      <use x="174.121094" xlink:href="#DejaVuSans-2d"/>
      <use x="210.205078" xlink:href="#DejaVuSans-20"/>
      <use x="241.992188" xlink:href="#DejaVuSans-41"/>
      <use x="308.650391" xlink:href="#DejaVuSans-64"/>
      <use x="372.126953" xlink:href="#DejaVuSans-61"/>
      <use x="433.40625" xlink:href="#DejaVuSans-70"/>
      <use x="496.882812" xlink:href="#DejaVuSans-74"/>
      <use x="536.091797" xlink:href="#DejaVuSans-65"/>
      <use x="597.615234" xlink:href="#DejaVuSans-72"/>
      <use x="638.728516" xlink:href="#DejaVuSans-20"/>
      <use x="670.515625" xlink:href="#DejaVuSans-31"/>
     </g>
    </g>
    <g id="line2d_19">
     <path d="M 60.528125 315.677894 
L 76.528125 315.677894 
" style="fill:none;stroke:#434348;stroke-linecap:square;"/>
    </g>
    <g id="line2d_20"/>
    <g id="text_20">
     <!-- 2O - Adapter 1 -->
     <g transform="translate(82.928125 318.477894)scale(0.08 -0.08)">
      <use xlink:href="#DejaVuSans-32"/>
      <use x="63.623047" xlink:href="#DejaVuSans-4f"/>
      <use x="142.333984" xlink:href="#DejaVuSans-20"/>
      <use x="174.121094" xlink:href="#DejaVuSans-2d"/>
      <use x="210.205078" xlink:href="#DejaVuSans-20"/>
      <use x="241.992188" xlink:href="#DejaVuSans-41"/>
      <use x="308.650391" xlink:href="#DejaVuSans-64"/>
      <use x="372.126953" xlink:href="#DejaVuSans-61"/>
      <use x="433.40625" xlink:href="#DejaVuSans-70"/>
      <use x="496.882812" xlink:href="#DejaVuSans-74"/>
      <use x="536.091797" xlink:href="#DejaVuSans-65"/>
      <use x="597.615234" xlink:href="#DejaVuSans-72"/>
      <use x="638.728516" xlink:href="#DejaVuSans-20"/>
      <use x="670.515625" xlink:href="#DejaVuSans-31"/>
     </g>
    </g>
    <g id="line2d_21">
     <path d="M 262.033125 303.935394 
L 278.033125 303.935394 
" style="fill:none;stroke:#90ed7d;stroke-linecap:square;"/>
    </g>
    <g id="line2d_22"/>
    <g id="text_21">
     <!-- 3O - Adapter 1 -->
     <g transform="translate(284.433125 306.735394)scale(0.08 -0.08)">
      <use xlink:href="#DejaVuSans-33"/>
      <use x="63.623047" xlink:href="#DejaVuSans-4f"/>
      <use x="142.333984" xlink:href="#DejaVuSans-20"/>
      <use x="174.121094" xlink:href="#DejaVuSans-2d"/>
      <use x="210.205078" xlink:href="#DejaVuSans-20"/>
      <use x="241.992188" xlink:href="#DejaVuSans-41"/>
      <use x="308.650391" xlink:href="#DejaVuSans-64"/>
      <use x="372.126953" xlink:href="#DejaVuSans-61"/>
      <use x="433.40625" xlink:href="#DejaVuSans-70"/>
      <use x="496.882812" xlink:href="#DejaVuSans-74"/>
      <use x="536.091797" xlink:href="#DejaVuSans-65"/>
      <use x="597.615234" xlink:href="#DejaVuSans-72"/>
      <use x="638.728516" xlink:href="#DejaVuSans-20"/>
      <use x="670.515625" xlink:href="#DejaVuSans-31"/>
     </g>
    </g>
    <g id="line2d_23">
     <path d="M 463.538125 303.935394 
L 479.538125 303.935394 
" style="fill:none;stroke:#f7a35c;stroke-linecap:square;"/>
    </g>
    <g id="line2d_24"/>
    <g id="text_22">
     <!-- P11_1 - Adapter 1 -->
     <g transform="translate(485.938125 306.735394)scale(0.08 -0.08)">
      <defs>
       <path d="M 1259 4147 
L 1259 2394 
L 2053 2394 
Q 2494 2394 2734 2622 
Q 2975 2850 2975 3272 
Q 2975 3691 2734 3919 
Q 2494 4147 2053 4147 
L 1259 4147 
z
M 628 4666 
L 2053 4666 
Q 2838 4666 3239 4311 
Q 3641 3956 3641 3272 
Q 3641 2581 3239 2228 
Q 2838 1875 2053 1875 
L 1259 1875 
L 1259 0 
L 628 0 
L 628 4666 
z
" id="DejaVuSans-50" transform="scale(0.015625)"/>
       <path d="M 3263 -1063 
L 3263 -1509 
L -63 -1509 
L -63 -1063 
L 3263 -1063 
z
" id="DejaVuSans-5f" transform="scale(0.015625)"/>
      </defs>
      <use xlink:href="#DejaVuSans-50"/>
      <use x="60.302734" xlink:href="#DejaVuSans-31"/>
      <use x="123.925781" xlink:href="#DejaVuSans-31"/>
      <use x="187.548828" xlink:href="#DejaVuSans-5f"/>
      <use x="237.548828" xlink:href="#DejaVuSans-31"/>
      <use x="301.171875" xlink:href="#DejaVuSans-20"/>
      <use x="332.958984" xlink:href="#DejaVuSans-2d"/>
      <use x="369.042969" xlink:href="#DejaVuSans-20"/>
      <use x="400.830078" xlink:href="#DejaVuSans-41"/>
      <use x="467.488281" xlink:href="#DejaVuSans-64"/>
      <use x="530.964844" xlink:href="#DejaVuSans-61"/>
      <use x="592.244141" xlink:href="#DejaVuSans-70"/>
      <use x="655.720703" xlink:href="#DejaVuSans-74"/>
      <use x="694.929688" xlink:href="#DejaVuSans-65"/>
      <use x="756.453125" xlink:href="#DejaVuSans-72"/>
      <use x="797.566406" xlink:href="#DejaVuSans-20"/>
      <use x="829.353516" xlink:href="#DejaVuSans-31"/>
     </g>
    </g>
    <g id="line2d_25">
     <path d="M 677.749375 303.935394 
L 693.749375 303.935394 
" style="fill:none;stroke:#8085e9;stroke-linecap:square;"/>
    </g>
    <g id="line2d_26"/>
    <g id="text_23">
     <!-- P11_2 - Adapter 1 -->
     <g transform="translate(700.149375 306.735394)scale(0.08 -0.08)">
      <use xlink:href="#DejaVuSans-50"/>
      <use x="60.302734" xlink:href="#DejaVuSans-31"/>
      <use x="123.925781" xlink:href="#DejaVuSans-31"/>
      <use x="187.548828" xlink:href="#DejaVuSans-5f"/>
      <use x="237.548828" xlink:href="#DejaVuSans-32"/>
      <use x="301.171875" xlink:href="#DejaVuSans-20"/>
      <use x="332.958984" xlink:href="#DejaVuSans-2d"/>
      <use x="369.042969" xlink:href="#DejaVuSans-20"/>
      <use x="400.830078" xlink:href="#DejaVuSans-41"/>
      <use x="467.488281" xlink:href="#DejaVuSans-64"/>
      <use x="530.964844" xlink:href="#DejaVuSans-61"/>
      <use x="592.244141" xlink:href="#DejaVuSans-70"/>
      <use x="655.720703" xlink:href="#DejaVuSans-74"/>
      <use x="694.929688" xlink:href="#DejaVuSans-65"/>
      <use x="756.453125" xlink:href="#DejaVuSans-72"/>
      <use x="797.566406" xlink:href="#DejaVuSans-20"/>
      <use x="829.353516" xlink:href="#DejaVuSans-31"/>
     </g>
    </g>
    <g id="line2d_27">
     <path d="M 891.960625 303.935394 
L 907.960625 303.935394 
" style="fill:none;stroke:#f15c80;stroke-linecap:square;"/>
    </g>
    <g id="line2d_28"/>
    <g id="text_24">
     <!-- P11_3 - Adapter 1 -->
     <g transform="translate(914.360625 306.735394)scale(0.08 -0.08)">
      <use xlink:href="#DejaVuSans-50"/>
      <use x="60.302734" xlink:href="#DejaVuSans-31"/>
      <use x="123.925781" xlink:href="#DejaVuSans-31"/>
      <use x="187.548828" xlink:href="#DejaVuSans-5f"/>
      <use x="237.548828" xlink:href="#DejaVuSans-33"/>
      <use x="301.171875" xlink:href="#DejaVuSans-20"/>
      <use x="332.958984" xlink:href="#DejaVuSans-2d"/>
      <use x="369.042969" xlink:href="#DejaVuSans-20"/>
      <use x="400.830078" xlink:href="#DejaVuSans-41"/>
      <use x="467.488281" xlink:href="#DejaVuSans-64"/>
      <use x="530.964844" xlink:href="#DejaVuSans-61"/>
      <use x="592.244141" xlink:href="#DejaVuSans-70"/>
      <use x="655.720703" xlink:href="#DejaVuSans-74"/>
      <use x="694.929688" xlink:href="#DejaVuSans-65"/>
      <use x="756.453125" xlink:href="#DejaVuSans-72"/>
      <use x="797.566406" xlink:href="#DejaVuSans-20"/>
      <use x="829.353516" xlink:href="#DejaVuSans-31"/>
     </g>
    </g>
   </g>
  </g>
 </g>
 <defs>
  <clipPath id="p4fab226791">
   <rect height="242.5072" width="939.67" x="53.328125" y="31.48286"/>
  </clipPath>
 </defs>
</svg>
