<?xml version="1.0" encoding="utf-8" standalone="no"?>
<!DOCTYPE svg PUBLIC "-//W3C//DTD SVG 1.1//EN"
  "http://www.w3.org/Graphics/SVG/1.1/DTD/svg11.dtd">
<svg height="330.541644pt" version="1.1" viewBox="0 0 1000.318125 330.541644" width="1000.318125pt" xmlns="http://www.w3.org/2000/svg" xmlns:xlink="http://www.w3.org/1999/xlink">
 <metadata>
  <rdf:RDF xmlns:cc="http://creativecommons.org/ns#" xmlns:dc="http://purl.org/dc/elements/1.1/" xmlns:rdf="http://www.w3.org/1999/02/22-rdf-syntax-ns#">
   <cc:Work>
    <dc:type rdf:resource="http://purl.org/dc/dcmitype/StillImage"/>
    <dc:date>2024-09-06T15:37:24.083519</dc:date>
    <dc:format>image/svg+xml</dc:format>
    <dc:creator>
     <cc:Agent>
      <dc:title>Matplotlib v3.4.2, https://matplotlib.org/</dc:title>
     </cc:Agent>
    </dc:creator>
   </cc:Work>
  </rdf:RDF>
 </metadata>
 <defs>
  <style type="text/css">*{stroke-linecap:butt;stroke-linejoin:round;}</style>
 </defs>
 <g id="figure_1">
  <g id="axes_1">
   <g id="patch_1">
    <path d="M 38.058125 273.99006 
L 993.118125 273.99006 
L 993.118125 31.48286 
L 38.058125 31.48286 
z
" style="fill:#ffffff;"/>
   </g>
   <g id="matplotlib.axis_1">
    <g id="xtick_1">
     <g id="text_1">
      <!-- 0 -->
      <g transform="translate(35.513125 287.06881)scale(0.08 -0.08)">
       <defs>
        <path d="M 2034 4250 
Q 1547 4250 1301 3770 
Q 1056 3291 1056 2328 
Q 1056 1369 1301 889 
Q 1547 409 2034 409 
Q 2525 409 2770 889 
Q 3016 1369 3016 2328 
Q 3016 3291 2770 3770 
Q 2525 4250 2034 4250 
z
M 2034 4750 
Q 2819 4750 3233 4129 
Q 3647 3509 3647 2328 
Q 3647 1150 3233 529 
Q 2819 -91 2034 -91 
Q 1250 -91 836 529 
Q 422 1150 422 2328 
Q 422 3509 836 4129 
Q 1250 4750 2034 4750 
z
" id="DejaVuSans-30" transform="scale(0.015625)"/>
       </defs>
       <use xlink:href="#DejaVuSans-30"/>
      </g>
     </g>
    </g>
    <g id="xtick_2">
     <g id="text_2">
      <!-- 200 -->
      <g transform="translate(235.371623 287.06881)scale(0.08 -0.08)">
       <defs>
        <path d="M 1228 531 
L 3431 531 
L 3431 0 
L 469 0 
L 469 531 
Q 828 903 1448 1529 
Q 2069 2156 2228 2338 
Q 2531 2678 2651 2914 
Q 2772 3150 2772 3378 
Q 2772 3750 2511 3984 
Q 2250 4219 1831 4219 
Q 1534 4219 1204 4116 
Q 875 4013 500 3803 
L 500 4441 
Q 881 4594 1212 4672 
Q 1544 4750 1819 4750 
Q 2544 4750 2975 4387 
Q 3406 4025 3406 3419 
Q 3406 3131 3298 2873 
Q 3191 2616 2906 2266 
Q 2828 2175 2409 1742 
Q 1991 1309 1228 531 
z
" id="DejaVuSans-32" transform="scale(0.015625)"/>
       </defs>
       <use xlink:href="#DejaVuSans-32"/>
       <use x="63.623047" xlink:href="#DejaVuSans-30"/>
       <use x="127.246094" xlink:href="#DejaVuSans-30"/>
      </g>
     </g>
    </g>
    <g id="xtick_3">
     <g id="text_3">
      <!-- 400 -->
      <g transform="translate(440.320121 287.06881)scale(0.08 -0.08)">
       <defs>
        <path d="M 2419 4116 
L 825 1625 
L 2419 1625 
L 2419 4116 
z
M 2253 4666 
L 3047 4666 
L 3047 1625 
L 3713 1625 
L 3713 1100 
L 3047 1100 
L 3047 0 
L 2419 0 
L 2419 1100 
L 313 1100 
L 313 1709 
L 2253 4666 
z
" id="DejaVuSans-34" transform="scale(0.015625)"/>
       </defs>
       <use xlink:href="#DejaVuSans-34"/>
       <use x="63.623047" xlink:href="#DejaVuSans-30"/>
       <use x="127.246094" xlink:href="#DejaVuSans-30"/>
      </g>
     </g>
    </g>
    <g id="xtick_4">
     <g id="text_4">
      <!-- 600 -->
      <g transform="translate(645.268619 287.06881)scale(0.08 -0.08)">
       <defs>
        <path d="M 2113 2584 
Q 1688 2584 1439 2293 
Q 1191 2003 1191 1497 
Q 1191 994 1439 701 
Q 1688 409 2113 409 
Q 2538 409 2786 701 
Q 3034 994 3034 1497 
Q 3034 2003 2786 2293 
Q 2538 2584 2113 2584 
z
M 3366 4563 
L 3366 3988 
Q 3128 4100 2886 4159 
Q 2644 4219 2406 4219 
Q 1781 4219 1451 3797 
Q 1122 3375 1075 2522 
Q 1259 2794 1537 2939 
Q 1816 3084 2150 3084 
Q 2853 3084 3261 2657 
Q 3669 2231 3669 1497 
Q 3669 778 3244 343 
Q 2819 -91 2113 -91 
Q 1303 -91 875 529 
Q 447 1150 447 2328 
Q 447 3434 972 4092 
Q 1497 4750 2381 4750 
Q 2619 4750 2861 4703 
Q 3103 4656 3366 4563 
z
" id="DejaVuSans-36" transform="scale(0.015625)"/>
       </defs>
       <use xlink:href="#DejaVuSans-36"/>
       <use x="63.623047" xlink:href="#DejaVuSans-30"/>
       <use x="127.246094" xlink:href="#DejaVuSans-30"/>
      </g>
     </g>
    </g>
    <g id="xtick_5">
     <g id="text_5">
      <!-- 800 -->
      <g transform="translate(850.217116 287.06881)scale(0.08 -0.08)">
       <defs>
        <path d="M 2034 2216 
Q 1584 2216 1326 1975 
Q 1069 1734 1069 1313 
Q 1069 891 1326 650 
Q 1584 409 2034 409 
Q 2484 409 2743 651 
Q 3003 894 3003 1313 
Q 3003 1734 2745 1975 
Q 2488 2216 2034 2216 
z
M 1403 2484 
Q 997 2584 770 2862 
Q 544 3141 544 3541 
Q 544 4100 942 4425 
Q 1341 4750 2034 4750 
Q 2731 4750 3128 4425 
Q 3525 4100 3525 3541 
Q 3525 3141 3298 2862 
Q 3072 2584 2669 2484 
Q 3125 2378 3379 2068 
Q 3634 1759 3634 1313 
Q 3634 634 3220 271 
Q 2806 -91 2034 -91 
Q 1263 -91 848 271 
Q 434 634 434 1313 
Q 434 1759 690 2068 
Q 947 2378 1403 2484 
z
M 1172 3481 
Q 1172 3119 1398 2916 
Q 1625 2713 2034 2713 
Q 2441 2713 2670 2916 
Q 2900 3119 2900 3481 
Q 2900 3844 2670 4047 
Q 2441 4250 2034 4250 
Q 1625 4250 1398 4047 
Q 1172 3844 1172 3481 
z
" id="DejaVuSans-38" transform="scale(0.015625)"/>
       </defs>
       <use xlink:href="#DejaVuSans-38"/>
       <use x="63.623047" xlink:href="#DejaVuSans-30"/>
       <use x="127.246094" xlink:href="#DejaVuSans-30"/>
      </g>
     </g>
    </g>
    <g id="text_6">
     <!-- Total molecules (including duplicates) -->
     <g transform="translate(421.338125 300.330997)scale(0.1 -0.1)">
      <defs>
       <path d="M -19 4666 
L 3928 4666 
L 3928 4134 
L 2272 4134 
L 2272 0 
L 1638 0 
L 1638 4134 
L -19 4134 
L -19 4666 
z
" id="DejaVuSans-54" transform="scale(0.015625)"/>
       <path d="M 1959 3097 
Q 1497 3097 1228 2736 
Q 959 2375 959 1747 
Q 959 1119 1226 758 
Q 1494 397 1959 397 
Q 2419 397 2687 759 
Q 2956 1122 2956 1747 
Q 2956 2369 2687 2733 
Q 2419 3097 1959 3097 
z
M 1959 3584 
Q 2709 3584 3137 3096 
Q 3566 2609 3566 1747 
Q 3566 888 3137 398 
Q 2709 -91 1959 -91 
Q 1206 -91 779 398 
Q 353 888 353 1747 
Q 353 2609 779 3096 
Q 1206 3584 1959 3584 
z
" id="DejaVuSans-6f" transform="scale(0.015625)"/>
       <path d="M 1172 4494 
L 1172 3500 
L 2356 3500 
L 2356 3053 
L 1172 3053 
L 1172 1153 
Q 1172 725 1289 603 
Q 1406 481 1766 481 
L 2356 481 
L 2356 0 
L 1766 0 
Q 1100 0 847 248 
Q 594 497 594 1153 
L 594 3053 
L 172 3053 
L 172 3500 
L 594 3500 
L 594 4494 
L 1172 4494 
z
" id="DejaVuSans-74" transform="scale(0.015625)"/>
       <path d="M 2194 1759 
Q 1497 1759 1228 1600 
Q 959 1441 959 1056 
Q 959 750 1161 570 
Q 1363 391 1709 391 
Q 2188 391 2477 730 
Q 2766 1069 2766 1631 
L 2766 1759 
L 2194 1759 
z
M 3341 1997 
L 3341 0 
L 2766 0 
L 2766 531 
Q 2569 213 2275 61 
Q 1981 -91 1556 -91 
Q 1019 -91 701 211 
Q 384 513 384 1019 
Q 384 1609 779 1909 
Q 1175 2209 1959 2209 
L 2766 2209 
L 2766 2266 
Q 2766 2663 2505 2880 
Q 2244 3097 1772 3097 
Q 1472 3097 1187 3025 
Q 903 2953 641 2809 
L 641 3341 
Q 956 3463 1253 3523 
Q 1550 3584 1831 3584 
Q 2591 3584 2966 3190 
Q 3341 2797 3341 1997 
z
" id="DejaVuSans-61" transform="scale(0.015625)"/>
       <path d="M 603 4863 
L 1178 4863 
L 1178 0 
L 603 0 
L 603 4863 
z
" id="DejaVuSans-6c" transform="scale(0.015625)"/>
       <path id="DejaVuSans-20" transform="scale(0.015625)"/>
       <path d="M 3328 2828 
Q 3544 3216 3844 3400 
Q 4144 3584 4550 3584 
Q 5097 3584 5394 3201 
Q 5691 2819 5691 2113 
L 5691 0 
L 5113 0 
L 5113 2094 
Q 5113 2597 4934 2840 
Q 4756 3084 4391 3084 
Q 3944 3084 3684 2787 
Q 3425 2491 3425 1978 
L 3425 0 
L 2847 0 
L 2847 2094 
Q 2847 2600 2669 2842 
Q 2491 3084 2119 3084 
Q 1678 3084 1418 2786 
Q 1159 2488 1159 1978 
L 1159 0 
L 581 0 
L 581 3500 
L 1159 3500 
L 1159 2956 
Q 1356 3278 1631 3431 
Q 1906 3584 2284 3584 
Q 2666 3584 2933 3390 
Q 3200 3197 3328 2828 
z
" id="DejaVuSans-6d" transform="scale(0.015625)"/>
       <path d="M 3597 1894 
L 3597 1613 
L 953 1613 
Q 991 1019 1311 708 
Q 1631 397 2203 397 
Q 2534 397 2845 478 
Q 3156 559 3463 722 
L 3463 178 
Q 3153 47 2828 -22 
Q 2503 -91 2169 -91 
Q 1331 -91 842 396 
Q 353 884 353 1716 
Q 353 2575 817 3079 
Q 1281 3584 2069 3584 
Q 2775 3584 3186 3129 
Q 3597 2675 3597 1894 
z
M 3022 2063 
Q 3016 2534 2758 2815 
Q 2500 3097 2075 3097 
Q 1594 3097 1305 2825 
Q 1016 2553 972 2059 
L 3022 2063 
z
" id="DejaVuSans-65" transform="scale(0.015625)"/>
       <path d="M 3122 3366 
L 3122 2828 
Q 2878 2963 2633 3030 
Q 2388 3097 2138 3097 
Q 1578 3097 1268 2742 
Q 959 2388 959 1747 
Q 959 1106 1268 751 
Q 1578 397 2138 397 
Q 2388 397 2633 464 
Q 2878 531 3122 666 
L 3122 134 
Q 2881 22 2623 -34 
Q 2366 -91 2075 -91 
Q 1284 -91 818 406 
Q 353 903 353 1747 
Q 353 2603 823 3093 
Q 1294 3584 2113 3584 
Q 2378 3584 2631 3529 
Q 2884 3475 3122 3366 
z
" id="DejaVuSans-63" transform="scale(0.015625)"/>
       <path d="M 544 1381 
L 544 3500 
L 1119 3500 
L 1119 1403 
Q 1119 906 1312 657 
Q 1506 409 1894 409 
Q 2359 409 2629 706 
Q 2900 1003 2900 1516 
L 2900 3500 
L 3475 3500 
L 3475 0 
L 2900 0 
L 2900 538 
Q 2691 219 2414 64 
Q 2138 -91 1772 -91 
Q 1169 -91 856 284 
Q 544 659 544 1381 
z
M 1991 3584 
L 1991 3584 
z
" id="DejaVuSans-75" transform="scale(0.015625)"/>
       <path d="M 2834 3397 
L 2834 2853 
Q 2591 2978 2328 3040 
Q 2066 3103 1784 3103 
Q 1356 3103 1142 2972 
Q 928 2841 928 2578 
Q 928 2378 1081 2264 
Q 1234 2150 1697 2047 
L 1894 2003 
Q 2506 1872 2764 1633 
Q 3022 1394 3022 966 
Q 3022 478 2636 193 
Q 2250 -91 1575 -91 
Q 1294 -91 989 -36 
Q 684 19 347 128 
L 347 722 
Q 666 556 975 473 
Q 1284 391 1588 391 
Q 1994 391 2212 530 
Q 2431 669 2431 922 
Q 2431 1156 2273 1281 
Q 2116 1406 1581 1522 
L 1381 1569 
Q 847 1681 609 1914 
Q 372 2147 372 2553 
Q 372 3047 722 3315 
Q 1072 3584 1716 3584 
Q 2034 3584 2315 3537 
Q 2597 3491 2834 3397 
z
" id="DejaVuSans-73" transform="scale(0.015625)"/>
       <path d="M 1984 4856 
Q 1566 4138 1362 3434 
Q 1159 2731 1159 2009 
Q 1159 1288 1364 580 
Q 1569 -128 1984 -844 
L 1484 -844 
Q 1016 -109 783 600 
Q 550 1309 550 2009 
Q 550 2706 781 3412 
Q 1013 4119 1484 4856 
L 1984 4856 
z
" id="DejaVuSans-28" transform="scale(0.015625)"/>
       <path d="M 603 3500 
L 1178 3500 
L 1178 0 
L 603 0 
L 603 3500 
z
M 603 4863 
L 1178 4863 
L 1178 4134 
L 603 4134 
L 603 4863 
z
" id="DejaVuSans-69" transform="scale(0.015625)"/>
       <path d="M 3513 2113 
L 3513 0 
L 2938 0 
L 2938 2094 
Q 2938 2591 2744 2837 
Q 2550 3084 2163 3084 
Q 1697 3084 1428 2787 
Q 1159 2491 1159 1978 
L 1159 0 
L 581 0 
L 581 3500 
L 1159 3500 
L 1159 2956 
Q 1366 3272 1645 3428 
Q 1925 3584 2291 3584 
Q 2894 3584 3203 3211 
Q 3513 2838 3513 2113 
z
" id="DejaVuSans-6e" transform="scale(0.015625)"/>
       <path d="M 2906 2969 
L 2906 4863 
L 3481 4863 
L 3481 0 
L 2906 0 
L 2906 525 
Q 2725 213 2448 61 
Q 2172 -91 1784 -91 
Q 1150 -91 751 415 
Q 353 922 353 1747 
Q 353 2572 751 3078 
Q 1150 3584 1784 3584 
Q 2172 3584 2448 3432 
Q 2725 3281 2906 2969 
z
M 947 1747 
Q 947 1113 1208 752 
Q 1469 391 1925 391 
Q 2381 391 2643 752 
Q 2906 1113 2906 1747 
Q 2906 2381 2643 2742 
Q 2381 3103 1925 3103 
Q 1469 3103 1208 2742 
Q 947 2381 947 1747 
z
" id="DejaVuSans-64" transform="scale(0.015625)"/>
       <path d="M 2906 1791 
Q 2906 2416 2648 2759 
Q 2391 3103 1925 3103 
Q 1463 3103 1205 2759 
Q 947 2416 947 1791 
Q 947 1169 1205 825 
Q 1463 481 1925 481 
Q 2391 481 2648 825 
Q 2906 1169 2906 1791 
z
M 3481 434 
Q 3481 -459 3084 -895 
Q 2688 -1331 1869 -1331 
Q 1566 -1331 1297 -1286 
Q 1028 -1241 775 -1147 
L 775 -588 
Q 1028 -725 1275 -790 
Q 1522 -856 1778 -856 
Q 2344 -856 2625 -561 
Q 2906 -266 2906 331 
L 2906 616 
Q 2728 306 2450 153 
Q 2172 0 1784 0 
Q 1141 0 747 490 
Q 353 981 353 1791 
Q 353 2603 747 3093 
Q 1141 3584 1784 3584 
Q 2172 3584 2450 3431 
Q 2728 3278 2906 2969 
L 2906 3500 
L 3481 3500 
L 3481 434 
z
" id="DejaVuSans-67" transform="scale(0.015625)"/>
       <path d="M 1159 525 
L 1159 -1331 
L 581 -1331 
L 581 3500 
L 1159 3500 
L 1159 2969 
Q 1341 3281 1617 3432 
Q 1894 3584 2278 3584 
Q 2916 3584 3314 3078 
Q 3713 2572 3713 1747 
Q 3713 922 3314 415 
Q 2916 -91 2278 -91 
Q 1894 -91 1617 61 
Q 1341 213 1159 525 
z
M 3116 1747 
Q 3116 2381 2855 2742 
Q 2594 3103 2138 3103 
Q 1681 3103 1420 2742 
Q 1159 2381 1159 1747 
Q 1159 1113 1420 752 
Q 1681 391 2138 391 
Q 2594 391 2855 752 
Q 3116 1113 3116 1747 
z
" id="DejaVuSans-70" transform="scale(0.015625)"/>
       <path d="M 513 4856 
L 1013 4856 
Q 1481 4119 1714 3412 
Q 1947 2706 1947 2009 
Q 1947 1309 1714 600 
Q 1481 -109 1013 -844 
L 513 -844 
Q 928 -128 1133 580 
Q 1338 1288 1338 2009 
Q 1338 2731 1133 3434 
Q 928 4138 513 4856 
z
" id="DejaVuSans-29" transform="scale(0.015625)"/>
      </defs>
      <use xlink:href="#DejaVuSans-54"/>
      <use x="44.083984" xlink:href="#DejaVuSans-6f"/>
      <use x="105.265625" xlink:href="#DejaVuSans-74"/>
      <use x="144.474609" xlink:href="#DejaVuSans-61"/>
      <use x="205.753906" xlink:href="#DejaVuSans-6c"/>
      <use x="233.537109" xlink:href="#DejaVuSans-20"/>
      <use x="265.324219" xlink:href="#DejaVuSans-6d"/>
      <use x="362.736328" xlink:href="#DejaVuSans-6f"/>
      <use x="423.917969" xlink:href="#DejaVuSans-6c"/>
      <use x="451.701172" xlink:href="#DejaVuSans-65"/>
      <use x="513.224609" xlink:href="#DejaVuSans-63"/>
      <use x="568.205078" xlink:href="#DejaVuSans-75"/>
      <use x="631.583984" xlink:href="#DejaVuSans-6c"/>
      <use x="659.367188" xlink:href="#DejaVuSans-65"/>
      <use x="720.890625" xlink:href="#DejaVuSans-73"/>
      <use x="772.990234" xlink:href="#DejaVuSans-20"/>
      <use x="804.777344" xlink:href="#DejaVuSans-28"/>
      <use x="843.791016" xlink:href="#DejaVuSans-69"/>
      <use x="871.574219" xlink:href="#DejaVuSans-6e"/>
      <use x="934.953125" xlink:href="#DejaVuSans-63"/>
      <use x="989.933594" xlink:href="#DejaVuSans-6c"/>
      <use x="1017.716797" xlink:href="#DejaVuSans-75"/>
      <use x="1081.095703" xlink:href="#DejaVuSans-64"/>
      <use x="1144.572266" xlink:href="#DejaVuSans-69"/>
      <use x="1172.355469" xlink:href="#DejaVuSans-6e"/>
      <use x="1235.734375" xlink:href="#DejaVuSans-67"/>
      <use x="1299.210938" xlink:href="#DejaVuSans-20"/>
      <use x="1330.998047" xlink:href="#DejaVuSans-64"/>
      <use x="1394.474609" xlink:href="#DejaVuSans-75"/>
      <use x="1457.853516" xlink:href="#DejaVuSans-70"/>
      <use x="1521.330078" xlink:href="#DejaVuSans-6c"/>
      <use x="1549.113281" xlink:href="#DejaVuSans-69"/>
      <use x="1576.896484" xlink:href="#DejaVuSans-63"/>
      <use x="1631.876953" xlink:href="#DejaVuSans-61"/>
      <use x="1693.15625" xlink:href="#DejaVuSans-74"/>
      <use x="1732.365234" xlink:href="#DejaVuSans-65"/>
      <use x="1793.888672" xlink:href="#DejaVuSans-73"/>
      <use x="1845.988281" xlink:href="#DejaVuSans-29"/>
     </g>
    </g>
   </g>
   <g id="matplotlib.axis_2">
    <g id="ytick_1">
     <g id="line2d_1">
      <path clip-path="url(#p913be0ed01)" d="M 38.058125 273.99006 
L 993.118125 273.99006 
" style="fill:none;stroke:#dedede;stroke-linecap:square;"/>
     </g>
     <g id="text_7">
      <!-- 0 -->
      <g transform="translate(25.968125 277.029435)scale(0.08 -0.08)">
       <use xlink:href="#DejaVuSans-30"/>
      </g>
     </g>
    </g>
    <g id="ytick_2">
     <g id="line2d_2">
      <path clip-path="url(#p913be0ed01)" d="M 38.058125 225.820983 
L 993.118125 225.820983 
" style="fill:none;stroke:#dedede;stroke-linecap:square;"/>
     </g>
     <g id="text_8">
      <!-- 10 -->
      <g transform="translate(20.878125 228.860358)scale(0.08 -0.08)">
       <defs>
        <path d="M 794 531 
L 1825 531 
L 1825 4091 
L 703 3866 
L 703 4441 
L 1819 4666 
L 2450 4666 
L 2450 531 
L 3481 531 
L 3481 0 
L 794 0 
L 794 531 
z
" id="DejaVuSans-31" transform="scale(0.015625)"/>
       </defs>
       <use xlink:href="#DejaVuSans-31"/>
       <use x="63.623047" xlink:href="#DejaVuSans-30"/>
      </g>
     </g>
    </g>
    <g id="ytick_3">
     <g id="line2d_3">
      <path clip-path="url(#p913be0ed01)" d="M 38.058125 177.651906 
L 993.118125 177.651906 
" style="fill:none;stroke:#dedede;stroke-linecap:square;"/>
     </g>
     <g id="text_9">
      <!-- 20 -->
      <g transform="translate(20.878125 180.691281)scale(0.08 -0.08)">
       <use xlink:href="#DejaVuSans-32"/>
       <use x="63.623047" xlink:href="#DejaVuSans-30"/>
      </g>
     </g>
    </g>
    <g id="ytick_4">
     <g id="line2d_4">
      <path clip-path="url(#p913be0ed01)" d="M 38.058125 129.482829 
L 993.118125 129.482829 
" style="fill:none;stroke:#dedede;stroke-linecap:square;"/>
     </g>
     <g id="text_10">
      <!-- 30 -->
      <g transform="translate(20.878125 132.522204)scale(0.08 -0.08)">
       <defs>
        <path d="M 2597 2516 
Q 3050 2419 3304 2112 
Q 3559 1806 3559 1356 
Q 3559 666 3084 287 
Q 2609 -91 1734 -91 
Q 1441 -91 1130 -33 
Q 819 25 488 141 
L 488 750 
Q 750 597 1062 519 
Q 1375 441 1716 441 
Q 2309 441 2620 675 
Q 2931 909 2931 1356 
Q 2931 1769 2642 2001 
Q 2353 2234 1838 2234 
L 1294 2234 
L 1294 2753 
L 1863 2753 
Q 2328 2753 2575 2939 
Q 2822 3125 2822 3475 
Q 2822 3834 2567 4026 
Q 2313 4219 1838 4219 
Q 1578 4219 1281 4162 
Q 984 4106 628 3988 
L 628 4550 
Q 988 4650 1302 4700 
Q 1616 4750 1894 4750 
Q 2613 4750 3031 4423 
Q 3450 4097 3450 3541 
Q 3450 3153 3228 2886 
Q 3006 2619 2597 2516 
z
" id="DejaVuSans-33" transform="scale(0.015625)"/>
       </defs>
       <use xlink:href="#DejaVuSans-33"/>
       <use x="63.623047" xlink:href="#DejaVuSans-30"/>
      </g>
     </g>
    </g>
    <g id="ytick_5">
     <g id="line2d_5">
      <path clip-path="url(#p913be0ed01)" d="M 38.058125 81.313753 
L 993.118125 81.313753 
" style="fill:none;stroke:#dedede;stroke-linecap:square;"/>
     </g>
     <g id="text_11">
      <!-- 40 -->
      <g transform="translate(20.878125 84.353128)scale(0.08 -0.08)">
       <use xlink:href="#DejaVuSans-34"/>
       <use x="63.623047" xlink:href="#DejaVuSans-30"/>
      </g>
     </g>
    </g>
    <g id="ytick_6">
     <g id="line2d_6">
      <path clip-path="url(#p913be0ed01)" d="M 38.058125 33.144676 
L 993.118125 33.144676 
" style="fill:none;stroke:#dedede;stroke-linecap:square;"/>
     </g>
     <g id="text_12">
      <!-- 50 -->
      <g transform="translate(20.878125 36.184051)scale(0.08 -0.08)">
       <defs>
        <path d="M 691 4666 
L 3169 4666 
L 3169 4134 
L 1269 4134 
L 1269 2991 
Q 1406 3038 1543 3061 
Q 1681 3084 1819 3084 
Q 2600 3084 3056 2656 
Q 3513 2228 3513 1497 
Q 3513 744 3044 326 
Q 2575 -91 1722 -91 
Q 1428 -91 1123 -41 
Q 819 9 494 109 
L 494 744 
Q 775 591 1075 516 
Q 1375 441 1709 441 
Q 2250 441 2565 725 
Q 2881 1009 2881 1497 
Q 2881 1984 2565 2268 
Q 2250 2553 1709 2553 
Q 1456 2553 1204 2497 
Q 953 2441 691 2322 
L 691 4666 
z
" id="DejaVuSans-35" transform="scale(0.015625)"/>
       </defs>
       <use xlink:href="#DejaVuSans-35"/>
       <use x="63.623047" xlink:href="#DejaVuSans-30"/>
      </g>
     </g>
    </g>
    <g id="text_13">
     <!-- Unique molecules -->
     <g transform="translate(14.798438 197.345835)rotate(-90)scale(0.1 -0.1)">
      <defs>
       <path d="M 556 4666 
L 1191 4666 
L 1191 1831 
Q 1191 1081 1462 751 
Q 1734 422 2344 422 
Q 2950 422 3222 751 
Q 3494 1081 3494 1831 
L 3494 4666 
L 4128 4666 
L 4128 1753 
Q 4128 841 3676 375 
Q 3225 -91 2344 -91 
Q 1459 -91 1007 375 
Q 556 841 556 1753 
L 556 4666 
z
" id="DejaVuSans-55" transform="scale(0.015625)"/>
       <path d="M 947 1747 
Q 947 1113 1208 752 
Q 1469 391 1925 391 
Q 2381 391 2643 752 
Q 2906 1113 2906 1747 
Q 2906 2381 2643 2742 
Q 2381 3103 1925 3103 
Q 1469 3103 1208 2742 
Q 947 2381 947 1747 
z
M 2906 525 
Q 2725 213 2448 61 
Q 2172 -91 1784 -91 
Q 1150 -91 751 415 
Q 353 922 353 1747 
Q 353 2572 751 3078 
Q 1150 3584 1784 3584 
Q 2172 3584 2448 3432 
Q 2725 3281 2906 2969 
L 2906 3500 
L 3481 3500 
L 3481 -1331 
L 2906 -1331 
L 2906 525 
z
" id="DejaVuSans-71" transform="scale(0.015625)"/>
      </defs>
      <use xlink:href="#DejaVuSans-55"/>
      <use x="73.193359" xlink:href="#DejaVuSans-6e"/>
      <use x="136.572266" xlink:href="#DejaVuSans-69"/>
      <use x="164.355469" xlink:href="#DejaVuSans-71"/>
      <use x="227.832031" xlink:href="#DejaVuSans-75"/>
      <use x="291.210938" xlink:href="#DejaVuSans-65"/>
      <use x="352.734375" xlink:href="#DejaVuSans-20"/>
      <use x="384.521484" xlink:href="#DejaVuSans-6d"/>
      <use x="481.933594" xlink:href="#DejaVuSans-6f"/>
      <use x="543.115234" xlink:href="#DejaVuSans-6c"/>
      <use x="570.898438" xlink:href="#DejaVuSans-65"/>
      <use x="632.421875" xlink:href="#DejaVuSans-63"/>
      <use x="687.402344" xlink:href="#DejaVuSans-75"/>
      <use x="750.78125" xlink:href="#DejaVuSans-6c"/>
      <use x="778.564453" xlink:href="#DejaVuSans-65"/>
      <use x="840.087891" xlink:href="#DejaVuSans-73"/>
     </g>
    </g>
   </g>
   <g id="line2d_7">
    <path clip-path="url(#p913be0ed01)" d="M 38.058125 273.99006 
L 39.082867 270.234312 
L 41.132352 264.483558 
L 43.181837 259.747986 
L 45.231322 255.620147 
L 47.280807 251.920764 
L 50.355035 246.964946 
L 53.429262 242.546093 
L 56.50349 238.540678 
L 59.577717 234.867056 
L 63.676687 230.387282 
L 67.775657 226.299321 
L 71.874627 222.534455 
L 75.973597 219.041872 
L 81.09731 215.000838 
L 86.221022 211.267605 
L 91.344734 207.797521 
L 97.493189 203.931861 
L 103.641644 200.347162 
L 109.790099 197.0062 
L 116.963297 193.377836 
L 124.136494 190.003112 
L 132.334434 186.417294 
L 140.532374 183.085008 
L 149.755056 179.601744 
L 158.977739 176.364747 
L 168.200421 173.344678 
L 178.447846 170.219649 
L 189.720013 167.023986 
L 200.992181 164.056434 
L 213.289091 161.044349 
L 225.586001 158.248797 
L 239.932395 155.219469 
L 254.27879 152.425342 
L 270.67467 149.464733 
L 286.045807 146.898655 
L 304.491172 144.053027 
L 323.96128 141.269713 
L 344.456129 138.593732 
L 367.000464 135.900068 
L 390.569541 133.323137 
L 415.163361 130.873829 
L 443.856151 128.255958 
L 473.573683 125.78369 
L 502.266473 123.616958 
L 544.280915 120.751927 
L 579.122159 118.619261 
L 618.062374 116.458867 
L 660.076816 114.352136 
L 705.165486 112.315211 
L 754.353125 110.318335 
L 806.614992 108.421155 
L 865.025314 106.533411 
L 928.559348 104.707006 
L 993.118125 103.054496 
L 993.118125 103.054496 
" style="fill:none;stroke:#7cb5ec;stroke-linecap:square;"/>
   </g>
   <g id="line2d_8">
    <path clip-path="url(#p913be0ed01)" d="M 38.058125 273.99006 
L 39.082867 270.30989 
L 41.132352 264.649069 
L 43.181837 259.957076 
L 45.231322 255.846989 
L 47.280807 252.149914 
L 50.355035 247.177312 
L 53.429262 242.726701 
L 56.50349 238.679675 
L 59.577717 234.957325 
L 63.676687 230.405562 
L 67.775657 226.239801 
L 71.874627 222.392889 
L 75.973597 218.816 
L 81.09731 214.667583 
L 86.221022 210.825865 
L 91.344734 207.24795 
L 97.493189 203.254941 
L 103.641644 199.545513 
L 109.790099 196.082539 
L 116.963297 192.313718 
L 124.136494 188.802309 
L 131.309692 185.518545 
L 139.507631 182.01021 
L 147.705571 178.731894 
L 156.928254 175.28699 
L 166.150936 172.077733 
L 176.398361 168.747984 
L 187.670528 165.346527 
L 198.942696 162.185128 
L 211.239606 158.973211 
L 223.536516 155.986749 
L 236.858168 152.970721 
L 251.204563 149.953289 
L 266.5757 146.961764 
L 281.946837 144.188983 
L 298.342717 141.433223 
L 315.76334 138.723337 
L 335.233447 135.933273 
L 357.777782 132.961269 
L 380.322116 130.232527 
L 402.866451 127.721465 
L 428.485013 125.122639 
L 456.153061 122.535518 
L 483.821108 120.17365 
L 516.612867 117.616375 
L 549.404627 115.28933 
L 585.270614 112.975393 
L 623.186086 110.755148 
L 663.151043 108.63496 
L 705.165486 106.624438 
L 753.328383 104.545638 
L 804.565507 102.558204 
L 860.926344 100.598499 
L 922.410893 98.689405 
L 989.019155 96.847844 
L 993.118125 96.741345 
L 993.118125 96.741345 
" style="fill:none;stroke:#434348;stroke-linecap:square;"/>
   </g>
   <g id="line2d_9">
    <path clip-path="url(#p913be0ed01)" d="M 38.058125 273.99006 
L 39.082867 270.582074 
L 40.10761 267.897069 
L 42.157095 263.390758 
L 44.20658 259.564419 
L 46.256065 256.182742 
L 48.30555 253.126371 
L 51.379777 249.003129 
L 54.454005 245.305919 
L 57.528232 241.941685 
L 60.60246 238.847481 
L 64.70143 235.065708 
L 68.8004 231.608086 
L 72.89937 228.419669 
L 78.023082 224.751288 
L 83.146795 221.379616 
L 88.270507 218.258975 
L 94.418962 214.797709 
L 100.567417 211.601686 
L 106.715872 208.634151 
L 113.889069 205.423872 
L 121.062267 202.449606 
L 129.260207 199.301127 
L 137.458146 196.386468 
L 146.680829 193.350107 
L 155.903511 190.538948 
L 166.150936 187.648635 
L 177.423104 184.717675 
L 188.695271 182.014077 
L 200.992181 179.290259 
L 214.313833 176.583688 
L 227.635486 174.076981 
L 243.006623 171.419259 
L 259.402503 168.819702 
L 276.823125 166.291256 
L 295.26849 163.849678 
L 314.738597 161.491558 
L 336.258189 159.122406 
L 357.777782 156.958941 
L 382.371601 154.708702 
L 410.039649 152.420284 
L 436.682953 150.433565 
L 468.44997 148.289717 
L 502.266473 146.233912 
L 539.157202 144.215315 
L 578.097417 142.324592 
L 622.161344 140.415793 
L 668.274756 138.644659 
L 719.51188 136.904035 
L 774.847975 135.246241 
L 839.406752 133.538699 
L 902.940786 132.066557 
L 980.821215 130.490251 
L 993.118125 130.260944 
L 993.118125 130.260944 
" style="fill:none;stroke:#90ed7d;stroke-linecap:square;"/>
   </g>
   <g id="line2d_10">
    <path clip-path="url(#p913be0ed01)" d="M 38.058125 273.99006 
L 39.082867 270.227458 
L 41.132352 264.367102 
L 43.181837 259.465024 
L 45.231322 255.141493 
L 47.280807 251.229369 
L 50.355035 245.933003 
L 53.429262 241.158188 
L 56.50349 236.786765 
L 59.577717 232.740001 
L 63.676687 227.756039 
L 67.775657 223.158339 
L 71.874627 218.880927 
L 76.99834 213.911518 
L 82.122052 209.294883 
L 87.245764 204.977843 
L 92.369477 200.918772 
L 98.517932 196.342443 
L 104.666387 192.046414 
L 110.814842 187.995479 
L 117.988039 183.541518 
L 125.161237 179.346101 
L 133.359177 174.830585 
L 141.557116 170.57949 
L 149.755056 166.561252 
L 158.977739 162.289891 
L 168.200421 158.254724 
L 178.447846 154.016184 
L 188.695271 150.012845 
L 199.967438 145.853484 
L 211.239606 141.925528 
L 223.536516 137.875737 
L 236.858168 133.74093 
L 251.204563 129.549576 
L 265.550958 125.592838 
L 279.897352 121.861632 
L 296.293232 117.838729 
L 311.66437 114.281959 
L 328.060249 110.694482 
L 345.480872 107.107147 
L 364.950979 103.325902 
L 384.421086 99.774928 
L 404.915936 96.25612 
L 428.485013 92.453686 
L 451.029348 89.053347 
L 475.623168 85.573921 
L 501.24173 82.17334 
L 525.83555 79.125359 
L 553.503597 75.893091 
L 583.221129 72.647093 
L 614.988146 69.40485 
L 645.730421 66.478254 
L 679.546923 63.473153 
L 715.41291 60.519408 
L 757.427352 57.308038 
L 796.367567 54.539099 
L 840.431494 51.635577 
L 886.544906 48.803842 
L 935.732546 46.010083 
L 984.920185 43.440409 
L 993.118125 43.030822 
L 993.118125 43.030822 
" style="fill:none;stroke:#f7a35c;stroke-linecap:square;"/>
   </g>
   <g id="line2d_11">
    <path clip-path="url(#p913be0ed01)" d="M 38.058125 273.99006 
L 39.082867 270.236571 
L 41.132352 264.44193 
L 43.181837 259.631121 
L 45.231322 255.412735 
L 47.280807 251.614907 
L 50.355035 246.503552 
L 53.429262 241.92635 
L 56.50349 237.763475 
L 59.577717 233.9332 
L 63.676687 229.248495 
L 67.775657 224.961013 
L 71.874627 221.002772 
L 75.973597 217.323146 
L 81.09731 213.057018 
L 86.221022 209.107836 
L 91.344734 205.430914 
L 97.493189 201.32904 
L 103.641644 197.520897 
L 109.790099 193.968155 
L 116.963297 190.106086 
L 124.136494 186.511446 
L 131.309692 183.153174 
L 139.507631 179.57003 
L 147.705571 176.227853 
L 156.928254 172.722533 
L 166.150936 169.456097 
L 176.398361 166.076038 
L 186.645786 162.930829 
L 197.917953 159.710309 
L 209.190121 156.716708 
L 221.487031 153.675875 
L 233.78394 150.850179 
L 249.155078 147.568694 
L 265.550958 144.356201 
L 280.922095 141.591421 
L 297.317975 138.850949 
L 315.76334 136.006757 
L 334.208704 133.381299 
L 354.703554 130.697833 
L 377.247889 127.986172 
L 399.792224 125.504852 
L 424.386043 123.034161 
L 452.054091 120.492141 
L 479.722138 118.17359 
L 510.464413 115.832371 
L 543.256172 113.556214 
L 578.097417 111.364981 
L 616.012889 109.212463 
L 657.002589 107.112211 
L 701.066516 105.080553 
L 749.229413 103.087916 
L 803.540764 101.074938 
L 859.901601 99.221507 
L 922.410893 97.393484 
L 990.043898 95.641058 
L 993.118125 95.56632 
L 993.118125 95.56632 
" style="fill:none;stroke:#8085e9;stroke-linecap:square;"/>
   </g>
   <g id="line2d_12">
    <path clip-path="url(#p913be0ed01)" d="M 38.058125 273.99006 
L 39.082867 270.215678 
L 41.132352 264.397961 
L 43.181837 259.577121 
L 45.231322 255.354367 
L 47.280807 251.554963 
L 50.355035 246.441912 
L 53.429262 241.860424 
L 56.50349 237.68802 
L 59.577717 233.844029 
L 63.676687 229.132822 
L 67.775657 224.809705 
L 71.874627 220.8069 
L 75.973597 217.074018 
L 81.09731 212.730162 
L 86.221022 208.691814 
L 91.344734 204.914973 
L 97.493189 200.679993 
L 103.641644 196.724459 
L 109.790099 193.013654 
L 116.963297 188.956656 
L 124.136494 185.154233 
L 132.334434 181.08233 
L 140.532374 177.267856 
L 148.730314 173.681564 
L 157.952996 169.885959 
L 167.175679 166.317872 
L 177.423104 162.590827 
L 188.695271 158.749302 
L 199.967438 155.143227 
L 212.264348 151.449561 
L 224.561258 147.989957 
L 238.907653 144.206729 
L 254.27879 140.427612 
L 269.649928 136.901297 
L 285.021065 133.592309 
L 301.416945 130.285586 
L 320.887052 126.612527 
L 338.307674 123.559987 
L 358.802524 120.195084 
L 378.272631 117.213079 
L 401.841709 113.840297 
L 423.361301 110.971136 
L 447.955121 107.918234 
L 474.598425 104.83965 
L 502.266473 101.872969 
L 531.984005 98.913541 
L 561.701537 96.179058 
L 594.493297 93.370797 
L 629.334541 90.621328 
L 666.225271 87.933962 
L 705.165486 85.323282 
L 750.254155 82.540515 
L 795.342825 79.986937 
L 843.505722 77.484766 
L 894.742846 75.04671 
L 950.07894 72.639858 
L 993.118125 70.914988 
L 993.118125 70.914988 
" style="fill:none;stroke:#f15c80;stroke-linecap:square;"/>
   </g>
   <g id="line2d_13">
    <path clip-path="url(#p913be0ed01)" d="M 38.058125 273.99006 
L 87.186507 43.057035 
" style="fill:none;stroke:#000000;stroke-dasharray:3.7,1.6;stroke-dashoffset:0;"/>
   </g>
   <g id="line2d_14">
    <path clip-path="url(#p913be0ed01)" d="M 38.058125 273.99006 
L 993.118125 273.99006 
" style="fill:none;stroke:#dedede;stroke-linecap:square;stroke-width:2;"/>
   </g>
   <g id="text_14">
    <!-- Preseq: Complexity curve -->
    <g transform="translate(413.323125 19.3575)scale(0.16 -0.16)">
     <defs>
      <path d="M 1259 4147 
L 1259 2394 
L 2053 2394 
Q 2494 2394 2734 2622 
Q 2975 2850 2975 3272 
Q 2975 3691 2734 3919 
Q 2494 4147 2053 4147 
L 1259 4147 
z
M 628 4666 
L 2053 4666 
Q 2838 4666 3239 4311 
Q 3641 3956 3641 3272 
Q 3641 2581 3239 2228 
Q 2838 1875 2053 1875 
L 1259 1875 
L 1259 0 
L 628 0 
L 628 4666 
z
" id="DejaVuSans-50" transform="scale(0.015625)"/>
      <path d="M 2631 2963 
Q 2534 3019 2420 3045 
Q 2306 3072 2169 3072 
Q 1681 3072 1420 2755 
Q 1159 2438 1159 1844 
L 1159 0 
L 581 0 
L 581 3500 
L 1159 3500 
L 1159 2956 
Q 1341 3275 1631 3429 
Q 1922 3584 2338 3584 
Q 2397 3584 2469 3576 
Q 2541 3569 2628 3553 
L 2631 2963 
z
" id="DejaVuSans-72" transform="scale(0.015625)"/>
      <path d="M 750 794 
L 1409 794 
L 1409 0 
L 750 0 
L 750 794 
z
M 750 3309 
L 1409 3309 
L 1409 2516 
L 750 2516 
L 750 3309 
z
" id="DejaVuSans-3a" transform="scale(0.015625)"/>
      <path d="M 4122 4306 
L 4122 3641 
Q 3803 3938 3442 4084 
Q 3081 4231 2675 4231 
Q 1875 4231 1450 3742 
Q 1025 3253 1025 2328 
Q 1025 1406 1450 917 
Q 1875 428 2675 428 
Q 3081 428 3442 575 
Q 3803 722 4122 1019 
L 4122 359 
Q 3791 134 3420 21 
Q 3050 -91 2638 -91 
Q 1578 -91 968 557 
Q 359 1206 359 2328 
Q 359 3453 968 4101 
Q 1578 4750 2638 4750 
Q 3056 4750 3426 4639 
Q 3797 4528 4122 4306 
z
" id="DejaVuSans-43" transform="scale(0.015625)"/>
      <path d="M 3513 3500 
L 2247 1797 
L 3578 0 
L 2900 0 
L 1881 1375 
L 863 0 
L 184 0 
L 1544 1831 
L 300 3500 
L 978 3500 
L 1906 2253 
L 2834 3500 
L 3513 3500 
z
" id="DejaVuSans-78" transform="scale(0.015625)"/>
      <path d="M 2059 -325 
Q 1816 -950 1584 -1140 
Q 1353 -1331 966 -1331 
L 506 -1331 
L 506 -850 
L 844 -850 
Q 1081 -850 1212 -737 
Q 1344 -625 1503 -206 
L 1606 56 
L 191 3500 
L 800 3500 
L 1894 763 
L 2988 3500 
L 3597 3500 
L 2059 -325 
z
" id="DejaVuSans-79" transform="scale(0.015625)"/>
      <path d="M 191 3500 
L 800 3500 
L 1894 563 
L 2988 3500 
L 3597 3500 
L 2284 0 
L 1503 0 
L 191 3500 
z
" id="DejaVuSans-76" transform="scale(0.015625)"/>
     </defs>
     <use xlink:href="#DejaVuSans-50"/>
     <use x="58.552734" xlink:href="#DejaVuSans-72"/>
     <use x="97.416016" xlink:href="#DejaVuSans-65"/>
     <use x="158.939453" xlink:href="#DejaVuSans-73"/>
     <use x="211.039062" xlink:href="#DejaVuSans-65"/>
     <use x="272.5625" xlink:href="#DejaVuSans-71"/>
     <use x="336.039062" xlink:href="#DejaVuSans-3a"/>
     <use x="369.730469" xlink:href="#DejaVuSans-20"/>
     <use x="401.517578" xlink:href="#DejaVuSans-43"/>
     <use x="471.341797" xlink:href="#DejaVuSans-6f"/>
     <use x="532.523438" xlink:href="#DejaVuSans-6d"/>
     <use x="629.935547" xlink:href="#DejaVuSans-70"/>
     <use x="693.412109" xlink:href="#DejaVuSans-6c"/>
     <use x="721.195312" xlink:href="#DejaVuSans-65"/>
     <use x="780.96875" xlink:href="#DejaVuSans-78"/>
     <use x="840.148438" xlink:href="#DejaVuSans-69"/>
     <use x="867.931641" xlink:href="#DejaVuSans-74"/>
     <use x="907.140625" xlink:href="#DejaVuSans-79"/>
     <use x="966.320312" xlink:href="#DejaVuSans-20"/>
     <use x="998.107422" xlink:href="#DejaVuSans-63"/>
     <use x="1053.087891" xlink:href="#DejaVuSans-75"/>
     <use x="1116.466797" xlink:href="#DejaVuSans-72"/>
     <use x="1157.580078" xlink:href="#DejaVuSans-76"/>
     <use x="1216.759766" xlink:href="#DejaVuSans-65"/>
    </g>
   </g>
   <g id="legend_1">
    <g id="line2d_15">
     <path d="M 45.258125 303.490394 
L 61.258125 303.490394 
" style="fill:none;stroke:#7cb5ec;stroke-linecap:square;"/>
    </g>
    <g id="line2d_16"/>
    <g id="text_15">
     <!-- 1O.lc_extrap -->
     <g transform="translate(67.658125 306.290394)scale(0.08 -0.08)">
      <defs>
       <path d="M 2522 4238 
Q 1834 4238 1429 3725 
Q 1025 3213 1025 2328 
Q 1025 1447 1429 934 
Q 1834 422 2522 422 
Q 3209 422 3611 934 
Q 4013 1447 4013 2328 
Q 4013 3213 3611 3725 
Q 3209 4238 2522 4238 
z
M 2522 4750 
Q 3503 4750 4090 4092 
Q 4678 3434 4678 2328 
Q 4678 1225 4090 567 
Q 3503 -91 2522 -91 
Q 1538 -91 948 565 
Q 359 1222 359 2328 
Q 359 3434 948 4092 
Q 1538 4750 2522 4750 
z
" id="DejaVuSans-4f" transform="scale(0.015625)"/>
       <path d="M 684 794 
L 1344 794 
L 1344 0 
L 684 0 
L 684 794 
z
" id="DejaVuSans-2e" transform="scale(0.015625)"/>
       <path d="M 3263 -1063 
L 3263 -1509 
L -63 -1509 
L -63 -1063 
L 3263 -1063 
z
" id="DejaVuSans-5f" transform="scale(0.015625)"/>
      </defs>
      <use xlink:href="#DejaVuSans-31"/>
      <use x="63.623047" xlink:href="#DejaVuSans-4f"/>
      <use x="138.333984" xlink:href="#DejaVuSans-2e"/>
      <use x="170.121094" xlink:href="#DejaVuSans-6c"/>
      <use x="197.904297" xlink:href="#DejaVuSans-63"/>
      <use x="252.884766" xlink:href="#DejaVuSans-5f"/>
      <use x="302.884766" xlink:href="#DejaVuSans-65"/>
      <use x="362.658203" xlink:href="#DejaVuSans-78"/>
      <use x="421.837891" xlink:href="#DejaVuSans-74"/>
      <use x="461.046875" xlink:href="#DejaVuSans-72"/>
      <use x="502.160156" xlink:href="#DejaVuSans-61"/>
      <use x="563.439453" xlink:href="#DejaVuSans-70"/>
     </g>
    </g>
    <g id="line2d_17">
     <path d="M 45.258125 315.455394 
L 61.258125 315.455394 
" style="fill:none;stroke:#434348;stroke-linecap:square;"/>
    </g>
    <g id="line2d_18"/>
    <g id="text_16">
     <!-- 2O.lc_extrap -->
     <g transform="translate(67.658125 318.255394)scale(0.08 -0.08)">
      <use xlink:href="#DejaVuSans-32"/>
      <use x="63.623047" xlink:href="#DejaVuSans-4f"/>
      <use x="138.333984" xlink:href="#DejaVuSans-2e"/>
      <use x="170.121094" xlink:href="#DejaVuSans-6c"/>
      <use x="197.904297" xlink:href="#DejaVuSans-63"/>
      <use x="252.884766" xlink:href="#DejaVuSans-5f"/>
      <use x="302.884766" xlink:href="#DejaVuSans-65"/>
      <use x="362.658203" xlink:href="#DejaVuSans-78"/>
      <use x="421.837891" xlink:href="#DejaVuSans-74"/>
      <use x="461.046875" xlink:href="#DejaVuSans-72"/>
      <use x="502.160156" xlink:href="#DejaVuSans-61"/>
      <use x="563.439453" xlink:href="#DejaVuSans-70"/>
     </g>
    </g>
    <g id="line2d_19">
     <path d="M 221.87875 303.490394 
L 237.87875 303.490394 
" style="fill:none;stroke:#90ed7d;stroke-linecap:square;"/>
    </g>
    <g id="line2d_20"/>
    <g id="text_17">
     <!-- 3O.lc_extrap -->
     <g transform="translate(244.27875 306.290394)scale(0.08 -0.08)">
      <use xlink:href="#DejaVuSans-33"/>
      <use x="63.623047" xlink:href="#DejaVuSans-4f"/>
      <use x="138.333984" xlink:href="#DejaVuSans-2e"/>
      <use x="170.121094" xlink:href="#DejaVuSans-6c"/>
      <use x="197.904297" xlink:href="#DejaVuSans-63"/>
      <use x="252.884766" xlink:href="#DejaVuSans-5f"/>
      <use x="302.884766" xlink:href="#DejaVuSans-65"/>
      <use x="362.658203" xlink:href="#DejaVuSans-78"/>
      <use x="421.837891" xlink:href="#DejaVuSans-74"/>
      <use x="461.046875" xlink:href="#DejaVuSans-72"/>
      <use x="502.160156" xlink:href="#DejaVuSans-61"/>
      <use x="563.439453" xlink:href="#DejaVuSans-70"/>
     </g>
    </g>
    <g id="line2d_21">
     <path d="M 221.87875 315.455394 
L 237.87875 315.455394 
" style="fill:none;stroke:#f7a35c;stroke-linecap:square;"/>
    </g>
    <g id="line2d_22"/>
    <g id="text_18">
     <!-- P11_1.lc_extrap -->
     <g transform="translate(244.27875 318.255394)scale(0.08 -0.08)">
      <use xlink:href="#DejaVuSans-50"/>
      <use x="60.302734" xlink:href="#DejaVuSans-31"/>
      <use x="123.925781" xlink:href="#DejaVuSans-31"/>
      <use x="187.548828" xlink:href="#DejaVuSans-5f"/>
      <use x="237.548828" xlink:href="#DejaVuSans-31"/>
      <use x="301.171875" xlink:href="#DejaVuSans-2e"/>
      <use x="332.958984" xlink:href="#DejaVuSans-6c"/>
      <use x="360.742188" xlink:href="#DejaVuSans-63"/>
      <use x="415.722656" xlink:href="#DejaVuSans-5f"/>
      <use x="465.722656" xlink:href="#DejaVuSans-65"/>
      <use x="525.496094" xlink:href="#DejaVuSans-78"/>
      <use x="584.675781" xlink:href="#DejaVuSans-74"/>
      <use x="623.884766" xlink:href="#DejaVuSans-72"/>
      <use x="664.998047" xlink:href="#DejaVuSans-61"/>
      <use x="726.277344" xlink:href="#DejaVuSans-70"/>
     </g>
    </g>
    <g id="line2d_23">
     <path d="M 411.525625 303.490394 
L 427.525625 303.490394 
" style="fill:none;stroke:#8085e9;stroke-linecap:square;"/>
    </g>
    <g id="line2d_24"/>
    <g id="text_19">
     <!-- P11_2.lc_extrap -->
     <g transform="translate(433.925625 306.290394)scale(0.08 -0.08)">
      <use xlink:href="#DejaVuSans-50"/>
      <use x="60.302734" xlink:href="#DejaVuSans-31"/>
      <use x="123.925781" xlink:href="#DejaVuSans-31"/>
      <use x="187.548828" xlink:href="#DejaVuSans-5f"/>
      <use x="237.548828" xlink:href="#DejaVuSans-32"/>
      <use x="301.171875" xlink:href="#DejaVuSans-2e"/>
      <use x="332.958984" xlink:href="#DejaVuSans-6c"/>
      <use x="360.742188" xlink:href="#DejaVuSans-63"/>
      <use x="415.722656" xlink:href="#DejaVuSans-5f"/>
      <use x="465.722656" xlink:href="#DejaVuSans-65"/>
      <use x="525.496094" xlink:href="#DejaVuSans-78"/>
      <use x="584.675781" xlink:href="#DejaVuSans-74"/>
      <use x="623.884766" xlink:href="#DejaVuSans-72"/>
      <use x="664.998047" xlink:href="#DejaVuSans-61"/>
      <use x="726.277344" xlink:href="#DejaVuSans-70"/>
     </g>
    </g>
    <g id="line2d_25">
     <path d="M 601.1725 303.490394 
L 617.1725 303.490394 
" style="fill:none;stroke:#f15c80;stroke-linecap:square;"/>
    </g>
    <g id="line2d_26"/>
    <g id="text_20">
     <!-- P11_3.lc_extrap -->
     <g transform="translate(623.5725 306.290394)scale(0.08 -0.08)">
      <use xlink:href="#DejaVuSans-50"/>
      <use x="60.302734" xlink:href="#DejaVuSans-31"/>
      <use x="123.925781" xlink:href="#DejaVuSans-31"/>
      <use x="187.548828" xlink:href="#DejaVuSans-5f"/>
      <use x="237.548828" xlink:href="#DejaVuSans-33"/>
      <use x="301.171875" xlink:href="#DejaVuSans-2e"/>
      <use x="332.958984" xlink:href="#DejaVuSans-6c"/>
      <use x="360.742188" xlink:href="#DejaVuSans-63"/>
      <use x="415.722656" xlink:href="#DejaVuSans-5f"/>
      <use x="465.722656" xlink:href="#DejaVuSans-65"/>
      <use x="525.496094" xlink:href="#DejaVuSans-78"/>
      <use x="584.675781" xlink:href="#DejaVuSans-74"/>
      <use x="623.884766" xlink:href="#DejaVuSans-72"/>
      <use x="664.998047" xlink:href="#DejaVuSans-61"/>
      <use x="726.277344" xlink:href="#DejaVuSans-70"/>
     </g>
    </g>
    <g id="line2d_27">
     <path d="M 790.819375 303.490394 
L 806.819375 303.490394 
" style="fill:none;stroke:#000000;stroke-dasharray:3.7,1.6;stroke-dashoffset:0;"/>
    </g>
    <g id="line2d_28"/>
    <g id="text_21">
     <!-- a perfect library where each read is unique -->
     <g transform="translate(813.219375 306.290394)scale(0.08 -0.08)">
      <defs>
       <path d="M 2375 4863 
L 2375 4384 
L 1825 4384 
Q 1516 4384 1395 4259 
Q 1275 4134 1275 3809 
L 1275 3500 
L 2222 3500 
L 2222 3053 
L 1275 3053 
L 1275 0 
L 697 0 
L 697 3053 
L 147 3053 
L 147 3500 
L 697 3500 
L 697 3744 
Q 697 4328 969 4595 
Q 1241 4863 1831 4863 
L 2375 4863 
z
" id="DejaVuSans-66" transform="scale(0.015625)"/>
       <path d="M 3116 1747 
Q 3116 2381 2855 2742 
Q 2594 3103 2138 3103 
Q 1681 3103 1420 2742 
Q 1159 2381 1159 1747 
Q 1159 1113 1420 752 
Q 1681 391 2138 391 
Q 2594 391 2855 752 
Q 3116 1113 3116 1747 
z
M 1159 2969 
Q 1341 3281 1617 3432 
Q 1894 3584 2278 3584 
Q 2916 3584 3314 3078 
Q 3713 2572 3713 1747 
Q 3713 922 3314 415 
Q 2916 -91 2278 -91 
Q 1894 -91 1617 61 
Q 1341 213 1159 525 
L 1159 0 
L 581 0 
L 581 4863 
L 1159 4863 
L 1159 2969 
z
" id="DejaVuSans-62" transform="scale(0.015625)"/>
       <path d="M 269 3500 
L 844 3500 
L 1563 769 
L 2278 3500 
L 2956 3500 
L 3675 769 
L 4391 3500 
L 4966 3500 
L 4050 0 
L 3372 0 
L 2619 2869 
L 1863 0 
L 1184 0 
L 269 3500 
z
" id="DejaVuSans-77" transform="scale(0.015625)"/>
       <path d="M 3513 2113 
L 3513 0 
L 2938 0 
L 2938 2094 
Q 2938 2591 2744 2837 
Q 2550 3084 2163 3084 
Q 1697 3084 1428 2787 
Q 1159 2491 1159 1978 
L 1159 0 
L 581 0 
L 581 4863 
L 1159 4863 
L 1159 2956 
Q 1366 3272 1645 3428 
Q 1925 3584 2291 3584 
Q 2894 3584 3203 3211 
Q 3513 2838 3513 2113 
z
" id="DejaVuSans-68" transform="scale(0.015625)"/>
      </defs>
      <use xlink:href="#DejaVuSans-61"/>
      <use x="61.279297" xlink:href="#DejaVuSans-20"/>
      <use x="93.066406" xlink:href="#DejaVuSans-70"/>
      <use x="156.542969" xlink:href="#DejaVuSans-65"/>
      <use x="218.066406" xlink:href="#DejaVuSans-72"/>
      <use x="259.179688" xlink:href="#DejaVuSans-66"/>
      <use x="294.384766" xlink:href="#DejaVuSans-65"/>
      <use x="355.908203" xlink:href="#DejaVuSans-63"/>
      <use x="410.888672" xlink:href="#DejaVuSans-74"/>
      <use x="450.097656" xlink:href="#DejaVuSans-20"/>
      <use x="481.884766" xlink:href="#DejaVuSans-6c"/>
      <use x="509.667969" xlink:href="#DejaVuSans-69"/>
      <use x="537.451172" xlink:href="#DejaVuSans-62"/>
      <use x="600.927734" xlink:href="#DejaVuSans-72"/>
      <use x="642.041016" xlink:href="#DejaVuSans-61"/>
      <use x="703.320312" xlink:href="#DejaVuSans-72"/>
      <use x="744.433594" xlink:href="#DejaVuSans-79"/>
      <use x="803.613281" xlink:href="#DejaVuSans-20"/>
      <use x="835.400391" xlink:href="#DejaVuSans-77"/>
      <use x="917.1875" xlink:href="#DejaVuSans-68"/>
      <use x="980.566406" xlink:href="#DejaVuSans-65"/>
      <use x="1042.089844" xlink:href="#DejaVuSans-72"/>
      <use x="1080.953125" xlink:href="#DejaVuSans-65"/>
      <use x="1142.476562" xlink:href="#DejaVuSans-20"/>
      <use x="1174.263672" xlink:href="#DejaVuSans-65"/>
      <use x="1235.787109" xlink:href="#DejaVuSans-61"/>
      <use x="1297.066406" xlink:href="#DejaVuSans-63"/>
      <use x="1352.046875" xlink:href="#DejaVuSans-68"/>
      <use x="1415.425781" xlink:href="#DejaVuSans-20"/>
      <use x="1447.212891" xlink:href="#DejaVuSans-72"/>
      <use x="1486.076172" xlink:href="#DejaVuSans-65"/>
      <use x="1547.599609" xlink:href="#DejaVuSans-61"/>
      <use x="1608.878906" xlink:href="#DejaVuSans-64"/>
      <use x="1672.355469" xlink:href="#DejaVuSans-20"/>
      <use x="1704.142578" xlink:href="#DejaVuSans-69"/>
      <use x="1731.925781" xlink:href="#DejaVuSans-73"/>
      <use x="1784.025391" xlink:href="#DejaVuSans-20"/>
      <use x="1815.8125" xlink:href="#DejaVuSans-75"/>
      <use x="1879.191406" xlink:href="#DejaVuSans-6e"/>
      <use x="1942.570312" xlink:href="#DejaVuSans-69"/>
      <use x="1970.353516" xlink:href="#DejaVuSans-71"/>
      <use x="2033.830078" xlink:href="#DejaVuSans-75"/>
      <use x="2097.208984" xlink:href="#DejaVuSans-65"/>
     </g>
    </g>
   </g>
  </g>
 </g>
 <defs>
  <clipPath id="p913be0ed01">
   <rect height="242.5072" width="955.06" x="38.058125" y="31.48286"/>
  </clipPath>
 </defs>
</svg>
