<?xml version="1.0" encoding="utf-8" standalone="no"?>
<!DOCTYPE svg PUBLIC "-//W3C//DTD SVG 1.1//EN"
  "http://www.w3.org/Graphics/SVG/1.1/DTD/svg11.dtd">
<svg height="330.541644pt" version="1.1" viewBox="0 0 1000.280625 330.541644" width="1000.280625pt" xmlns="http://www.w3.org/2000/svg" xmlns:xlink="http://www.w3.org/1999/xlink">
 <metadata>
  <rdf:RDF xmlns:cc="http://creativecommons.org/ns#" xmlns:dc="http://purl.org/dc/elements/1.1/" xmlns:rdf="http://www.w3.org/1999/02/22-rdf-syntax-ns#">
   <cc:Work>
    <dc:type rdf:resource="http://purl.org/dc/dcmitype/StillImage"/>
    <dc:date>2024-09-06T15:37:25.576969</dc:date>
    <dc:format>image/svg+xml</dc:format>
    <dc:creator>
     <cc:Agent>
      <dc:title>Matplotlib v3.4.2, https://matplotlib.org/</dc:title>
     </cc:Agent>
    </dc:creator>
   </cc:Work>
  </rdf:RDF>
 </metadata>
 <defs>
  <style type="text/css">*{stroke-linecap:butt;stroke-linejoin:round;}</style>
 </defs>
 <g id="figure_1">
  <g id="axes_1">
   <g id="patch_1">
    <path d="M 40.600625 273.99006 
L 985.445625 273.99006 
L 985.445625 31.48286 
L 40.600625 31.48286 
z
" style="fill:#ffffff;"/>
   </g>
   <g id="matplotlib.axis_1">
    <g id="xtick_1">
     <g id="text_1">
      <!-- 0 -->
      <g transform="translate(38.055625 287.06881)scale(0.08 -0.08)">
       <defs>
        <path d="M 2034 4250 
Q 1547 4250 1301 3770 
Q 1056 3291 1056 2328 
Q 1056 1369 1301 889 
Q 1547 409 2034 409 
Q 2525 409 2770 889 
Q 3016 1369 3016 2328 
Q 3016 3291 2770 3770 
Q 2525 4250 2034 4250 
z
M 2034 4750 
Q 2819 4750 3233 4129 
Q 3647 3509 3647 2328 
Q 3647 1150 3233 529 
Q 2819 -91 2034 -91 
Q 1250 -91 836 529 
Q 422 1150 422 2328 
Q 422 3509 836 4129 
Q 1250 4750 2034 4750 
z
" id="DejaVuSans-30" transform="scale(0.015625)"/>
       </defs>
       <use xlink:href="#DejaVuSans-30"/>
      </g>
     </g>
    </g>
    <g id="xtick_2">
     <g id="text_2">
      <!-- 20 -->
      <g transform="translate(224.479625 287.06881)scale(0.08 -0.08)">
       <defs>
        <path d="M 1228 531 
L 3431 531 
L 3431 0 
L 469 0 
L 469 531 
Q 828 903 1448 1529 
Q 2069 2156 2228 2338 
Q 2531 2678 2651 2914 
Q 2772 3150 2772 3378 
Q 2772 3750 2511 3984 
Q 2250 4219 1831 4219 
Q 1534 4219 1204 4116 
Q 875 4013 500 3803 
L 500 4441 
Q 881 4594 1212 4672 
Q 1544 4750 1819 4750 
Q 2544 4750 2975 4387 
Q 3406 4025 3406 3419 
Q 3406 3131 3298 2873 
Q 3191 2616 2906 2266 
Q 2828 2175 2409 1742 
Q 1991 1309 1228 531 
z
" id="DejaVuSans-32" transform="scale(0.015625)"/>
       </defs>
       <use xlink:href="#DejaVuSans-32"/>
       <use x="63.623047" xlink:href="#DejaVuSans-30"/>
      </g>
     </g>
    </g>
    <g id="xtick_3">
     <g id="text_3">
      <!-- 40 -->
      <g transform="translate(413.448625 287.06881)scale(0.08 -0.08)">
       <defs>
        <path d="M 2419 4116 
L 825 1625 
L 2419 1625 
L 2419 4116 
z
M 2253 4666 
L 3047 4666 
L 3047 1625 
L 3713 1625 
L 3713 1100 
L 3047 1100 
L 3047 0 
L 2419 0 
L 2419 1100 
L 313 1100 
L 313 1709 
L 2253 4666 
z
" id="DejaVuSans-34" transform="scale(0.015625)"/>
       </defs>
       <use xlink:href="#DejaVuSans-34"/>
       <use x="63.623047" xlink:href="#DejaVuSans-30"/>
      </g>
     </g>
    </g>
    <g id="xtick_4">
     <g id="text_4">
      <!-- 60 -->
      <g transform="translate(602.417625 287.06881)scale(0.08 -0.08)">
       <defs>
        <path d="M 2113 2584 
Q 1688 2584 1439 2293 
Q 1191 2003 1191 1497 
Q 1191 994 1439 701 
Q 1688 409 2113 409 
Q 2538 409 2786 701 
Q 3034 994 3034 1497 
Q 3034 2003 2786 2293 
Q 2538 2584 2113 2584 
z
M 3366 4563 
L 3366 3988 
Q 3128 4100 2886 4159 
Q 2644 4219 2406 4219 
Q 1781 4219 1451 3797 
Q 1122 3375 1075 2522 
Q 1259 2794 1537 2939 
Q 1816 3084 2150 3084 
Q 2853 3084 3261 2657 
Q 3669 2231 3669 1497 
Q 3669 778 3244 343 
Q 2819 -91 2113 -91 
Q 1303 -91 875 529 
Q 447 1150 447 2328 
Q 447 3434 972 4092 
Q 1497 4750 2381 4750 
Q 2619 4750 2861 4703 
Q 3103 4656 3366 4563 
z
" id="DejaVuSans-36" transform="scale(0.015625)"/>
       </defs>
       <use xlink:href="#DejaVuSans-36"/>
       <use x="63.623047" xlink:href="#DejaVuSans-30"/>
      </g>
     </g>
    </g>
    <g id="xtick_5">
     <g id="text_5">
      <!-- 80 -->
      <g transform="translate(791.386625 287.06881)scale(0.08 -0.08)">
       <defs>
        <path d="M 2034 2216 
Q 1584 2216 1326 1975 
Q 1069 1734 1069 1313 
Q 1069 891 1326 650 
Q 1584 409 2034 409 
Q 2484 409 2743 651 
Q 3003 894 3003 1313 
Q 3003 1734 2745 1975 
Q 2488 2216 2034 2216 
z
M 1403 2484 
Q 997 2584 770 2862 
Q 544 3141 544 3541 
Q 544 4100 942 4425 
Q 1341 4750 2034 4750 
Q 2731 4750 3128 4425 
Q 3525 4100 3525 3541 
Q 3525 3141 3298 2862 
Q 3072 2584 2669 2484 
Q 3125 2378 3379 2068 
Q 3634 1759 3634 1313 
Q 3634 634 3220 271 
Q 2806 -91 2034 -91 
Q 1263 -91 848 271 
Q 434 634 434 1313 
Q 434 1759 690 2068 
Q 947 2378 1403 2484 
z
M 1172 3481 
Q 1172 3119 1398 2916 
Q 1625 2713 2034 2713 
Q 2441 2713 2670 2916 
Q 2900 3119 2900 3481 
Q 2900 3844 2670 4047 
Q 2441 4250 2034 4250 
Q 1625 4250 1398 4047 
Q 1172 3844 1172 3481 
z
" id="DejaVuSans-38" transform="scale(0.015625)"/>
       </defs>
       <use xlink:href="#DejaVuSans-38"/>
       <use x="63.623047" xlink:href="#DejaVuSans-30"/>
      </g>
     </g>
    </g>
    <g id="xtick_6">
     <g id="text_6">
      <!-- 100 -->
      <g transform="translate(977.810625 287.06881)scale(0.08 -0.08)">
       <defs>
        <path d="M 794 531 
L 1825 531 
L 1825 4091 
L 703 3866 
L 703 4441 
L 1819 4666 
L 2450 4666 
L 2450 531 
L 3481 531 
L 3481 0 
L 794 0 
L 794 531 
z
" id="DejaVuSans-31" transform="scale(0.015625)"/>
       </defs>
       <use xlink:href="#DejaVuSans-31"/>
       <use x="63.623047" xlink:href="#DejaVuSans-30"/>
       <use x="127.246094" xlink:href="#DejaVuSans-30"/>
      </g>
     </g>
    </g>
    <g id="text_7">
     <!-- Transcript Position (%) -->
     <g transform="translate(457.191094 300.330997)scale(0.1 -0.1)">
      <defs>
       <path d="M -19 4666 
L 3928 4666 
L 3928 4134 
L 2272 4134 
L 2272 0 
L 1638 0 
L 1638 4134 
L -19 4134 
L -19 4666 
z
" id="DejaVuSans-54" transform="scale(0.015625)"/>
       <path d="M 2631 2963 
Q 2534 3019 2420 3045 
Q 2306 3072 2169 3072 
Q 1681 3072 1420 2755 
Q 1159 2438 1159 1844 
L 1159 0 
L 581 0 
L 581 3500 
L 1159 3500 
L 1159 2956 
Q 1341 3275 1631 3429 
Q 1922 3584 2338 3584 
Q 2397 3584 2469 3576 
Q 2541 3569 2628 3553 
L 2631 2963 
z
" id="DejaVuSans-72" transform="scale(0.015625)"/>
       <path d="M 2194 1759 
Q 1497 1759 1228 1600 
Q 959 1441 959 1056 
Q 959 750 1161 570 
Q 1363 391 1709 391 
Q 2188 391 2477 730 
Q 2766 1069 2766 1631 
L 2766 1759 
L 2194 1759 
z
M 3341 1997 
L 3341 0 
L 2766 0 
L 2766 531 
Q 2569 213 2275 61 
Q 1981 -91 1556 -91 
Q 1019 -91 701 211 
Q 384 513 384 1019 
Q 384 1609 779 1909 
Q 1175 2209 1959 2209 
L 2766 2209 
L 2766 2266 
Q 2766 2663 2505 2880 
Q 2244 3097 1772 3097 
Q 1472 3097 1187 3025 
Q 903 2953 641 2809 
L 641 3341 
Q 956 3463 1253 3523 
Q 1550 3584 1831 3584 
Q 2591 3584 2966 3190 
Q 3341 2797 3341 1997 
z
" id="DejaVuSans-61" transform="scale(0.015625)"/>
       <path d="M 3513 2113 
L 3513 0 
L 2938 0 
L 2938 2094 
Q 2938 2591 2744 2837 
Q 2550 3084 2163 3084 
Q 1697 3084 1428 2787 
Q 1159 2491 1159 1978 
L 1159 0 
L 581 0 
L 581 3500 
L 1159 3500 
L 1159 2956 
Q 1366 3272 1645 3428 
Q 1925 3584 2291 3584 
Q 2894 3584 3203 3211 
Q 3513 2838 3513 2113 
z
" id="DejaVuSans-6e" transform="scale(0.015625)"/>
       <path d="M 2834 3397 
L 2834 2853 
Q 2591 2978 2328 3040 
Q 2066 3103 1784 3103 
Q 1356 3103 1142 2972 
Q 928 2841 928 2578 
Q 928 2378 1081 2264 
Q 1234 2150 1697 2047 
L 1894 2003 
Q 2506 1872 2764 1633 
Q 3022 1394 3022 966 
Q 3022 478 2636 193 
Q 2250 -91 1575 -91 
Q 1294 -91 989 -36 
Q 684 19 347 128 
L 347 722 
Q 666 556 975 473 
Q 1284 391 1588 391 
Q 1994 391 2212 530 
Q 2431 669 2431 922 
Q 2431 1156 2273 1281 
Q 2116 1406 1581 1522 
L 1381 1569 
Q 847 1681 609 1914 
Q 372 2147 372 2553 
Q 372 3047 722 3315 
Q 1072 3584 1716 3584 
Q 2034 3584 2315 3537 
Q 2597 3491 2834 3397 
z
" id="DejaVuSans-73" transform="scale(0.015625)"/>
       <path d="M 3122 3366 
L 3122 2828 
Q 2878 2963 2633 3030 
Q 2388 3097 2138 3097 
Q 1578 3097 1268 2742 
Q 959 2388 959 1747 
Q 959 1106 1268 751 
Q 1578 397 2138 397 
Q 2388 397 2633 464 
Q 2878 531 3122 666 
L 3122 134 
Q 2881 22 2623 -34 
Q 2366 -91 2075 -91 
Q 1284 -91 818 406 
Q 353 903 353 1747 
Q 353 2603 823 3093 
Q 1294 3584 2113 3584 
Q 2378 3584 2631 3529 
Q 2884 3475 3122 3366 
z
" id="DejaVuSans-63" transform="scale(0.015625)"/>
       <path d="M 603 3500 
L 1178 3500 
L 1178 0 
L 603 0 
L 603 3500 
z
M 603 4863 
L 1178 4863 
L 1178 4134 
L 603 4134 
L 603 4863 
z
" id="DejaVuSans-69" transform="scale(0.015625)"/>
       <path d="M 1159 525 
L 1159 -1331 
L 581 -1331 
L 581 3500 
L 1159 3500 
L 1159 2969 
Q 1341 3281 1617 3432 
Q 1894 3584 2278 3584 
Q 2916 3584 3314 3078 
Q 3713 2572 3713 1747 
Q 3713 922 3314 415 
Q 2916 -91 2278 -91 
Q 1894 -91 1617 61 
Q 1341 213 1159 525 
z
M 3116 1747 
Q 3116 2381 2855 2742 
Q 2594 3103 2138 3103 
Q 1681 3103 1420 2742 
Q 1159 2381 1159 1747 
Q 1159 1113 1420 752 
Q 1681 391 2138 391 
Q 2594 391 2855 752 
Q 3116 1113 3116 1747 
z
" id="DejaVuSans-70" transform="scale(0.015625)"/>
       <path d="M 1172 4494 
L 1172 3500 
L 2356 3500 
L 2356 3053 
L 1172 3053 
L 1172 1153 
Q 1172 725 1289 603 
Q 1406 481 1766 481 
L 2356 481 
L 2356 0 
L 1766 0 
Q 1100 0 847 248 
Q 594 497 594 1153 
L 594 3053 
L 172 3053 
L 172 3500 
L 594 3500 
L 594 4494 
L 1172 4494 
z
" id="DejaVuSans-74" transform="scale(0.015625)"/>
       <path id="DejaVuSans-20" transform="scale(0.015625)"/>
       <path d="M 1259 4147 
L 1259 2394 
L 2053 2394 
Q 2494 2394 2734 2622 
Q 2975 2850 2975 3272 
Q 2975 3691 2734 3919 
Q 2494 4147 2053 4147 
L 1259 4147 
z
M 628 4666 
L 2053 4666 
Q 2838 4666 3239 4311 
Q 3641 3956 3641 3272 
Q 3641 2581 3239 2228 
Q 2838 1875 2053 1875 
L 1259 1875 
L 1259 0 
L 628 0 
L 628 4666 
z
" id="DejaVuSans-50" transform="scale(0.015625)"/>
       <path d="M 1959 3097 
Q 1497 3097 1228 2736 
Q 959 2375 959 1747 
Q 959 1119 1226 758 
Q 1494 397 1959 397 
Q 2419 397 2687 759 
Q 2956 1122 2956 1747 
Q 2956 2369 2687 2733 
Q 2419 3097 1959 3097 
z
M 1959 3584 
Q 2709 3584 3137 3096 
Q 3566 2609 3566 1747 
Q 3566 888 3137 398 
Q 2709 -91 1959 -91 
Q 1206 -91 779 398 
Q 353 888 353 1747 
Q 353 2609 779 3096 
Q 1206 3584 1959 3584 
z
" id="DejaVuSans-6f" transform="scale(0.015625)"/>
       <path d="M 1984 4856 
Q 1566 4138 1362 3434 
Q 1159 2731 1159 2009 
Q 1159 1288 1364 580 
Q 1569 -128 1984 -844 
L 1484 -844 
Q 1016 -109 783 600 
Q 550 1309 550 2009 
Q 550 2706 781 3412 
Q 1013 4119 1484 4856 
L 1984 4856 
z
" id="DejaVuSans-28" transform="scale(0.015625)"/>
       <path d="M 4653 2053 
Q 4381 2053 4226 1822 
Q 4072 1591 4072 1178 
Q 4072 772 4226 539 
Q 4381 306 4653 306 
Q 4919 306 5073 539 
Q 5228 772 5228 1178 
Q 5228 1588 5073 1820 
Q 4919 2053 4653 2053 
z
M 4653 2450 
Q 5147 2450 5437 2106 
Q 5728 1763 5728 1178 
Q 5728 594 5436 251 
Q 5144 -91 4653 -91 
Q 4153 -91 3862 251 
Q 3572 594 3572 1178 
Q 3572 1766 3864 2108 
Q 4156 2450 4653 2450 
z
M 1428 4353 
Q 1159 4353 1004 4120 
Q 850 3888 850 3481 
Q 850 3069 1003 2837 
Q 1156 2606 1428 2606 
Q 1700 2606 1854 2837 
Q 2009 3069 2009 3481 
Q 2009 3884 1853 4118 
Q 1697 4353 1428 4353 
z
M 4250 4750 
L 4750 4750 
L 1831 -91 
L 1331 -91 
L 4250 4750 
z
M 1428 4750 
Q 1922 4750 2215 4408 
Q 2509 4066 2509 3481 
Q 2509 2891 2217 2550 
Q 1925 2209 1428 2209 
Q 931 2209 642 2551 
Q 353 2894 353 3481 
Q 353 4063 643 4406 
Q 934 4750 1428 4750 
z
" id="DejaVuSans-25" transform="scale(0.015625)"/>
       <path d="M 513 4856 
L 1013 4856 
Q 1481 4119 1714 3412 
Q 1947 2706 1947 2009 
Q 1947 1309 1714 600 
Q 1481 -109 1013 -844 
L 513 -844 
Q 928 -128 1133 580 
Q 1338 1288 1338 2009 
Q 1338 2731 1133 3434 
Q 928 4138 513 4856 
z
" id="DejaVuSans-29" transform="scale(0.015625)"/>
      </defs>
      <use xlink:href="#DejaVuSans-54"/>
      <use x="46.333984" xlink:href="#DejaVuSans-72"/>
      <use x="87.447266" xlink:href="#DejaVuSans-61"/>
      <use x="148.726562" xlink:href="#DejaVuSans-6e"/>
      <use x="212.105469" xlink:href="#DejaVuSans-73"/>
      <use x="264.205078" xlink:href="#DejaVuSans-63"/>
      <use x="319.185547" xlink:href="#DejaVuSans-72"/>
      <use x="360.298828" xlink:href="#DejaVuSans-69"/>
      <use x="388.082031" xlink:href="#DejaVuSans-70"/>
      <use x="451.558594" xlink:href="#DejaVuSans-74"/>
      <use x="490.767578" xlink:href="#DejaVuSans-20"/>
      <use x="522.554688" xlink:href="#DejaVuSans-50"/>
      <use x="579.232422" xlink:href="#DejaVuSans-6f"/>
      <use x="640.414062" xlink:href="#DejaVuSans-73"/>
      <use x="692.513672" xlink:href="#DejaVuSans-69"/>
      <use x="720.296875" xlink:href="#DejaVuSans-74"/>
      <use x="759.505859" xlink:href="#DejaVuSans-69"/>
      <use x="787.289062" xlink:href="#DejaVuSans-6f"/>
      <use x="848.470703" xlink:href="#DejaVuSans-6e"/>
      <use x="911.849609" xlink:href="#DejaVuSans-20"/>
      <use x="943.636719" xlink:href="#DejaVuSans-28"/>
      <use x="982.650391" xlink:href="#DejaVuSans-25"/>
      <use x="1077.669922" xlink:href="#DejaVuSans-29"/>
     </g>
    </g>
   </g>
   <g id="matplotlib.axis_2">
    <g id="ytick_1">
     <g id="line2d_1">
      <path clip-path="url(#p7832b43637)" d="M 40.600625 273.99006 
L 985.445625 273.99006 
" style="fill:none;stroke:#dedede;stroke-linecap:square;"/>
     </g>
     <g id="text_8">
      <!-- 0.0 -->
      <g transform="translate(20.878125 277.029435)scale(0.08 -0.08)">
       <defs>
        <path d="M 684 794 
L 1344 794 
L 1344 0 
L 684 0 
L 684 794 
z
" id="DejaVuSans-2e" transform="scale(0.015625)"/>
       </defs>
       <use xlink:href="#DejaVuSans-30"/>
       <use x="63.623047" xlink:href="#DejaVuSans-2e"/>
       <use x="95.410156" xlink:href="#DejaVuSans-30"/>
      </g>
     </g>
    </g>
    <g id="ytick_2">
     <g id="line2d_2">
      <path clip-path="url(#p7832b43637)" d="M 40.600625 233.53538 
L 985.445625 233.53538 
" style="fill:none;stroke:#dedede;stroke-linecap:square;"/>
     </g>
     <g id="text_9">
      <!-- 0.2 -->
      <g transform="translate(20.878125 236.574755)scale(0.08 -0.08)">
       <use xlink:href="#DejaVuSans-30"/>
       <use x="63.623047" xlink:href="#DejaVuSans-2e"/>
       <use x="95.410156" xlink:href="#DejaVuSans-32"/>
      </g>
     </g>
    </g>
    <g id="ytick_3">
     <g id="line2d_3">
      <path clip-path="url(#p7832b43637)" d="M 40.600625 193.080701 
L 985.445625 193.080701 
" style="fill:none;stroke:#dedede;stroke-linecap:square;"/>
     </g>
     <g id="text_10">
      <!-- 0.4 -->
      <g transform="translate(20.878125 196.120076)scale(0.08 -0.08)">
       <use xlink:href="#DejaVuSans-30"/>
       <use x="63.623047" xlink:href="#DejaVuSans-2e"/>
       <use x="95.410156" xlink:href="#DejaVuSans-34"/>
      </g>
     </g>
    </g>
    <g id="ytick_4">
     <g id="line2d_4">
      <path clip-path="url(#p7832b43637)" d="M 40.600625 152.626021 
L 985.445625 152.626021 
" style="fill:none;stroke:#dedede;stroke-linecap:square;"/>
     </g>
     <g id="text_11">
      <!-- 0.6 -->
      <g transform="translate(20.878125 155.665396)scale(0.08 -0.08)">
       <use xlink:href="#DejaVuSans-30"/>
       <use x="63.623047" xlink:href="#DejaVuSans-2e"/>
       <use x="95.410156" xlink:href="#DejaVuSans-36"/>
      </g>
     </g>
    </g>
    <g id="ytick_5">
     <g id="line2d_5">
      <path clip-path="url(#p7832b43637)" d="M 40.600625 112.171342 
L 985.445625 112.171342 
" style="fill:none;stroke:#dedede;stroke-linecap:square;"/>
     </g>
     <g id="text_12">
      <!-- 0.8 -->
      <g transform="translate(20.878125 115.210717)scale(0.08 -0.08)">
       <use xlink:href="#DejaVuSans-30"/>
       <use x="63.623047" xlink:href="#DejaVuSans-2e"/>
       <use x="95.410156" xlink:href="#DejaVuSans-38"/>
      </g>
     </g>
    </g>
    <g id="ytick_6">
     <g id="line2d_6">
      <path clip-path="url(#p7832b43637)" d="M 40.600625 71.716662 
L 985.445625 71.716662 
" style="fill:none;stroke:#dedede;stroke-linecap:square;"/>
     </g>
     <g id="text_13">
      <!-- 1.0 -->
      <g transform="translate(20.878125 74.756037)scale(0.08 -0.08)">
       <use xlink:href="#DejaVuSans-31"/>
       <use x="63.623047" xlink:href="#DejaVuSans-2e"/>
       <use x="95.410156" xlink:href="#DejaVuSans-30"/>
      </g>
     </g>
    </g>
    <g id="text_14">
     <!-- Percentage total cumulative mapped-read depth -->
     <g transform="translate(14.798438 274.59271)rotate(-90)scale(0.1 -0.1)">
      <defs>
       <path d="M 3597 1894 
L 3597 1613 
L 953 1613 
Q 991 1019 1311 708 
Q 1631 397 2203 397 
Q 2534 397 2845 478 
Q 3156 559 3463 722 
L 3463 178 
Q 3153 47 2828 -22 
Q 2503 -91 2169 -91 
Q 1331 -91 842 396 
Q 353 884 353 1716 
Q 353 2575 817 3079 
Q 1281 3584 2069 3584 
Q 2775 3584 3186 3129 
Q 3597 2675 3597 1894 
z
M 3022 2063 
Q 3016 2534 2758 2815 
Q 2500 3097 2075 3097 
Q 1594 3097 1305 2825 
Q 1016 2553 972 2059 
L 3022 2063 
z
" id="DejaVuSans-65" transform="scale(0.015625)"/>
       <path d="M 2906 1791 
Q 2906 2416 2648 2759 
Q 2391 3103 1925 3103 
Q 1463 3103 1205 2759 
Q 947 2416 947 1791 
Q 947 1169 1205 825 
Q 1463 481 1925 481 
Q 2391 481 2648 825 
Q 2906 1169 2906 1791 
z
M 3481 434 
Q 3481 -459 3084 -895 
Q 2688 -1331 1869 -1331 
Q 1566 -1331 1297 -1286 
Q 1028 -1241 775 -1147 
L 775 -588 
Q 1028 -725 1275 -790 
Q 1522 -856 1778 -856 
Q 2344 -856 2625 -561 
Q 2906 -266 2906 331 
L 2906 616 
Q 2728 306 2450 153 
Q 2172 0 1784 0 
Q 1141 0 747 490 
Q 353 981 353 1791 
Q 353 2603 747 3093 
Q 1141 3584 1784 3584 
Q 2172 3584 2450 3431 
Q 2728 3278 2906 2969 
L 2906 3500 
L 3481 3500 
L 3481 434 
z
" id="DejaVuSans-67" transform="scale(0.015625)"/>
       <path d="M 603 4863 
L 1178 4863 
L 1178 0 
L 603 0 
L 603 4863 
z
" id="DejaVuSans-6c" transform="scale(0.015625)"/>
       <path d="M 544 1381 
L 544 3500 
L 1119 3500 
L 1119 1403 
Q 1119 906 1312 657 
Q 1506 409 1894 409 
Q 2359 409 2629 706 
Q 2900 1003 2900 1516 
L 2900 3500 
L 3475 3500 
L 3475 0 
L 2900 0 
L 2900 538 
Q 2691 219 2414 64 
Q 2138 -91 1772 -91 
Q 1169 -91 856 284 
Q 544 659 544 1381 
z
M 1991 3584 
L 1991 3584 
z
" id="DejaVuSans-75" transform="scale(0.015625)"/>
       <path d="M 3328 2828 
Q 3544 3216 3844 3400 
Q 4144 3584 4550 3584 
Q 5097 3584 5394 3201 
Q 5691 2819 5691 2113 
L 5691 0 
L 5113 0 
L 5113 2094 
Q 5113 2597 4934 2840 
Q 4756 3084 4391 3084 
Q 3944 3084 3684 2787 
Q 3425 2491 3425 1978 
L 3425 0 
L 2847 0 
L 2847 2094 
Q 2847 2600 2669 2842 
Q 2491 3084 2119 3084 
Q 1678 3084 1418 2786 
Q 1159 2488 1159 1978 
L 1159 0 
L 581 0 
L 581 3500 
L 1159 3500 
L 1159 2956 
Q 1356 3278 1631 3431 
Q 1906 3584 2284 3584 
Q 2666 3584 2933 3390 
Q 3200 3197 3328 2828 
z
" id="DejaVuSans-6d" transform="scale(0.015625)"/>
       <path d="M 191 3500 
L 800 3500 
L 1894 563 
L 2988 3500 
L 3597 3500 
L 2284 0 
L 1503 0 
L 191 3500 
z
" id="DejaVuSans-76" transform="scale(0.015625)"/>
       <path d="M 2906 2969 
L 2906 4863 
L 3481 4863 
L 3481 0 
L 2906 0 
L 2906 525 
Q 2725 213 2448 61 
Q 2172 -91 1784 -91 
Q 1150 -91 751 415 
Q 353 922 353 1747 
Q 353 2572 751 3078 
Q 1150 3584 1784 3584 
Q 2172 3584 2448 3432 
Q 2725 3281 2906 2969 
z
M 947 1747 
Q 947 1113 1208 752 
Q 1469 391 1925 391 
Q 2381 391 2643 752 
Q 2906 1113 2906 1747 
Q 2906 2381 2643 2742 
Q 2381 3103 1925 3103 
Q 1469 3103 1208 2742 
Q 947 2381 947 1747 
z
" id="DejaVuSans-64" transform="scale(0.015625)"/>
       <path d="M 313 2009 
L 1997 2009 
L 1997 1497 
L 313 1497 
L 313 2009 
z
" id="DejaVuSans-2d" transform="scale(0.015625)"/>
       <path d="M 3513 2113 
L 3513 0 
L 2938 0 
L 2938 2094 
Q 2938 2591 2744 2837 
Q 2550 3084 2163 3084 
Q 1697 3084 1428 2787 
Q 1159 2491 1159 1978 
L 1159 0 
L 581 0 
L 581 4863 
L 1159 4863 
L 1159 2956 
Q 1366 3272 1645 3428 
Q 1925 3584 2291 3584 
Q 2894 3584 3203 3211 
Q 3513 2838 3513 2113 
z
" id="DejaVuSans-68" transform="scale(0.015625)"/>
      </defs>
      <use xlink:href="#DejaVuSans-50"/>
      <use x="56.677734" xlink:href="#DejaVuSans-65"/>
      <use x="118.201172" xlink:href="#DejaVuSans-72"/>
      <use x="157.064453" xlink:href="#DejaVuSans-63"/>
      <use x="212.044922" xlink:href="#DejaVuSans-65"/>
      <use x="273.568359" xlink:href="#DejaVuSans-6e"/>
      <use x="336.947266" xlink:href="#DejaVuSans-74"/>
      <use x="376.15625" xlink:href="#DejaVuSans-61"/>
      <use x="437.435547" xlink:href="#DejaVuSans-67"/>
      <use x="500.912109" xlink:href="#DejaVuSans-65"/>
      <use x="562.435547" xlink:href="#DejaVuSans-20"/>
      <use x="594.222656" xlink:href="#DejaVuSans-74"/>
      <use x="633.431641" xlink:href="#DejaVuSans-6f"/>
      <use x="694.613281" xlink:href="#DejaVuSans-74"/>
      <use x="733.822266" xlink:href="#DejaVuSans-61"/>
      <use x="795.101562" xlink:href="#DejaVuSans-6c"/>
      <use x="822.884766" xlink:href="#DejaVuSans-20"/>
      <use x="854.671875" xlink:href="#DejaVuSans-63"/>
      <use x="909.652344" xlink:href="#DejaVuSans-75"/>
      <use x="973.03125" xlink:href="#DejaVuSans-6d"/>
      <use x="1070.443359" xlink:href="#DejaVuSans-75"/>
      <use x="1133.822266" xlink:href="#DejaVuSans-6c"/>
      <use x="1161.605469" xlink:href="#DejaVuSans-61"/>
      <use x="1222.884766" xlink:href="#DejaVuSans-74"/>
      <use x="1262.09375" xlink:href="#DejaVuSans-69"/>
      <use x="1289.876953" xlink:href="#DejaVuSans-76"/>
      <use x="1349.056641" xlink:href="#DejaVuSans-65"/>
      <use x="1410.580078" xlink:href="#DejaVuSans-20"/>
      <use x="1442.367188" xlink:href="#DejaVuSans-6d"/>
      <use x="1539.779297" xlink:href="#DejaVuSans-61"/>
      <use x="1601.058594" xlink:href="#DejaVuSans-70"/>
      <use x="1664.535156" xlink:href="#DejaVuSans-70"/>
      <use x="1728.011719" xlink:href="#DejaVuSans-65"/>
      <use x="1789.535156" xlink:href="#DejaVuSans-64"/>
      <use x="1853.011719" xlink:href="#DejaVuSans-2d"/>
      <use x="1889.095703" xlink:href="#DejaVuSans-72"/>
      <use x="1927.958984" xlink:href="#DejaVuSans-65"/>
      <use x="1989.482422" xlink:href="#DejaVuSans-61"/>
      <use x="2050.761719" xlink:href="#DejaVuSans-64"/>
      <use x="2114.238281" xlink:href="#DejaVuSans-20"/>
      <use x="2146.025391" xlink:href="#DejaVuSans-64"/>
      <use x="2209.501953" xlink:href="#DejaVuSans-65"/>
      <use x="2271.025391" xlink:href="#DejaVuSans-70"/>
      <use x="2334.501953" xlink:href="#DejaVuSans-74"/>
      <use x="2373.710938" xlink:href="#DejaVuSans-68"/>
     </g>
    </g>
   </g>
   <g id="line2d_7">
    <path clip-path="url(#p7832b43637)" d="M 40.600625 155.632096 
L 50.049075 143.519648 
L 59.497525 136.34803 
L 68.945975 129.304786 
L 78.394425 120.940633 
L 87.842875 112.291393 
L 97.291325 103.365454 
L 106.739775 98.591294 
L 116.188225 93.708356 
L 125.636675 88.023358 
L 135.085125 83.528861 
L 144.533575 78.625197 
L 153.982025 75.501412 
L 163.430475 72.082044 
L 172.878925 69.085726 
L 182.327375 65.953178 
L 191.775825 64.788795 
L 201.224275 61.828761 
L 210.672725 59.005293 
L 220.121175 57.969951 
L 229.569625 55.940271 
L 239.018075 54.053049 
L 248.466525 52.99578 
L 257.914975 52.168438 
L 267.363425 51.725235 
L 276.811875 50.96414 
L 286.260325 50.578803 
L 295.708775 51.720062 
L 305.157225 52.342092 
L 314.605675 53.036751 
L 324.054125 53.486613 
L 333.502575 54.19348 
L 342.951025 54.469267 
L 352.399475 53.814756 
L 361.847925 52.7584 
L 371.296375 50.907948 
L 380.744825 50.039578 
L 390.193275 50.209615 
L 399.641725 49.351006 
L 409.090175 48.250131 
L 418.538625 46.20184 
L 427.987075 47.016412 
L 437.435525 47.194797 
L 446.883975 46.603679 
L 456.332425 46.420305 
L 465.780875 45.291883 
L 475.229325 45.265485 
L 484.677775 45.054795 
L 494.126225 43.741022 
L 503.574675 43.567725 
L 513.023125 44.979827 
L 522.471575 45.706969 
L 531.920025 45.98005 
L 541.368475 46.81681 
L 550.816925 47.184325 
L 560.265375 47.63289 
L 569.713825 49.349395 
L 579.162275 50.315859 
L 588.610725 50.776273 
L 598.059175 50.699161 
L 607.507625 50.528054 
L 616.956075 49.683653 
L 626.404525 47.841882 
L 635.852975 46.805491 
L 645.301425 46.979238 
L 654.749875 48.261478 
L 664.198325 49.458374 
L 673.646775 50.140405 
L 683.095225 48.377099 
L 692.543675 47.910149 
L 701.992125 46.938028 
L 711.440575 45.887399 
L 720.889025 44.494548 
L 730.337475 43.426023 
L 739.785925 44.039695 
L 749.234375 43.942149 
L 758.682825 45.076065 
L 768.131275 47.815337 
L 777.579725 49.954538 
L 787.028175 52.676034 
L 796.476625 55.087009 
L 805.925075 57.173939 
L 815.373525 58.698308 
L 824.821975 60.646662 
L 834.270425 64.298317 
L 843.718875 68.196527 
L 853.167325 72.899795 
L 862.615775 77.712423 
L 872.064225 83.859724 
L 881.512675 90.833059 
L 890.961125 99.46823 
L 900.409575 109.723733 
L 909.858025 121.433268 
L 919.306475 135.522762 
L 928.754925 149.836481 
L 938.203375 166.438847 
L 947.651825 187.564669 
L 957.100275 212.468439 
L 966.548725 237.718282 
L 975.997175 262.950907 
" style="fill:none;stroke:#7cb5ec;stroke-linecap:square;"/>
   </g>
   <g id="line2d_8">
    <path clip-path="url(#p7832b43637)" d="M 40.600625 156.275432 
L 50.049075 143.687993 
L 59.497525 136.215485 
L 68.945975 129.096014 
L 78.394425 120.810808 
L 87.842875 112.33509 
L 97.291325 103.441757 
L 106.739775 98.632909 
L 116.188225 93.695456 
L 125.636675 87.983645 
L 135.085125 83.654463 
L 144.533575 78.811283 
L 153.982025 75.88346 
L 163.430475 72.547876 
L 172.878925 69.66173 
L 182.327375 66.578591 
L 191.775825 65.442977 
L 201.224275 62.518826 
L 210.672725 59.744927 
L 220.121175 58.811233 
L 229.569625 56.877051 
L 239.018075 54.944911 
L 248.466525 53.751008 
L 257.914975 53.037461 
L 267.363425 52.614364 
L 276.811875 51.746432 
L 286.260325 51.337669 
L 295.708775 52.589507 
L 305.157225 53.165457 
L 314.605675 53.679392 
L 324.054125 53.959715 
L 333.502575 54.652779 
L 342.951025 54.61368 
L 352.399475 53.809859 
L 361.847925 52.542441 
L 371.296375 50.625306 
L 380.744825 49.878162 
L 390.193275 50.227925 
L 399.641725 49.455425 
L 409.090175 48.260496 
L 418.538625 46.320585 
L 427.987075 47.150406 
L 437.435525 47.338322 
L 446.883975 46.916431 
L 456.332425 46.745781 
L 465.780875 45.52755 
L 475.229325 45.56374 
L 484.677775 45.339189 
L 494.126225 44.13917 
L 503.574675 43.848693 
L 513.023125 45.165561 
L 522.471575 45.714199 
L 531.920025 45.818314 
L 541.368475 46.662198 
L 550.816925 47.044679 
L 560.265375 47.638451 
L 569.713825 49.34675 
L 579.162275 50.23755 
L 588.610725 50.614124 
L 598.059175 50.371976 
L 607.507625 49.982654 
L 616.956075 48.983632 
L 626.404525 47.082094 
L 635.852975 46.056971 
L 645.301425 46.25544 
L 654.749875 47.539608 
L 664.198325 48.67132 
L 673.646775 49.380301 
L 683.095225 47.680386 
L 692.543675 47.186213 
L 701.992125 46.158617 
L 711.440575 45.045242 
L 720.889025 43.585021 
L 730.337475 42.560136 
L 739.785925 42.993198 
L 749.234375 42.763347 
L 758.682825 43.923453 
L 768.131275 46.767623 
L 777.579725 49.073653 
L 787.028175 51.969316 
L 796.476625 54.531923 
L 805.925075 56.61057 
L 815.373525 58.128973 
L 824.821975 60.03829 
L 834.270425 63.771584 
L 843.718875 67.944192 
L 853.167325 72.869678 
L 862.615775 77.813582 
L 872.064225 83.996344 
L 881.512675 91.11215 
L 890.961125 99.743131 
L 900.409575 110.036334 
L 909.858025 121.755096 
L 919.306475 135.832902 
L 928.754925 150.20054 
L 938.203375 166.87884 
L 947.651825 188.001592 
L 957.100275 212.762998 
L 966.548725 237.88284 
L 975.997175 262.993756 
" style="fill:none;stroke:#434348;stroke-linecap:square;"/>
   </g>
   <g id="line2d_9">
    <path clip-path="url(#p7832b43637)" d="M 40.600625 154.701328 
L 50.049075 140.111914 
L 59.497525 130.998637 
L 68.945975 123.057689 
L 78.394425 114.128572 
L 87.842875 105.152797 
L 97.291325 95.074607 
L 106.739775 90.022493 
L 116.188225 85.245805 
L 125.636675 79.201089 
L 135.085125 74.917727 
L 144.533575 69.553155 
L 153.982025 67.092648 
L 163.430475 63.964103 
L 172.878925 61.176666 
L 182.327375 57.856357 
L 191.775825 56.734593 
L 201.224275 53.488825 
L 210.672725 51.205816 
L 220.121175 51.107152 
L 229.569625 49.412016 
L 239.018075 47.7783 
L 248.466525 47.044747 
L 257.914975 46.78569 
L 267.363425 46.829181 
L 276.811875 45.99144 
L 286.260325 45.837789 
L 295.708775 47.796277 
L 305.157225 48.974557 
L 314.605675 50.446503 
L 324.054125 51.502515 
L 333.502575 53.115759 
L 342.951025 53.834717 
L 352.399475 53.109944 
L 361.847925 52.04208 
L 371.296375 50.078988 
L 380.744825 49.538809 
L 390.193275 50.037318 
L 399.641725 49.322608 
L 409.090175 47.732842 
L 418.538625 45.067658 
L 427.987075 45.859705 
L 437.435525 46.344524 
L 446.883975 46.234984 
L 456.332425 46.320775 
L 465.780875 45.190902 
L 475.229325 45.348911 
L 484.677775 45.278608 
L 494.126225 44.237076 
L 503.574675 44.11864 
L 513.023125 45.86296 
L 522.471575 46.064891 
L 531.920025 46.65934 
L 541.368475 47.982438 
L 550.816925 48.869514 
L 560.265375 49.838261 
L 569.713825 51.909511 
L 579.162275 53.260661 
L 588.610725 53.930935 
L 598.059175 53.593023 
L 607.507625 53.297396 
L 616.956075 52.42399 
L 626.404525 50.175948 
L 635.852975 48.745306 
L 645.301425 49.400342 
L 654.749875 51.157096 
L 664.198325 52.463391 
L 673.646775 52.921981 
L 683.095225 51.028401 
L 692.543675 50.354962 
L 701.992125 48.891309 
L 711.440575 47.18285 
L 720.889025 45.514193 
L 730.337475 44.620774 
L 739.785925 45.742586 
L 749.234375 45.421269 
L 758.682825 46.882759 
L 768.131275 50.510803 
L 777.579725 53.152205 
L 787.028175 56.361339 
L 796.476625 59.292964 
L 805.925075 61.763436 
L 815.373525 63.591181 
L 824.821975 65.600114 
L 834.270425 69.926206 
L 843.718875 74.720941 
L 853.167325 80.188571 
L 862.615775 85.597276 
L 872.064225 92.50472 
L 881.512675 99.909692 
L 890.961125 108.673413 
L 900.409575 119.060782 
L 909.858025 130.736043 
L 919.306475 144.847994 
L 928.754925 159.000031 
L 938.203375 175.358046 
L 947.651825 195.972743 
L 957.100275 219.004194 
L 966.548725 241.585936 
L 975.997175 264.105647 
" style="fill:none;stroke:#90ed7d;stroke-linecap:square;"/>
   </g>
   <g id="line2d_10">
    <path clip-path="url(#p7832b43637)" d="M 40.600625 149.074631 
L 50.049075 135.089032 
L 59.497525 127.1272 
L 68.945975 119.930772 
L 78.394425 111.766038 
L 87.842875 103.568589 
L 97.291325 95.058988 
L 106.739775 90.579073 
L 116.188225 86.07634 
L 125.636675 80.63087 
L 135.085125 76.535736 
L 144.533575 72.09777 
L 153.982025 69.602735 
L 163.430475 66.559692 
L 172.878925 64.118565 
L 182.327375 61.469889 
L 191.775825 60.610098 
L 201.224275 57.794423 
L 210.672725 55.389422 
L 220.121175 54.740603 
L 229.569625 53.226653 
L 239.018075 51.751805 
L 248.466525 50.71153 
L 257.914975 50.358539 
L 267.363425 50.257935 
L 276.811875 49.52447 
L 286.260325 49.168853 
L 295.708775 50.547933 
L 305.157225 51.224475 
L 314.605675 51.786443 
L 324.054125 52.184452 
L 333.502575 53.023344 
L 342.951025 53.068781 
L 352.399475 52.535168 
L 361.847925 51.462218 
L 371.296375 49.818861 
L 380.744825 49.131147 
L 390.193275 49.620145 
L 399.641725 49.195695 
L 409.090175 48.42301 
L 418.538625 46.806034 
L 427.987075 47.592683 
L 437.435525 47.865052 
L 446.883975 47.500316 
L 456.332425 47.572656 
L 465.780875 46.740253 
L 475.229325 47.005259 
L 484.677775 46.747984 
L 494.126225 45.780711 
L 503.574675 45.649073 
L 513.023125 46.947143 
L 522.471575 47.483488 
L 531.920025 47.717867 
L 541.368475 48.602065 
L 550.816925 48.994172 
L 560.265375 49.702825 
L 569.713825 51.573457 
L 579.162275 52.559331 
L 588.610725 52.884763 
L 598.059175 52.711387 
L 607.507625 52.356487 
L 616.956075 51.627955 
L 626.404525 50.008487 
L 635.852975 49.114476 
L 645.301425 49.530754 
L 654.749875 50.959357 
L 664.198325 52.22585 
L 673.646775 52.911205 
L 683.095225 51.449699 
L 692.543675 51.234306 
L 701.992125 50.474999 
L 711.440575 49.494249 
L 720.889025 48.207624 
L 730.337475 47.437257 
L 739.785925 47.939594 
L 749.234375 47.747654 
L 758.682825 48.834774 
L 768.131275 51.468375 
L 777.579725 53.667689 
L 787.028175 56.313206 
L 796.476625 58.737318 
L 805.925075 60.869388 
L 815.373525 62.406844 
L 824.821975 64.402078 
L 834.270425 68.134234 
L 843.718875 72.214148 
L 853.167325 77.111125 
L 862.615775 82.009644 
L 872.064225 88.171833 
L 881.512675 95.211314 
L 890.961125 103.593722 
L 900.409575 113.590915 
L 909.858025 124.935753 
L 919.306475 138.599829 
L 928.754925 152.522203 
L 938.203375 168.749524 
L 947.651825 189.335626 
L 957.100275 213.442878 
L 966.548725 238.225724 
L 975.997175 263.119666 
" style="fill:none;stroke:#f7a35c;stroke-linecap:square;"/>
   </g>
   <g id="line2d_11">
    <path clip-path="url(#p7832b43637)" d="M 40.600625 153.144788 
L 50.049075 138.999444 
L 59.497525 131.025018 
L 68.945975 123.893268 
L 78.394425 115.665493 
L 87.842875 107.679385 
L 97.291325 99.258364 
L 106.739775 94.705409 
L 116.188225 90.024549 
L 125.636675 84.534135 
L 135.085125 80.416798 
L 144.533575 75.81142 
L 153.982025 73.152629 
L 163.430475 69.934958 
L 172.878925 67.272156 
L 182.327375 64.459256 
L 191.775825 63.465363 
L 201.224275 60.557316 
L 210.672725 58.061967 
L 220.121175 57.282588 
L 229.569625 55.555411 
L 239.018075 53.82848 
L 248.466525 52.698654 
L 257.914975 52.15994 
L 267.363425 51.961923 
L 276.811875 51.172162 
L 286.260325 50.824443 
L 295.708775 52.332513 
L 305.157225 52.99471 
L 314.605675 53.618457 
L 324.054125 53.892102 
L 333.502575 54.559032 
L 342.951025 54.495547 
L 352.399475 53.735402 
L 361.847925 52.587128 
L 371.296375 50.721825 
L 380.744825 49.857066 
L 390.193275 50.165868 
L 399.641725 49.554033 
L 409.090175 48.591076 
L 418.538625 46.768723 
L 427.987075 47.405481 
L 437.435525 47.5994 
L 446.883975 47.204532 
L 456.332425 47.246319 
L 465.780875 46.290308 
L 475.229325 46.533971 
L 484.677775 46.295637 
L 494.126225 45.272444 
L 503.574675 45.00338 
L 513.023125 46.179361 
L 522.471575 46.525639 
L 531.920025 46.722597 
L 541.368475 47.55442 
L 550.816925 47.993999 
L 560.265375 48.691689 
L 569.713825 50.391439 
L 579.162275 51.243364 
L 588.610725 51.58865 
L 598.059175 51.33839 
L 607.507625 50.98243 
L 616.956075 50.14707 
L 626.404525 48.348738 
L 635.852975 47.301882 
L 645.301425 47.489808 
L 654.749875 48.851101 
L 664.198325 49.930375 
L 673.646775 50.520823 
L 683.095225 48.87067 
L 692.543675 48.560452 
L 701.992125 47.706314 
L 711.440575 46.593536 
L 720.889025 45.206338 
L 730.337475 44.355323 
L 739.785925 44.774828 
L 749.234375 44.542478 
L 758.682825 45.762207 
L 768.131275 48.460955 
L 777.579725 50.762628 
L 787.028175 53.607314 
L 796.476625 56.279721 
L 805.925075 58.466107 
L 815.373525 60.073149 
L 824.821975 61.92052 
L 834.270425 65.633704 
L 843.718875 69.778949 
L 853.167325 74.725212 
L 862.615775 79.657022 
L 872.064225 85.868167 
L 881.512675 92.983982 
L 890.961125 101.346625 
L 900.409575 111.425186 
L 909.858025 122.925841 
L 919.306475 136.934538 
L 928.754925 151.216406 
L 938.203375 167.749997 
L 947.651825 188.771025 
L 957.100275 213.247136 
L 966.548725 238.250397 
L 975.997175 263.137422 
" style="fill:none;stroke:#8085e9;stroke-linecap:square;"/>
   </g>
   <g id="line2d_12">
    <path clip-path="url(#p7832b43637)" d="M 40.600625 146.394712 
L 50.049075 131.498692 
L 59.497525 123.033364 
L 68.945975 115.596621 
L 78.394425 107.277772 
L 87.842875 99.187107 
L 97.291325 90.863327 
L 106.739775 86.505864 
L 116.188225 82.112796 
L 125.636675 76.861516 
L 135.085125 72.963725 
L 144.533575 68.760033 
L 153.982025 66.426846 
L 163.430475 63.47384 
L 172.878925 61.273213 
L 182.327375 58.87391 
L 191.775825 58.293244 
L 201.224275 55.685225 
L 210.672725 53.522084 
L 220.121175 52.963414 
L 229.569625 51.664916 
L 239.018075 50.32434 
L 248.466525 49.348861 
L 257.914975 49.130075 
L 267.363425 49.187073 
L 276.811875 48.7266 
L 286.260325 48.513117 
L 295.708775 50.071379 
L 305.157225 50.875561 
L 314.605675 51.649482 
L 324.054125 52.175504 
L 333.502575 52.976652 
L 342.951025 53.102087 
L 352.399475 52.654563 
L 361.847925 51.612246 
L 371.296375 49.938115 
L 380.744825 49.189148 
L 390.193275 49.654 
L 399.641725 49.240971 
L 409.090175 48.523413 
L 418.538625 47.010834 
L 427.987075 47.815883 
L 437.435525 48.18477 
L 446.883975 48.031604 
L 456.332425 48.191584 
L 465.780875 47.387255 
L 475.229325 47.762404 
L 484.677775 47.624425 
L 494.126225 46.655152 
L 503.574675 46.525687 
L 513.023125 47.814386 
L 522.471575 48.325024 
L 531.920025 48.624574 
L 541.368475 49.582696 
L 550.816925 49.983176 
L 560.265375 50.612643 
L 569.713825 52.441216 
L 579.162275 53.403017 
L 588.610725 53.804338 
L 598.059175 53.644335 
L 607.507625 53.430209 
L 616.956075 52.728225 
L 626.404525 51.114718 
L 635.852975 50.351238 
L 645.301425 50.711154 
L 654.749875 52.187182 
L 664.198325 53.461158 
L 673.646775 54.155095 
L 683.095225 52.653889 
L 692.543675 52.532091 
L 701.992125 51.875908 
L 711.440575 51.000251 
L 720.889025 49.838883 
L 730.337475 49.188798 
L 739.785925 49.769564 
L 749.234375 49.618905 
L 758.682825 50.801449 
L 768.131275 53.509881 
L 777.579725 55.836482 
L 787.028175 58.583558 
L 796.476625 61.154356 
L 805.925075 63.330179 
L 815.373525 64.854232 
L 824.821975 66.743213 
L 834.270425 70.356596 
L 843.718875 74.329296 
L 853.167325 79.065686 
L 862.615775 83.82961 
L 872.064225 89.927741 
L 881.512675 96.920796 
L 890.961125 105.134903 
L 900.409575 114.981897 
L 909.858025 126.159793 
L 919.306475 139.707323 
L 928.754925 153.512682 
L 938.203375 169.530424 
L 947.651825 189.87717 
L 957.100275 213.776317 
L 966.548725 238.43158 
L 975.997175 263.143357 
" style="fill:none;stroke:#f15c80;stroke-linecap:square;"/>
   </g>
   <g id="line2d_13">
    <path clip-path="url(#p7832b43637)" d="M 40.600625 273.99006 
L 985.445625 273.99006 
" style="fill:none;stroke:#dedede;stroke-linecap:square;stroke-width:2;"/>
   </g>
   <g id="text_15">
    <!-- Qualimap RNAseq: Coverage Profile Along Genes (total) -->
    <g transform="translate(289.641875 19.3575)scale(0.16 -0.16)">
     <defs>
      <path d="M 2522 4238 
Q 1834 4238 1429 3725 
Q 1025 3213 1025 2328 
Q 1025 1447 1429 934 
Q 1834 422 2522 422 
Q 3209 422 3611 934 
Q 4013 1447 4013 2328 
Q 4013 3213 3611 3725 
Q 3209 4238 2522 4238 
z
M 3406 84 
L 4238 -825 
L 3475 -825 
L 2784 -78 
Q 2681 -84 2626 -87 
Q 2572 -91 2522 -91 
Q 1538 -91 948 567 
Q 359 1225 359 2328 
Q 359 3434 948 4092 
Q 1538 4750 2522 4750 
Q 3503 4750 4090 4092 
Q 4678 3434 4678 2328 
Q 4678 1516 4351 937 
Q 4025 359 3406 84 
z
" id="DejaVuSans-51" transform="scale(0.015625)"/>
      <path d="M 2841 2188 
Q 3044 2119 3236 1894 
Q 3428 1669 3622 1275 
L 4263 0 
L 3584 0 
L 2988 1197 
Q 2756 1666 2539 1819 
Q 2322 1972 1947 1972 
L 1259 1972 
L 1259 0 
L 628 0 
L 628 4666 
L 2053 4666 
Q 2853 4666 3247 4331 
Q 3641 3997 3641 3322 
Q 3641 2881 3436 2590 
Q 3231 2300 2841 2188 
z
M 1259 4147 
L 1259 2491 
L 2053 2491 
Q 2509 2491 2742 2702 
Q 2975 2913 2975 3322 
Q 2975 3731 2742 3939 
Q 2509 4147 2053 4147 
L 1259 4147 
z
" id="DejaVuSans-52" transform="scale(0.015625)"/>
      <path d="M 628 4666 
L 1478 4666 
L 3547 763 
L 3547 4666 
L 4159 4666 
L 4159 0 
L 3309 0 
L 1241 3903 
L 1241 0 
L 628 0 
L 628 4666 
z
" id="DejaVuSans-4e" transform="scale(0.015625)"/>
      <path d="M 2188 4044 
L 1331 1722 
L 3047 1722 
L 2188 4044 
z
M 1831 4666 
L 2547 4666 
L 4325 0 
L 3669 0 
L 3244 1197 
L 1141 1197 
L 716 0 
L 50 0 
L 1831 4666 
z
" id="DejaVuSans-41" transform="scale(0.015625)"/>
      <path d="M 947 1747 
Q 947 1113 1208 752 
Q 1469 391 1925 391 
Q 2381 391 2643 752 
Q 2906 1113 2906 1747 
Q 2906 2381 2643 2742 
Q 2381 3103 1925 3103 
Q 1469 3103 1208 2742 
Q 947 2381 947 1747 
z
M 2906 525 
Q 2725 213 2448 61 
Q 2172 -91 1784 -91 
Q 1150 -91 751 415 
Q 353 922 353 1747 
Q 353 2572 751 3078 
Q 1150 3584 1784 3584 
Q 2172 3584 2448 3432 
Q 2725 3281 2906 2969 
L 2906 3500 
L 3481 3500 
L 3481 -1331 
L 2906 -1331 
L 2906 525 
z
" id="DejaVuSans-71" transform="scale(0.015625)"/>
      <path d="M 750 794 
L 1409 794 
L 1409 0 
L 750 0 
L 750 794 
z
M 750 3309 
L 1409 3309 
L 1409 2516 
L 750 2516 
L 750 3309 
z
" id="DejaVuSans-3a" transform="scale(0.015625)"/>
      <path d="M 4122 4306 
L 4122 3641 
Q 3803 3938 3442 4084 
Q 3081 4231 2675 4231 
Q 1875 4231 1450 3742 
Q 1025 3253 1025 2328 
Q 1025 1406 1450 917 
Q 1875 428 2675 428 
Q 3081 428 3442 575 
Q 3803 722 4122 1019 
L 4122 359 
Q 3791 134 3420 21 
Q 3050 -91 2638 -91 
Q 1578 -91 968 557 
Q 359 1206 359 2328 
Q 359 3453 968 4101 
Q 1578 4750 2638 4750 
Q 3056 4750 3426 4639 
Q 3797 4528 4122 4306 
z
" id="DejaVuSans-43" transform="scale(0.015625)"/>
      <path d="M 2375 4863 
L 2375 4384 
L 1825 4384 
Q 1516 4384 1395 4259 
Q 1275 4134 1275 3809 
L 1275 3500 
L 2222 3500 
L 2222 3053 
L 1275 3053 
L 1275 0 
L 697 0 
L 697 3053 
L 147 3053 
L 147 3500 
L 697 3500 
L 697 3744 
Q 697 4328 969 4595 
Q 1241 4863 1831 4863 
L 2375 4863 
z
" id="DejaVuSans-66" transform="scale(0.015625)"/>
      <path d="M 3809 666 
L 3809 1919 
L 2778 1919 
L 2778 2438 
L 4434 2438 
L 4434 434 
Q 4069 175 3628 42 
Q 3188 -91 2688 -91 
Q 1594 -91 976 548 
Q 359 1188 359 2328 
Q 359 3472 976 4111 
Q 1594 4750 2688 4750 
Q 3144 4750 3555 4637 
Q 3966 4525 4313 4306 
L 4313 3634 
Q 3963 3931 3569 4081 
Q 3175 4231 2741 4231 
Q 1884 4231 1454 3753 
Q 1025 3275 1025 2328 
Q 1025 1384 1454 906 
Q 1884 428 2741 428 
Q 3075 428 3337 486 
Q 3600 544 3809 666 
z
" id="DejaVuSans-47" transform="scale(0.015625)"/>
     </defs>
     <use xlink:href="#DejaVuSans-51"/>
     <use x="78.710938" xlink:href="#DejaVuSans-75"/>
     <use x="142.089844" xlink:href="#DejaVuSans-61"/>
     <use x="203.369141" xlink:href="#DejaVuSans-6c"/>
     <use x="231.152344" xlink:href="#DejaVuSans-69"/>
     <use x="258.935547" xlink:href="#DejaVuSans-6d"/>
     <use x="356.347656" xlink:href="#DejaVuSans-61"/>
     <use x="417.626953" xlink:href="#DejaVuSans-70"/>
     <use x="481.103516" xlink:href="#DejaVuSans-20"/>
     <use x="512.890625" xlink:href="#DejaVuSans-52"/>
     <use x="582.373047" xlink:href="#DejaVuSans-4e"/>
     <use x="657.177734" xlink:href="#DejaVuSans-41"/>
     <use x="725.585938" xlink:href="#DejaVuSans-73"/>
     <use x="777.685547" xlink:href="#DejaVuSans-65"/>
     <use x="839.208984" xlink:href="#DejaVuSans-71"/>
     <use x="902.685547" xlink:href="#DejaVuSans-3a"/>
     <use x="936.376953" xlink:href="#DejaVuSans-20"/>
     <use x="968.164062" xlink:href="#DejaVuSans-43"/>
     <use x="1037.988281" xlink:href="#DejaVuSans-6f"/>
     <use x="1099.169922" xlink:href="#DejaVuSans-76"/>
     <use x="1158.349609" xlink:href="#DejaVuSans-65"/>
     <use x="1219.873047" xlink:href="#DejaVuSans-72"/>
     <use x="1260.986328" xlink:href="#DejaVuSans-61"/>
     <use x="1322.265625" xlink:href="#DejaVuSans-67"/>
     <use x="1385.742188" xlink:href="#DejaVuSans-65"/>
     <use x="1447.265625" xlink:href="#DejaVuSans-20"/>
     <use x="1479.052734" xlink:href="#DejaVuSans-50"/>
     <use x="1537.605469" xlink:href="#DejaVuSans-72"/>
     <use x="1576.46875" xlink:href="#DejaVuSans-6f"/>
     <use x="1637.650391" xlink:href="#DejaVuSans-66"/>
     <use x="1672.855469" xlink:href="#DejaVuSans-69"/>
     <use x="1700.638672" xlink:href="#DejaVuSans-6c"/>
     <use x="1728.421875" xlink:href="#DejaVuSans-65"/>
     <use x="1789.945312" xlink:href="#DejaVuSans-20"/>
     <use x="1821.732422" xlink:href="#DejaVuSans-41"/>
     <use x="1890.140625" xlink:href="#DejaVuSans-6c"/>
     <use x="1917.923828" xlink:href="#DejaVuSans-6f"/>
     <use x="1979.105469" xlink:href="#DejaVuSans-6e"/>
     <use x="2042.484375" xlink:href="#DejaVuSans-67"/>
     <use x="2105.960938" xlink:href="#DejaVuSans-20"/>
     <use x="2137.748047" xlink:href="#DejaVuSans-47"/>
     <use x="2215.238281" xlink:href="#DejaVuSans-65"/>
     <use x="2276.761719" xlink:href="#DejaVuSans-6e"/>
     <use x="2340.140625" xlink:href="#DejaVuSans-65"/>
     <use x="2401.664062" xlink:href="#DejaVuSans-73"/>
     <use x="2453.763672" xlink:href="#DejaVuSans-20"/>
     <use x="2485.550781" xlink:href="#DejaVuSans-28"/>
     <use x="2524.564453" xlink:href="#DejaVuSans-74"/>
     <use x="2563.773438" xlink:href="#DejaVuSans-6f"/>
     <use x="2624.955078" xlink:href="#DejaVuSans-74"/>
     <use x="2664.164062" xlink:href="#DejaVuSans-61"/>
     <use x="2725.443359" xlink:href="#DejaVuSans-6c"/>
     <use x="2753.226562" xlink:href="#DejaVuSans-29"/>
    </g>
   </g>
   <g id="legend_1">
    <g id="line2d_14">
     <path d="M 47.800625 303.935394 
L 63.800625 303.935394 
" style="fill:none;stroke:#7cb5ec;stroke-linecap:square;"/>
    </g>
    <g id="line2d_15"/>
    <g id="text_16">
     <!-- 1O -->
     <g transform="translate(70.200625 306.735394)scale(0.08 -0.08)">
      <defs>
       <path d="M 2522 4238 
Q 1834 4238 1429 3725 
Q 1025 3213 1025 2328 
Q 1025 1447 1429 934 
Q 1834 422 2522 422 
Q 3209 422 3611 934 
Q 4013 1447 4013 2328 
Q 4013 3213 3611 3725 
Q 3209 4238 2522 4238 
z
M 2522 4750 
Q 3503 4750 4090 4092 
Q 4678 3434 4678 2328 
Q 4678 1225 4090 567 
Q 3503 -91 2522 -91 
Q 1538 -91 948 565 
Q 359 1222 359 2328 
Q 359 3434 948 4092 
Q 1538 4750 2522 4750 
z
" id="DejaVuSans-4f" transform="scale(0.015625)"/>
      </defs>
      <use xlink:href="#DejaVuSans-31"/>
      <use x="63.623047" xlink:href="#DejaVuSans-4f"/>
     </g>
    </g>
    <g id="line2d_16">
     <path d="M 47.800625 315.677894 
L 63.800625 315.677894 
" style="fill:none;stroke:#434348;stroke-linecap:square;"/>
    </g>
    <g id="line2d_17"/>
    <g id="text_17">
     <!-- 2O -->
     <g transform="translate(70.200625 318.477894)scale(0.08 -0.08)">
      <use xlink:href="#DejaVuSans-32"/>
      <use x="63.623047" xlink:href="#DejaVuSans-4f"/>
     </g>
    </g>
    <g id="line2d_18">
     <path d="M 262.435313 303.935394 
L 278.435313 303.935394 
" style="fill:none;stroke:#90ed7d;stroke-linecap:square;"/>
    </g>
    <g id="line2d_19"/>
    <g id="text_18">
     <!-- 3O -->
     <g transform="translate(284.835312 306.735394)scale(0.08 -0.08)">
      <defs>
       <path d="M 2597 2516 
Q 3050 2419 3304 2112 
Q 3559 1806 3559 1356 
Q 3559 666 3084 287 
Q 2609 -91 1734 -91 
Q 1441 -91 1130 -33 
Q 819 25 488 141 
L 488 750 
Q 750 597 1062 519 
Q 1375 441 1716 441 
Q 2309 441 2620 675 
Q 2931 909 2931 1356 
Q 2931 1769 2642 2001 
Q 2353 2234 1838 2234 
L 1294 2234 
L 1294 2753 
L 1863 2753 
Q 2328 2753 2575 2939 
Q 2822 3125 2822 3475 
Q 2822 3834 2567 4026 
Q 2313 4219 1838 4219 
Q 1578 4219 1281 4162 
Q 984 4106 628 3988 
L 628 4550 
Q 988 4650 1302 4700 
Q 1616 4750 1894 4750 
Q 2613 4750 3031 4423 
Q 3450 4097 3450 3541 
Q 3450 3153 3228 2886 
Q 3006 2619 2597 2516 
z
" id="DejaVuSans-33" transform="scale(0.015625)"/>
      </defs>
      <use xlink:href="#DejaVuSans-33"/>
      <use x="63.623047" xlink:href="#DejaVuSans-4f"/>
     </g>
    </g>
    <g id="line2d_20">
     <path d="M 477.07 303.935394 
L 493.07 303.935394 
" style="fill:none;stroke:#f7a35c;stroke-linecap:square;"/>
    </g>
    <g id="line2d_21"/>
    <g id="text_19">
     <!-- P11_1 -->
     <g transform="translate(499.47 306.735394)scale(0.08 -0.08)">
      <defs>
       <path d="M 3263 -1063 
L 3263 -1509 
L -63 -1509 
L -63 -1063 
L 3263 -1063 
z
" id="DejaVuSans-5f" transform="scale(0.015625)"/>
      </defs>
      <use xlink:href="#DejaVuSans-50"/>
      <use x="60.302734" xlink:href="#DejaVuSans-31"/>
      <use x="123.925781" xlink:href="#DejaVuSans-31"/>
      <use x="187.548828" xlink:href="#DejaVuSans-5f"/>
      <use x="237.548828" xlink:href="#DejaVuSans-31"/>
     </g>
    </g>
    <g id="line2d_22">
     <path d="M 704.410938 303.935394 
L 720.410938 303.935394 
" style="fill:none;stroke:#8085e9;stroke-linecap:square;"/>
    </g>
    <g id="line2d_23"/>
    <g id="text_20">
     <!-- P11_2 -->
     <g transform="translate(726.810938 306.735394)scale(0.08 -0.08)">
      <use xlink:href="#DejaVuSans-50"/>
      <use x="60.302734" xlink:href="#DejaVuSans-31"/>
      <use x="123.925781" xlink:href="#DejaVuSans-31"/>
      <use x="187.548828" xlink:href="#DejaVuSans-5f"/>
      <use x="237.548828" xlink:href="#DejaVuSans-32"/>
     </g>
    </g>
    <g id="line2d_24">
     <path d="M 931.751875 303.935394 
L 947.751875 303.935394 
" style="fill:none;stroke:#f15c80;stroke-linecap:square;"/>
    </g>
    <g id="line2d_25"/>
    <g id="text_21">
     <!-- P11_3 -->
     <g transform="translate(954.151875 306.735394)scale(0.08 -0.08)">
      <use xlink:href="#DejaVuSans-50"/>
      <use x="60.302734" xlink:href="#DejaVuSans-31"/>
      <use x="123.925781" xlink:href="#DejaVuSans-31"/>
      <use x="187.548828" xlink:href="#DejaVuSans-5f"/>
      <use x="237.548828" xlink:href="#DejaVuSans-33"/>
     </g>
    </g>
   </g>
  </g>
 </g>
 <defs>
  <clipPath id="p7832b43637">
   <rect height="242.5072" width="944.845" x="40.600625" y="31.48286"/>
  </clipPath>
 </defs>
</svg>
